<svg width="28" height="28" viewBox="0 0 28 28" fill="none" xmlns="http://www.w3.org/2000/svg">
<path d="M21.0003 23.332H15.1669V17.4287C17.7328 17.1418 20.1031 15.9196 21.8248 13.9956C23.5466 12.0715 24.499 9.5806 24.5003 6.9987C24.5061 5.64142 24.2404 4.29669 23.7186 3.0437C23.6582 2.90368 23.571 2.77684 23.4619 2.67036L23.3336 2.57703C23.2591 2.51569 23.1767 2.46468 23.0886 2.42536C22.9852 2.37747 22.875 2.34598 22.7619 2.33203H22.6453H5.35525H5.25025C5.13449 2.33734 5.02029 2.36097 4.91192 2.40203C4.82708 2.45156 4.74527 2.5061 4.66692 2.56536L4.52692 2.67036C4.41779 2.77684 4.33059 2.90368 4.27025 3.0437C3.75247 4.29751 3.49067 5.64221 3.50025 6.9987C3.50148 9.5806 4.45395 12.0715 6.17568 13.9956C7.8974 15.9196 10.2677 17.1418 12.8336 17.4287V23.332H7.00025C6.69083 23.332 6.39409 23.4549 6.1753 23.6737C5.9565 23.8925 5.83359 24.1893 5.83359 24.4987C5.83359 24.8081 5.9565 25.1049 6.1753 25.3237C6.39409 25.5425 6.69083 25.6654 7.00025 25.6654H21.0003C21.3097 25.6654 21.6064 25.5425 21.8252 25.3237C22.044 25.1049 22.1669 24.8081 22.1669 24.4987C22.1669 24.1893 22.044 23.8925 21.8252 23.6737C21.6064 23.4549 21.3097 23.332 21.0003 23.332ZM5.83359 6.9987C5.83141 6.20854 5.9454 5.42236 6.17192 4.66536H21.8286C22.0551 5.42236 22.1691 6.20854 22.1669 6.9987C22.1669 9.16463 21.3065 11.2419 19.775 12.7734C18.2434 14.305 16.1662 15.1654 14.0003 15.1654C11.8343 15.1654 9.7571 14.305 8.22555 12.7734C6.694 11.2419 5.83359 9.16463 5.83359 6.9987Z" fill="#31333B"/>
</svg>
