<svg width="24" height="24" viewBox="0 0 24 24" fill="none" xmlns="http://www.w3.org/2000/svg">
<path d="M21 4H5H4H2V6H4H4.3L7.582 15.025C8.011 16.206 9.145 17 10.401 17H19V15H10.401C9.982 15 9.604 14.735 9.461 14.342L8.973 13H18.246C19.136 13 19.926 12.402 20.169 11.549L21.962 5.275C22.048 4.973 21.987 4.649 21.799 4.398C21.609 4.147 21.313 4 21 4ZM18.246 11H8.246L6.428 6H19.675L18.246 11Z" fill="white"/>
<path d="M10.5 21C11.3284 21 12 20.3284 12 19.5C12 18.6716 11.3284 18 10.5 18C9.67157 18 9 18.6716 9 19.5C9 20.3284 9.67157 21 10.5 21Z" fill="white"/>
<path d="M16.5 21C17.3284 21 18 20.3284 18 19.5C18 18.6716 17.3284 18 16.5 18C15.6716 18 15 18.6716 15 19.5C15 20.3284 15.6716 21 16.5 21Z" fill="white"/>
</svg>
