<svg width="28" height="28" viewBox="0 0 28 28" fill="none" xmlns="http://www.w3.org/2000/svg">
<path d="M12.8347 11.666H15.168V17.4993H12.8347V11.666ZM12.8335 18.666H15.1668V20.9993H12.8335V18.666Z" fill="#31333B"/>
<path d="M16.0627 4.89916C15.6567 4.13499 14.8657 3.66016 14.0001 3.66016C13.1344 3.66016 12.3434 4.13499 11.9374 4.90032L3.3764 21.0738C2.99023 21.8042 3.01357 22.6617 3.4394 23.3698C3.86523 24.0768 4.6119 24.4992 5.4379 24.4992H22.5622C23.3882 24.4992 24.1361 24.0768 24.5619 23.3698C24.9866 22.6628 25.0111 21.8042 24.6249 21.0738L16.0627 4.89916ZM5.4379 22.1658L14.0001 5.99232L22.5681 22.1658H5.4379Z" fill="#31333B"/>
</svg>
