<svg width="24" height="24" viewBox="0 0 24 24" fill="none" xmlns="http://www.w3.org/2000/svg">
<path d="M7 17.0114L11.413 16.9964L21.045 7.45644C21.423 7.07844 21.631 6.57644 21.631 6.04244C21.631 5.50844 21.423 5.00644 21.045 4.62844L19.459 3.04244C18.703 2.28644 17.384 2.29044 16.634 3.03944L7 12.5814V17.0114ZM18.045 4.45644L19.634 6.03944L18.037 7.62144L16.451 6.03644L18.045 4.45644ZM9 13.4154L15.03 7.44244L16.616 9.02844L10.587 14.9994L9 15.0044V13.4154Z" fill="#11C856"/>
<path d="M5 21H19C20.103 21 21 20.103 21 19V10.332L19 12.332V19H8.158C8.132 19 8.105 19.01 8.079 19.01C8.046 19.01 8.013 19.001 7.979 19H5V5H11.847L13.847 3H5C3.897 3 3 3.897 3 5V19C3 20.103 3.897 21 5 21Z" fill="#11C856"/>
</svg>
