<svg width="16" height="16" viewBox="0 0 16 16" fill="none" xmlns="http://www.w3.org/2000/svg">
<path d="M11.607 14.5541C12.3414 13.7196 13.0758 12.8517 13.5431 11.8169C14.0105 10.7153 14.144 9.44683 13.9103 8.24512C13.6766 7.0434 13.1426 5.90844 12.3748 4.9404C12.4415 5.77493 12.1411 6.64283 11.5736 7.27708C11.9075 5.67479 11.3734 3.93897 10.3052 2.6705C9.23699 1.40203 7.76821 0.567466 6.23271 0C7.00046 0.801144 7.1006 2.06961 6.80017 3.13782C6.49974 4.20601 5.86549 5.14068 5.29803 6.10872C4.73056 7.07676 4.19646 8.07819 4.16306 9.17976C3.86263 8.6123 3.52881 8.0448 3.32853 7.41058C3.12824 6.77633 3.0281 6.10872 3.19499 5.47447C2.59414 6.20886 2.26032 6.94323 2.09342 7.8779C1.92653 8.81258 1.95989 9.78062 2.06003 10.7153C2.19356 11.7501 2.4606 12.8183 3.02807 13.6862C3.69568 14.721 4.76389 15.4554 5.93221 15.856C8.00189 16.2232 10.0381 15.9227 11.607 14.5541Z" fill="#E739ED"/>
<path d="M9.07041 15.7884C6.33319 16.8566 3.62933 13.6187 5.13147 11.1151C5.13147 11.0817 5.16487 11.0817 5.16487 11.0483C5.03133 12.4169 5.36515 13.4184 5.9994 13.9859C5.66558 13.1847 5.89926 12.2501 6.29983 11.4489C6.7004 10.6812 7.26787 9.98016 7.70183 9.24576C8.1358 8.47801 8.46958 7.61008 8.2693 6.74219C9.07044 7.34305 9.63791 8.24433 9.87159 9.21237C10.1053 10.1804 9.97173 11.2486 9.53777 12.1499C10.0385 11.7827 10.4057 11.1819 10.4391 10.5476C10.9732 11.1819 11.3069 12.0164 11.2736 12.8509C11.2736 14.1528 10.2388 15.3211 9.07041 15.7884Z" fill="#E739ED"/>
</svg>
