<svg width="24" height="24" viewBox="0 0 24 24" fill="none" xmlns="http://www.w3.org/2000/svg">
<path d="M19.9993 3H3.99933C3.44633 3 2.99933 3.447 2.99933 4V6.59C2.99933 7.113 3.21233 7.627 3.58233 7.997L8.99933 13.414V21C8.99933 21.347 9.17933 21.668 9.47433 21.851C9.63433 21.95 9.81633 22 9.99933 22C10.1523 22 10.3053 21.965 10.4463 21.895L14.4463 19.895C14.7853 19.725 14.9993 19.379 14.9993 19V13.414L20.4163 7.997C20.7863 7.627 20.9993 7.113 20.9993 6.59V4C20.9993 3.447 20.5523 3 19.9993 3ZM13.2923 12.293C13.1043 12.48 12.9993 12.734 12.9993 13V18.382L10.9993 19.382V13C10.9993 12.734 10.8943 12.48 10.7063 12.293L4.99933 6.59V5H19.0003L19.0023 6.583L13.2923 12.293Z" fill="#31333B"/>
</svg>
