<svg width="24" height="24" viewBox="0 0 24 24" fill="none" xmlns="http://www.w3.org/2000/svg">
<path d="M3.00019 13.0002H4.00019V15.0002V20.0002C4.00019 21.1033 4.89719 22.0002 6.00019 22.0002H9.00019H15.0002H18.0002C19.1032 22.0002 20.0002 21.1033 20.0002 20.0002V15.0002V13.0002H21.0002C21.4042 13.0002 21.7702 12.7563 21.9242 12.3833C22.0792 12.0093 21.9932 11.5793 21.7072 11.2933L12.7072 2.29325C12.3162 1.90225 11.6842 1.90225 11.2932 2.29325L2.29319 11.2933C2.00719 11.5793 1.92119 12.0093 2.07619 12.3833C2.23019 12.7563 2.59619 13.0002 3.00019 13.0002ZM10.0002 20.0002V15.0002H14.0002V20.0002H10.0002ZM12.0002 4.41425L18.0002 10.4142V15.0002L18.0012 20.0002H16.0002V15.0002C16.0002 13.8973 15.1032 13.0002 14.0002 13.0002H10.0002C8.89719 13.0002 8.00019 13.8973 8.00019 15.0002V20.0002H6.00019V15.0002V12.0002V10.4142L12.0002 4.41425Z" fill="#31333B"/>
</svg>
