<svg width="24" height="24" viewBox="0 0 24 24" fill="none" xmlns="http://www.w3.org/2000/svg">
<path d="M11.9999 6C9.83092 6 8.06592 7.765 8.06592 9.934H10.0659C10.0659 8.867 10.9339 8 11.9999 8C13.0659 8 13.9339 8.867 13.9339 9.934C13.9339 10.532 13.4529 10.966 12.7179 11.56C12.4629 11.767 12.2219 11.964 12.0269 12.159C11.0289 13.156 10.9999 14.215 10.9999 14.333V15H12.9999L12.9989 14.367C12.9999 14.351 13.0319 13.981 13.4399 13.574C13.5899 13.424 13.7789 13.274 13.9749 13.116C14.7539 12.485 15.9329 11.532 15.9329 9.934C15.9339 7.765 14.1689 6 11.9999 6ZM10.9999 16H12.9999V18H10.9999V16Z" fill="#31333B"/>
<path d="M12 2C6.486 2 2 6.486 2 12C2 17.514 6.486 22 12 22C17.514 22 22 17.514 22 12C22 6.486 17.514 2 12 2ZM12 20C7.589 20 4 16.411 4 12C4 7.589 7.589 4 12 4C16.411 4 20 7.589 20 12C20 16.411 16.411 20 12 20Z" fill="#31333B"/>
</svg>
