<svg width="24" height="24" viewBox="0 0 24 24" fill="none" xmlns="http://www.w3.org/2000/svg">
<path d="M2.99995 12.9998H3.99995V14.9998V19.9998C3.99995 21.1028 4.89694 21.9998 5.99995 21.9998H8.99995H14.9999H17.9999C19.1029 21.9998 19.9999 21.1028 19.9999 19.9998V14.9998V12.9998H20.9999C21.4039 12.9998 21.7699 12.7558 21.9239 12.3828C22.0789 12.0088 21.9929 11.5788 21.7069 11.2928L12.7069 2.29276C12.3159 1.90176 11.6839 1.90176 11.2929 2.29276L2.29295 11.2928C2.00695 11.5788 1.92095 12.0088 2.07595 12.3828C2.22995 12.7558 2.59595 12.9998 2.99995 12.9998ZM9.99994 19.9998V14.9998H13.9999V19.9998H9.99994ZM11.9999 4.41376L17.9999 10.4138V14.9998L18.0009 19.9998H15.9999V14.9998C15.9999 13.8968 15.1029 12.9998 13.9999 12.9998H9.99994C8.89694 12.9998 7.99995 13.8968 7.99995 14.9998V19.9998H5.99995V14.9998V11.9998V10.4138L11.9999 4.41376Z" fill="white"/>
</svg>
