<svg width="20" height="20" viewBox="0 0 20 20" fill="none" xmlns="http://www.w3.org/2000/svg">
<path d="M10.0003 1.66797C5.40533 1.66797 1.66699 5.4063 1.66699 10.0013C1.66699 14.5963 5.40533 18.3346 10.0003 18.3346C14.5953 18.3346 18.3337 14.5963 18.3337 10.0013C18.3337 5.4063 14.5953 1.66797 10.0003 1.66797ZM10.0003 16.668C6.32449 16.668 3.33366 13.6771 3.33366 10.0013C3.33366 6.32547 6.32449 3.33464 10.0003 3.33464C13.6762 3.33464 16.667 6.32547 16.667 10.0013C16.667 13.6771 13.6762 16.668 10.0003 16.668Z" fill="#31333B"/>
<path d="M9.16699 9.16536H10.8337V14.1654H9.16699V9.16536ZM9.16699 5.83203H10.8337V7.4987H9.16699V5.83203Z" fill="#31333B"/>
</svg>
