<svg width="20" height="20" viewBox="0 0 20 20" fill="none" xmlns="http://www.w3.org/2000/svg">
<path d="M9.51642 18.1791C9.66142 18.2816 9.83058 18.3333 9.99975 18.3333C10.1689 18.3333 10.3381 18.2816 10.4831 18.1791C10.7364 17.9983 16.6906 13.7 16.6664 8.33329C16.6664 4.65746 13.6756 1.66663 9.99975 1.66663C6.32391 1.66663 3.33308 4.65746 3.33308 8.32996C3.30891 13.7 9.26308 17.9983 9.51642 18.1791ZM9.99975 3.33329C12.7572 3.33329 14.9997 5.57579 14.9997 8.33663C15.0172 12.035 11.3431 15.3558 9.99975 16.4458C8.65725 15.3558 4.98225 12.035 4.99975 8.33329C4.99975 5.57579 7.24225 3.33329 9.99975 3.33329Z" fill="#7C7B8A"/>
<circle cx="10.0002" cy="8.33329" r="1.66667" fill="#7C7B8A"/>
</svg>
