<svg width="25" height="24" viewBox="0 0 25 24" fill="none" xmlns="http://www.w3.org/2000/svg">
<path d="M21.4084 13.0466C20.7314 13.2266 20.0324 13.3176 19.3314 13.3176C17.1964 13.3176 15.1914 12.4876 13.6854 10.9816C11.6774 8.97362 10.8864 6.01463 11.6214 3.25863C11.7134 2.91363 11.6144 2.54563 11.3624 2.29363C11.1104 2.04163 10.7434 1.93962 10.3964 2.03562C8.69439 2.49062 7.14239 3.38363 5.90739 4.61763C2.00939 8.51562 2.00939 14.8606 5.90739 18.7606C7.79639 20.6496 10.3084 21.6906 12.9794 21.6906C15.6504 21.6906 18.1614 20.6506 20.0494 18.7616C21.2854 17.5246 22.1794 15.9706 22.6324 14.2706C22.7244 13.9256 22.6244 13.5576 22.3724 13.3056C22.1204 13.0526 21.7514 12.9526 21.4084 13.0466ZM18.6364 17.3476C17.1254 18.8586 15.1164 19.6906 12.9804 19.6906C10.8434 19.6906 8.83439 18.8576 7.32239 17.3466C4.20439 14.2276 4.20439 9.15163 7.32239 6.03263C7.92439 5.43063 8.62039 4.93062 9.38239 4.54962C9.16039 7.43462 10.1964 10.3216 12.2724 12.3976C14.3404 14.4666 17.1994 15.5176 20.1204 15.2886C19.7384 16.0476 19.2374 16.7446 18.6364 17.3476Z" fill="#7C7B8A"/>
</svg>
