<svg width="20" height="20" viewBox="0 0 20 20" fill="none" xmlns="http://www.w3.org/2000/svg">
<path d="M1.66831 8.02631C1.64914 8.36881 1.84081 8.68798 2.15247 8.83131L8.40581 11.6996L11.2741 17.9521C11.4108 18.2488 11.7075 18.438 12.0316 18.438C12.0475 18.438 12.0625 18.4371 12.0791 18.4363C12.4208 18.418 12.7166 18.1905 12.8241 17.8646L17.4866 3.67131C17.5841 3.37298 17.5058 3.04381 17.2841 2.82131C17.0625 2.59881 16.7341 2.52298 16.4341 2.61881L2.23997 7.28131C1.91414 7.38881 1.68664 7.68464 1.66831 8.02631ZM15.3883 4.71714L11.9033 15.3255L9.79164 10.7238C9.70747 10.5421 9.56331 10.3963 9.38164 10.3138L4.77831 8.20214L15.3883 4.71714Z" fill="#7C7B8A"/>
</svg>
