<svg width="21" height="20" viewBox="0 0 21 20" fill="none" xmlns="http://www.w3.org/2000/svg">
<path d="M8.83268 9.16776H6.41685C6.41685 9.16526 6.41685 9.16276 6.41768 9.16026C6.47185 8.89443 6.55352 8.63193 6.66018 8.37943C6.76518 8.13193 6.89435 7.89359 7.04435 7.67109C7.19268 7.45109 7.36435 7.24359 7.55268 7.05443C7.74185 6.86609 7.94935 6.69443 8.17102 6.54526C8.39268 6.39526 8.63018 6.26693 8.87768 6.16193C9.12935 6.05526 9.39185 5.97359 9.65935 5.91943C10.2077 5.80693 10.7902 5.80693 11.341 5.91943C11.606 5.97359 11.8693 6.05526 12.1218 6.16193C12.3685 6.26609 12.606 6.39609 12.8302 6.54609C13.0518 6.69526 13.2585 6.86609 13.4452 7.05359L14.6252 5.87693C14.3635 5.61359 14.0718 5.37359 13.7618 5.16443C13.451 4.95443 13.1177 4.77276 12.7718 4.62609C12.4177 4.47609 12.0485 4.36193 11.676 4.28609C10.9068 4.12859 10.0935 4.12859 9.32685 4.28609C8.95268 4.36276 8.58352 4.47693 8.23018 4.62693C7.88102 4.77359 7.54768 4.95443 7.23768 5.16443C6.92935 5.37193 6.63935 5.61193 6.37435 5.87609C6.10935 6.14026 5.87018 6.43109 5.66352 6.73859C5.45352 7.04943 5.27185 7.38276 5.12518 7.73026C4.97518 8.08359 4.86102 8.45276 4.78518 8.82609C4.76185 8.93859 4.74935 9.05359 4.73268 9.16776H2.16602L5.49935 12.5011L8.83268 9.16776ZM12.166 10.8344H14.5819C14.581 10.8369 14.5819 10.8394 14.581 10.8411C14.526 11.1111 14.4444 11.3736 14.3377 11.6228C14.2352 11.8669 14.106 12.1053 13.9552 12.3294C13.806 12.5494 13.6343 12.7578 13.4444 12.9478C13.2569 13.1353 13.0502 13.3061 12.8285 13.4561C12.6052 13.6061 12.3677 13.7353 12.121 13.8403C11.8685 13.9469 11.606 14.0286 11.3393 14.0828C10.7919 14.1953 10.2085 14.1953 9.65852 14.0828C9.39268 14.0286 9.13018 13.9469 8.87768 13.8403C8.63018 13.7353 8.39185 13.6061 8.16935 13.4561C7.94935 13.3078 7.74185 13.1361 7.55268 12.9478L6.37435 14.1261C6.63852 14.3903 6.92935 14.6303 7.23685 14.8378C7.54768 15.0478 7.88102 15.2294 8.22852 15.3761C8.58185 15.5261 8.95102 15.6403 9.32435 15.7161C9.70852 15.7944 10.1035 15.8344 10.4993 15.8344C10.8952 15.8344 11.2902 15.7944 11.6727 15.7161C12.0468 15.6403 12.4169 15.5253 12.7702 15.3753C13.116 15.2286 13.4493 15.0478 13.7602 14.8378C14.0702 14.6286 14.3618 14.3878 14.6227 14.1261C14.8868 13.8619 15.1268 13.5711 15.3352 13.2619C15.5468 12.9478 15.7285 12.6144 15.8727 12.2728C16.021 11.9228 16.1352 11.5536 16.2127 11.1761C16.2352 11.0636 16.2485 10.9486 16.2652 10.8344H18.8327L15.4993 7.50109L12.166 10.8344Z" fill="#31333B"/>
</svg>
