<svg width="29" height="28" viewBox="0 0 29 28" fill="none" xmlns="http://www.w3.org/2000/svg">
<path d="M23.7049 11.7898C23.4553 11.2007 23.1461 10.629 22.7844 10.0912L20.8501 11.3967C21.1278 11.8073 21.3646 12.2448 21.5548 12.6975C21.7508 13.1618 21.9013 13.646 22.0016 14.1325C22.1043 14.6377 22.1568 15.1568 22.1568 15.6772C22.1568 16.1975 22.1043 16.719 22.0016 17.2218C21.9013 17.7095 21.7519 18.1913 21.5536 18.658C21.3646 19.1083 21.1278 19.5458 20.8501 19.9553C20.5771 20.3602 20.2609 20.7417 19.9133 21.0905C19.5668 21.437 19.1853 21.7508 18.7781 22.0262C18.3674 22.3038 17.9311 22.5407 17.4784 22.7308C17.0176 22.9257 16.5346 23.0762 16.0446 23.1777C15.0366 23.3818 13.9609 23.3818 12.9576 23.1777C12.4653 23.0762 11.9811 22.9257 11.5191 22.7297C11.0676 22.5395 10.6313 22.3027 10.2206 22.025C9.81577 21.7532 9.43543 21.4382 9.08777 21.0917C8.73893 20.7417 8.42393 20.359 8.15093 19.9565C7.87443 19.547 7.6376 19.1095 7.4451 18.6557C7.25027 18.1937 7.10093 17.7118 6.99943 17.2207C6.89677 16.7178 6.84427 16.1987 6.84427 15.6772C6.84427 15.1557 6.89677 14.6365 7.0006 14.1325C7.10093 13.6425 7.25027 13.1595 7.4451 12.6975C7.6376 12.2425 7.8756 11.805 8.15093 11.3978C8.42393 10.993 8.73893 10.6115 9.0866 10.2638C9.43193 9.91732 9.81343 9.60232 10.2206 9.32815C10.6289 9.05282 11.0664 8.81482 11.5203 8.62232C11.9811 8.42748 12.4653 8.27698 12.9553 8.17665C13.0801 8.15098 13.2073 8.13932 13.3333 8.11948V11.6673L19.1666 7.00065L13.3333 2.33398V5.76165C13.0498 5.79548 12.7663 5.83398 12.4874 5.89115C11.8458 6.02298 11.2134 6.21898 10.6114 6.47448C10.0176 6.72532 9.44593 7.03565 8.91393 7.39615C8.38427 7.75315 7.88727 8.16265 7.43577 8.61415C6.9831 9.06682 6.5736 9.56382 6.2166 10.0912C5.8561 10.6243 5.54693 11.1948 5.29493 11.7887C5.03943 12.393 4.84343 13.0242 4.71277 13.6647C4.57743 14.3215 4.50977 14.9993 4.50977 15.6783C4.50977 16.3573 4.5786 17.034 4.71277 17.6908C4.8446 18.3337 5.0406 18.9648 5.29493 19.5657C5.54577 20.1595 5.8561 20.7312 6.2166 21.2643C6.57243 21.7893 6.98193 22.2863 7.43577 22.7437C7.8896 23.1963 8.38543 23.6058 8.9116 23.9605C9.4471 24.3233 10.0188 24.6337 10.6103 24.8822C11.2123 25.1365 11.8434 25.3337 12.4874 25.4655C13.1454 25.5985 13.8221 25.6673 14.4999 25.6673C15.1778 25.6673 15.8544 25.5985 16.5148 25.4643C17.1576 25.3313 17.7888 25.1353 18.3861 24.8822C18.9776 24.6337 19.5504 24.3233 20.0859 23.9605C20.6144 23.6035 21.1114 23.194 21.5653 22.7402C22.0179 22.2863 22.4274 21.7905 22.7844 21.2632C23.1484 20.7242 23.4564 20.1525 23.7038 19.5657C23.9604 18.959 24.1576 18.3278 24.2871 17.6897C24.4213 17.0328 24.4901 16.355 24.4901 15.6772C24.4901 15.0005 24.4213 14.3227 24.2871 13.6647C24.1564 13.0277 23.9593 12.3965 23.7049 11.7898Z" fill="#31333B"/>
</svg>
