<svg width="25" height="24" viewBox="0 0 25 24" fill="none" xmlns="http://www.w3.org/2000/svg">
<path d="M7.32605 12C7.32605 14.761 9.57205 17.007 12.3331 17.007C15.0941 17.007 17.3401 14.761 17.3401 12C17.3401 9.239 15.0941 6.993 12.3331 6.993C9.57205 6.993 7.32605 9.239 7.32605 12ZM12.3331 8.993C13.9911 8.993 15.3401 10.342 15.3401 12C15.3401 13.658 13.9911 15.007 12.3331 15.007C10.6751 15.007 9.32605 13.658 9.32605 12C9.32605 10.342 10.6751 8.993 12.3331 8.993ZM11.3311 19H13.3311V22H11.3311V19ZM11.3311 2H13.3311V5H11.3311V2ZM2.33105 11H5.33105V13H2.33105V11ZM19.3311 11H22.3311V13H19.3311V11Z" fill="#ECB94F"/>
<path d="M4.55225 18.3633L6.67294 16.2413L8.08757 17.6551L5.96688 19.7771L4.55225 18.3633Z" fill="#ECB94F"/>
<path d="M16.5732 6.34375L18.6952 4.22168L20.1095 5.63587L17.9875 7.75794L16.5732 6.34375Z" fill="#ECB94F"/>
<path d="M6.6748 7.75781L4.55411 5.63586L5.96875 4.22207L8.08944 6.34402L6.6748 7.75781Z" fill="#ECB94F"/>
<path d="M20.1089 18.3633L18.6947 19.7775L16.5726 17.6555L17.9868 16.2413L20.1089 18.3633Z" fill="#ECB94F"/>
</svg>
