<svg width="32" height="32" viewBox="0 0 32 32" fill="none" xmlns="http://www.w3.org/2000/svg">
<path d="M8.68798 19.0967L6.70131 27.6993C6.57865 28.2313 6.79198 28.7847 7.24265 29.0954C7.47065 29.2527 7.73465 29.3327 7.99998 29.3327C8.25732 29.3327 8.51598 29.258 8.73998 29.1087L16 24.2687L23.26 29.1087C23.724 29.418 24.3333 29.406 24.7866 29.0767C25.2373 28.7474 25.436 28.17 25.2826 27.634L22.844 19.1007L28.892 13.658C29.288 13.3007 29.4333 12.7434 29.2626 12.2393C29.0907 11.7353 28.636 11.3807 28.1053 11.338L20.504 10.7327L17.2146 3.45135C17 2.97268 16.524 2.66602 16 2.66602C15.476 2.66602 15 2.97268 14.7853 3.45135L11.496 10.7327L3.89465 11.3367C3.37198 11.378 2.92265 11.7207 2.74665 12.2127C2.56798 12.7047 2.69598 13.2553 3.06932 13.6207L8.68798 19.0967ZM12.492 13.3287C12.976 13.29 13.4026 12.9913 13.6013 12.5473L16 7.23935L18.3986 12.5473C18.5973 12.9913 19.024 13.29 19.508 13.3287L24.804 13.7487L20.4426 17.674C20.064 18.0153 19.9133 18.5407 20.052 19.0313L21.7226 24.878L16.7413 21.5567C16.2933 21.2567 15.7106 21.2567 15.2626 21.5567L10.0573 25.0273L11.4573 18.966C11.5613 18.5127 11.4226 18.0367 11.0893 17.7127L7.03865 13.7633L12.492 13.3287Z" fill="#EAEFF5"/>
</svg>
