<svg width="24" height="24" viewBox="0 0 24 24" fill="none" xmlns="http://www.w3.org/2000/svg">
<path d="M12.9968 7.05374V3.99974C12.9968 3.59574 13.2398 3.23074 13.6138 3.07574C13.9868 2.92174 14.4178 3.00674 14.7038 3.29274L21.7038 10.2927C22.0948 10.6837 22.0948 11.3157 21.7038 11.7067L14.7038 18.7067C14.4168 18.9937 13.9868 19.0787 13.6138 18.9237C13.2398 18.7687 12.9968 18.4037 12.9968 17.9997V14.9037C12.7128 14.8837 12.4318 14.8747 12.1538 14.8747C6.72782 14.8747 3.91482 18.4467 3.79182 18.6047C3.59982 18.8587 3.30282 18.9997 2.99682 18.9997C2.89082 18.9997 2.78282 18.9827 2.67882 18.9477C2.27182 18.8107 1.99682 18.4297 1.99682 17.9997C1.99682 8.87574 10.0828 7.31874 12.9968 7.05374ZM12.1538 12.8747C12.8008 12.8747 13.4658 12.9197 14.1288 13.0077C14.6258 13.0747 14.9968 13.4987 14.9968 13.9997V15.5857L19.5828 10.9997L14.9968 6.41374V7.99974C14.9968 8.55174 14.5258 8.99974 13.9748 8.99974C13.0648 8.99974 5.86082 9.20074 4.29582 15.4247C5.94982 14.2067 8.57682 12.8747 12.1538 12.8747Z" fill="#31333B"/>
</svg>
