<svg width="20" height="20" viewBox="0 0 20 20" fill="none" xmlns="http://www.w3.org/2000/svg">
<path d="M4.16911 16.667C4.16911 17.5862 4.91661 18.3337 5.83577 18.3337H14.1691C15.0883 18.3337 15.8358 17.5862 15.8358 16.667V6.66699H17.5024V5.00033H15.0024H14.1691V3.33366C14.1691 2.41449 13.4216 1.66699 12.5024 1.66699H7.50244C6.58327 1.66699 5.83577 2.41449 5.83577 3.33366V5.00033H5.00244H2.50244V6.66699H4.16911V16.667ZM7.50244 3.33366H12.5024V5.00033H7.50244V3.33366ZM6.66911 6.66699H13.3358H14.1691L14.1699 16.667H5.83577V6.66699H6.66911Z" fill="#21A453"/>
<path d="M7.50244 8.33301H9.16911V14.9997H7.50244V8.33301ZM10.8358 8.33301H12.5024V14.9997H10.8358V8.33301Z" fill="#21A453"/>
</svg>
