<svg width="40" height="40" viewBox="0 0 40 40" fill="none" xmlns="http://www.w3.org/2000/svg">
<path d="M39.894 14.358C39.636 13.602 38.954 13.068 38.158 13.006L26.756 12.1L21.822 1.178C21.5 0.46 20.786 0 20 0C19.214 0 18.5 0.46 18.178 1.176L13.244 12.1L1.84196 13.006C1.05996 13.068 0.385958 13.582 0.119958 14.32C-0.146042 15.058 0.0419579 15.884 0.603958 16.432L9.02996 24.646L6.04996 37.55C5.86596 38.348 6.18796 39.178 6.86196 39.644C7.20596 39.88 7.60196 40 7.99996 40C8.38596 40 8.77396 39.888 9.10996 39.664L20 32.404L30.89 39.664C31.586 40.128 32.5 40.11 33.18 39.616C33.856 39.122 34.154 38.256 33.924 37.452L30.266 24.652L39.338 16.488C39.932 15.952 40.15 15.116 39.894 14.358Z" fill="#ECB94F"/>
</svg>
