<svg width="16" height="16" viewBox="0 0 16 16" fill="none" xmlns="http://www.w3.org/2000/svg">
<path d="M14.6314 6.1195C14.5454 5.8675 14.3181 5.6895 14.0527 5.66883L10.2521 5.36683L8.6074 1.72616C8.50007 1.48683 8.26207 1.3335 8.00007 1.3335C7.73807 1.3335 7.50007 1.48683 7.39273 1.7255L5.74807 5.36683L1.9474 5.66883C1.68673 5.6895 1.46207 5.86083 1.3734 6.10683C1.28473 6.35283 1.3474 6.62816 1.53473 6.81083L4.3434 9.54883L3.35007 13.8502C3.28873 14.1162 3.39607 14.3928 3.62073 14.5482C3.7354 14.6268 3.8674 14.6668 4.00007 14.6668C4.12873 14.6668 4.25807 14.6295 4.37007 14.5548L8.00007 12.1348L11.6301 14.5548C11.8621 14.7095 12.1667 14.7035 12.3934 14.5388C12.6187 14.3742 12.7181 14.0855 12.6414 13.8175L11.4221 9.55083L14.4461 6.8295C14.6441 6.65083 14.7167 6.37216 14.6314 6.1195Z" fill="#ECB94F"/>
</svg>
