<svg width="16" height="16" viewBox="0 0 16 16" fill="none" xmlns="http://www.w3.org/2000/svg">
<path d="M3.34999 13.8502C3.28866 14.1162 3.39532 14.3928 3.62066 14.5482C3.73532 14.6268 3.86732 14.6668 3.99999 14.6668C4.12866 14.6668 4.25799 14.6295 4.36999 14.5548L7.99999 12.1348L11.63 14.5548C11.862 14.7095 12.166 14.7035 12.3933 14.5388C12.6187 14.3742 12.718 14.0855 12.6413 13.8175L11.422 9.55083L14.446 6.8295C14.644 6.6515 14.7167 6.37216 14.6313 6.12016C14.5453 5.86816 14.318 5.69016 14.0527 5.6695L10.252 5.36683L8.60732 1.72616C8.49999 1.48683 8.26199 1.3335 7.99999 1.3335C7.73799 1.3335 7.49999 1.48683 7.39266 1.7255L5.74799 5.36683L1.94732 5.66883C1.68599 5.6895 1.46132 5.86083 1.37332 6.10683C1.28399 6.35283 1.34799 6.62816 1.53466 6.81083L4.34399 9.54883L3.34999 13.8502ZM7.99999 3.6195L9.36132 6.6335L9.75332 6.66483C9.75399 6.66483 9.75399 6.66483 9.75399 6.66483L12.402 6.87483L10.2213 8.8375C10.2207 8.83816 10.2207 8.83816 10.2207 8.83883L9.91199 9.11616L10.026 9.51416C10.026 9.51416 10.026 9.5155 10.026 9.51616L10.8613 12.4395L7.99999 10.5322V3.6195Z" fill="#ECB94F"/>
</svg>
