<svg width="24" height="24" viewBox="0 0 24 24" fill="none" xmlns="http://www.w3.org/2000/svg">
<path fill-rule="evenodd" clip-rule="evenodd" d="M19.8293 16H21V12.5352L18.2243 10.6847L16.382 7H3V16H4.17071C4.58254 14.8348 5.69378 14 7 14C8.30622 14 9.41746 14.8348 9.82929 16H14.1707C14.5825 14.8348 15.6938 14 17 14C18.3062 14 19.4175 14.8348 19.8293 16ZM19.8293 18C19.4175 19.1652 18.3062 20 17 20C15.6938 20 14.5825 19.1652 14.1707 18H9.82929C9.41746 19.1652 8.30622 20 7 20C5.69378 20 4.58254 19.1652 4.17071 18H3C1.89543 18 1 17.1046 1 16V7C1 5.89543 1.89543 5 3 5H16.382C17.1395 5 17.832 5.428 18.1708 6.10557L19.7757 9.31526L23 11.4648V16C23 17.1046 22.1046 18 21 18H19.8293ZM7 18C7.55228 18 8 17.5523 8 17C8 16.4477 7.55228 16 7 16C6.44772 16 6 16.4477 6 17C6 17.5523 6.44772 18 7 18ZM17 18C17.5523 18 18 17.5523 18 17C18 16.4477 17.5523 16 17 16C16.4477 16 16 16.4477 16 17C16 17.5523 16.4477 18 17 18Z" fill="#31333B"/>
</svg>
