<svg width="15" height="25" viewBox="0 0 15 25" fill="none" xmlns="http://www.w3.org/2000/svg">
<path fill-rule="evenodd" clip-rule="evenodd" d="M8.17216 24.7098C7.80094 25.0707 7.19906 25.0707 6.82784 24.7098L0.778416 18.8285C0.407193 18.4676 0.407193 17.8825 0.778416 17.5216C1.14964 17.1607 1.75151 17.1607 2.12273 17.5216L6.54941 21.8252L6.5494 13.8902L8.45055 13.8902L8.45056 21.8252L12.8773 17.5216C13.2485 17.1607 13.8504 17.1607 14.2216 17.5216C14.5928 17.8825 14.5928 18.4676 14.2216 18.8285L8.17216 24.7098ZM8.45017 8.33034C8.45038 6.7339 8.45 6.99299 8.45017 8.33034L6.54902 8.33057C6.54885 6.99517 6.54864 6.73537 6.54844 8.33152C6.54807 7.88144 6.54773 7.45576 6.54765 0.980493L8.4488 0.98047C8.44888 7.45584 8.44981 7.88101 8.45017 8.33034Z" fill="#11C856"/>
</svg>
