<svg width="31" height="32" viewBox="0 0 31 32" fill="none" xmlns="http://www.w3.org/2000/svg">
<g filter="url(#filter0_d)">
<path d="M15.5 17.8417C14.3678 17.8417 13.261 17.5036 12.3196 16.8702C11.3782 16.2368 10.6444 15.3365 10.2112 14.2831C9.77787 13.2298 9.66451 12.0707 9.88539 10.9525C10.1063 9.83427 10.6515 8.80711 11.4521 8.00092C12.2527 7.19472 13.2727 6.6457 14.3832 6.42327C15.4936 6.20084 16.6446 6.315 17.6907 6.75131C18.7367 7.18762 19.6308 7.92648 20.2598 8.87447C20.8888 9.82245 21.2246 10.937 21.2246 12.0771C21.2233 13.6056 20.6198 15.0712 19.5465 16.152C18.4732 17.2328 17.0179 17.8405 15.5 17.8417Z" fill="#E92F48"/>
<path d="M18.6489 4.0422L15.8302 1.20374C15.7874 1.15907 15.7362 1.12354 15.6795 1.09928C15.6228 1.07501 15.5618 1.0625 15.5002 1.0625C15.4386 1.0625 15.3776 1.07501 15.3209 1.09928C15.2642 1.12354 15.213 1.15907 15.1702 1.20374L12.3514 4.0422C12.2796 4.10567 12.2292 4.19016 12.2074 4.28387C12.1856 4.37758 12.1934 4.47581 12.2298 4.56482C12.2662 4.65383 12.3292 4.72916 12.4102 4.78028C12.4912 4.83139 12.586 4.85573 12.6814 4.8499H13.6669V8.34836H17.3335V4.8499H18.3189C18.4144 4.85573 18.5092 4.83139 18.5902 4.78028C18.6712 4.72916 18.7342 4.65383 18.7706 4.56482C18.807 4.47581 18.8148 4.37758 18.793 4.28387C18.7712 4.19016 18.7208 4.10567 18.6489 4.0422Z" fill="#E92F48"/>
<path d="M12.3514 20.1772L15.1702 23.0157C15.213 23.0604 15.2642 23.0959 15.3209 23.1202C15.3776 23.1444 15.4386 23.157 15.5002 23.157C15.5618 23.157 15.6228 23.1444 15.6795 23.1202C15.7362 23.0959 15.7874 23.0604 15.8302 23.0157L18.6489 20.1772C18.7208 20.1138 18.7712 20.0293 18.793 19.9356C18.8148 19.8419 18.807 19.7436 18.7706 19.6546C18.7342 19.5656 18.6712 19.4903 18.5902 19.4392C18.5092 19.3881 18.4144 19.3637 18.3189 19.3696H17.3335V15.8711H13.6669V19.3696H12.6814C12.586 19.3637 12.4912 19.3881 12.4102 19.4392C12.3292 19.4903 12.2662 19.5656 12.2298 19.6546C12.1934 19.7436 12.1856 19.8419 12.2074 19.9356C12.2292 20.0293 12.2796 20.1138 12.3514 20.1772Z" fill="#E92F48"/>
<path d="M23.5128 15.28L26.3316 12.4416C26.3759 12.3985 26.4112 12.3469 26.4353 12.2898C26.4594 12.2327 26.4718 12.1713 26.4718 12.1092C26.4718 12.0472 26.4594 11.9858 26.4353 11.9287C26.4112 11.8716 26.3759 11.82 26.3316 11.7769L23.5128 8.93848C23.4498 8.86611 23.3659 8.8154 23.2728 8.79343C23.1798 8.77146 23.0822 8.77934 22.9938 8.81596C22.9054 8.85258 22.8306 8.91612 22.7799 8.99767C22.7291 9.07922 22.7049 9.17471 22.7107 9.27078V10.2631L20.9736 13.9554V17.6477L22.7107 13.9554V14.9477C22.7049 15.0438 22.7291 15.1393 22.7799 15.2208C22.8306 15.3024 22.9054 15.3659 22.9938 15.4025C23.0822 15.4391 23.1798 15.447 23.2728 15.4251C23.3659 15.4031 23.4498 15.3524 23.5128 15.28Z" fill="#E92F48"/>
<path d="M7.48929 8.93848L4.67054 11.7769C4.62618 11.82 4.59089 11.8716 4.56679 11.9287C4.54269 11.9858 4.53027 12.0472 4.53027 12.1092C4.53027 12.1713 4.54269 12.2327 4.56679 12.2898C4.59089 12.3469 4.62618 12.3985 4.67054 12.4416L7.48929 15.28C7.55231 15.3524 7.63621 15.4031 7.72927 15.4251C7.82233 15.447 7.91988 15.4391 8.00827 15.4025C8.09666 15.3659 8.17147 15.3024 8.22223 15.2208C8.27299 15.1393 8.29717 15.0438 8.29137 14.9477V13.9554H11.7655V10.2631H8.29137V9.27078C8.29717 9.17471 8.27299 9.07922 8.22223 8.99767C8.17147 8.91612 8.09666 8.85258 8.00827 8.81596C7.91988 8.77934 7.82233 8.77146 7.72927 8.79343C7.63621 8.8154 7.55231 8.86611 7.48929 8.93848Z" fill="#E92F48"/>
<path d="M15.5003 10.0039C15.0933 10.0039 14.6954 10.1254 14.357 10.3532C14.0186 10.5809 13.7548 10.9045 13.599 11.2832C13.4433 11.6618 13.4025 12.0785 13.4819 12.4805C13.5613 12.8825 13.7573 13.2517 14.0451 13.5416C14.3329 13.8314 14.6996 14.0287 15.0988 14.1087C15.498 14.1887 15.9118 14.1476 16.2878 13.9908C16.6639 13.8339 16.9853 13.5683 17.2114 13.2275C17.4375 12.8867 17.5582 12.4861 17.5582 12.0762C17.5582 11.5266 17.3414 10.9995 16.9555 10.6109C16.5695 10.2222 16.0461 10.0039 15.5003 10.0039Z" fill="white"/>
</g>
<defs>
<filter id="filter0_d" x="-0.5" y="0" width="32" height="32" filterUnits="userSpaceOnUse" color-interpolation-filters="sRGB">
<feFlood flood-opacity="0" result="BackgroundImageFix"/>
<feColorMatrix in="SourceAlpha" type="matrix" values="0 0 0 0 0 0 0 0 0 0 0 0 0 0 0 0 0 0 127 0" result="hardAlpha"/>
<feOffset dy="4"/>
<feGaussianBlur stdDeviation="2"/>
<feComposite in2="hardAlpha" operator="out"/>
<feColorMatrix type="matrix" values="0 0 0 0 0 0 0 0 0 0 0 0 0 0 0 0 0 0 0.25 0"/>
<feBlend mode="normal" in2="BackgroundImageFix" result="effect1_dropShadow"/>
<feBlend mode="normal" in="SourceGraphic" in2="effect1_dropShadow" result="shape"/>
</filter>
</defs>
</svg>
