<svg width="18" height="16" viewBox="0 0 18 16" fill="none" xmlns="http://www.w3.org/2000/svg">
<path d="M16.8723 3.08751L11.8723 0.587515C11.6382 0.470015 11.3615 0.470015 11.1265 0.587515L6.49984 2.90168L1.87234 0.587515C1.614 0.459181 1.3065 0.471681 1.0615 0.624181C0.816504 0.776681 0.666504 1.04418 0.666504 1.33335V12.1667C0.666504 12.4825 0.844837 12.7708 1.12734 12.9125L6.12734 15.4125C6.3615 15.53 6.63817 15.53 6.87317 15.4125L11.4998 13.0983L16.1273 15.4117C16.2448 15.4708 16.3723 15.5 16.4998 15.5C16.6523 15.5 16.804 15.4583 16.9373 15.3758C17.1832 15.2233 17.3332 14.9558 17.3332 14.6667V3.83335C17.3332 3.51751 17.1548 3.22918 16.8723 3.08751ZM7.33317 4.34835L10.6665 2.68168V11.6517L7.33317 13.3183V4.34835ZM2.33317 2.68168L5.6665 4.34835V13.3183L2.33317 11.6517V2.68168ZM15.6665 13.3183L12.3332 11.6517V2.68168L15.6665 4.34835V13.3183Z" fill="#31333B"/>
</svg>
