<svg width="23" height="27" viewBox="0 0 23 27" fill="none" xmlns="http://www.w3.org/2000/svg">
<path fill-rule="evenodd" clip-rule="evenodd" d="M7.08803 25.8966L7.54247 22.9984L6.53015 22.9746H1.69617L5.05562 1.5874C5.06608 1.52263 5.09992 1.46251 5.14933 1.41975C5.19898 1.37698 5.26227 1.35352 5.32847 1.35352H13.4793C16.1855 1.35352 18.0529 1.91879 19.0277 3.03467C19.4848 3.55815 19.7759 4.10534 19.9168 4.70727C20.0646 5.33902 20.067 6.09369 19.9229 7.01431L19.9125 7.08127V7.67123L20.3696 7.93126C20.7544 8.1363 21.0603 8.37091 21.295 8.6395C21.6859 9.08722 21.9388 9.65616 22.0456 10.3304C22.1561 11.024 22.1196 11.8496 21.9388 12.7841C21.7302 13.8589 21.3931 14.7952 20.9377 15.5611C20.519 16.2669 19.9855 16.8524 19.3519 17.306C18.747 17.7371 18.0285 18.0644 17.216 18.2738C16.4286 18.4796 15.531 18.5835 14.5464 18.5835H13.9121C13.4586 18.5835 13.0181 18.7474 12.6722 19.0414C12.3253 19.3416 12.0961 19.7516 12.0257 20.2001L11.9778 20.4611L11.1748 25.5696L11.1385 25.757C11.1288 25.8164 11.1122 25.846 11.0879 25.866C11.0662 25.8843 11.0351 25.8966 11.0046 25.8966H7.08803Z" fill="#28356A"/>
<path fill-rule="evenodd" clip-rule="evenodd" d="M20.8029 7.14941C20.7788 7.30558 20.7508 7.46516 20.7196 7.62915C19.6448 13.1704 15.9672 15.0847 11.2705 15.0847H8.87904C8.30461 15.0847 7.82048 15.5034 7.73115 16.0723L6.15999 26.0788C6.10181 26.4525 6.38854 26.789 6.76387 26.789H11.0054C11.5076 26.789 11.9342 26.4227 12.0133 25.9254L12.055 25.7091L12.8536 20.6206L12.9049 20.3415C12.9831 19.8425 13.4107 19.4759 13.9129 19.4759H14.5472C18.6566 19.4759 21.8736 17.8009 22.8139 12.9532C23.2065 10.9282 23.0032 9.23723 21.9639 8.04803C21.6494 7.68951 21.2593 7.39185 20.8029 7.14941Z" fill="#298FC2"/>
<path fill-rule="evenodd" clip-rule="evenodd" d="M19.6779 6.69888C19.5136 6.65074 19.3442 6.60723 19.1704 6.56789C18.9957 6.52952 18.8168 6.49555 18.6325 6.46573C17.9877 6.36113 17.2811 6.31152 16.5244 6.31152H10.1358C9.9783 6.31152 9.82885 6.3472 9.69522 6.41172C9.40046 6.55396 9.18164 6.83403 9.12858 7.17691L7.76941 15.82L7.73047 16.0719C7.8198 15.503 8.30393 15.0844 8.87836 15.0844H11.2698C15.9665 15.0844 19.6441 13.1691 20.7189 7.62878C20.7511 7.4648 20.7781 7.30521 20.8022 7.14905C20.5303 7.00412 20.2358 6.88022 19.9186 6.77464C19.8403 6.74849 19.7595 6.72332 19.6779 6.69888Z" fill="#22284F"/>
<path fill-rule="evenodd" clip-rule="evenodd" d="M9.12891 7.17725C9.18197 6.83437 9.40079 6.5543 9.69555 6.41304C9.83015 6.34828 9.97863 6.3126 10.1361 6.3126H16.5247C17.2815 6.3126 17.9881 6.36245 18.6328 6.46705C18.8171 6.49662 18.996 6.53084 19.1707 6.5692C19.3445 6.60831 19.5139 6.65205 19.6782 6.69995C19.7598 6.72439 19.8406 6.74981 19.9197 6.77498C20.2369 6.88056 20.5316 7.00544 20.8035 7.14938C21.1233 5.10165 20.8008 3.70741 19.6982 2.44489C18.4824 1.0548 16.2884 0.459961 13.4807 0.459961H5.32963C4.75617 0.459961 4.26693 0.8786 4.17833 1.44852L0.783347 23.0557C0.716411 23.4831 1.04476 23.8688 1.47412 23.8688H6.50624L9.12891 7.17725Z" fill="#28356A"/>
</svg>
