<svg width="22" height="22" viewBox="0 0 22 22" fill="none" xmlns="http://www.w3.org/2000/svg">
<path fill-rule="evenodd" clip-rule="evenodd" d="M3.22183 18.7782C2.29761 17.854 2.03247 16.4442 2.32231 14.5944C0.809377 13.4914 0 12.307 0 11C0 9.69297 0.809377 8.50862 2.32231 7.40558C2.03247 5.55582 2.29761 4.14604 3.22183 3.22183C4.14604 2.29761 5.55582 2.03247 7.40558 2.32231C8.50862 0.809377 9.69297 0 11 0C12.307 0 13.4914 0.809377 14.5944 2.32231C16.4442 2.03247 17.854 2.29761 18.7782 3.22183C19.7024 4.14604 19.9675 5.55582 19.6777 7.40558C21.1906 8.50862 22 9.69297 22 11C22 12.307 21.1906 13.4914 19.6777 14.5944C19.9675 16.4442 19.7024 17.854 18.7782 18.7782C17.854 19.7024 16.4442 19.9675 14.5944 19.6777C13.4914 21.1906 12.307 22 11 22C9.69297 22 8.50862 21.1906 7.40558 19.6777C5.55582 19.9675 4.14604 19.7024 3.22183 18.7782ZM7.65258 17.598C8.05851 17.5111 8.47594 17.684 8.7015 18.0325C9.58226 19.3933 10.3676 20 11 20C11.6324 20 12.4177 19.3933 13.2985 18.0325C13.5241 17.684 13.9415 17.5111 14.3474 17.598C15.9325 17.9374 16.9168 17.8111 17.364 17.364C17.8111 16.9168 17.9374 15.9325 17.598 14.3474C17.5111 13.9415 17.684 13.5241 18.0325 13.2985C19.3933 12.4177 20 11.6324 20 11C20 10.3676 19.3933 9.58226 18.0325 8.7015C17.684 8.47594 17.5111 8.05851 17.598 7.65258C17.9374 6.06755 17.8111 5.08319 17.364 4.63604C16.9168 4.18889 15.9325 4.06256 14.3474 4.40202C13.9415 4.48895 13.5241 4.31605 13.2985 3.96754C12.4177 2.60672 11.6324 2 11 2C10.3676 2 9.58226 2.60672 8.7015 3.96754C8.47594 4.31605 8.05851 4.48895 7.65258 4.40202C6.06755 4.06256 5.08319 4.18889 4.63604 4.63604C4.18889 5.08319 4.06256 6.06755 4.40202 7.65258C4.48895 8.05851 4.31605 8.47594 3.96754 8.7015C2.60672 9.58226 2 10.3676 2 11C2 11.6324 2.60672 12.4177 3.96754 13.2985C4.31605 13.5241 4.48895 13.9415 4.40202 14.3474C4.06256 15.9325 4.18889 16.9168 4.63604 17.364C5.08319 17.8111 6.06755 17.9374 7.65258 17.598ZM10 11.5858L14.2929 7.29289L15.7071 8.70711L10 14.4142L6.29289 10.7071L7.70711 9.29289L10 11.5858Z" fill="#21A453"/>
</svg>
