<svg width="167" height="55" viewBox="0 0 167 55" fill="none" xmlns="http://www.w3.org/2000/svg">
<path d="M159.5 0H7.5C3.63401 0 0.5 3.13401 0.5 7V48C0.5 51.866 3.63401 55 7.5 55H159.5C163.366 55 166.5 51.866 166.5 48V7C166.5 3.13401 163.366 0 159.5 0Z" fill="black"/>
<path d="M34.764 27.9127C34.778 26.7657 35.0851 25.6407 35.6551 24.6417C36.2251 23.6437 37.04 22.8047 38.023 22.2037C37.399 21.3167 36.5741 20.5867 35.6161 20.0717C34.6571 19.5567 33.591 19.2707 32.502 19.2377C30.179 18.9947 27.927 20.6187 26.744 20.6187C25.537 20.6187 23.715 19.2617 21.752 19.3017C20.482 19.3427 19.245 19.7087 18.161 20.3667C17.077 21.0237 16.182 21.9487 15.5641 23.0527C12.8891 27.6567 14.885 34.4227 17.447 38.1447C18.73 39.9667 20.2281 42.0027 22.1891 41.9297C24.1081 41.8507 24.824 40.7137 27.14 40.7137C29.435 40.7137 30.107 41.9297 32.108 41.8847C34.167 41.8507 35.464 40.0537 36.701 38.2147C37.623 36.9157 38.332 35.4807 38.802 33.9617C37.606 33.4587 36.585 32.6177 35.867 31.5417C35.149 30.4657 34.765 29.2037 34.764 27.9127Z" fill="white"/>
<path d="M30.9848 16.7902C32.1078 15.4502 32.6607 13.7292 32.5267 11.9902C30.8117 12.1692 29.2278 12.9842 28.0898 14.2722C27.5338 14.9022 27.1068 15.6342 26.8358 16.4272C26.5648 17.2202 26.4528 18.0582 26.5078 18.8942C27.3658 18.9032 28.2138 18.7182 28.9898 18.3542C29.7648 17.9892 30.4478 17.4552 30.9848 16.7902Z" fill="white"/>
<path d="M59.018 37.3174H52.47L50.897 41.9324H48.124L54.326 24.8574H57.208L63.41 41.9324H60.589L59.018 37.3174ZM53.148 35.1874H58.338L55.78 27.6974H55.708L53.148 35.1874Z" fill="white"/>
<path d="M76.8029 35.7079C76.8029 39.5769 74.7199 42.0619 71.5769 42.0619C70.7799 42.1039 69.9879 41.9219 69.2919 41.5359C68.5949 41.1509 68.0209 40.5789 67.6359 39.8839H67.5769V46.0509H65.0059V29.4829H67.4939V31.5539H67.5419C67.9439 30.8629 68.5269 30.2939 69.2299 29.9059C69.9319 29.5179 70.7269 29.3269 71.5289 29.3529C74.7079 29.3529 76.8029 31.8509 76.8029 35.7079ZM74.1609 35.7079C74.1609 33.1879 72.8509 31.5309 70.8509 31.5309C68.8869 31.5309 67.5659 33.2229 67.5659 35.7079C67.5659 38.2169 68.8869 39.8969 70.8509 39.8969C72.8509 39.8969 74.1609 38.2519 74.1609 35.7079Z" fill="white"/>
<path d="M90.589 35.7079C90.589 39.5769 88.505 42.0619 85.362 42.0619C84.566 42.1039 83.774 41.9219 83.077 41.5359C82.38 41.1509 81.806 40.5789 81.421 39.8839H81.362V46.0499H78.791V29.4829H81.279V31.5539H81.327C81.729 30.8629 82.313 30.2939 83.015 29.9059C83.717 29.5179 84.512 29.3269 85.315 29.3529C88.493 29.3529 90.589 31.8509 90.589 35.7079ZM87.946 35.7079C87.946 33.1879 86.636 31.5309 84.636 31.5309C82.672 31.5309 81.351 33.2229 81.351 35.7079C81.351 38.2169 82.672 39.8969 84.636 39.8969C86.636 39.8969 87.946 38.2519 87.946 35.7079Z" fill="white"/>
<path d="M99.6993 37.1752C99.8893 38.8682 101.544 39.9802 103.806 39.9802C105.973 39.9802 107.532 38.8682 107.532 37.3412C107.532 36.0162 106.591 35.2222 104.365 34.6782L102.139 34.1453C98.9843 33.3883 97.5204 31.9222 97.5204 29.5422C97.5204 26.5962 100.103 24.5732 103.771 24.5732C107.401 24.5732 109.889 26.5962 109.973 29.5422H107.378C107.222 27.8382 105.805 26.8102 103.734 26.8102C101.663 26.8102 100.246 27.8502 100.246 29.3652C100.246 30.5722 101.151 31.2832 103.365 31.8262L105.258 32.2883C108.782 33.1173 110.247 34.5242 110.247 37.0222C110.247 40.2162 107.687 42.2172 103.615 42.2172C99.8064 42.2172 97.2344 40.2632 97.0674 37.1752H99.6993Z" fill="white"/>
<path d="M115.796 26.5371V29.4831H118.177V31.5071H115.796V38.3701C115.796 39.4361 116.272 39.9331 117.319 39.9331C117.602 39.9281 117.884 39.9081 118.165 39.8741V41.8851C117.694 41.9731 117.216 42.0121 116.737 42.0031C114.201 42.0031 113.213 41.0572 113.213 38.6422V31.5071H111.392V29.4831H113.213V26.5371H115.796Z" fill="white"/>
<path d="M119.557 35.7081C119.557 31.7921 121.877 29.3301 125.497 29.3301C129.128 29.3301 131.438 31.7921 131.438 35.7081C131.438 39.6361 129.14 42.087 125.497 42.087C121.854 42.087 119.557 39.6361 119.557 35.7081ZM128.818 35.7081C128.818 33.0221 127.58 31.436 125.497 31.436C123.413 31.436 122.176 33.0341 122.176 35.7081C122.176 38.4061 123.413 39.98 125.497 39.98C127.58 39.98 128.818 38.4061 128.818 35.7081Z" fill="white"/>
<path d="M133.557 29.4827H136.009V31.6017H136.068C136.234 30.9397 136.624 30.3557 137.173 29.9457C137.721 29.5357 138.395 29.3267 139.081 29.3527C139.377 29.3517 139.672 29.3837 139.961 29.4477V31.8387C139.587 31.7247 139.197 31.6727 138.806 31.6837C138.433 31.6687 138.061 31.7347 137.715 31.8757C137.369 32.0177 137.059 32.2318 136.804 32.5038C136.55 32.7758 136.357 33.0987 136.241 33.4517C136.124 33.8047 136.085 34.1787 136.127 34.5477V41.9317H133.557V29.4827Z" fill="white"/>
<path d="M151.814 38.2761C151.468 40.5361 149.254 42.087 146.421 42.087C142.778 42.087 140.517 39.6601 140.517 35.7681C140.517 31.8631 142.79 29.3301 146.313 29.3301C149.778 29.3301 151.957 31.6961 151.957 35.4711V36.3461H143.112V36.501C143.071 36.959 143.129 37.42 143.281 37.855C143.433 38.289 143.677 38.6861 143.996 39.0201C144.314 39.3531 144.701 39.6151 145.129 39.7891C145.558 39.9631 146.018 40.044 146.481 40.027C147.088 40.083 147.698 39.9441 148.219 39.6281C148.74 39.3131 149.145 38.8381 149.373 38.2761H151.814ZM143.124 34.5601H149.385C149.408 34.1481 149.346 33.736 149.201 33.35C149.056 32.963 148.832 32.61 148.544 32.313C148.255 32.017 147.908 31.783 147.525 31.626C147.141 31.469 146.728 31.3921 146.313 31.4011C145.895 31.3981 145.48 31.478 145.092 31.636C144.705 31.794 144.353 32.0261 144.056 32.3201C143.76 32.6141 143.525 32.9631 143.365 33.3481C143.205 33.7321 143.123 34.1441 143.124 34.5601Z" fill="white"/>
<path d="M52.8257 12.0046C53.3647 11.9656 53.9057 12.0466 54.4097 12.2416C54.9127 12.4356 55.3668 12.7387 55.7388 13.1287C56.1098 13.5187 56.3897 13.9857 56.5577 14.4967C56.7257 15.0067 56.7778 15.5486 56.7098 16.0806C56.7098 18.7026 55.2847 20.2086 52.8257 20.2086H49.8447V12.0046H52.8257ZM51.1268 19.0487H52.6827C53.0677 19.0717 53.4537 19.0086 53.8107 18.8646C54.1687 18.7206 54.4898 18.4996 54.7498 18.2166C55.0108 17.9346 55.2047 17.5977 55.3177 17.2307C55.4317 16.8647 55.4608 16.4777 55.4048 16.0977C55.4568 15.7197 55.4248 15.3356 55.3098 14.9716C55.1948 14.6076 54.9997 14.2736 54.7397 13.9926C54.4797 13.7126 54.1607 13.4926 53.8047 13.3496C53.4487 13.2056 53.0657 13.1426 52.6827 13.1636H51.1268V19.0487Z" fill="white"/>
<path d="M58.158 17.1115C58.119 16.7045 58.166 16.2935 58.296 15.9055C58.426 15.5185 58.6359 15.1614 58.9119 14.8594C59.1889 14.5564 59.5259 14.3144 59.9019 14.1494C60.2779 13.9844 60.685 13.8984 61.096 13.8984C61.507 13.8984 61.9139 13.9844 62.2899 14.1494C62.6659 14.3144 63.003 14.5564 63.28 14.8594C63.556 15.1614 63.766 15.5185 63.896 15.9055C64.026 16.2935 64.073 16.7045 64.034 17.1115C64.073 17.5185 64.027 17.9294 63.898 18.3184C63.768 18.7064 63.5579 19.0635 63.2819 19.3665C63.0049 19.6695 62.668 19.9125 62.291 20.0775C61.915 20.2435 61.508 20.3294 61.096 20.3294C60.684 20.3294 60.277 20.2435 59.901 20.0775C59.524 19.9125 59.1869 19.6695 58.9099 19.3665C58.6339 19.0635 58.424 18.7064 58.294 18.3184C58.165 17.9294 58.119 17.5185 58.158 17.1115ZM62.7689 17.1115C62.7689 15.7695 62.163 14.9844 61.098 14.9844C60.029 14.9844 59.4279 15.7695 59.4279 17.1115C59.4279 18.4645 60.029 19.2424 61.098 19.2424C62.163 19.2424 62.7689 18.4585 62.7689 17.1115Z" fill="white"/>
<path d="M71.8429 20.2086H70.5679L69.2799 15.6486H69.1829L67.9009 20.2086H66.6379L64.9209 14.0176H66.1679L67.2839 18.7416H67.3759L68.6559 14.0176H69.8359L71.1159 18.7416H71.2129L72.3239 14.0176H73.5529L71.8429 20.2086Z" fill="white"/>
<path d="M74.9971 14.0176H76.1801V15.0006H76.272C76.428 14.6476 76.691 14.3516 77.024 14.1536C77.357 13.9556 77.744 13.8666 78.131 13.8976C78.434 13.8746 78.739 13.9206 79.022 14.0306C79.305 14.1406 79.5591 14.3126 79.7661 14.5336C79.9731 14.7546 80.1281 15.0196 80.2181 15.3086C80.3081 15.5966 80.332 15.9016 80.287 16.2006V20.2086H79.058V16.5076C79.058 15.5126 78.6231 15.0176 77.7141 15.0176C77.5081 15.0076 77.3031 15.0426 77.1121 15.1196C76.9211 15.1966 76.7491 15.3136 76.6071 15.4626C76.4661 15.6116 76.3591 15.7886 76.2931 15.9826C76.2271 16.1766 76.2051 16.3826 76.2261 16.5866V20.2086H74.9971V14.0176Z" fill="white"/>
<path d="M82.2461 11.6006H83.4751V20.2086H82.2461V11.6006Z" fill="white"/>
<path d="M85.1849 17.1115C85.1459 16.7045 85.1919 16.2935 85.3219 15.9055C85.4519 15.5185 85.6619 15.1614 85.9389 14.8584C86.2149 14.5564 86.5529 14.3144 86.9289 14.1494C87.3049 13.9844 87.7109 13.8984 88.1229 13.8984C88.5339 13.8984 88.9409 13.9844 89.3169 14.1494C89.6929 14.3144 90.0299 14.5564 90.3069 14.8584C90.5829 15.1614 90.7929 15.5185 90.9229 15.9055C91.0529 16.2935 91.0999 16.7045 91.0609 17.1115C91.0999 17.5185 91.0539 17.9294 90.9249 18.3184C90.7949 18.7064 90.5849 19.0635 90.3089 19.3665C90.0319 19.6695 89.6939 19.9125 89.3179 20.0775C88.9419 20.2435 88.5339 20.3294 88.1229 20.3294C87.7109 20.3294 87.3039 20.2435 86.9269 20.0775C86.5509 19.9125 86.2129 19.6695 85.9369 19.3665C85.6599 19.0635 85.4499 18.7064 85.3209 18.3184C85.1909 17.9294 85.1449 17.5185 85.1849 17.1115ZM89.7949 17.1115C89.7949 15.7695 89.1889 14.9844 88.1239 14.9844C87.0559 14.9844 86.4549 15.7695 86.4549 17.1115C86.4549 18.4645 87.0559 19.2424 88.1239 19.2424C89.1889 19.2424 89.7949 18.4585 89.7949 17.1115Z" fill="white"/>
<path d="M92.3535 18.4584C92.3535 17.3444 93.1885 16.7014 94.6705 16.6104L96.3585 16.5134V15.9794C96.3585 15.3254 95.9235 14.9564 95.0825 14.9564C94.3965 14.9564 93.9215 15.2064 93.7845 15.6444H92.5945C92.7205 14.5804 93.7265 13.8984 95.1395 13.8984C96.7015 13.8984 97.5825 14.6714 97.5825 15.9794V20.2094H96.3985V19.3394H96.3015C96.1035 19.6514 95.8265 19.9064 95.4975 20.0764C95.1695 20.2474 94.8005 20.3284 94.4305 20.3114C94.1685 20.3384 93.9045 20.3104 93.6545 20.2304C93.4045 20.1494 93.1745 20.0174 92.9785 19.8434C92.7825 19.6684 92.6265 19.4554 92.5185 19.2164C92.4115 18.9784 92.3555 18.7194 92.3535 18.4584ZM96.3585 17.9294V17.4114L94.8365 17.5084C93.9795 17.5654 93.5905 17.8554 93.5905 18.4014C93.5905 18.9584 94.0765 19.2834 94.7455 19.2834C94.9415 19.3024 95.1395 19.2834 95.3275 19.2254C95.5155 19.1674 95.6895 19.0724 95.8405 18.9464C95.9905 18.8194 96.1145 18.6644 96.2035 18.4904C96.2925 18.3154 96.3445 18.1244 96.3585 17.9294Z" fill="white"/>
<path d="M99.1982 17.1106C99.1982 15.1536 100.21 13.9146 101.784 13.9146C102.173 13.8966 102.56 13.9896 102.898 14.1816C103.236 14.3736 103.512 14.6585 103.694 15.0005H103.786V11.6006H105.015V20.2086H103.837V19.2306H103.74C103.544 19.5706 103.258 19.8516 102.914 20.0416C102.569 20.2326 102.178 20.3255 101.784 20.3105C100.199 20.3105 99.1982 19.0716 99.1982 17.1106ZM100.468 17.1106C100.468 18.4236 101.091 19.2136 102.132 19.2136C103.169 19.2136 103.809 18.4126 103.809 17.1156C103.809 15.8256 103.162 15.0126 102.132 15.0126C101.098 15.0126 100.468 15.8076 100.468 17.1106Z" fill="white"/>
<path d="M110.102 17.1115C110.063 16.7045 110.109 16.2935 110.239 15.9055C110.369 15.5185 110.579 15.1614 110.856 14.8594C111.132 14.5564 111.469 14.3144 111.845 14.1494C112.221 13.9844 112.628 13.8984 113.039 13.8984C113.451 13.8984 113.857 13.9844 114.233 14.1494C114.609 14.3144 114.946 14.5564 115.223 14.8594C115.5 15.1614 115.71 15.5185 115.839 15.9055C115.969 16.2935 116.016 16.7045 115.977 17.1115C116.017 17.5185 115.971 17.9294 115.841 18.3184C115.712 18.7064 115.502 19.0635 115.225 19.3665C114.948 19.6695 114.611 19.9125 114.235 20.0775C113.858 20.2435 113.451 20.3294 113.039 20.3294C112.628 20.3294 112.22 20.2435 111.844 20.0775C111.468 19.9125 111.13 19.6695 110.854 19.3665C110.577 19.0635 110.367 18.7064 110.238 18.3184C110.108 17.9294 110.062 17.5185 110.102 17.1115ZM114.712 17.1115C114.712 15.7695 114.106 14.9844 113.041 14.9844C111.973 14.9844 111.372 15.7695 111.372 17.1115C111.372 18.4645 111.973 19.2424 113.041 19.2424C114.106 19.2424 114.712 18.4585 114.712 17.1115Z" fill="white"/>
<path d="M117.626 14.0176H118.809V15.0006H118.901C119.057 14.6476 119.32 14.3516 119.653 14.1536C119.986 13.9556 120.373 13.8666 120.76 13.8976C121.063 13.8746 121.368 13.9206 121.651 14.0306C121.934 14.1406 122.188 14.3126 122.395 14.5336C122.602 14.7546 122.757 15.0196 122.847 15.3086C122.937 15.5966 122.961 15.9016 122.916 16.2006V20.2086H121.687V16.5076C121.687 15.5126 121.252 15.0176 120.343 15.0176C120.137 15.0076 119.931 15.0426 119.74 15.1196C119.55 15.1966 119.377 15.3136 119.236 15.4626C119.095 15.6116 118.988 15.7886 118.922 15.9826C118.856 16.1766 118.834 16.3826 118.855 16.5866V20.2086H117.626V14.0176Z" fill="white"/>
<path d="M129.862 12.4756V14.0456H131.212V15.0746H129.862V18.2585C129.862 18.9065 130.131 19.1906 130.743 19.1906C130.9 19.1906 131.056 19.1806 131.212 19.1626V20.1806C130.991 20.2196 130.767 20.2406 130.543 20.2426C129.176 20.2426 128.631 19.7646 128.631 18.5716V15.0746H127.643V14.0456H128.631V12.4756H129.862Z" fill="white"/>
<path d="M132.892 11.6006H134.11V15.0126H134.207C134.371 14.6556 134.641 14.3575 134.981 14.1595C135.321 13.9605 135.714 13.8716 136.107 13.9026C136.408 13.8866 136.71 13.9366 136.989 14.0496C137.269 14.1626 137.521 14.3356 137.725 14.5556C137.93 14.7766 138.084 15.0386 138.175 15.3246C138.266 15.6116 138.292 15.9135 138.252 16.2115V20.2086H137.021V16.5126C137.021 15.5236 136.558 15.0226 135.689 15.0226C135.478 15.0056 135.266 15.0345 135.067 15.1075C134.868 15.1805 134.687 15.2956 134.538 15.4456C134.389 15.5946 134.274 15.7746 134.202 15.9726C134.13 16.1716 134.102 16.3826 134.121 16.5926V20.2086H132.892V11.6006Z" fill="white"/>
<path d="M145.42 18.5375C145.253 19.1035 144.891 19.5935 144.397 19.9205C143.904 20.2485 143.31 20.3925 142.72 20.3295C142.31 20.3395 141.902 20.2615 141.525 20.1005C141.148 19.9385 140.811 19.6975 140.537 19.3935C140.264 19.0895 140.06 18.7295 139.94 18.3395C139.82 17.9495 139.787 17.5375 139.843 17.1335C139.788 16.7275 139.822 16.3155 139.942 15.9235C140.061 15.5325 140.264 15.1715 140.536 14.8645C140.809 14.5575 141.144 14.3125 141.52 14.1465C141.896 13.9795 142.303 13.8955 142.715 13.8985C144.448 13.8985 145.494 15.0755 145.494 17.0195V17.4465H141.095V17.5145C141.076 17.7415 141.105 17.9705 141.18 18.1865C141.254 18.4015 141.374 18.5995 141.53 18.7665C141.686 18.9335 141.876 19.0655 142.087 19.1555C142.297 19.2455 142.525 19.2905 142.754 19.2885C143.048 19.3235 143.346 19.2705 143.61 19.1375C143.874 19.0035 144.092 18.7945 144.236 18.5375H145.42ZM141.095 16.5425H144.241C144.257 16.3345 144.229 16.1255 144.158 15.9295C144.088 15.7335 143.977 15.5545 143.832 15.4035C143.688 15.2515 143.513 15.1325 143.32 15.0525C143.126 14.9725 142.918 14.9335 142.708 14.9385C142.496 14.9355 142.285 14.9755 142.088 15.0555C141.891 15.1345 141.712 15.2525 141.561 15.4025C141.411 15.5515 141.292 15.7295 141.212 15.9255C141.132 16.1215 141.092 16.3315 141.095 16.5425Z" fill="white"/>
</svg>
