<svg width="185" height="55" viewBox="0 0 185 55" fill="none" xmlns="http://www.w3.org/2000/svg">
<path d="M177.5 0H7.5C3.63401 0 0.5 3.13401 0.5 7V48C0.5 51.866 3.63401 55 7.5 55H177.5C181.366 55 184.5 51.866 184.5 48V7C184.5 3.13401 181.366 0 177.5 0Z" fill="black"/>
<path d="M65.0997 14.0253C65.0997 15.1253 64.8297 16.0873 64.1497 16.7753C63.3297 17.6003 62.3797 18.0123 61.1497 18.0123C59.9297 18.0123 58.9697 17.6003 58.1497 16.7753C57.3397 15.9503 56.9297 14.9873 56.9297 13.7503C56.9297 12.5123 57.3397 11.5503 58.1497 10.7253C58.9697 9.90028 59.9297 9.4873 61.1497 9.4873C61.6997 9.4873 62.2397 9.62533 62.7897 9.90033C63.3297 10.1753 63.7397 10.4503 64.0097 10.8623L63.3297 11.5503C62.7897 10.8623 62.1097 10.5873 61.1497 10.5873C60.3297 10.5873 59.5197 10.8623 58.9697 11.5503C58.2897 12.1003 58.0197 12.9253 58.0197 13.8873C58.0197 14.8503 58.2897 15.6753 58.9697 16.2253C59.6497 16.7753 60.3297 17.1873 61.1497 17.1873C62.1097 17.1873 62.7897 16.9123 63.4697 16.2253C63.8797 15.8123 64.1497 15.2623 64.1497 14.5753H61.1497V13.6123H65.0997C65.0997 13.6123 65.0997 13.8873 65.0997 14.0253Z" fill="white" stroke="white" stroke-width="0.2" stroke-miterlimit="10"/>
<path d="M71.3696 10.587H67.6896V13.2H71.0996V14.162H67.6896V16.775H71.3696V17.875H66.5996V9.625H71.3696V10.587Z" fill="white" stroke="white" stroke-width="0.2" stroke-miterlimit="10"/>
<path d="M75.87 17.875H74.78V10.587H72.46V9.625H78.1899V10.587H75.87V17.875Z" fill="white" stroke="white" stroke-width="0.2" stroke-miterlimit="10"/>
<path d="M82.1396 17.875V9.625H83.2296V17.875H82.1396Z" fill="white" stroke="white" stroke-width="0.2" stroke-miterlimit="10"/>
<path d="M87.87 17.875H86.78V10.587H84.46V9.625H90.05V10.587H87.73V17.875H87.87Z" fill="white" stroke="white" stroke-width="0.2" stroke-miterlimit="10"/>
<path d="M100.81 16.7753C99.9999 17.6003 99.0398 18.0123 97.8198 18.0123C96.5898 18.0123 95.6398 17.6003 94.8198 16.7753C93.9998 15.9503 93.5898 14.9873 93.5898 13.7503C93.5898 12.5123 93.9998 11.5503 94.8198 10.7253C95.6398 9.90028 96.5898 9.4873 97.8198 9.4873C99.0398 9.4873 99.9999 9.90028 100.81 10.7253C101.63 11.5503 102.04 12.5123 102.04 13.7503C102.04 14.9873 101.63 15.9503 100.81 16.7753ZM95.6399 16.0873C96.1799 16.6373 96.9998 17.0503 97.8198 17.0503C98.6298 17.0503 99.4499 16.7753 99.9999 16.0873C100.54 15.5373 100.95 14.7123 100.95 13.7503C100.95 12.7873 100.68 11.9623 99.9999 11.4123C99.4499 10.8623 98.6298 10.4503 97.8198 10.4503C96.9998 10.4503 96.1799 10.7253 95.6399 11.4123C95.0899 11.9623 94.6799 12.7873 94.6799 13.7503C94.6799 14.7123 94.9499 15.5373 95.6399 16.0873Z" fill="white" stroke="white" stroke-width="0.2" stroke-miterlimit="10"/>
<path d="M103.54 17.875V9.625H104.77L108.72 16.087V14.437V9.625H109.81V17.875H108.72L104.49 11.137V12.787V17.875H103.54Z" fill="white" stroke="white" stroke-width="0.2" stroke-miterlimit="10"/>
<path d="M93.3195 29.9747C90.0495 29.9747 87.4595 32.4497 87.4595 35.8877C87.4595 39.1877 90.0495 41.7997 93.3195 41.7997C96.5895 41.7997 99.1796 39.3247 99.1796 35.8877C99.1796 32.3127 96.5895 29.9747 93.3195 29.9747ZM93.3195 39.3247C91.5495 39.3247 90.0496 37.8127 90.0496 35.7497C90.0496 33.6877 91.5495 32.1747 93.3195 32.1747C95.0895 32.1747 96.5895 33.5497 96.5895 35.7497C96.5895 37.8127 95.0895 39.3247 93.3195 39.3247ZM80.6395 29.9747C77.3695 29.9747 74.7795 32.4497 74.7795 35.8877C74.7795 39.1877 77.3695 41.7997 80.6395 41.7997C83.9095 41.7997 86.4995 39.3247 86.4995 35.8877C86.4995 32.3127 83.9095 29.9747 80.6395 29.9747ZM80.6395 39.3247C78.8695 39.3247 77.3695 37.8127 77.3695 35.7497C77.3695 33.6877 78.8695 32.1747 80.6395 32.1747C82.4095 32.1747 83.9095 33.5497 83.9095 35.7497C83.9095 37.8127 82.4095 39.3247 80.6395 39.3247ZM65.5095 31.7627V34.2377H71.3695C71.2395 35.6127 70.6895 36.7127 70.0095 37.3997C69.1895 38.2247 67.8295 39.1877 65.5095 39.1877C61.8295 39.1877 59.1095 36.2997 59.1095 32.5877C59.1095 28.8747 61.9695 25.9877 65.5095 25.9877C67.4195 25.9877 68.9195 26.8127 70.0095 27.7747L71.7795 25.9877C70.2795 24.6127 68.3795 23.5127 65.6495 23.5127C60.7395 23.5127 56.5195 27.6377 56.5195 32.5877C56.5195 37.5377 60.7395 41.6627 65.6495 41.6627C68.3795 41.6627 70.2796 40.8377 71.9196 39.0497C73.5496 37.3997 74.0995 35.0627 74.0995 33.2747C74.0995 32.7247 74.0995 32.1747 73.9595 31.7627H65.5095ZM127.39 33.6877C126.85 32.3127 125.479 29.9747 122.479 29.9747C119.489 29.9747 117.03 32.3127 117.03 35.8877C117.03 39.1877 119.49 41.7997 122.76 41.7997C125.35 41.7997 126.98 40.1497 127.53 39.1877L125.62 37.8127C124.94 38.7747 124.12 39.4627 122.76 39.4627C121.39 39.4627 120.58 38.9127 119.9 37.6747L127.66 34.3747L127.39 33.6877ZM119.49 35.6127C119.49 33.4127 121.259 32.1747 122.479 32.1747C123.439 32.1747 124.39 32.7247 124.67 33.4127L119.49 35.6127ZM113.079 41.2497H115.67V24.0627H113.079V41.2497ZM108.99 31.2127C108.31 30.5247 107.219 29.8377 105.859 29.8377C102.989 29.8377 100.27 32.4497 100.27 35.7497C100.27 39.0497 102.859 41.5247 105.859 41.5247C107.219 41.5247 108.309 40.8377 108.859 40.1497H108.99V40.9747C108.99 43.1747 107.759 44.4127 105.859 44.4127C104.359 44.4127 103.27 43.3127 102.99 42.3497L100.81 43.3127C101.5 44.8247 103.13 46.7497 105.99 46.7497C108.99 46.7497 111.439 44.9627 111.439 40.6997V30.2497H108.99V31.2127ZM105.99 39.3247C104.22 39.3247 102.719 37.8127 102.719 35.7497C102.719 33.6877 104.22 32.1747 105.99 32.1747C107.76 32.1747 109.13 33.6877 109.13 35.7497C109.13 37.8127 107.76 39.3247 105.99 39.3247ZM139.25 24.0627H133.12V41.2497H135.709V34.7877H139.25C142.11 34.7877 144.839 32.7247 144.839 29.4247C144.839 26.1247 142.11 24.0627 139.25 24.0627ZM139.39 32.3127H135.709V26.3997H139.39C141.29 26.3997 142.38 28.0497 142.38 29.2877C142.25 30.7997 141.16 32.3127 139.39 32.3127ZM155.06 29.8377C153.15 29.8377 151.24 30.6627 150.56 32.4497L152.88 33.4127C153.42 32.4497 154.239 32.1747 155.199 32.1747C156.559 32.1747 157.79 32.9997 157.92 34.3747V34.5127C157.51 34.2377 156.419 33.8247 155.329 33.8247C152.879 33.8247 150.43 35.1997 150.43 37.6747C150.43 40.0127 152.47 41.5247 154.65 41.5247C156.42 41.5247 157.24 40.6997 157.92 39.8747H158.06V41.2497H160.51V34.6497C160.24 31.6247 157.92 29.8377 155.06 29.8377ZM154.79 39.3247C153.97 39.3247 152.74 38.9127 152.74 37.8127C152.74 36.4377 154.239 36.0247 155.469 36.0247C156.559 36.0247 157.1 36.2997 157.79 36.5747C157.51 38.2247 156.15 39.3247 154.79 39.3247ZM169.099 30.2497L166.24 37.6747H166.099L163.099 30.2497H160.38L164.87 40.6997L162.28 46.4747H164.87L171.819 30.2497H169.099ZM146.199 41.2497H148.79V24.0627H146.199V41.2497Z" fill="white"/>
<path d="M14.6752 10.3125C14.2662 10.7255 13.9932 11.4125 13.9932 12.2375V42.6255C13.9932 43.4505 14.2662 44.1375 14.6752 44.5505L14.8112 44.6875L31.7122 27.6375V27.5005V27.3625L14.6752 10.3125Z" fill="url(#paint0_linear)"/>
<path d="M37.2999 33.4116L31.7119 27.7747V27.4996V27.3616L37.2999 21.7246L37.4359 21.8616L44.1149 25.7116C46.0199 26.8116 46.0199 28.5996 44.1149 29.6996L37.2999 33.4116Z" fill="url(#paint1_linear)"/>
<path d="M37.4358 33.275L31.7118 27.5L14.6748 44.687C15.3558 45.375 16.3098 45.375 17.5368 44.825L37.4358 33.275Z" fill="url(#paint2_linear)"/>
<path d="M37.4358 21.7251L17.5368 10.3121C16.3098 9.6251 15.3558 9.7621 14.6748 10.4501L31.7118 27.5001L37.4358 21.7251Z" fill="url(#paint3_linear)"/>
<path opacity="0.2" d="M37.2998 33.1367L17.5368 44.4117C16.4468 45.0997 15.4928 44.9617 14.8108 44.4117L14.6748 44.5497L14.8108 44.6867C15.4928 45.2367 16.4468 45.3747 17.5368 44.6867L37.2998 33.1367Z" fill="black"/>
<path opacity="0.12" d="M14.6749 44.4123C14.2659 44.0003 14.1299 43.3123 14.1299 42.4873V42.6253C14.1299 43.4503 14.4019 44.1373 14.8109 44.5503V44.4123H14.6749Z" fill="black"/>
<path opacity="0.12" d="M44.1148 29.287L37.2998 33.137L37.4358 33.275L44.1148 29.425C45.0698 28.875 45.4798 28.187 45.4798 27.5C45.4798 28.187 44.9318 28.737 44.1148 29.287Z" fill="black"/>
<path opacity="0.25" d="M17.5369 10.4504L44.1149 25.7124C44.9329 26.2624 45.4799 26.8124 45.4799 27.5004C45.4799 26.8124 45.0699 26.1254 44.1149 25.5754L17.5369 10.3124C15.6289 9.21242 14.1299 10.1754 14.1299 12.3754V12.5124C14.1299 10.3124 15.6289 9.35042 17.5369 10.4504Z" fill="white"/>
<defs>
<linearGradient id="paint0_linear" x1="30.2122" y1="11.9765" x2="7.13716" y2="34.8495" gradientUnits="userSpaceOnUse">
<stop stop-color="#00A0FF"/>
<stop offset="0.00657445" stop-color="#00A1FF"/>
<stop offset="0.2601" stop-color="#00BEFF"/>
<stop offset="0.5122" stop-color="#00D2FF"/>
<stop offset="0.7604" stop-color="#00DFFF"/>
<stop offset="1" stop-color="#00E3FF"/>
</linearGradient>
<linearGradient id="paint1_linear" x1="46.6199" y1="27.5016" x2="13.6359" y2="27.5016" gradientUnits="userSpaceOnUse">
<stop stop-color="#FFE000"/>
<stop offset="0.4087" stop-color="#FFBD00"/>
<stop offset="0.7754" stop-color="#FFA500"/>
<stop offset="1" stop-color="#FF9C00"/>
</linearGradient>
<linearGradient id="paint2_linear" x1="34.3378" y1="30.657" x2="3.04677" y2="61.674" gradientUnits="userSpaceOnUse">
<stop stop-color="#FF3A44"/>
<stop offset="1" stop-color="#C31162"/>
</linearGradient>
<linearGradient id="paint3_linear" x1="10.4458" y1="0.242106" x2="24.4188" y2="14.0931" gradientUnits="userSpaceOnUse">
<stop stop-color="#32A071"/>
<stop offset="0.0685" stop-color="#2DA771"/>
<stop offset="0.4762" stop-color="#15CF74"/>
<stop offset="0.8009" stop-color="#06E775"/>
<stop offset="1" stop-color="#00F076"/>
</linearGradient>
</defs>
</svg>
