<svg width="96" height="96" viewBox="0 0 96 96" fill="none" xmlns="http://www.w3.org/2000/svg">
<path d="M38.1594 81.6001H33.3594V84.0001H38.1594V81.6001Z" fill="#A74700"/>
<path d="M82.0799 80.3998H65.2799C63.8399 80.3998 62.8799 79.4398 62.8799 77.9998V29.9998C62.8799 25.9198 65.9999 22.7998 70.0799 22.7998H77.2799C81.3599 22.7998 84.4799 25.9198 84.4799 29.9998V77.9998C84.4799 79.4398 83.5199 80.3998 82.0799 80.3998Z" fill="#86CAFF"/>
<path d="M84.4799 77.9998C84.4799 79.1998 83.2799 80.3998 82.0799 80.3998H65.2799C64.0799 80.3998 62.8799 79.1998 62.8799 77.9998V29.9998C62.8799 27.3598 64.0799 25.1998 66.2399 23.7598C65.5199 24.9598 65.2799 26.1598 65.2799 27.5998V75.5998C65.2799 76.7998 66.4799 77.9998 67.6799 77.9998H84.4799Z" fill="#6BB0F2"/>
<path d="M77.2801 17.0396H70.0801V22.7996H77.2801V17.0396Z" fill="#6BB0F2"/>
<path d="M78.4797 17.9998H68.8797C68.1597 17.9998 67.6797 17.5198 67.6797 16.7998V11.9998C67.6797 11.2798 68.1597 10.7998 68.8797 10.7998H78.4797C79.1997 10.7998 79.6797 11.2798 79.6797 11.9998V16.7998C79.6797 17.5198 79.1997 17.9998 78.4797 17.9998Z" fill="#86CAFF"/>
<path d="M84.4797 37.1997H67.6797V59.9997H84.4797V37.1997Z" fill="#E9F3FF"/>
<path d="M84.4797 57.5997V59.9997H67.6797V37.1997H70.0797V55.1997C70.0797 56.6397 71.0397 57.5997 72.4797 57.5997H84.4797Z" fill="#B2DCFF"/>
<path d="M79.6797 13.1997H67.6797V14.3997H79.6797V13.1997Z" fill="#E9F3FF"/>
<path d="M43.92 44.1593C43.44 44.1593 42.96 43.6793 42.96 43.1993V35.2793C42.96 34.7993 43.44 34.3193 43.92 34.3193C44.4 34.3193 44.88 34.7993 44.88 35.2793V43.1993C44.64 43.9193 44.4 44.1593 43.92 44.1593Z" fill="#372D40"/>
<path d="M53.0397 45.3592C51.5997 41.0392 46.7997 40.7992 45.8397 41.5192C45.5997 41.7592 45.1197 42.2392 44.8797 42.2392C44.1597 42.4792 43.4397 42.4792 42.9597 41.9992C42.7197 41.7592 42.2397 41.7592 41.9997 41.5192C41.0397 40.7992 36.2397 40.7992 34.7997 45.3592C33.3597 49.6792 35.2797 52.5592 35.7597 53.7592C36.2397 54.9592 38.3997 58.7992 39.1197 59.2792C39.5997 59.7592 41.5197 60.2392 43.1997 59.7592C43.6797 59.5192 44.3997 59.5192 44.8797 59.7592C46.3197 60.2392 48.2397 59.7592 48.9597 59.2792C49.6797 58.7992 51.5997 54.7192 52.3197 53.7592C52.5597 52.5592 54.4797 49.6792 53.0397 45.3592Z" fill="#EB3A3F"/>
<path d="M49.9203 57.3595C49.4403 58.3195 48.9603 59.0395 48.7203 59.2795C48.2403 59.7595 46.3203 60.2395 44.6403 59.7595C44.1603 59.5195 43.4403 59.5195 42.9603 59.7595C41.5203 60.2395 39.3603 59.7595 38.8803 59.2795C38.1603 58.7995 36.2403 54.7195 35.5203 53.7595C35.0403 52.5595 32.8803 49.6795 34.5603 45.3595C35.0403 43.6795 36.2403 42.7195 37.4403 41.9995C37.2003 42.2395 37.2003 42.7195 36.9603 42.9595C35.2803 47.2795 37.4403 50.1595 37.9203 51.3595C38.6403 52.5595 40.5603 56.3995 41.2803 56.8795C41.7603 57.3595 43.6803 57.8395 45.3603 57.3595C45.8403 57.1195 46.5603 57.1195 47.0403 57.3595C48.0003 57.8395 49.2003 57.5995 49.9203 57.3595Z" fill="#BC272B"/>
<path d="M40.8003 32.6395C42.2403 34.3195 43.4403 37.4395 43.9203 39.3595C44.1603 40.0795 43.4403 40.7995 42.7203 40.5595C40.8003 39.8395 37.6803 38.3995 36.2403 36.7195C34.8003 35.0395 33.6003 31.9195 33.1203 29.9995C32.8803 29.2795 33.6003 28.5595 34.3203 28.7995C36.2403 29.5195 39.3603 30.9595 40.8003 32.6395Z" fill="#55D6B3"/>
<path d="M67.4405 52.7998C66.2405 58.0798 60.7205 61.1998 55.4405 59.7598C54.9605 59.5198 54.2405 59.2798 53.7605 59.0398C50.4005 57.3598 48.4805 53.9998 48.4805 50.3998C48.4805 46.7998 50.4005 43.9198 53.2805 42.2398C55.2005 41.2798 56.6405 36.4798 56.6405 36.2398C57.3605 33.5998 60.0005 31.9198 62.6405 32.8798C62.8805 32.8798 63.1205 33.1198 63.3605 33.1198C65.0405 33.8398 66.0005 35.5198 66.0005 37.4398C66.0005 38.1598 65.7605 38.8798 65.5205 39.5998C64.5605 41.7598 65.0405 43.6798 66.2405 45.3598C67.6805 47.2798 68.1605 50.1598 67.4405 52.7998Z" fill="#55D6B3"/>
<path d="M62.6405 32.8798C60.7205 33.1198 59.2805 34.5598 58.8005 36.4798C58.8005 36.7198 57.3605 41.7598 55.4405 42.7198C52.5605 44.3998 50.4005 47.5198 50.4005 51.1198C50.4005 54.7198 52.3205 57.8398 55.4405 59.7598C54.9605 59.5198 54.2405 59.2798 53.7605 59.0398C50.4005 57.3598 48.4805 53.9998 48.4805 50.3998C48.4805 46.7998 50.4005 43.9198 53.2805 42.2398C55.2005 41.2798 56.6405 36.4798 56.6405 36.2398C57.3605 33.5998 60.0005 31.9198 62.6405 32.8798Z" fill="#3E9B8D"/>
<path d="M62.64 50.8801C62.64 53.5201 60.48 55.6801 57.84 55.6801H57.6C55.2 55.4401 53.04 53.5201 53.04 50.8801C53.04 48.2401 55.2 46.0801 57.84 46.0801C58.56 46.0801 59.04 46.3201 59.76 46.5601C61.44 47.2801 62.64 48.9601 62.64 50.8801Z" fill="#A74700"/>
<path d="M57.6 55.6801C55.2 55.4401 53.04 53.5201 53.04 50.8801C53.04 48.2401 55.2 46.0801 57.84 46.0801C58.56 46.0801 59.04 46.3201 59.76 46.5601C57.84 46.8001 55.92 48.2401 55.44 50.1601C54.72 52.3201 55.68 54.4801 57.6 55.6801Z" fill="#882700"/>
<path d="M16.6731 38.0947L15.2158 40.0015L26.6566 48.7451L28.1139 46.8383L16.6731 38.0947Z" fill="#C1FC97"/>
<path d="M14.0332 44.4319L13.7246 46.812L28.0051 48.6639L28.3137 46.2838L14.0332 44.4319Z" fill="#C1FC97"/>
<path d="M22.8238 34.6456L20.6084 35.5684L26.1452 48.861L28.3606 47.9382L22.8238 34.6456Z" fill="#C1FC97"/>
<path d="M43.9206 60.4797C43.2006 61.6797 41.5206 61.9197 40.3206 61.1997L25.9206 52.3197C23.7606 50.8797 23.2806 47.9997 24.7206 46.0797C26.4006 43.9197 29.2806 43.6797 31.2006 45.5997L43.4406 57.1197C44.4006 57.8397 44.6406 59.5197 43.9206 60.4797Z" fill="#FF9400"/>
<path d="M43.4406 56.8795C44.4006 57.8395 44.6406 59.2795 43.6806 60.4795C42.9606 61.6795 41.2806 61.9195 40.0806 61.1995L25.6806 52.3195C24.0006 51.3595 23.5206 49.1995 24.0006 47.5195C24.2406 47.9995 24.7206 48.7195 25.2006 48.9595L39.6006 57.8395C41.0406 58.5595 42.4806 58.3195 43.4406 56.8795C43.4406 57.1195 43.4406 57.1195 43.4406 56.8795Z" fill="#FF7000"/>
<path d="M66.7207 78H30.7207V85.2H66.7207V78Z" fill="#F8DA9D"/>
<path d="M37.9211 80.3999H33.1211V82.7999H37.9211V80.3999Z" fill="#A74700"/>
<path d="M64.3205 80.3999H59.5205V82.7999H64.3205V80.3999Z" fill="#A74700"/>
<path d="M66.7207 70.7998H30.7207V77.9998H66.7207V70.7998Z" fill="#F6CD7A"/>
<path d="M37.9211 73.1997H33.1211V75.5997H37.9211V73.1997Z" fill="#A74700"/>
<path d="M64.3205 73.1997H59.5205V75.5997H64.3205V73.1997Z" fill="#A74700"/>
<path d="M66.7207 63.6001H30.7207V70.8001H66.7207V63.6001Z" fill="#F8DA9D"/>
<path d="M37.9211 66H33.1211V68.4H37.9211V66Z" fill="#A74700"/>
<path d="M64.3205 66H59.5205V68.4H64.3205V66Z" fill="#A74700"/>
<path d="M66.7207 56.3999H30.7207V63.5999H66.7207V56.3999Z" fill="#F6CD7A"/>
<path d="M37.9211 58.7998H33.1211V61.1998H37.9211V58.7998Z" fill="#A74700"/>
<path d="M64.3205 58.7998H59.5205V61.1998H64.3205V58.7998Z" fill="#A74700"/>
<path d="M35.5198 85.2H16.3198C13.6798 85.2 11.7598 83.04 11.7598 80.64V79.2C11.7598 78.48 12.2398 78 12.9598 78H39.1198C39.8398 78 40.3198 78.48 40.3198 79.2V80.64C40.3198 83.04 38.1598 85.2 35.5198 85.2Z" fill="#FF9400"/>
<path d="M38.4003 67.6801H13.2003C12.2403 67.6801 11.2803 66.9601 11.2803 65.7601C11.2803 61.9201 14.4003 58.5601 18.4803 58.5601H32.8803C36.7203 58.5601 40.0803 61.6801 40.0803 65.7601C40.3203 66.9601 39.3603 67.6801 38.4003 67.6801Z" fill="#FF9400"/>
<path d="M36.48 78.0002H15.12C13.92 78.0002 12.96 77.0402 12.96 75.6002C12.96 74.1602 13.92 73.2002 15.12 73.2002H36.48C37.68 73.2002 38.64 74.1602 38.64 75.6002C38.88 76.5602 37.68 78.0002 36.48 78.0002Z" fill="#A74700"/>
<path d="M38.64 75.6001C38.64 76.3201 38.4 76.8001 37.92 77.2801C37.44 77.7601 36.96 78.0001 36.24 78.0001H15.36C14.16 78.0001 12.96 77.0401 12.96 75.8401C12.96 75.6001 12.96 75.3601 12.96 75.3601C13.44 76.0801 14.4 76.8001 15.36 76.8001H36.24C36.96 76.8001 37.44 76.5601 37.92 76.0801C38.16 75.8401 38.4 75.3601 38.4 75.1201C38.4 75.3601 38.64 75.3601 38.64 75.6001Z" fill="#882700"/>
<path d="M12.96 72.2402V73.4402H19.68L28.8 75.3602C29.52 75.6002 30 75.3602 30.72 75.1202C30.72 75.1202 34.56 73.4402 34.8 73.4402H38.64V72.2402H12.96Z" fill="#FFC926"/>
<path d="M38.6402 70.8001C38.6402 71.2801 38.4002 72.0001 37.9202 72.2401H37.6802H13.9202H13.6802C13.4402 72.0001 13.2002 71.5201 13.2002 71.0401C13.2002 70.3201 13.6802 69.6001 14.1602 69.6001H37.6802C38.1602 69.6001 38.6402 70.0801 38.6402 70.8001Z" fill="#EB3A3F"/>
<path d="M38.6404 70.7998C38.6404 71.2798 38.4004 71.9998 37.9204 72.2398H37.6804H14.1604H13.9204H13.6804C13.4404 71.9998 13.2004 71.5198 13.2004 71.0398C13.2004 71.0398 12.9604 71.0398 13.2004 71.0398C13.4404 71.2798 13.9204 71.5198 14.4004 71.5198H37.6804C38.1604 71.5198 38.4004 71.0398 38.6404 70.7998Z" fill="#BC272B"/>
<path d="M21.8402 70.5602H14.6402C13.9202 70.5602 13.2002 69.8402 13.2002 69.1202C13.2002 68.4002 13.9202 67.6802 14.6402 67.6802H21.8402C22.5602 67.6802 23.2802 68.4002 23.2802 69.1202C23.2802 69.8402 22.5602 70.5602 21.8402 70.5602Z" fill="#C1FC97"/>
<path d="M36.9603 70.5602H29.7603C29.0403 70.5602 28.3203 69.8402 28.3203 69.1202C28.3203 68.4002 29.0403 67.6802 29.7603 67.6802H36.9603C37.6803 67.6802 38.4003 68.1602 38.4003 69.1202C38.4003 69.8402 37.9203 70.5602 36.9603 70.5602Z" fill="#C1FC97"/>
<path d="M29.2804 70.0802H21.6004C20.8804 70.0802 20.4004 69.6002 20.4004 68.8802C20.4004 68.1602 20.8804 67.6802 21.6004 67.6802H29.2804C30.0004 67.6802 30.4804 68.1602 30.4804 68.8802C30.4804 69.6002 30.0004 70.0802 29.2804 70.0802Z" fill="#A2E070"/>
</svg>
