<svg width="96" height="96" viewBox="0 0 96 96" fill="none" xmlns="http://www.w3.org/2000/svg">
<path d="M60.0001 14.6399C54.7201 9.59986 46.3201 9.59986 41.0401 14.6399C35.7601 19.6799 35.7601 28.0799 41.0401 33.1199L60.0001 51.5999L78.9601 33.1199C84.2401 28.0799 84.2401 19.6799 78.9601 14.6399C73.6801 9.59986 65.2801 9.59986 60.0001 14.6399Z" fill="#FF6E82"/>
<path d="M78.9605 33.1196L60.0005 51.5996L41.0405 33.1196C37.9205 29.9996 36.4805 25.6796 37.4405 21.5996C37.9205 23.9996 39.1205 26.3996 41.0405 28.5596L60.0005 47.0396L78.9605 28.5596C80.8805 26.3996 82.0805 23.9996 82.5605 21.5996C83.2805 25.6796 82.0805 29.9996 78.9605 33.1196Z" fill="#FF0080"/>
<path d="M60.0004 38.8797C65.3023 38.8797 69.6004 34.6891 69.6004 29.5197C69.6004 24.3503 65.3023 20.1597 60.0004 20.1597C54.6985 20.1597 50.4004 24.3503 50.4004 29.5197C50.4004 34.6891 54.6985 38.8797 60.0004 38.8797Z" fill="#FFE1E7"/>
<path d="M65.9998 28.3198H61.1998V23.5198C61.1998 22.7998 60.7198 22.3198 59.9998 22.3198C59.2798 22.3198 58.7998 22.7998 58.7998 23.5198V28.3198H53.9998C53.2798 28.3198 52.7998 28.7998 52.7998 29.5198C52.7998 30.2398 53.2798 30.7198 53.9998 30.7198H58.7998V35.5198C58.7998 36.2398 59.2798 36.7198 59.9998 36.7198C60.7198 36.7198 61.1998 36.2398 61.1998 35.5198V30.7198H65.9998C66.7198 30.7198 67.1998 30.2398 67.1998 29.5198C67.1998 28.7998 66.7198 28.3198 65.9998 28.3198Z" fill="#FF6E82"/>
<path d="M30.0004 85.2002H13.2004C10.5604 85.2002 8.40039 83.0402 8.40039 80.4002V32.4002C8.40039 28.3202 11.5204 25.2002 15.6004 25.2002H27.6004C31.6804 25.2002 34.8004 28.3202 34.8004 32.4002V80.4002C34.8004 83.0402 32.6404 85.2002 30.0004 85.2002Z" fill="#F8DA9D"/>
<path d="M34.3204 82.3201C33.6004 84.0001 31.9204 85.2001 30.0004 85.2001H13.2004C10.5604 85.2001 8.40039 83.0401 8.40039 80.4001V32.4002C8.40039 29.7602 9.84039 27.6002 11.7604 26.1602C11.0404 27.3602 10.8004 28.5602 10.8004 30.0002V78.0001C10.8004 80.6401 12.9604 82.8001 15.6004 82.8001H32.4004C33.1204 82.8001 33.8404 82.5601 34.3204 82.3201Z" fill="#F6CD7A"/>
<path d="M27.6006 25.2001H15.6006V18.0001C15.6006 16.5601 16.5606 15.6001 18.0006 15.6001H25.2006C26.6406 15.6001 27.6006 16.5601 27.6006 18.0001V25.2001Z" fill="#F1F1F3"/>
<path d="M27.6006 22.8001V25.2001H15.6006V18.0001C15.6006 16.8001 16.8006 15.6001 18.0006 15.6001V20.4001C18.0006 21.8401 18.9606 22.8001 20.4006 22.8001H27.6006Z" fill="#D5D6D8"/>
<path d="M34.8004 39.6001H8.40039V66.0001H34.8004V39.6001Z" fill="#F6F8FF"/>
<path d="M34.8004 63.6001V66.0001H8.40039V39.6001H10.8004V61.2001C10.8004 62.6401 11.7604 63.6001 13.2004 63.6001H34.8004Z" fill="#D5D6D8"/>
<path d="M27.6006 18H15.6006V20.4H27.6006V18Z" fill="#FF9400"/>
<path d="M54 37.4398V38.1598L51.84 73.4398C51.84 74.6398 50.64 75.5998 49.44 75.5998H34.56C33.36 75.5998 32.16 74.6398 32.16 73.4398L30 38.1598V37.4398C30 35.9998 30.96 34.7998 32.4 34.7998H51.6C53.04 34.7998 54 35.9998 54 37.4398Z" fill="#86CAFF"/>
<path d="M46.7996 85.1996H36.9596C35.5196 85.1996 34.5596 83.9996 34.5596 82.7996V75.5996H49.1996V82.7996C49.1996 83.9996 48.2396 85.1996 46.7996 85.1996Z" fill="#B2DCFF"/>
<path d="M49.1996 75.5996V77.9996H39.3596C37.9196 77.9996 36.9596 78.9596 36.9596 80.3996V85.1996C35.5196 85.1996 34.5596 83.9996 34.5596 82.7996V75.5996H49.1996Z" fill="#86CAFF"/>
<path d="M49.1996 81.5996H34.5596V82.7996H49.1996V81.5996Z" fill="#5E9DD1"/>
<path d="M44.3996 81.5999H39.5996C39.5996 80.8799 40.0796 80.3999 40.7996 80.3999H43.1996C43.9196 80.3999 44.3996 80.8799 44.3996 81.5999Z" fill="#5E9DD1"/>
<path d="M41.9996 68.4C46.1086 68.4 49.4396 62.4902 49.4396 55.2C49.4396 47.9098 46.1086 42 41.9996 42C37.8906 42 34.5596 47.9098 34.5596 55.2C34.5596 62.4902 37.8906 68.4 41.9996 68.4Z" fill="#F6F8FF"/>
<path d="M54 37.4398V38.1598H30V37.4398C30 35.9998 30.96 34.7998 32.4 34.7998H51.6C53.04 34.7998 54 35.9998 54 37.4398Z" fill="#F6F8FF"/>
<path d="M51.84 73.1998C51.84 74.6398 50.64 75.5998 49.44 75.5998H34.56C33.36 75.5998 32.16 74.6398 32.16 73.4398L30 38.1598V37.4398C30 35.9998 30.96 34.7998 32.4 34.7998V35.0398V35.7598L34.56 71.0398C34.56 72.2398 35.76 73.1998 36.96 73.1998H51.84Z" fill="#6BB0F2"/>
<path d="M32.64 38.1598H30V37.1998C30 35.7598 30.96 34.7998 32.4 34.7998V35.0398V35.7598L32.64 38.1598Z" fill="#D5D6D8"/>
<path d="M63.6 66.0001V82.8001C63.6 83.0401 63.6 83.0401 63.6 83.2801C63.36 84.2401 62.88 84.9601 61.68 85.2001C61.44 85.2001 61.44 85.2001 61.2 85.2001H56.4C55.92 85.2001 55.68 85.2001 55.44 84.9601C54.48 84.7201 54 83.7601 54 82.8001V66.0001C54 64.5601 54.96 63.6001 56.4 63.6001H61.2C61.44 63.6001 61.68 63.6001 61.68 63.6001C62.64 63.8401 63.36 64.5601 63.6 65.5201C63.6 65.7601 63.6 65.7601 63.6 66.0001Z" fill="#C46FBA"/>
<path d="M87.8402 66.0001V82.8001C87.8402 83.0401 87.8402 83.0401 87.8402 83.2801C87.6002 84.2401 87.1202 84.9601 85.9202 85.2001C85.6802 85.2001 85.6802 85.2001 85.4402 85.2001H80.6402C80.1602 85.2001 79.9202 85.2001 79.6802 84.9601C78.7202 84.7201 78.2402 83.7601 78.2402 82.8001V66.0001C78.2402 64.5601 79.2002 63.6001 80.6402 63.6001H85.4402C85.6802 63.6001 85.9202 63.6001 85.9202 63.6001C86.8802 63.8401 87.6002 64.5601 87.8402 65.5201C87.8402 65.7601 87.8402 65.7601 87.8402 66.0001Z" fill="#C46FBA"/>
<path d="M63.6 66.0001V82.8001C63.6 83.0401 63.6 83.0401 63.6 83.2801C63.36 84.2401 62.88 84.9601 61.68 85.2001C61.44 85.2001 61.44 85.2001 61.2 85.2001H56.16C55.92 85.2001 55.68 85.2001 55.44 84.9601C54.48 84.7201 54 83.7601 54 82.8001H58.8C60 82.8001 61.2 81.6001 61.2 80.4001V63.6001C61.44 63.6001 61.68 63.6001 61.68 63.6001C62.64 63.8401 63.36 64.5601 63.6 65.5201C63.6 65.7601 63.6 65.7601 63.6 66.0001Z" fill="#8D4FB4"/>
<path d="M87.8402 66.0001V82.8001C87.8402 83.0401 87.8402 83.0401 87.8402 83.2801C87.6002 84.2401 87.1202 84.9601 85.9202 85.2001C85.6802 85.2001 85.6802 85.2001 85.4402 85.2001H80.4002C80.1602 85.2001 79.9202 85.2001 79.6802 84.9601C78.7202 84.7201 78.2402 83.7601 78.2402 82.8001H83.0402C84.2402 82.8001 85.4402 81.6001 85.4402 80.4001V63.6001C85.6802 63.6001 85.9202 63.6001 85.9202 63.6001C86.8802 63.8401 87.6002 64.5601 87.8402 65.5201C87.8402 65.7601 87.8402 65.7601 87.8402 66.0001Z" fill="#8D4FB4"/>
<path d="M78.2396 70.8003H63.5996V77.7603H78.2396V70.8003Z" fill="#C46FBA"/>
<path d="M78.2396 70.8003V77.7603H63.5996V75.3603H73.4396C74.6396 75.3603 75.8396 74.4003 75.8396 72.9603V70.8003H78.2396Z" fill="#8D4FB4"/>
</svg>
