<svg width="96" height="96" viewBox="0 0 96 96" fill="none" xmlns="http://www.w3.org/2000/svg">
<path d="M66.2407 17.7602V69.8402C62.8807 71.2802 52.8007 72.0002 48.0007 72.0002C43.2007 72.0002 33.1207 71.2802 29.7607 69.8402V17.7602C32.4007 15.1202 39.3607 13.6802 48.0007 12.7202C56.6407 13.6802 63.3607 15.1202 66.2407 17.7602Z" fill="#F8DA9D"/>
<path d="M48.0007 19.2001L42.2407 9.6001L37.6807 14.4001L41.5207 22.8001C42.0007 23.7601 43.2007 24.0001 43.9207 23.2801L48.0007 19.2001Z" fill="#F6CD7A"/>
<path d="M48 19.2001L53.76 9.6001L58.32 14.4001L54.48 22.8001C54 23.7601 52.8 24.0001 52.08 23.2801L48 19.2001Z" fill="#F6CD7A"/>
<path d="M42.2402 9.6001H53.7602L48.0002 19.2001L42.2402 9.6001Z" fill="#F2C059"/>
<path d="M29.7602 17.7603L20.6402 28.5603C20.1602 29.2803 20.1602 30.2403 20.8802 30.9603L29.7602 38.1603V17.7603V17.7603Z" fill="#F6CD7A"/>
<path d="M66.2402 17.7603L75.3602 28.5603C75.8402 29.2803 75.8402 30.2403 75.1202 30.9603L66.2402 38.1603V17.7603Z" fill="#F6CD7A"/>
<path d="M48.0003 32.4004C47.5203 32.4004 47.2803 32.1604 47.2803 31.6804V22.0804C47.2803 21.8404 47.5203 21.3604 48.0003 21.3604C48.2403 21.3604 48.7203 21.6004 48.7203 22.0804V31.9204C48.7203 32.1604 48.2403 32.4004 48.0003 32.4004Z" fill="#F2C059"/>
<path d="M66.2407 45.8398V69.8398C62.8807 71.2798 52.8007 71.9998 48.0007 71.9998C43.2007 71.9998 33.1207 71.2798 29.7607 69.8398V67.9198C29.7607 67.9198 66.2407 73.9198 66.2407 45.8398Z" fill="#F6CD7A"/>
<path d="M67.9198 85.1998C67.4398 85.1998 66.9598 84.9598 66.7198 84.4798L52.3198 67.4398C51.8398 66.9598 51.8398 66.4798 51.8398 65.7598H61.1998L67.9198 85.1998Z" fill="#6BB0F2"/>
<path d="M68.3991 58.7998L60.9591 65.7598L58.0791 59.0398C58.3191 59.0398 58.5591 58.7998 59.0391 58.7998H68.3991V58.7998Z" fill="#86CAFF"/>
<path d="M60.9596 65.7595H51.5996C51.5996 65.2795 51.8396 64.7995 52.3196 64.3195L57.3596 59.5195C57.5996 59.2795 57.8396 59.0396 58.0796 59.0396L60.9596 65.7595Z" fill="#B2DCFF"/>
<path d="M75.839 65.7598L68.879 85.1998C68.639 85.1998 68.159 85.1998 67.919 85.1998L60.959 65.7598H75.839Z" fill="#86CAFF"/>
<path d="M85.1999 65.7598C85.1999 66.2398 84.9599 66.9598 84.7199 67.4398L70.3199 84.4798C70.0799 84.9598 69.3599 85.1998 68.8799 85.1998L75.8399 65.7598H85.1999V65.7598Z" fill="#B2DCFF"/>
<path d="M68.399 58.7998L60.959 65.7598H68.399H75.839L68.399 58.7998Z" fill="#B2DCFF"/>
<path d="M78.7194 59.0398L75.8394 65.7598L68.3994 58.7998H77.9994C78.2394 58.7998 78.4794 58.7998 78.7194 59.0398Z" fill="#D2E9FF"/>
<path d="M85.1998 65.7595H75.8398L78.7198 59.0396C78.9598 59.0396 79.1998 59.2795 79.4398 59.5195L84.4798 64.3195C84.9598 64.7995 85.1998 65.2795 85.1998 65.7595Z" fill="#E9F3FF"/>
<path d="M40.0802 72.9601L40.3202 84.2401C40.3202 84.7201 40.8002 85.2001 41.2802 85.2001C41.7602 85.2001 42.2402 84.7201 42.2402 84.2401L42.7202 73.2001C42.7202 72.9601 42.7202 72.7201 42.7202 72.4801L45.6002 63.1201L38.6402 66.7201L38.1602 72.7201C38.4002 72.7201 39.3602 71.5201 40.0802 72.9601Z" fill="#4C4057"/>
<path d="M40.8008 84.9601C41.0408 84.9601 41.0408 85.2001 41.2808 85.2001C41.5208 85.2001 41.7608 85.2001 42.0008 84.9601C42.2408 84.7201 42.2408 84.4801 42.2408 84.2401L42.7208 73.2001C42.7208 72.9601 42.7208 72.7201 42.7208 72.4801L45.6008 63.1201L44.4008 63.8401L41.7608 72.7201C41.7608 72.9601 41.7608 73.2001 41.7608 73.4401L41.2808 84.4801C41.2808 84.4801 41.2808 84.7201 40.8008 84.9601C40.8008 84.9601 41.0408 84.9601 40.8008 84.9601Z" fill="#372D40"/>
<path d="M45.6003 63.12C45.6003 63.12 46.0803 58.08 40.8003 56.4C40.8003 56.4 39.8403 56.16 39.1203 57.84C38.6403 59.04 33.8403 69.12 30.9603 75.36C29.7603 78.24 26.1603 79.44 23.5203 78L22.0803 77.52C21.1203 77.04 20.1603 77.28 19.2003 77.76C17.2803 78.96 13.6803 81.12 12.0003 83.28C11.5203 84.24 12.0003 85.2 13.2003 85.2H27.8403C30.2403 85.2 32.4003 84 33.3603 81.84C34.5603 79.2 36.4803 75.6 37.9203 72.72C40.3203 68.16 45.6003 63.12 45.6003 63.12Z" fill="#EF7881"/>
<path d="M26.1602 85.1999H28.0802C30.4802 85.1999 32.6402 83.9999 33.6002 81.8399C34.8002 79.1999 36.7202 75.5999 38.1602 72.7199C40.5602 68.1599 45.6002 63.1199 45.6002 63.1199C45.6002 63.1199 46.0802 58.0799 40.8002 56.3999C40.8002 56.3999 40.5602 56.3999 40.0802 56.6399C43.6802 58.0799 44.4002 62.3999 42.0002 65.0399C40.3202 66.9599 37.6802 69.8399 36.2402 72.7199C34.8002 75.5999 32.8802 79.1999 31.6802 81.8399C30.7202 83.9999 28.5602 85.1999 26.1602 85.1999Z" fill="#EC5667"/>
</svg>
