<svg width="96" height="96" viewBox="0 0 96 96" fill="none" xmlns="http://www.w3.org/2000/svg">
<path d="M57.1197 55.2001H9.11974C8.39974 55.2001 7.91974 54.7201 7.91974 54.0001V22.8001C7.67974 22.0801 8.39974 21.6001 8.87974 21.6001H56.8797C57.5997 21.6001 58.0797 22.0801 58.0797 22.8001V54.0001C58.0797 54.7201 57.5997 55.2001 57.1197 55.2001Z" fill="#6200BB"/>
<path d="M54.7193 52.8H11.2793C10.7993 52.8 10.3193 52.32 10.3193 51.84V24.96C10.3193 24.48 10.7993 24 11.2793 24H54.7193C55.1993 24 55.6793 24.48 55.6793 24.96V51.6C55.9193 52.32 55.4393 52.8 54.7193 52.8Z" fill="#6B00DD"/>
<path d="M37.6799 23.9997H28.0799C27.3599 23.9997 26.8799 23.5197 26.8799 22.7997V20.3997C26.8799 19.6797 27.3599 19.1997 28.0799 19.1997H37.6799C38.3999 19.1997 38.8799 19.6797 38.8799 20.3997V22.7997C38.8799 23.5197 38.3999 23.9997 37.6799 23.9997Z" fill="#F8DA9D"/>
<path d="M37.6799 24.0001H28.0799C27.3599 24.0001 26.8799 23.5201 26.8799 22.8001C26.8799 22.0801 27.3599 21.6001 28.0799 21.6001H37.6799C38.3999 21.6001 38.8799 22.0801 38.8799 22.8001C38.8799 23.5201 38.3999 24.0001 37.6799 24.0001Z" fill="#F6CD7A"/>
<path d="M48.4791 78.9598C47.9991 79.1998 47.2791 79.1998 46.7991 78.4798L33.1191 54.4798L35.2791 53.2798L48.9591 77.2798C49.1991 77.9998 48.9591 78.7198 48.4791 78.9598Z" fill="#FF9400"/>
<path d="M17.5195 78.9598C18.2395 79.4398 18.9595 79.1998 19.1995 78.4798L32.8795 54.4798L30.7195 53.2798L17.0395 77.2798C16.7995 77.9998 17.0395 78.7198 17.5195 78.9598Z" fill="#FF9400"/>
<path d="M47.5195 57.5998H18.7195C17.9995 57.5998 17.5195 57.1198 17.5195 56.3998V53.9998C17.5195 53.2798 17.9995 52.7998 18.7195 52.7998H47.5195C48.2395 52.7998 48.7195 53.2798 48.7195 53.9998V56.3998C48.4795 57.1198 47.9995 57.5998 47.5195 57.5998Z" fill="#F8DA9D"/>
<path d="M47.5195 57.5997H18.7195C17.9995 57.5997 17.5195 57.1197 17.5195 56.3997C17.5195 55.6797 17.9995 55.1997 18.7195 55.1997H47.5195C48.2395 55.1997 48.7195 55.6797 48.7195 56.3997C48.4795 57.1197 47.9995 57.5997 47.5195 57.5997Z" fill="#F6CD7A"/>
<path d="M34.0797 19.1999H31.6797V15.5999C31.6797 14.8799 32.1597 14.3999 32.8797 14.3999C33.5997 14.3999 34.0797 14.8799 34.0797 15.5999V19.1999Z" fill="#FF9400"/>
<path d="M14.8795 52.8001C14.8795 52.8001 14.1595 39.3601 29.2795 38.6401C29.2795 38.6401 33.3595 29.7601 43.6795 33.6001C43.6795 33.6001 49.9195 28.3201 55.6795 33.6001V51.6001C55.6795 52.3201 55.1995 52.8001 54.4795 52.8001H14.8795Z" fill="#FB5272"/>
<path d="M38.8795 43.1999C40.205 43.1999 41.2795 42.1254 41.2795 40.7999C41.2795 39.4744 40.205 38.3999 38.8795 38.3999C37.554 38.3999 36.4795 39.4744 36.4795 40.7999C36.4795 42.1254 37.554 43.1999 38.8795 43.1999Z" fill="#6B00DD"/>
<path d="M48.4801 47.9997C49.8056 47.9997 50.8801 46.9252 50.8801 45.5997C50.8801 44.2742 49.8056 43.1997 48.4801 43.1997C47.1546 43.1997 46.0801 44.2742 46.0801 45.5997C46.0801 46.9252 47.1546 47.9997 48.4801 47.9997Z" fill="#6B00DD"/>
<path d="M25.9197 48.0001C26.5825 48.0001 27.1197 47.4628 27.1197 46.8001C27.1197 46.1374 26.5825 45.6001 25.9197 45.6001C25.257 45.6001 24.7197 46.1374 24.7197 46.8001C24.7197 47.4628 25.257 48.0001 25.9197 48.0001Z" fill="#6B00DD"/>
<path d="M21.1199 36.0001C21.7827 36.0001 22.3199 35.4628 22.3199 34.8001C22.3199 34.1374 21.7827 33.6001 21.1199 33.6001C20.4572 33.6001 19.9199 34.1374 19.9199 34.8001C19.9199 35.4628 20.4572 36.0001 21.1199 36.0001Z" fill="#FB5272"/>
<path d="M14.8795 31.1999C16.205 31.1999 17.2795 30.1254 17.2795 28.7999C17.2795 27.4744 16.205 26.3999 14.8795 26.3999C13.554 26.3999 12.4795 27.4744 12.4795 28.7999C12.4795 30.1254 13.554 31.1999 14.8795 31.1999Z" fill="#FB5272"/>
<path d="M81.1199 64.7997C81.1199 70.3197 76.3199 79.1997 76.3199 79.1997H66.7199C66.7199 79.1997 61.9199 70.3197 61.9199 64.7997C61.9199 64.7997 61.9199 60.4797 66.7199 59.9997C66.7199 59.9997 64.3199 57.5997 64.3199 55.1997H78.7199C78.7199 57.5997 76.3199 59.9997 76.3199 59.9997C81.1199 60.4797 81.1199 64.7997 81.1199 64.7997Z" fill="#A74700"/>
<path d="M81.1197 64.7997C81.1197 70.3197 76.3197 79.1997 76.3197 79.1997H66.7197C78.2397 76.7997 73.9197 59.9997 73.9197 59.9997C75.1197 59.2797 76.3197 55.1997 76.3197 55.1997H78.7197C78.7197 57.5997 76.3197 59.9997 76.3197 59.9997C81.1197 60.4797 81.1197 64.7997 81.1197 64.7997Z" fill="#882700"/>
<path d="M78.7203 79.1997H64.3203V81.5997H78.7203V79.1997Z" fill="#4A0401"/>
<path d="M83.5567 19.0902L59.2891 43.3579L63.8711 47.9399L88.1387 23.6722L83.5567 19.0902Z" fill="#C1FC97"/>
<path d="M64.0883 38.7022L62.9004 39.8901L65.2762 42.266L66.4642 41.0781L64.0883 38.7022Z" fill="#00CACA"/>
<path d="M69.102 33.5523L67.9141 34.7402L70.2899 37.1161L71.4778 35.9282L69.102 33.5523Z" fill="#00CACA"/>
<path d="M74.6049 28.0255L73.417 29.2134L75.7928 31.5892L76.9808 30.4013L74.6049 28.0255Z" fill="#00CACA"/>
<path d="M80.2162 22.6421L79.0283 23.8301L81.4042 26.2059L82.5921 25.018L80.2162 22.6421Z" fill="#00CACA"/>
<path d="M63.3596 44.6397C63.7573 44.6397 64.0797 44.3174 64.0797 43.9197C64.0797 43.5221 63.7573 43.1997 63.3596 43.1997C62.962 43.1997 62.6396 43.5221 62.6396 43.9197C62.6396 44.3174 62.962 44.6397 63.3596 44.6397Z" fill="white"/>
<path d="M84.2395 24.0001C84.6372 24.0001 84.9595 23.6777 84.9595 23.2801C84.9595 22.8824 84.6372 22.5601 84.2395 22.5601C83.8419 22.5601 83.5195 22.8824 83.5195 23.2801C83.5195 23.6777 83.8419 24.0001 84.2395 24.0001Z" fill="white"/>
<path d="M64.7988 28.7998L66.4788 23.7598L68.1588 28.7998H64.7988Z" fill="#F8DA9D"/>
<path d="M68.1588 38.3996H64.7988V28.7996L66.4788 27.1196L68.1588 28.7996V38.3996Z" fill="#FFC926"/>
<path d="M68.1585 38.3996H66.4785V27.1196L68.1585 28.7996V38.3996Z" fill="#FF9400"/>
<path d="M68.1588 38.3999H64.7988V40.0799H68.1588V38.3999Z" fill="#4C4057"/>
<path d="M64.7988 40.0801H68.1588V41.7601C68.1588 42.7201 67.4388 43.4401 66.4788 43.4401C65.5188 43.4401 64.7988 42.7201 64.7988 41.7601V40.0801Z" fill="#EC5667"/>
<path d="M65.999 25.4398H66.959L66.479 23.7598L65.999 25.4398Z" fill="#4C4057"/>
<path d="M75.8391 41.04C75.8391 42.48 74.8791 43.44 73.4391 43.44C72.2391 43.44 71.0391 42.24 71.0391 41.04L71.9991 28.8L71.5191 25.44L73.1991 24.24L73.6791 24L74.1591 24.24L75.8391 25.44L75.3591 28.8L75.8391 41.04Z" fill="#D3E6E2"/>
<path d="M75.8391 41.0398C75.8391 42.4798 74.8791 43.4398 73.4391 43.4398C72.2391 43.4398 71.0391 42.2398 71.0391 41.0398V40.0798V38.3998L71.9991 28.7998H75.3591L75.8391 38.6398V40.3198V41.0398Z" fill="#FFC926"/>
<path d="M75.8391 41.0401C75.8391 42.4801 74.8791 43.4401 73.4391 43.4401C72.2391 43.4401 71.0391 42.2401 71.0391 41.0401L71.2791 38.6401H75.5991L75.8391 41.0401Z" fill="#FF9400"/>
<path d="M75.8391 41.0401C75.8391 42.4801 74.8791 43.4401 73.4391 43.4401C72.2391 43.4401 71.0391 42.2401 71.0391 41.0401V40.0801H75.5991L75.8391 41.0401Z" fill="#00CACA"/>
<path d="M73.6786 28.7998V38.3998H71.5186L71.9986 28.7998H73.6786Z" fill="#FFEE6D"/>
<path d="M74.1592 24.24V27.12C74.1592 27.36 73.9192 27.6 73.6792 27.6C73.4392 27.6 73.1992 27.36 73.1992 27.12V24.24L73.6792 24L74.1592 24.24Z" fill="#4C4057"/>
<path d="M81.8389 25.4398H83.2789V23.7598L81.8389 24.4798V25.4398Z" fill="#EC5667"/>
<path d="M83.7592 25.4395H82.5592H81.3592C81.3592 25.4395 80.6392 27.8395 80.1592 28.7995H82.5592H84.9592C84.4792 27.8395 83.7592 25.4395 83.7592 25.4395Z" fill="#4C4057"/>
<path d="M82.5592 28.7998H79.1992L80.1592 42.7198C80.1592 43.1998 80.6392 43.4398 80.8792 43.4398H82.5592H84.2392C84.7192 43.4398 84.9592 43.1998 84.9592 42.7198L85.9192 28.7998H82.5592Z" fill="#EC5667"/>
<path d="M82.5596 31.9199C81.8396 31.9199 81.5996 32.3999 81.5996 32.6399V43.1999H83.5196V32.6399C83.5196 32.3999 83.0396 31.9199 82.5596 31.9199Z" fill="#EF7881"/>
</svg>
