<svg width="96" height="96" viewBox="0 0 96 96" fill="none" xmlns="http://www.w3.org/2000/svg">
<path d="M77.2799 43.9199C77.2799 43.9199 75.1199 46.5599 75.1199 47.7599C75.1199 48.9599 77.2799 51.5999 77.2799 51.5999V66.7199C77.2799 67.1999 77.0399 67.6799 76.7999 67.9199C76.3199 68.3999 76.0799 68.3999 75.5999 68.3999H64.7999C63.8399 68.3999 62.8799 67.4399 62.8799 66.4799V51.3599C62.8799 51.3599 65.0399 48.7199 65.0399 47.5199C65.0399 46.3199 62.8799 43.6799 62.8799 43.6799V38.3999H77.2799V43.9199Z" fill="#FFC926"/>
<path d="M77.2799 66.7199C77.2799 67.1999 77.0399 67.6799 76.7999 67.9199C76.3199 68.3999 76.0799 68.3999 75.5999 68.3999H64.7999C63.8399 68.3999 62.8799 67.4399 62.8799 66.4799V51.3599C62.8799 51.3599 65.0399 48.7199 65.0399 47.5199C65.0399 46.3199 62.8799 43.6799 62.8799 43.6799V38.3999H64.7999V43.9199C64.7999 43.9199 66.9599 46.5599 66.9599 47.7599C66.9599 48.9599 64.7999 51.5999 64.7999 51.5999V64.7999C64.7999 65.7599 65.7599 66.7199 66.7199 66.7199H77.2799Z" fill="#FF9400"/>
<path d="M72.4799 38.4H77.2799V32.88C77.2799 31.92 76.5599 30.96 75.5999 30.96H72.4799H67.6799H64.5599C63.5999 30.96 62.8799 31.92 62.8799 32.88V38.4H67.6799H72.4799Z" fill="#FF7500"/>
<path d="M67.4404 29.0402V27.1202C67.4404 26.1602 68.1604 25.2002 69.3604 25.2002H71.0404C72.0004 25.2002 72.9604 25.9202 72.9604 27.1202V29.0402H67.4404Z" fill="#FF7500"/>
<path d="M71.5197 29.04H68.6396V30.96H71.5197V29.04Z" fill="#FF7500"/>
<path d="M71.5197 29.04H68.6396V30H71.5197V29.04Z" fill="#E5420A"/>
<path d="M22.5597 67.2H23.2797V52.5601H19.6797V64.32C19.6797 65.76 21.1197 67.2 22.5597 67.2Z" fill="#00D7D6"/>
<path d="M19.9195 45.1201H23.2795V52.5601H19.9195C19.1995 52.5601 18.4795 51.8401 18.4795 51.1201V46.8001C18.4795 45.8401 18.9595 45.1201 19.9195 45.1201Z" fill="#D7FFFD"/>
<path d="M23.5197 52.5601H19.6797V56.1601H23.5197V52.5601Z" fill="#00C6C1"/>
<path d="M55.1995 67.2H54.4795V52.5601H58.3195V64.32C58.0795 65.76 56.6395 67.2 55.1995 67.2Z" fill="#00D7D6"/>
<path d="M57.8395 45.1201H54.4795V52.5601H57.8395C58.5595 52.5601 59.2795 51.8401 59.2795 51.1201V46.8001C59.5195 45.8401 58.7995 45.1201 57.8395 45.1201Z" fill="#D7FFFD"/>
<path d="M58.3195 52.5601H54.4795V56.1601H58.3195V52.5601Z" fill="#00C6C1"/>
<path d="M52.0793 69.6002H25.6793C24.2393 69.6002 23.2793 68.4002 23.2793 67.2002V28.0802C23.2793 26.6402 24.4793 25.6802 25.6793 25.6802H52.0793C53.5193 25.6802 54.4793 26.8802 54.4793 28.0802V67.2002C54.7193 68.4002 53.5193 69.6002 52.0793 69.6002Z" fill="#008CA4"/>
<path d="M56.8795 20.6403H20.8795C19.4395 20.6403 18.4795 19.4403 18.4795 18.2403V13.2003C18.4795 11.7603 19.6795 10.8003 20.8795 10.8003H56.8795C58.3195 10.8003 59.2795 12.0003 59.2795 13.2003C59.2795 13.2003 59.2795 17.0403 59.2795 18.2403C59.2795 19.6803 58.3195 20.6403 56.8795 20.6403Z" fill="#EF7881"/>
<path d="M55.9191 13.2003H22.3191C21.5991 13.2003 21.1191 12.7203 21.1191 12.0003C21.1191 11.2803 21.5991 10.8003 22.3191 10.8003H55.9191C56.6391 10.8003 57.1191 11.2803 57.1191 12.0003C57.1191 12.7203 56.3991 13.2003 55.9191 13.2003Z" fill="#ED919C"/>
<path d="M46.3197 32.8801H31.9197C28.0797 32.8801 24.7197 29.7601 24.7197 25.6801V20.6401H53.2797V25.9201C53.2797 29.7601 50.1597 32.8801 46.3197 32.8801Z" fill="#00D7D6"/>
<path d="M53.2797 20.6401H24.7197V23.0401H53.2797V20.6401Z" fill="#00C6C1"/>
<path d="M28.7992 36.7201H27.3592C26.6392 36.7201 26.1592 36.2401 26.1592 35.5201V10.8001C26.3992 10.0801 26.8792 9.6001 27.5992 9.6001H28.7992C29.5192 9.6001 29.9992 10.0801 29.9992 10.8001V35.5201C30.2392 36.0001 29.5192 36.7201 28.7992 36.7201Z" fill="#D5D6D8"/>
<path d="M50.3998 36.7201H48.9598C48.2398 36.7201 47.7598 36.2401 47.7598 35.5201V10.8001C47.9998 10.0801 48.4798 9.6001 49.1998 9.6001H50.3998C51.1198 9.6001 51.5998 10.0801 51.5998 10.8001V35.5201C51.5998 36.0001 51.1198 36.7201 50.3998 36.7201Z" fill="#D5D6D8"/>
<path d="M50.8793 42.72H48.4793C47.7593 42.72 47.2793 42.24 47.2793 41.52V36.72C47.2793 36 47.7593 35.52 48.4793 35.52H50.8793C51.5993 35.52 52.0793 36 52.0793 36.72V41.52C52.0793 42.24 51.5993 42.72 50.8793 42.72Z" fill="#EC5667"/>
<path d="M29.2797 42.72H26.8797C26.1597 42.72 25.6797 42.24 25.6797 41.52V36.72C25.6797 36 26.1597 35.52 26.8797 35.52H29.2797C29.9997 35.52 30.4797 36 30.4797 36.72V41.52C30.4797 42.24 29.9997 42.72 29.2797 42.72Z" fill="#EC5667"/>
<path d="M29.2797 21.8399H26.8797C26.1597 21.8399 25.6797 21.3599 25.6797 20.6399C25.6797 19.9199 26.1597 19.4399 26.8797 19.4399H29.2797C29.9997 19.4399 30.4797 19.9199 30.4797 20.6399C30.4797 21.3599 29.9997 21.8399 29.2797 21.8399Z" fill="#D7FFFD"/>
<path d="M50.8793 21.8399H48.4793C47.7593 21.8399 47.2793 21.3599 47.2793 20.6399C47.2793 19.9199 47.7593 19.4399 48.4793 19.4399H50.8793C51.5993 19.4399 52.0793 19.9199 52.0793 20.6399C52.0793 21.3599 51.5993 21.8399 50.8793 21.8399Z" fill="#D7FFFD"/>
<path d="M47.2791 67.2001H30.4791C29.0391 67.2001 28.0791 66.0001 28.0791 64.8002V54.9602C28.0791 52.3202 30.2391 50.1602 32.8791 50.1602H44.8791C47.5191 50.1602 49.6791 52.3202 49.6791 54.9602V64.8002C49.9191 66.0001 48.7191 67.2001 47.2791 67.2001Z" fill="#00D7D6"/>
<path d="M49.6791 54.96H28.0791V56.16H49.6791V54.96Z" fill="#008CA4"/>
<path d="M46.5591 54.96H45.1191V58.56H46.5591V54.96Z" fill="#EC5667"/>
<path d="M38.1592 69.8398C38.1592 69.8398 41.5192 67.4398 41.7592 67.1998C41.9992 66.9598 43.6792 67.1998 43.6792 69.1198C43.6792 71.0398 43.4392 72.2398 43.4392 72.2398L38.1592 69.8398Z" fill="#D3374E"/>
<path d="M19.6797 79.4398C19.6797 81.8398 21.8397 83.9998 24.2397 83.9998H50.3997C52.0797 83.9998 53.5197 82.7998 53.5197 81.1198V76.0798C53.5197 75.1198 53.5197 74.3998 53.2797 73.4398L52.7997 71.2798C52.7997 71.0398 52.3197 70.7998 52.0797 70.7998C51.8397 70.7998 51.5997 70.7998 51.3597 71.0398C50.3997 72.2398 47.7597 72.7198 45.5997 72.2398C44.8797 71.9998 44.3997 71.7598 43.6797 71.2798C43.4397 71.0398 43.1997 70.7998 42.9597 70.5598C41.2797 69.1198 40.7997 68.1598 34.7997 72.2398C32.8797 73.6798 30.9597 74.3998 29.0397 75.1198C26.8797 75.8398 24.9597 76.0798 23.2797 76.3198H23.0397C22.0797 76.3198 19.6797 78.4798 19.6797 79.4398Z" fill="#EF7881"/>
<path d="M40.3193 83.9998H50.3993C52.0793 83.9998 53.5193 82.7998 53.5193 81.1198V76.0798C53.5193 75.1198 53.5193 74.3998 53.2793 73.4398L52.7993 71.2798C52.7993 71.0398 52.3193 70.7998 52.0793 70.7998C51.8393 70.7998 51.5993 70.7998 51.3593 71.0398C50.3993 72.2398 47.7593 72.7198 45.5993 72.2398C44.1593 73.1998 41.5193 75.8398 41.0393 79.6798C40.3193 81.3598 40.3193 82.7998 40.3193 83.9998Z" fill="#EC5667"/>
<path d="M19.6797 79.4398C19.6797 81.8398 21.8397 83.9998 24.4797 83.9998H31.4397C30.4797 83.7598 29.0397 83.2798 29.0397 81.5998C29.0397 78.9598 26.1597 79.1998 25.6797 79.1998C25.1997 79.1998 23.2797 78.9598 23.2797 76.3198H23.0397C20.1597 76.3198 19.6797 78.4798 19.6797 79.4398Z" fill="#EA475F"/>
<path d="M29.2793 75.1197C29.2793 75.1197 30.7193 76.5597 32.8793 76.3197C34.5593 76.0797 41.0393 71.9997 42.9593 70.5597C40.0793 68.1597 40.5593 68.3997 34.7993 72.2397C32.8793 73.4397 30.9593 74.3997 29.2793 75.1197Z" fill="#EA475F"/>
<path d="M19.6797 79.4399C19.6797 81.8399 21.8397 83.9999 24.2397 83.9999H50.6397C52.0797 83.9999 53.2797 83.0399 53.5197 81.5999C53.5197 81.3599 53.5197 81.1199 53.5197 81.1199V79.4399H40.5597C39.8397 79.4399 39.3597 79.9199 39.3597 80.6399C39.3597 80.8799 39.3597 81.5999 38.3997 81.5999H22.3197C21.5997 81.5999 20.8797 81.1199 20.8797 80.1599C20.8797 79.4399 20.1597 79.4399 19.9197 79.4399H19.6797Z" fill="#E6E9EE"/>
<path d="M42.7197 83.9996H50.3997C51.8397 83.9996 53.0397 83.0396 53.2797 81.5996H45.1197C43.6797 81.5996 42.7197 82.7996 42.7197 83.9996Z" fill="#CFD1DD"/>
<path d="M60.2402 72.48C60.2402 72.48 63.6002 70.08 63.8402 69.84C64.0802 69.6 65.7602 69.84 65.7602 71.76C65.7602 73.68 65.5202 74.88 65.5202 74.88L60.2402 72.48Z" fill="#D3374E"/>
<path d="M41.2803 81.8402C41.2803 84.2402 43.4403 86.4002 45.8403 86.4002H72.0003C73.6803 86.4002 75.1203 85.2002 75.1203 83.5202V78.4802C75.1203 77.5202 75.1203 76.8002 74.8803 75.8402L74.4003 73.6802C74.4003 73.4402 73.9203 73.2002 73.6803 73.2002C73.4403 73.2002 73.2003 73.2002 72.9603 73.4402C72.0003 74.6402 69.3603 75.1202 67.2003 74.6402C66.4803 74.4002 66.0003 74.1602 65.2803 73.6802C65.0403 73.4402 64.8003 73.2002 64.5603 72.9602C62.8803 71.5202 62.4003 70.5602 56.4003 74.6402C54.4803 76.0802 52.5603 76.8002 50.6403 77.5202C48.4803 78.2402 46.5603 78.4802 44.8803 78.7202H44.6403C43.6803 78.7202 41.5203 80.8802 41.2803 81.8402C41.5203 81.8402 41.2803 81.8402 41.2803 81.8402Z" fill="#EF7881"/>
<path d="M62.1602 86.4002H72.0002C73.6802 86.4002 75.1202 85.2002 75.1202 83.5202V78.4802C75.1202 77.5202 75.1202 76.8002 74.8802 75.8402L74.4002 73.6802C74.4002 73.4402 73.9202 73.2002 73.6802 73.2002C73.4402 73.2002 73.2002 73.2002 72.9602 73.4402C72.0002 74.6402 69.3602 75.1202 67.2002 74.6402C65.7602 75.6002 63.1202 78.2402 62.6402 82.0802C62.1602 83.7602 62.1602 85.2002 62.1602 86.4002Z" fill="#EC5667"/>
<path d="M41.2803 81.8402C41.2803 84.2402 43.4403 86.4002 46.0803 86.4002H53.0403C52.0803 86.1602 50.6403 85.6802 50.6403 84.0002C50.6403 81.3602 47.7603 81.6002 47.2803 81.6002C46.8003 81.6002 44.8803 81.3602 44.8803 78.7202H44.6403C41.7603 78.9602 41.5203 80.8802 41.2803 81.8402Z" fill="#EA475F"/>
<path d="M50.8799 77.5201C50.8799 77.5201 52.3199 78.9601 54.4799 78.7201C56.1599 78.4801 62.6399 74.4001 64.5599 72.9601C61.6799 70.5601 62.1599 70.8001 56.3999 74.6401C54.4799 75.8401 52.5599 76.8001 50.8799 77.5201Z" fill="#EA475F"/>
<path d="M41.2803 81.8398C41.2803 84.2398 43.4403 86.3999 45.8403 86.3999H72.2403C73.6803 86.3999 74.8803 85.4399 75.1203 83.9999C75.1203 83.7599 75.1203 83.5198 75.1203 83.5198V81.8398H62.1603C61.4403 81.8398 60.9603 82.3198 60.9603 83.0398C60.9603 83.2798 60.9603 83.9999 60.0003 83.9999H44.1603C43.4403 83.9999 42.7203 83.5199 42.7203 82.5599C42.7203 81.8399 42.0003 81.8398 41.7603 81.8398H41.2803Z" fill="#E6E9EE"/>
<path d="M64.5605 86.4H72.2405C73.6805 86.4 74.8805 85.44 75.1205 84H66.9605C65.5205 84 64.5605 85.2 64.5605 86.4Z" fill="#CFD1DD"/>
</svg>
