<svg width="96" height="96" viewBox="0 0 96 96" fill="none" xmlns="http://www.w3.org/2000/svg">
<path d="M86.4002 27.6001V74.4001H55.2002V30.0001C55.2002 28.8001 56.4002 27.6001 57.6002 27.6001H86.4002Z" fill="#86CAFF"/>
<path d="M57.8402 27.6001V74.4001H55.2002V30.0001C55.2002 28.5601 56.4002 27.6001 57.8402 27.6001Z" fill="#78BAEF"/>
<path d="M86.4002 78.0003H58.8002C56.8802 78.0003 55.2002 76.3203 55.2002 74.4003C55.2002 72.4803 56.8802 70.8003 58.8002 70.8003H86.4002V78.0003Z" fill="#6BB0F2"/>
<path d="M86.3999 76.5602H59.0399C57.8399 76.5602 56.8799 75.6002 56.8799 74.4002C56.8799 73.2002 57.8399 72.2402 59.0399 72.2402H86.3999V76.5602Z" fill="#D6ECFF"/>
<path d="M79.2004 44.4003H64.8004C63.3604 44.4003 62.4004 43.2003 62.4004 42.0003V37.2003C62.4004 35.7603 63.6004 34.8003 64.8004 34.8003H79.2004C80.6404 34.8003 81.6004 36.0003 81.6004 37.2003V42.0003C81.6004 43.2003 80.4004 44.4003 79.2004 44.4003Z" fill="#F6CD7A"/>
<path d="M77.9998 56.4H65.9998C65.2798 56.4 64.7998 55.92 64.7998 55.2C64.7998 54.48 65.2798 54 65.9998 54H77.9998C78.7198 54 79.1998 54.48 79.1998 55.2C79.1998 55.92 78.7198 56.4 77.9998 56.4Z" fill="white"/>
<path d="M77.9998 61.2003H65.9998C65.2798 61.2003 64.7998 60.7203 64.7998 60.0003C64.7998 59.2803 65.2798 58.8003 65.9998 58.8003H77.9998C78.7198 58.8003 79.1998 59.2803 79.1998 60.0003C79.1998 60.7203 78.7198 61.2003 77.9998 61.2003Z" fill="white"/>
<path d="M50.3996 19.2002V76.3202L9.59961 75.1202V21.6002C9.59961 20.4002 10.7996 19.2002 11.9996 19.2002H50.3996Z" fill="#6B00DD"/>
<path d="M12.2396 19.2002V75.1202H9.59961V21.6002C9.59961 20.1602 10.7996 19.2002 12.2396 19.2002Z" fill="#6200BB"/>
<path d="M50.3996 78.72H13.1996C11.2796 78.72 9.59961 77.04 9.59961 75.12C9.59961 73.2 11.2796 71.52 13.1996 71.52H50.3996V78.72Z" fill="#45008E"/>
<path d="M50.3993 77.2804H13.4393C12.2393 77.2804 11.2793 76.3204 11.2793 75.1204C11.2793 73.9204 12.2393 72.9604 13.4393 72.9604H50.3993V77.2804Z" fill="#D6ECFF"/>
<path d="M37.9201 39.84H23.5201C22.0801 39.84 21.1201 38.64 21.1201 37.44V32.88C21.1201 31.44 22.3201 30.48 23.5201 30.48H37.9201C39.3601 30.48 40.3201 31.68 40.3201 32.88V37.44C40.3201 38.64 39.3601 39.84 37.9201 39.84Z" fill="#00CACA"/>
<path d="M41.2792 53.7603H20.3992C19.6792 53.7603 19.1992 53.2803 19.1992 52.5603C19.1992 51.8404 19.6792 51.3604 20.3992 51.3604H41.2792C41.9992 51.3604 42.4792 51.8404 42.4792 52.5603C42.4792 53.2803 41.9992 53.7603 41.2792 53.7603Z" fill="white"/>
<path d="M41.2792 58.5602H20.3992C19.6792 58.5602 19.1992 58.0802 19.1992 57.3602C19.1992 56.6402 19.6792 56.1602 20.3992 56.1602H41.2792C41.9992 56.1602 42.4792 56.6402 42.4792 57.3602C42.4792 58.0802 41.9992 58.5602 41.2792 58.5602Z" fill="white"/>
<path d="M16.0797 75.1201H13.6797V81.6001H16.0797V75.1201Z" fill="#EF7881"/>
</svg>
