<svg width="96" height="96" viewBox="0 0 96 96" fill="none" xmlns="http://www.w3.org/2000/svg">
<path d="M68.1605 63.6V12.96H14.6405V63.84C14.6405 65.76 14.1605 67.68 12.7205 68.88C12.0005 69.6 11.5205 70.32 11.5205 71.52V76.8C11.5205 78.48 12.9605 79.92 14.6405 80.16H15.1205H67.9205H68.1605C70.0805 79.92 71.5205 78.48 71.5205 76.8V71.52C71.5205 70.56 71.0405 69.6 70.3205 68.88C68.6405 67.44 68.1605 65.52 68.1605 63.6Z" fill="#146807"/>
<path d="M14.6405 71.28V76.56C14.6405 78.24 16.0805 79.68 17.7605 79.92H14.6405C12.9605 79.68 11.5205 78.24 11.5205 76.56V71.28C11.5205 70.32 12.0005 69.36 12.7205 68.64C14.1605 67.44 14.6405 65.52 14.6405 63.6V12.96H17.7605V63.84C17.7605 65.76 17.2805 67.68 15.8405 68.88C14.8805 69.36 14.6405 70.32 14.6405 71.28Z" fill="#1C5507"/>
<path d="M68.1606 12.96H14.6406V18.96H68.1606V12.96Z" fill="#F8DA9D"/>
<path d="M44.8802 61.9202H37.9202C33.8402 61.9202 30.2402 58.5602 30.2402 54.2402C30.2402 48.4802 35.0402 43.6802 40.8002 43.6802H41.5202C47.2802 43.6802 52.0802 48.4802 52.0802 54.2402C52.5602 58.5602 48.9602 61.9202 44.8802 61.9202Z" fill="#D3E6E2"/>
<path d="M41.2803 42.2402C44.594 42.2402 47.2803 39.6614 47.2803 36.4802C47.2803 33.2991 44.594 30.7202 41.2803 30.7202C37.9666 30.7202 35.2803 33.2991 35.2803 36.4802C35.2803 39.6614 37.9666 42.2402 41.2803 42.2402Z" fill="#D3E6E2"/>
<path d="M29.5205 46.5605C32.8342 46.5605 35.5205 43.9817 35.5205 40.8005C35.5205 37.6194 32.8342 35.0405 29.5205 35.0405C26.2068 35.0405 23.5205 37.6194 23.5205 40.8005C23.5205 43.9817 26.2068 46.5605 29.5205 46.5605Z" fill="#D3E6E2"/>
<path d="M53.2803 46.5605C56.594 46.5605 59.2803 43.9817 59.2803 40.8005C59.2803 37.6194 56.594 35.0405 53.2803 35.0405C49.9666 35.0405 47.2803 37.6194 47.2803 40.8005C47.2803 43.9817 49.9666 46.5605 53.2803 46.5605Z" fill="#D3E6E2"/>
<path d="M51.3602 57.8399C51.1202 58.5599 50.6402 59.0399 49.9202 59.5199C48.4802 60.9599 46.5602 61.6799 44.4002 61.6799H38.1602C33.8402 61.6799 30.2402 58.3199 30.2402 53.9999C30.2402 51.1199 31.4402 48.2399 33.6002 46.3199C34.0802 45.8399 34.8002 45.3599 35.2802 44.8799C34.0802 46.5599 33.3602 48.7199 33.3602 50.8799C33.3602 55.1999 36.9602 58.5599 41.2802 58.5599H47.5202C48.9602 58.7999 50.4002 58.5599 51.3602 57.8399Z" fill="#B9D6CF"/>
<path d="M46.8003 38.6397C45.8403 40.7997 43.6803 42.2397 41.2803 42.2397C37.9203 42.2397 35.2803 39.5997 35.2803 36.4797C35.2803 34.0797 36.7203 32.1597 38.8803 31.1997C38.6403 31.9197 38.4003 32.6397 38.4003 33.3597C38.4003 36.4797 41.0403 39.1197 44.4003 39.1197C45.3603 39.1197 46.0803 39.1197 46.8003 38.6397Z" fill="#B9D6CF"/>
<path d="M34.8003 42.96C33.8403 45.12 31.6803 46.56 29.2803 46.56C25.9203 46.56 23.2803 43.92 23.2803 40.8C23.2803 38.4 24.7203 36.48 26.8803 35.52C26.6403 36.24 26.4003 36.96 26.4003 37.68C26.4003 40.8 29.0403 43.44 32.4003 43.44C33.3603 43.44 34.3203 43.2 34.8003 42.96Z" fill="#B9D6CF"/>
<path d="M58.8003 42.96C57.8403 45.12 55.6803 46.56 53.2803 46.56C49.9203 46.56 47.2803 43.92 47.2803 40.8C47.2803 38.4 48.7203 36.48 50.8803 35.52C50.6403 36 50.4003 36.72 50.4003 37.68C50.4003 40.8 53.0403 43.44 56.4003 43.44C57.3603 43.44 58.0803 43.2 58.8003 42.96Z" fill="#B9D6CF"/>
<path d="M81.6009 83.0399H54.0009C52.3209 83.0399 50.8809 81.5999 50.8809 79.9199V64.5599C50.8809 62.8799 52.3209 61.4399 54.0009 61.4399H81.6009C83.2809 61.4399 84.7209 62.8799 84.7209 64.5599V79.9199C84.7209 81.8399 83.2809 83.0399 81.6009 83.0399Z" fill="#FF9E00"/>
<path d="M84.7209 80.1597C84.7209 81.8397 83.2809 83.2797 81.6009 83.2797H54.0009C52.3209 83.2797 50.8809 81.8397 50.8809 80.1597V64.7997C50.8809 63.1197 52.3209 61.6797 54.0009 61.6797V77.0397C54.0009 78.7197 55.4409 80.1597 57.1209 80.1597H84.7209Z" fill="#F17000"/>
<path d="M75.8409 72.24C77.2809 72 78.4809 70.8 78.4809 69.12C78.4809 67.44 77.0409 66 75.3609 66C73.6809 66 72.2409 67.44 72.2409 69.12C72.2409 69.36 72.2409 69.6 72.4809 69.84H62.8809C62.8809 69.6 63.1209 69.36 63.1209 69.12C63.1209 67.44 61.6809 66 60.0009 66C58.3209 66 56.8809 67.44 56.8809 69.12C56.8809 70.8 58.0809 72 59.5209 72.24C58.0809 72.48 56.8809 73.68 56.8809 75.36C56.8809 77.04 58.3209 78.48 60.0009 78.48C61.6809 78.48 63.1209 77.04 63.1209 75.36C63.1209 75.12 63.1209 74.88 62.8809 74.64H72.2409C72.2409 74.88 72.0009 75.12 72.0009 75.36C72.0009 77.04 73.4409 78.48 75.1209 78.48C76.8009 78.48 78.2409 77.04 78.2409 75.36C78.4809 73.68 77.2809 72.48 75.8409 72.24Z" fill="white"/>
</svg>
