<svg width="96" height="96" viewBox="0 0 96 96" fill="none" xmlns="http://www.w3.org/2000/svg">
<path d="M85.1996 51.3603V82.5603C85.1996 84.7203 83.5196 86.4003 81.5996 86.4003H67.1996C65.2796 86.4003 63.5996 84.7203 63.5996 82.5603V51.3603C63.5996 50.1603 64.0796 48.9603 64.7996 48.0003L70.7996 41.5203C70.5596 40.3203 70.5596 39.3603 70.5596 38.1603C70.5596 36.0003 70.5596 33.8403 70.7996 31.6803H70.0796C69.3596 31.6803 68.8796 31.2003 68.8796 30.4803V24.9603C68.8796 24.2403 69.3596 23.7603 70.0796 23.7603H78.7196C79.4396 23.7603 79.9196 24.2403 79.9196 24.9603V30.4803C79.9196 31.2003 79.4396 31.6803 78.7196 31.6803H77.9996C78.2396 33.8403 78.4796 36.0003 78.2396 38.1603C78.2396 39.3603 77.9996 40.3203 77.9996 41.5203L83.9996 48.0003C84.7196 48.9603 85.1996 50.1603 85.1996 51.3603Z" fill="#FF9400"/>
<path d="M79.9199 30.4803C79.9199 31.2003 79.4399 31.6803 78.7199 31.6803H77.9999C78.2399 33.8403 78.4799 36.0003 78.2399 38.1603H70.5599C70.5599 36.0003 70.5599 33.8403 70.7999 31.6803H70.0799C69.3599 31.6803 68.8799 31.2003 68.8799 30.4803V24.9603C68.8799 24.2403 69.3599 23.7603 70.0799 23.7603H78.7199C79.4399 23.7603 79.9199 24.2403 79.9199 24.9603V30.4803Z" fill="#4C4057"/>
<path d="M85.1996 82.5604C85.1996 84.7204 83.5196 86.4004 81.5996 86.4004H67.1996C65.2796 86.4004 63.5996 84.7204 63.5996 82.5604V51.3604C63.5996 51.3604 66.7196 80.4004 85.1996 82.5604Z" fill="#FF7000"/>
<path d="M79.9199 26.1602H68.8799V28.0802H79.9199V26.1602Z" fill="#D3E6E2"/>
<path d="M85.1996 52.3203H63.5996V77.7603H85.1996V52.3203Z" fill="#4C4057"/>
<path d="M75.1196 77.7603H63.5996V52.3203C64.3196 55.9203 66.7196 70.3203 75.1196 77.7603Z" fill="#372D40"/>
<path d="M82.7993 65.04C82.7993 68.4 79.1993 71.04 74.3993 71.04C72.4793 71.04 70.5593 70.56 69.1193 69.6C67.1993 68.4 66.2393 66.72 66.2393 65.04C66.2393 64.56 66.2393 63.84 66.4793 63.36C67.4393 60.72 70.5593 59.04 74.3993 59.04C78.9593 59.04 82.7993 61.68 82.7993 65.04Z" fill="#D3E6E2"/>
<path d="M69.1193 69.6003C67.1993 68.4004 66.2393 66.7204 66.2393 65.0404C66.2393 64.5604 66.2393 63.8404 66.4793 63.3604C67.1993 65.5204 67.9193 67.6804 69.1193 69.6003Z" fill="#B9D6CF"/>
<path d="M58.8002 81.1201V84.0001C58.8002 85.2001 57.8402 86.4001 56.4002 86.4001H39.6002C38.4002 86.4001 37.2002 85.4401 37.2002 84.0001V81.1201C37.2002 80.1601 37.9202 79.4401 38.8802 79.4401L37.2002 38.1601C37.2002 37.2001 37.4402 36.0001 37.9202 35.0401C38.1602 34.3201 38.6402 33.6001 39.3602 33.1201L44.4002 28.3201V24.9601C43.6802 24.9601 43.2002 24.4801 43.2002 23.7601V10.5601C43.2002 10.0801 43.6802 9.6001 44.1602 9.6001H51.6002C52.3202 9.6001 52.8002 10.0801 52.8002 10.5601V23.7601C52.8002 24.4801 52.3202 24.9601 51.6002 24.9601V28.3201L56.6402 33.1201C58.0802 34.5601 58.8002 36.2401 58.5602 38.1601L56.8802 79.4401H57.1202C57.6002 79.4401 58.0802 79.9201 58.5602 80.1601C58.8002 80.4001 58.8002 80.8801 58.8002 81.1201Z" fill="#C6ECE0"/>
<path d="M52.8002 10.5601V23.7601C52.8002 24.4801 52.3202 24.9601 51.6002 24.9601H44.4002C43.6802 24.9601 43.2002 24.4801 43.2002 23.7601V10.5601C43.2002 10.0801 43.6802 9.6001 44.1602 9.6001H51.6002C52.3202 9.6001 52.8002 10.0801 52.8002 10.5601Z" fill="#D40044"/>
<path d="M52.8002 14.1602H43.2002V16.0802H52.8002V14.1602Z" fill="#D3E6E2"/>
<path d="M58.8002 81.12V84C58.8002 85.2 57.8402 86.4 56.4002 86.4H39.6002C38.4002 86.4 37.2002 85.44 37.2002 84V81.12C37.2002 80.16 37.9202 79.44 38.8802 79.44L37.2002 38.16C37.2002 37.2 37.4402 36 37.9202 35.04C39.1202 44.16 43.4402 70.32 56.8802 79.44C56.8802 79.44 56.8802 79.44 57.1202 79.44C57.6002 79.68 58.0802 79.92 58.5602 80.16C58.8002 80.4 58.8002 80.88 58.8002 81.12Z" fill="#B0D3C6"/>
<path d="M54.4801 61.2H41.5201C40.8001 61.2 40.0801 60.48 40.0801 59.76V48.48C40.0801 47.76 40.8001 47.04 41.5201 47.04H54.4801C55.2001 47.04 55.9201 47.76 55.9201 48.48V59.76C55.9201 60.48 55.4401 61.2 54.4801 61.2Z" fill="#D40044"/>
<path d="M32.3998 53.7599V83.7599V83.9999C32.1598 85.1999 31.1998 86.3999 29.7598 86.3999H13.4398C11.9998 86.3999 10.7998 85.1999 10.7998 83.7599V53.7599C10.7998 53.2799 10.7998 52.5599 11.0398 52.0799C11.0398 51.8399 11.2798 51.5999 11.5198 51.1199C12.4798 49.6799 13.9198 49.1999 14.8798 49.1999H15.1198C17.9998 49.1999 18.7198 46.5599 18.9598 44.8799H18.2398C17.7598 44.8799 17.2798 44.3999 17.2798 43.9199V39.5999C17.2798 38.8799 17.7598 38.3999 18.7198 38.3999H24.4798C25.1998 38.3999 25.9198 38.8799 25.9198 39.5999V43.9199C25.9198 44.3999 25.4398 44.8799 24.9598 44.8799H24.2398C24.2398 46.5599 25.1998 49.1999 28.0798 49.1999H28.3198C29.5198 49.1999 31.4398 50.1599 32.1598 52.0799C32.3998 52.5599 32.3998 53.0399 32.3998 53.7599Z" fill="#146807"/>
<path d="M25.9193 39.5999V43.9199C25.9193 44.3999 25.4393 44.8799 24.9593 44.8799H24.2393H18.9593H18.2393C17.7593 44.8799 17.2793 44.3999 17.2793 43.9199V39.5999C17.2793 38.8799 17.7593 38.3999 18.7193 38.3999H24.4793C25.1993 38.3999 25.9193 38.8799 25.9193 39.5999Z" fill="#681E53"/>
<path d="M32.16 52.0799H11.04C11.04 51.8399 11.28 51.5999 11.52 51.1199C12.48 49.6799 13.92 49.1999 14.88 49.1999H15.12C18 49.1999 18.72 46.5599 18.96 44.8799H24.24C24.24 46.5599 25.2 49.1999 28.08 49.1999H28.32C29.52 49.1999 31.44 50.1599 32.16 52.0799Z" fill="#4FD947"/>
<path d="M32.3998 84.0001C32.1598 85.2001 31.1998 86.4001 29.7598 86.4001H13.4398C11.9998 86.4001 10.7998 85.2001 10.7998 83.7601V53.7601C10.7998 53.2801 10.7998 52.5601 11.0398 52.0801C11.0398 51.8401 11.2798 51.6001 11.5198 51.1201C14.1598 62.1601 18.9598 75.3601 27.3598 81.1201C29.5198 82.5601 31.1998 83.5201 32.3998 84.0001Z" fill="#1C5507"/>
<path d="M11.76 52.0801H11.04C11.04 51.8401 11.28 51.6001 11.52 51.1201C11.52 51.6001 11.52 51.8401 11.76 52.0801Z" fill="#46BD31"/>
<path d="M29.2799 57.1199V73.1999C29.2799 73.9199 28.7999 74.3999 28.0799 74.3999H15.1199C14.3999 74.3999 13.9199 73.9199 13.9199 73.1999V57.1199C13.9199 56.3999 14.3999 55.9199 15.1199 55.9199H28.0799C28.7999 55.9199 29.2799 56.3999 29.2799 57.1199Z" fill="#D3E6E2"/>
<path d="M20.6399 74.4H15.1199C14.3999 74.4 13.9199 73.92 13.9199 73.2V60C15.5999 65.04 17.7599 70.32 20.6399 74.4Z" fill="#B9D6CF"/>
<path d="M21.5997 63.8396C23.1903 63.8396 24.4797 62.5502 24.4797 60.9596C24.4797 59.369 23.1903 58.0796 21.5997 58.0796C20.0091 58.0796 18.7197 59.369 18.7197 60.9596C18.7197 62.5502 20.0091 63.8396 21.5997 63.8396Z" fill="#681E53"/>
<path d="M29.2799 67.4399H13.9199V69.5999H29.2799V67.4399Z" fill="#D40044"/>
</svg>
