<svg width="96" height="96" viewBox="0 0 96 96" fill="none" xmlns="http://www.w3.org/2000/svg">
<path d="M69.5998 55.1999H59.9998C55.9198 55.1999 52.7998 52.0799 52.7998 47.9999V21.5999C52.7998 17.5199 55.9198 14.3999 59.9998 14.3999H69.5998C73.6798 14.3999 76.7998 17.5199 76.7998 21.5999V47.9999C76.7998 52.0799 73.6798 55.1999 69.5998 55.1999Z" fill="#4FD947"/>
<path d="M75.8398 51.8399C74.3998 53.7599 72.2398 55.1999 69.5998 55.1999H59.9998C55.9198 55.1999 52.7998 52.0799 52.7998 47.9999V21.5999C52.7998 18.9599 54.2398 16.7999 56.1598 15.3599C55.6798 16.5599 55.1998 17.7599 55.1998 19.1999V45.5999C55.1998 49.6799 58.3198 52.7999 62.3998 52.7999H71.9998C73.4398 52.7999 74.6398 52.3199 75.8398 51.8399Z" fill="#43BF3A"/>
<path d="M72.7196 32.6399C72.2396 32.1599 71.5196 32.3999 71.0396 32.8799L65.9996 39.5999V21.5999C65.9996 20.8799 65.5196 20.3999 64.7996 20.3999C64.0796 20.3999 63.5996 20.8799 63.5996 21.5999V32.3999L58.5596 25.6799C58.0796 25.1999 57.3596 24.9599 56.8796 25.4399C56.3996 25.9199 56.1596 26.6399 56.6396 27.1199L63.5996 36.4799V46.5599L60.9596 42.7199C60.4796 42.2399 59.7596 41.9999 59.2796 42.4799C58.7996 42.9599 58.5596 43.6799 59.0396 44.1599L63.8396 50.8799V64.7999C63.8396 65.5199 64.3196 65.9999 65.0396 65.9999C65.7596 65.9999 66.2396 65.5199 66.2396 64.7999V43.6799L73.1996 34.3199C73.4396 33.8399 73.1996 32.8799 72.7196 32.6399Z" fill="#4C4057"/>
<path d="M31.2002 23.9995L12.2402 43.1995V81.5995H50.1602V43.1995L31.2002 23.9995Z" fill="#F8DA9D"/>
<path d="M33.6002 26.3995L14.6402 45.5995V81.5995H12.2402V43.1995L31.2002 23.9995L33.6002 26.3995Z" fill="#F6CD7A"/>
<path d="M54.4802 41.5197L33.1202 19.9197C32.6402 19.4397 31.9202 19.1997 31.2002 19.1997C30.4802 19.1997 29.7602 19.4397 29.2802 19.9197L7.9202 41.5197C6.9602 42.4797 6.9602 43.9197 7.9202 44.8797C8.4002 45.3597 8.8802 45.5997 9.6002 45.5997C10.3202 45.5997 10.8002 45.3597 11.2802 44.8797L31.2002 24.7197L51.1202 44.8797C51.6002 45.3597 52.0802 45.5997 52.8002 45.5997C53.5202 45.5997 54.0002 45.3597 54.4802 44.8797C55.4402 43.9197 55.4402 42.4797 54.4802 41.5197Z" fill="#EB3A3F"/>
<path d="M52.5608 83.9997H9.84082V81.5997C9.84082 80.3997 10.8008 79.1997 12.2408 79.1997H50.1608C51.3608 79.1997 52.5608 80.1597 52.5608 81.5997V83.9997Z" fill="#E2AA47"/>
<path d="M47.7606 47.9995H33.6006V79.1995H47.7606V47.9995Z" fill="#F6CD7A"/>
<path d="M45.6 50.3999H36V79.1999H45.6V50.3999Z" fill="#E2AA47"/>
<path d="M31.2 47.9995H17.04V67.1995H31.2V47.9995Z" fill="#F6CD7A"/>
<path d="M28.8002 50.3999H19.2002V64.7999H28.8002V50.3999Z" fill="#6BB0F2"/>
<path d="M31.2004 43.1996C33.8514 43.1996 36.0004 41.0506 36.0004 38.3996C36.0004 35.7486 33.8514 33.5996 31.2004 33.5996C28.5494 33.5996 26.4004 35.7486 26.4004 38.3996C26.4004 41.0506 28.5494 43.1996 31.2004 43.1996Z" fill="#F6CD7A"/>
<path d="M31.1998 40.7995C32.5253 40.7995 33.5998 39.725 33.5998 38.3995C33.5998 37.074 32.5253 35.9995 31.1998 35.9995C29.8743 35.9995 28.7998 37.074 28.7998 38.3995C28.7998 39.725 29.8743 40.7995 31.1998 40.7995Z" fill="#6BB0F2"/>
<path d="M79.2002 69.6002C78.2402 69.6002 77.2802 69.8402 76.3202 70.0802C75.1202 65.5202 70.8002 62.1602 66.0002 62.1602C60.0002 62.4002 55.2002 67.2002 55.2002 73.2002V84.0002H69.6002H76.8002H88.8002V79.2002C88.8002 73.9202 84.4802 69.6002 79.2002 69.6002Z" fill="#146807"/>
<path d="M88.8002 81.6003V84.0003H55.2002V73.2003C55.2002 71.0403 55.9202 68.8803 56.8802 67.2003C57.6002 66.0003 58.5602 65.2803 59.5202 64.3203C59.0402 65.0403 58.3202 66.0003 58.0802 66.9603C64.0802 66.9603 68.8802 71.0403 70.3202 76.5603C70.3202 76.5603 70.3202 76.8003 70.3202 77.0403C70.8002 79.6803 72.9602 81.3603 75.6002 81.3603H88.8002V81.6003Z" fill="#1C5507"/>
<path d="M68.4002 82.0801V84.0001H43.2002V82.0801C43.2002 75.1201 48.7202 69.6001 55.6802 69.6001C62.8802 69.6001 68.4002 75.1201 68.4002 82.0801Z" fill="#4FD947"/>
<path d="M68.4002 82.08V84H43.2002V82.08C43.2002 78 45.1202 74.4 48.2402 72C47.5202 72.96 47.0402 74.64 46.5602 76.56C45.8402 79.2 47.7602 81.6 50.4002 81.6H68.4002C68.4002 81.84 68.4002 82.08 68.4002 82.08Z" fill="#43BF3A"/>
<path d="M80.4002 80.3997C79.6802 80.3997 79.2002 79.9197 79.2002 79.1997V62.3997C79.2002 61.6797 79.6802 61.1997 80.4002 61.1997C81.1202 61.1997 81.6002 61.6797 81.6002 62.3997V79.1997C81.6002 79.9197 81.1202 80.3997 80.4002 80.3997Z" fill="#4C4057"/>
<path d="M82.8008 83.9999H78.0008L76.8008 74.3999H84.0008L82.8008 83.9999Z" fill="#E2AA47"/>
<path d="M80.4004 67.1998C77.0404 67.1998 74.4004 64.5598 74.4004 61.1998V58.7998C74.4004 55.4398 77.0404 52.7998 80.4004 52.7998C83.7604 52.7998 86.4004 55.4398 86.4004 58.7998V61.1998C86.4004 64.5598 83.7604 67.1998 80.4004 67.1998Z" fill="#146807"/>
<path d="M85.6804 64.08C84.7204 66 82.8004 67.2 80.4004 67.2C77.0404 67.2 74.4004 64.56 74.4004 61.2V58.8C74.4004 56.64 75.6004 54.48 77.5204 53.52C77.0404 54.24 76.8004 55.44 76.8004 56.4V58.8C76.8004 62.16 79.4404 64.8 82.8004 64.8C83.7604 64.8 84.7204 64.56 85.6804 64.08Z" fill="#1C5507"/>
<path d="M82.8006 57.5997C83.4633 57.5997 84.0006 57.0625 84.0006 56.3997C84.0006 55.737 83.4633 55.1997 82.8006 55.1997C82.1378 55.1997 81.6006 55.737 81.6006 56.3997C81.6006 57.0625 82.1378 57.5997 82.8006 57.5997Z" fill="#F6CD7A"/>
<path d="M78.0008 59.9996C78.6635 59.9996 79.2008 59.4623 79.2008 58.7996C79.2008 58.1369 78.6635 57.5996 78.0008 57.5996C77.338 57.5996 76.8008 58.1369 76.8008 58.7996C76.8008 59.4623 77.338 59.9996 78.0008 59.9996Z" fill="#F6CD7A"/>
<path d="M80.4002 64.7999C81.0629 64.7999 81.6002 64.2626 81.6002 63.5999C81.6002 62.9372 81.0629 62.3999 80.4002 62.3999C79.7375 62.3999 79.2002 62.9372 79.2002 63.5999C79.2002 64.2626 79.7375 64.7999 80.4002 64.7999Z" fill="#F6CD7A"/>
</svg>
