<svg width="96" height="96" viewBox="0 0 96 96" fill="none" xmlns="http://www.w3.org/2000/svg">
<path d="M88.3203 75.6002C88.3203 78.0002 87.3603 79.9202 85.9203 81.6002C84.4803 83.0402 82.3203 84.0002 79.9203 84.0002H55.6803C51.1203 84.0002 47.2803 80.1602 47.2803 75.6002C47.2803 73.9202 47.7603 72.4802 48.4803 71.2802C48.7203 70.8002 49.2003 70.0802 49.6803 69.6002C50.1603 69.1202 50.4003 68.8802 50.8803 68.6402C52.0803 67.6802 53.7603 67.2002 55.6803 67.2002H79.9203C84.4803 67.2002 88.3203 71.0402 88.3203 75.6002Z" fill="#4C4057"/>
<path d="M82.0796 13.92V55.68C82.0796 56.88 81.1196 57.6 80.1596 57.6H14.6396C13.4396 57.6 12.7196 56.64 12.7196 55.68V13.92C12.4796 12.96 13.4396 12 14.6396 12H80.1596C81.3596 12 82.0796 12.96 82.0796 13.92Z" fill="#4C4057"/>
<path d="M82.0797 51.3599V55.9199C82.0797 56.8799 81.1197 57.8399 80.1597 57.8399H14.6397C13.4397 57.8399 12.7197 56.8799 12.7197 55.9199V51.3599H82.0797Z" fill="#D3E6E2"/>
<path d="M15.1197 12V51.36H12.7197V13.92C12.7197 12.96 13.6797 12 15.1197 12Z" fill="#372D40"/>
<path d="M82.0797 55.4399V55.9199C82.0797 56.8799 81.1197 57.8399 80.1597 57.8399H14.6397C13.4397 57.8399 12.7197 56.8799 12.7197 55.9199V51.3599H15.1197V53.5199C15.1197 54.4799 16.0797 55.4399 17.0397 55.4399H82.0797Z" fill="#B9D6CF"/>
<path d="M22.5597 62.3998H17.7597C17.2797 62.3998 17.0397 61.6798 17.2797 61.4398L20.8797 57.8398H28.0797L23.9997 61.6798C23.7597 62.1598 23.2797 62.3998 22.5597 62.3998Z" fill="#4C4057"/>
<path d="M71.9995 62.3998H76.7995C77.2795 62.3998 77.5195 61.6798 77.2795 61.4398L73.6795 57.8398H66.4795L70.5595 61.6798C70.7995 62.1598 71.5195 62.3998 71.9995 62.3998Z" fill="#4C4057"/>
<path d="M36.2395 66.7197V62.1597C36.2395 56.3997 31.6795 51.8397 25.9195 51.8397C20.1595 51.8397 15.5995 56.3997 15.5995 62.1597V66.7197H11.5195V62.1597C11.5195 54.4797 17.9995 48.2397 25.6795 48.2397C33.3595 48.2397 39.8395 54.4797 39.8395 62.1597V66.7197H36.2395Z" fill="#EC5667"/>
<path d="M15.3597 79.6795H11.5197C9.35969 79.6795 7.67969 77.9995 7.67969 75.8395V70.3195C7.67969 68.1595 9.35969 66.4795 11.5197 66.4795H15.3597V79.6795Z" fill="#EF7881"/>
<path d="M15.3597 77.76V79.68H11.5197C9.35969 79.68 7.67969 78 7.67969 75.84V70.32C7.67969 68.88 8.63969 67.44 9.83969 66.96C9.83969 67.44 9.59969 67.92 9.59969 68.64V74.16C9.59969 76.32 11.2797 78 13.4397 78L15.3597 77.76Z" fill="#EC5667"/>
<path d="M17.2794 81.5996C16.0794 81.5996 15.3594 80.8796 15.3594 79.6796V66.4796C15.3594 65.5196 16.0794 64.5596 17.2794 64.5596H17.5194C18.2394 64.7996 19.1994 65.5196 19.1994 66.7196V79.9196C19.1994 80.8796 18.2394 81.5996 17.2794 81.5996Z" fill="#4C4057"/>
<path d="M36.2393 79.6795H40.0793C42.2393 79.6795 43.9193 77.9995 43.9193 75.8395V70.3195C43.9193 68.1595 42.2393 66.4795 40.0793 66.4795H36.2393V79.6795Z" fill="#EF7881"/>
<path d="M36.2393 77.76V79.68H40.0793C42.2393 79.68 43.9193 78 43.9193 75.84V70.32C43.9193 68.88 42.9593 67.44 41.7593 66.96C41.9993 67.44 41.9993 67.92 41.9993 68.4V73.92C41.9993 76.08 40.3193 77.76 38.1593 77.76H36.2393Z" fill="#EC5667"/>
<path d="M34.3192 81.5996C35.5192 81.5996 36.2392 80.8796 36.2392 79.6796V66.4796C36.2392 65.5196 35.5192 64.5596 34.3192 64.5596H34.0792C33.1192 64.5596 32.1592 65.2796 32.1592 66.4796V79.6796C32.3992 80.8796 33.3592 81.5996 34.3192 81.5996Z" fill="#4C4057"/>
<path d="M56.64 31.6798L44.4 24.7198C42.96 23.7598 41.04 24.9598 41.04 26.6398V40.7998C41.04 42.4798 42.96 43.4398 44.4 42.7198L56.64 35.7598C58.08 34.5598 58.08 32.6398 56.64 31.6798Z" fill="#EC5667"/>
<path d="M44.4 42.7199C42.72 43.6799 41.04 42.4799 41.04 40.7999V26.6399C41.04 24.9599 42.96 23.9999 44.4 24.7199C44.4 24.7199 43.68 25.6799 43.68 26.6399V40.7999C43.68 41.7599 44.4 42.7199 44.4 42.7199Z" fill="#D3374E"/>
<path d="M87.1191 71.5201H76.0791V69.1201H84.9591C85.9191 69.6001 86.6391 70.5601 87.1191 71.5201Z" fill="#372D40"/>
<path d="M88.3193 75.6002C88.3193 75.8402 88.3193 76.0802 88.3193 76.5602H76.3193V74.1602H88.0793C88.0793 74.4002 88.3193 75.1202 88.3193 75.6002Z" fill="#372D40"/>
<path d="M87.5993 78.9604C87.1193 79.9205 86.6393 80.6405 85.9193 81.3605H76.3193V78.9604H87.5993Z" fill="#372D40"/>
<path d="M59.5195 68.6401V71.2801H48.4795C48.7195 70.8001 49.1995 70.0801 49.6795 69.6001C50.1595 69.1201 50.3995 68.8801 50.8795 68.6401H59.5195V68.6401Z" fill="#372D40"/>
<path d="M59.5193 76.3202H47.2793C47.2793 76.0802 47.2793 75.8402 47.2793 75.3602C47.2793 74.8802 47.2793 74.4002 47.5193 73.6802H59.5193V76.3202V76.3202Z" fill="#372D40"/>
<path d="M59.519 78.9604V81.3605H49.679C48.959 80.6405 48.479 79.9205 47.999 78.9604H59.519Z" fill="#372D40"/>
<path d="M76.3195 67.2002H59.5195V84.0002H76.3195V67.2002Z" fill="#5F5866"/>
<path d="M76.3195 81.6001H59.5195V84.0001H76.3195V81.6001Z" fill="#4C4057"/>
<path d="M64.3192 79.4401C65.5121 79.4401 66.4792 78.7953 66.4792 78.0001C66.4792 77.2048 65.5121 76.5601 64.3192 76.5601C63.1262 76.5601 62.1592 77.2048 62.1592 78.0001C62.1592 78.7953 63.1262 79.4401 64.3192 79.4401Z" fill="#00CACA"/>
<path d="M71.2791 78.2399C72.4721 78.2399 73.4391 77.5952 73.4391 76.7999C73.4391 76.0046 72.4721 75.3599 71.2791 75.3599C70.0862 75.3599 69.1191 76.0046 69.1191 76.7999C69.1191 77.5952 70.0862 78.2399 71.2791 78.2399Z" fill="#00CACA"/>
<path d="M66.4793 78.0001H65.2793V71.5201C65.2793 71.2801 65.5193 71.0401 65.7593 71.0401L72.7193 69.1201C72.9593 69.1201 73.1993 69.1201 73.1993 69.1201C73.1993 69.1201 73.4393 69.3601 73.4393 69.6001V76.5601H72.2393V70.3201L66.4793 72.0001V78.0001Z" fill="#00CACA"/>
</svg>
