<svg width="96" height="96" viewBox="0 0 96 96" fill="none" xmlns="http://www.w3.org/2000/svg">
<path d="M84.0006 14.1602H38.6406V59.5202H84.0006V14.1602Z" fill="#FFEE6D"/>
<path d="M43.2 11.52H36V18.72H43.2V11.52Z" fill="#FFC926"/>
<path d="M50.4002 11.52H43.2002V18.72H50.4002V11.52Z" fill="#F6F8FF"/>
<path d="M57.6004 11.52H50.4004V18.72H57.6004V11.52Z" fill="#FF5E61"/>
<path d="M64.8006 11.52H57.6006V18.72H64.8006V11.52Z" fill="#C1FC97"/>
<path d="M71.9998 11.52H64.7998V18.72H71.9998V11.52Z" fill="#F6F8FF"/>
<path d="M86.4002 11.52H79.2002V18.72H86.4002V11.52Z" fill="#FFC926"/>
<path d="M79.2 11.52H72V18.72H79.2V11.52Z" fill="#FF5E61"/>
<path d="M50.4002 54.7202H43.2002V61.9202H50.4002V54.7202Z" fill="#C1FC97"/>
<path d="M57.6004 54.7202H50.4004V61.9202H57.6004V54.7202Z" fill="#FF5E61"/>
<path d="M64.8006 54.7202H57.6006V61.9202H64.8006V54.7202Z" fill="#F6F8FF"/>
<path d="M71.9998 54.7202H64.7998V61.9202H71.9998V54.7202Z" fill="#86CAFF"/>
<path d="M79.2 54.7202H72V61.9202H79.2V54.7202Z" fill="#F6F8FF"/>
<path d="M86.4002 54.7202H79.2002V61.9202H86.4002V54.7202Z" fill="#FFC926"/>
<path d="M86.4002 47.52H79.2002V54.72H86.4002V47.52Z" fill="#FF5E61"/>
<path d="M86.4002 40.3198H79.2002V47.5198H86.4002V40.3198Z" fill="#F6F8FF"/>
<path d="M86.4002 33.1201H79.2002V40.3201H86.4002V33.1201Z" fill="#86CAFF"/>
<path d="M86.4002 25.9199H79.2002V33.1199H86.4002V25.9199Z" fill="#F6F8FF"/>
<path d="M86.4002 18.7202H79.2002V25.9202H86.4002V18.7202Z" fill="#C1FC97"/>
<path d="M43.2 54.7202H36V61.9202H43.2V54.7202Z" fill="#FFC926"/>
<path d="M43.2 47.52H36V54.72H43.2V47.52Z" fill="#F6F8FF"/>
<path d="M43.2 40.3203H36V47.5203H43.2V40.3203Z" fill="#FF5E61"/>
<path d="M43.2 33.1201H36V40.3201H43.2V33.1201Z" fill="#F6F8FF"/>
<path d="M43.2 25.9199H36V33.1199H43.2V25.9199Z" fill="#86CAFF"/>
<path d="M43.2 18.7202H36V25.9202H43.2V18.7202Z" fill="#C1FC97"/>
<path d="M71.7594 40.32H59.7594C58.5594 40.32 57.3594 39.36 57.3594 37.92V25.92C57.3594 24.72 58.3194 23.52 59.7594 23.52H71.7594C72.9594 23.52 74.1594 24.48 74.1594 25.92V37.92C74.1594 39.36 73.1994 40.32 71.7594 40.32Z" fill="#F6F8FF"/>
<path d="M74.1594 37.92C74.1594 39.12 73.4394 40.32 71.7594 40.32H59.7594C58.5594 40.32 57.3594 39.12 57.3594 37.92V25.92C57.3594 24.72 58.3194 23.52 59.7594 23.52V28.56C59.7594 30 60.7194 30.96 62.1594 30.96H64.0794C65.2794 30.96 66.4794 31.92 66.4794 33.36V35.52C66.4794 36.96 67.4394 37.92 68.8794 37.92H74.1594Z" fill="#D5D6D8"/>
<path d="M62.1598 49.9201H50.1598C48.9598 49.9201 47.7598 48.9601 47.7598 47.5201V35.5201C47.7598 34.3201 48.7198 33.1201 50.1598 33.1201H62.1598C63.3598 33.1201 64.5598 34.0801 64.5598 35.5201V47.5201C64.5598 48.9601 63.5998 49.9201 62.1598 49.9201Z" fill="#F6F8FF"/>
<path d="M64.5598 47.5201C64.5598 48.9601 63.5998 49.9201 62.1598 49.9201H50.1598C48.9598 49.9201 47.7598 48.9601 47.7598 47.5201V35.5201C47.7598 34.0801 48.9598 33.1201 50.1598 33.1201V45.1201C50.1598 46.5601 51.3598 47.5201 52.5598 47.5201H64.5598Z" fill="#D5D6D8"/>
<path d="M65.9998 33.1202C66.6625 33.1202 67.1998 32.583 67.1998 31.9202C67.1998 31.2575 66.6625 30.7202 65.9998 30.7202C65.3371 30.7202 64.7998 31.2575 64.7998 31.9202C64.7998 32.583 65.3371 33.1202 65.9998 33.1202Z" fill="#4C4057"/>
<path d="M70.7996 28.0797C71.4623 28.0797 71.9996 27.5424 71.9996 26.8797C71.9996 26.2169 71.4623 25.6797 70.7996 25.6797C70.1369 25.6797 69.5996 26.2169 69.5996 26.8797C69.5996 27.5424 70.1369 28.0797 70.7996 28.0797Z" fill="#4C4057"/>
<path d="M70.7996 37.6798C71.4623 37.6798 71.9996 37.1425 71.9996 36.4798C71.9996 35.817 71.4623 35.2798 70.7996 35.2798C70.1369 35.2798 69.5996 35.817 69.5996 36.4798C69.5996 37.1425 70.1369 37.6798 70.7996 37.6798Z" fill="#4C4057"/>
<path d="M61.2 28.0797C61.8627 28.0797 62.4 27.5424 62.4 26.8797C62.4 26.2169 61.8627 25.6797 61.2 25.6797C60.5373 25.6797 60 26.2169 60 26.8797C60 27.5424 60.5373 28.0797 61.2 28.0797Z" fill="#4C4057"/>
<path d="M61.2 42.7198C61.8627 42.7198 62.4 42.1826 62.4 41.5198C62.4 40.8571 61.8627 40.3198 61.2 40.3198C60.5373 40.3198 60 40.8571 60 41.5198C60 42.1826 60.5373 42.7198 61.2 42.7198Z" fill="#4C4057"/>
<path d="M61.2 37.6798C61.8627 37.6798 62.4 37.1425 62.4 36.4798C62.4 35.817 61.8627 35.2798 61.2 35.2798C60.5373 35.2798 60 35.817 60 36.4798C60 37.1425 60.5373 37.6798 61.2 37.6798Z" fill="#4C4057"/>
<path d="M61.2 47.5201C61.8627 47.5201 62.4 46.9829 62.4 46.3201C62.4 45.6574 61.8627 45.1201 61.2 45.1201C60.5373 45.1201 60 45.6574 60 46.3201C60 46.9829 60.5373 47.5201 61.2 47.5201Z" fill="#4C4057"/>
<path d="M51.6004 42.7198C52.2631 42.7198 52.8004 42.1826 52.8004 41.5198C52.8004 40.8571 52.2631 40.3198 51.6004 40.3198C50.9377 40.3198 50.4004 40.8571 50.4004 41.5198C50.4004 42.1826 50.9377 42.7198 51.6004 42.7198Z" fill="#4C4057"/>
<path d="M51.6004 37.6798C52.2631 37.6798 52.8004 37.1425 52.8004 36.4798C52.8004 35.817 52.2631 35.2798 51.6004 35.2798C50.9377 35.2798 50.4004 35.817 50.4004 36.4798C50.4004 37.1425 50.9377 37.6798 51.6004 37.6798Z" fill="#4C4057"/>
<path d="M51.6004 47.5201C52.2631 47.5201 52.8004 46.9829 52.8004 46.3201C52.8004 45.6574 52.2631 45.1201 51.6004 45.1201C50.9377 45.1201 50.4004 45.6574 50.4004 46.3201C50.4004 46.9829 50.9377 47.5201 51.6004 47.5201Z" fill="#4C4057"/>
<path d="M53.0398 57.8398H50.3998C48.4798 57.8398 46.7998 59.5198 46.7998 61.4398C46.7998 61.4398 53.0398 74.8799 55.1998 74.8799C55.9198 74.8799 56.3998 74.3999 56.3998 73.6799V61.4398C56.6398 59.2798 54.9598 57.8398 53.0398 57.8398Z" fill="#D40044"/>
<path d="M17.7598 46.5599L15.8398 44.3999C15.1198 43.6799 15.1198 42.4799 15.8398 41.9999L17.0398 40.7999C18.9598 38.8799 21.8398 38.3999 24.4798 39.3599C28.0798 40.7999 30.9598 43.6799 32.3998 47.2799L34.5598 52.3199C34.7998 53.0399 34.5598 53.9999 33.8398 54.4799L29.5198 56.8799C28.7998 57.3599 27.8398 57.1199 27.3598 56.6399L17.7598 46.5599Z" fill="#D40044"/>
<path d="M51.839 66.2397V79.9197L42.239 82.7997V79.9197V74.8797C42.239 72.9597 40.799 71.5197 39.119 71.0397C38.879 71.0397 38.639 71.0397 38.399 71.0397H35.039H33.119C31.439 71.0397 29.759 72.2397 29.519 73.9197L27.359 81.5997L17.999 79.9197L21.599 66.2397L22.079 63.8397V63.5997L20.159 58.7997L18.959 59.9997C16.799 62.1597 13.199 61.9197 11.279 59.5197C9.59905 57.5997 10.079 54.4797 11.999 52.5597L18.959 45.5997C19.919 44.6397 20.879 44.1597 22.079 44.1597C23.999 44.1597 25.439 45.1197 26.159 47.0397L30.959 58.0797C31.439 59.0397 32.159 59.9997 32.879 60.4797C33.839 60.9597 34.799 61.4397 35.999 61.4397H47.039C49.679 61.4397 51.839 63.5997 51.839 66.2397Z" fill="#F8DA9D"/>
<path d="M38.8798 67.6797V71.0397C38.6398 71.0397 38.3998 71.0397 38.1598 71.0397H34.7998V67.6797H38.8798Z" fill="#6BB0F2"/>
<path d="M41.2801 66.48C41.2801 67.92 40.3201 68.88 38.8801 68.88H35.5201C34.0801 68.88 33.1201 67.68 33.1201 66.48V60.48C34.0801 60.96 35.0401 61.44 36.2401 61.44H41.2801V66.48Z" fill="#86CAFF"/>
<path d="M27.84 79.9198L27.36 81.5998L18 80.1598L21.6 66.2398L22.08 63.8398C21.84 65.2798 19.2 78.9598 27.84 79.9198Z" fill="#F6CD7A"/>
<path d="M51.8394 72.7197V79.6797L42.2394 82.5597V79.6797C41.9994 79.9197 50.3994 78.4797 51.8394 72.7197Z" fill="#F6CD7A"/>
<path d="M34.7996 84.48C17.5196 84.48 9.83961 74.64 9.59961 74.4L11.5196 72.96C11.5196 72.96 18.7196 82.32 34.7996 82.32C50.8796 82.32 58.0796 73.2 58.0796 72.96L59.9996 74.4C59.7596 74.64 52.0796 84.48 34.7996 84.48Z" fill="#6BB0F2"/>
</svg>
