<svg width="96" height="96" viewBox="0 0 96 96" fill="none" xmlns="http://www.w3.org/2000/svg">
<path d="M77.2805 79.1999H55.6805C51.6005 79.1999 48.4805 76.0799 48.4805 71.9999V33.5999C48.4805 29.5199 51.6005 26.3999 55.6805 26.3999H77.2805C81.3605 26.3999 84.4805 29.5199 84.4805 33.5999V71.9999C84.4805 76.0799 81.3605 79.1999 77.2805 79.1999Z" fill="#8D4FB4"/>
<path d="M71.5205 16.8H61.9205C60.4805 16.8 59.5205 15.84 59.5205 14.4C59.5205 12.96 60.4805 12 61.9205 12H71.5205C72.9605 12 73.9205 12.96 73.9205 14.4C73.9205 15.84 72.7205 16.8 71.5205 16.8Z" fill="#8D4FB4"/>
<path d="M65.2808 16.7998H62.8809V26.3998H65.2808V16.7998Z" fill="#B2DCFF"/>
<path d="M70.0807 16.7998H67.6807V26.3998H70.0807V16.7998Z" fill="#B2DCFF"/>
<path d="M55.9205 74.4002C54.4805 74.4002 53.5205 73.4402 53.5205 72.0002V33.6002C53.5205 32.4002 54.4805 31.2002 55.9205 31.2002H56.1605C57.3605 31.2002 58.5605 32.1602 58.5605 33.6002V72.2402C58.0805 73.4402 57.1205 74.4002 55.9205 74.4002Z" fill="#6D3F8E"/>
<path d="M66.7203 74.4002C65.2803 74.4002 64.3203 73.4402 64.3203 72.0002V33.6002C64.3203 32.4002 65.2803 31.2002 66.7203 31.2002H66.9603C68.1603 31.2002 69.3603 32.1602 69.3603 33.6002V72.2402C69.1203 73.4402 67.9203 74.4002 66.7203 74.4002Z" fill="#6D3F8E"/>
<path d="M77.5201 74.4002C76.0801 74.4002 75.1201 73.4402 75.1201 72.0002V33.6002C75.1201 32.4002 76.0801 31.2002 77.5201 31.2002H77.7601C78.9601 31.2002 80.1601 32.1602 80.1601 33.6002V72.2402C79.6801 73.4402 78.7201 74.4002 77.5201 74.4002Z" fill="#6D3F8E"/>
<path d="M47.2801 78.7201L43.6801 49.9201C43.4401 47.5201 41.5201 45.6001 39.1201 45.6001H27.1201H19.6801C17.2801 45.6001 15.3601 47.5201 15.1201 49.9201L11.5201 78.7201C11.0401 81.6001 13.2001 84.0001 16.0801 84.0001H27.1201H42.7201C45.6001 84.0001 47.7601 81.6001 47.2801 78.7201Z" fill="#FF5E61"/>
<path d="M38.6402 43.2001V50.6401H34.0802V43.2001C34.0802 40.5601 31.9202 38.4001 29.5202 38.4001C26.8802 38.4001 24.9602 40.5601 24.9602 43.2001V50.4001H20.1602V43.2001C20.1602 37.9201 24.2402 33.6001 29.5202 33.6001C34.5602 33.6001 38.6402 37.9201 38.6402 43.2001Z" fill="#4C4057"/>
<path d="M36.2403 43.2V50.64H33.8403V43.2C33.8403 40.56 31.6803 38.4 29.2803 38.4C26.6403 38.4 24.7203 40.56 24.7203 43.2V50.4H22.3203V43.2C22.3203 39.12 25.4403 36 29.2803 36C31.2003 36 32.8803 36.72 34.3203 38.16C35.5203 39.36 36.2403 41.28 36.2403 43.2Z" fill="#372D40"/>
<path d="M47.0402 81.1201C46.3202 82.8001 44.6402 84.0001 42.9602 84.0001H16.0802C13.4402 84.0001 11.2802 81.6001 11.5202 78.7201L15.1202 49.9201C15.3602 48.2401 16.3202 46.8001 17.7602 46.0801C17.5202 46.5601 17.5202 47.0401 17.2802 47.5201L13.6802 76.3201C13.4402 79.2001 15.6002 81.6001 18.2402 81.6001H44.8802C45.8402 81.6001 46.3202 81.3601 47.0402 81.1201Z" fill="#EB3A3F"/>
<path d="M54.2404 84H36.0005C33.3605 84 31.4404 82.08 30.9604 79.68L29.5205 65.28C29.0405 62.4 31.4405 60 34.3205 60H55.6805C58.5605 60 60.9604 62.4 60.7204 65.28L59.2805 79.68C58.8005 82.08 56.6404 84 54.2404 84Z" fill="#FF9400"/>
<path d="M54.2404 84H36.0005C33.3605 84 31.4404 82.08 30.9604 79.68L29.5205 65.28C29.0405 62.4 31.4405 60 34.3205 60H55.6805C58.5605 60 60.9604 62.4 60.7204 65.28L59.2805 79.68C58.8005 82.08 56.6404 84 54.2404 84Z" fill="#FF9400"/>
<path d="M58.5604 81.12C57.8404 82.8 56.1604 84 54.0004 84H35.7604C33.1204 84 30.9604 82.08 30.7204 79.68L29.2804 65.28C29.0404 63.12 30.2404 61.2 32.1604 60.48C31.9204 61.2 31.6804 62.16 31.6804 62.88L33.1204 77.28C33.3604 79.68 35.5204 81.6 38.1604 81.6H56.4004C57.3604 81.6 58.0804 81.36 58.5604 81.12Z" fill="#FF7000"/>
<path d="M44.88 75.6002C39.36 75.6002 35.04 71.2802 35.04 66.0002V62.4002C35.04 61.6802 35.52 61.2002 36.24 61.2002C36.96 61.2002 37.44 61.6802 37.44 62.4002V66.0002C37.44 69.8402 40.8 73.2002 44.88 73.2002C48.96 73.2002 52.32 69.8402 52.32 66.0002V62.4002C52.32 61.6802 52.8 61.2002 53.52 61.2002C54.24 61.2002 54.72 61.6802 54.72 62.4002V65.7602C54.96 71.2802 50.4 75.6002 44.88 75.6002Z" fill="#4C4057"/>
</svg>
