<svg width="28" height="28" viewBox="0 0 28 28" fill="none" xmlns="http://www.w3.org/2000/svg">
<path d="M1.99997 16.67H4.67002V26.0001C4.67002 26.7401 5.25997 27.3302 5.99997 27.3302H22C22.74 27.3302 23.3299 26.7401 23.3299 26.0001V16.67H26C26.53 16.67 26.9999 16.36 27.2199 15.88C27.4299 15.39 27.34 14.83 26.99 14.44L14.99 1.10994C14.49 0.549941 13.51 0.549941 13.01 1.10994L1.00998 14.44C0.659983 14.83 0.570002 15.39 0.780002 15.88C1 16.36 1.46997 16.67 1.99997 16.67ZM9.54001 13.5201C10.7 12.3801 12.5399 12.3801 13.6999 13.5201L14 13.8101L14.3 13.5201C15.46 12.3801 17.2999 12.3801 18.4699 13.5201C19.6299 14.6701 19.6299 16.4699 18.4699 17.6099L14 22.0001L9.54001 17.6099C8.38001 16.4699 8.38001 14.6701 9.54001 13.5201Z" fill="#11C856"/>
</svg>
