<svg width="28" height="28" viewBox="0 0 28 28" fill="none" xmlns="http://www.w3.org/2000/svg">
<path d="M18.7098 1.74027C17.6698 0.710273 16.0399 0.710273 14.9999 1.74027L1.79995 14.94C0.759952 15.98 0.699864 17.67 1.73986 18.71L9.28991 26.2598C9.80991 26.7798 10.4899 27.0401 11.1699 27.0401C11.8499 27.0401 12.5399 26.7798 13.0599 26.2598L26.2599 13.0601C27.2999 12.0201 27.2999 10.3301 26.2599 9.29008L18.7098 1.74027ZM9.60986 20.2798C9.08986 20.7998 8.24984 20.7998 7.71984 20.2798C7.19984 19.7498 7.19984 18.9102 7.71984 18.3902C8.24984 17.8702 9.08986 17.8702 9.60986 18.3902C10.1299 18.9102 10.1299 19.7498 9.60986 20.2798Z" fill="#11C856"/>
</svg>
