<svg width="218" height="79" viewBox="0 0 218 79" fill="none" xmlns="http://www.w3.org/2000/svg">
<path opacity="0.25" d="M217.5 45.02C217.51 44.47 217.08 44.01 216.52 44L207.53 43.79C206.97 43.77 206.52 44.21 206.5 44.76C206.49 45.31 206.93 45.77 207.48 45.78L215.48 45.98L215.29 53.97C215.27 54.53 215.71 54.98 216.26 55C216.81 55.01 217.27 54.57 217.28 54.02L217.5 45.02ZM215.81 44.28C214.27 45.74 212.75 47.15 211.24 48.51L212.58 49.99C214.1 48.63 215.64 47.21 217.19 45.72L215.81 44.28ZM201.99 56.27C198.64 58.89 195.37 61.22 192.18 63.27L193.26 64.95C196.5 62.86 199.82 60.5001 203.22 57.8501L201.99 56.27ZM181.73 69.1799C177.92 71.0299 174.23 72.4901 170.64 73.5801L171.22 75.49C174.92 74.37 178.71 72.88 182.61 70.98L181.73 69.1799ZM158.9 75.96C154.81 76.36 150.85 76.2901 147.01 75.8101L146.76 77.8C150.75 78.29 154.85 78.36 159.1 77.95L158.9 75.96ZM135.39 73.1201C131.64 71.8401 127.99 70.2101 124.42 68.3L123.47 70.0601C127.13 72.0201 130.88 73.69 134.74 75.01L135.39 73.1201ZM114.17 61.97C110.91 59.71 107.7 57.2499 104.52 54.6699L103.26 56.22C106.47 58.83 109.72 61.3101 113.03 63.6101L114.17 61.97ZM95.29 46.8201C92.26 44.1501 89.26 41.43 86.24 38.7L84.9 40.1799C87.91 42.9099 90.93 45.6401 93.97 48.3201L95.29 46.8201ZM77.1801 30.55C74.1101 27.84 71.01 25.1799 67.88 22.6399L66.62 24.1899C69.73 26.7099 72.8 29.35 75.86 32.05L77.1801 30.55ZM58.14 15.25C54.73 12.87 51.2499 10.69 47.6899 8.78003L46.75 10.54C50.23 12.41 53.64 14.5499 57 16.8899L58.14 15.25ZM36.4301 3.82007C32.5401 2.49007 28.54 1.53003 24.4 1.03003L24.16 3.01001C28.15 3.50001 32.02 4.41996 35.79 5.70996L36.4301 3.82007ZM12.0699 0.899902C8.15995 1.2999 4.14 2.10988 0 3.37988L0.589966 5.29004C4.60997 4.05004 8.50002 3.26989 12.27 2.88989L12.0699 0.899902Z" fill="#7C7B8A"/>
</svg>
