<svg width="28" height="12" viewBox="0 0 28 12" fill="none" xmlns="http://www.w3.org/2000/svg">
<path d="M16.5494 11.6699C17.2504 11.6699 17.9453 11.5298 18.5923 11.2598C19.2393 10.9898 19.8273 10.6001 20.3213 10.1001L26.8934 3.52002C27.1744 3.24002 27.3333 2.85996 27.3343 2.45996C27.3343 2.06996 27.1784 1.69016 26.8984 1.41016C26.6184 1.12016 26.2393 0.970215 25.8423 0.970215C25.4473 0.970215 25.0674 1.1199 24.7864 1.3999L17.5893 8.60986C17.3393 8.85986 17.0003 9 16.6473 9H15.3774C15.3594 9 15.3404 9 15.3224 9C14.6124 8.97 14.0463 8.37992 14.0453 7.66992C14.0453 6.94992 14.6114 6.36008 15.3224 6.33008C15.3404 6.33008 15.3573 6.33008 15.3753 6.33008C15.5693 6.33008 15.7603 6.28996 15.9363 6.20996C16.1113 6.11996 16.2674 6.00986 16.3924 5.85986C16.5174 5.70986 16.6083 5.5301 16.6593 5.3501C16.7073 5.1701 16.7183 4.9798 16.6913 4.7998C16.6173 4.4698 16.4364 4.18998 16.1764 3.97998C15.9104 3.76998 15.5783 3.66016 15.2383 3.66016H15.2104H9.99333C9.78833 3.66016 9.58633 3.62002 9.40233 3.52002L8.10338 2.87988C7.21838 2.43988 6.22438 2.27012 5.24138 2.37012C4.25838 2.48012 3.32733 2.87023 2.55833 3.49023L2.55437 3.5C1.95737 3.97 1.47737 4.57979 1.15037 5.27979C0.823374 5.96979 0.658341 6.73 0.667341 7.5V7.50977C0.667341 7.60977 0.713327 7.69977 0.790327 7.75977L3.85637 10.0601C5.24137 11.1001 6.92635 11.6699 8.65935 11.6699H16.5494Z" fill="#11C856"/>
</svg>
