<svg width="209" height="38" viewBox="0 0 209 38" fill="none" xmlns="http://www.w3.org/2000/svg">
<path opacity="0.25" d="M208.46 4.25989C208.61 3.72989 208.3 3.17991 207.77 3.02991L199.09 0.629766C198.56 0.489766 198.01 0.799962 197.86 1.32996C197.71 1.85996 198.03 2.40994 198.56 2.55994L206.27 4.68982L204.14 12.3998C203.99 12.9298 204.31 13.4798 204.84 13.6298C205.37 13.7798 205.92 13.4698 206.07 12.9298L208.46 4.25989ZM207.01 3.12C205.3 4.09 203.59 5.03985 201.87 5.96985L202.82 7.72986C204.55 6.78986 206.28 5.83999 207.99 4.85999L207.01 3.12ZM191.41 11.34C187.89 13.06 184.33 14.6999 180.75 16.2599L181.54 18.1C185.15 16.53 188.74 14.8698 192.29 13.1398L191.41 11.34ZM169.87 20.7098C166.2 22.1098 162.51 23.4198 158.8 24.6398L159.43 26.5399C163.17 25.3099 166.89 23.99 170.58 22.57L169.87 20.7098ZM147.57 28.0299C143.78 29.0799 139.976 30.02 136.167 30.85L136.595 32.7999C140.439 31.9599 144.27 31.0098 148.09 29.9598L147.57 28.0299ZM124.637 33.0399C120.762 33.6699 116.884 34.18 113.006 34.58L113.209 36.57C117.126 36.1699 121.044 35.6499 124.956 35.0199L124.637 33.0399ZM101.307 35.4098C97.3907 35.5598 93.4807 35.5899 89.5797 35.4899L89.5287 37.4899C93.4737 37.5899 97.4277 37.5598 101.386 37.4098L101.307 35.4098ZM77.8797 34.7899C73.9897 34.4299 70.1147 33.9199 66.2597 33.2799L65.9297 35.2499C69.8327 35.8999 73.7547 36.4099 77.6917 36.7899L77.8797 34.7899ZM54.7827 30.9198C51.0017 29.9998 47.2457 28.9299 43.5177 27.7199L42.8977 29.62C46.6737 30.85 50.4787 31.93 54.3077 32.87L54.7827 30.9198ZM32.5287 23.6598C28.9447 22.1798 25.3927 20.5599 21.8767 18.7799L20.9747 20.5599C24.5357 22.3599 28.1347 24.0099 31.7647 25.5099L32.5287 23.6598ZM11.6367 13.11C8.33172 11.11 5.06272 8.96981 1.83472 6.67981L0.678711 8.30994C3.94571 10.6299 7.25572 12.8 10.6027 14.82L11.6367 13.11Z" fill="#7C7B8A"/>
</svg>
