<svg width="28" height="26" viewBox="0 0 28 26" fill="none" xmlns="http://www.w3.org/2000/svg">
<path d="M27.332 8.66992C27.332 8.42992 27.2661 8.18998 27.1411 7.97998L23.5291 1.95996C23.0501 1.15996 22.1741 0.669922 21.2441 0.669922H6.75305C5.82205 0.669922 4.94608 1.15996 4.46808 1.95996L0.856079 7.97998C0.730079 8.18998 0.665039 8.42992 0.665039 8.66992C0.665039 10.0099 1.18005 11.2202 1.99805 12.1602V12.6699V15.3301V24.6699C1.99805 25.3999 2.59403 26 3.33203 26H13.998C14.736 26 15.332 25.3999 15.332 24.6699V18H20.665V24.6699C20.665 25.3999 21.261 26 21.998 26H24.665C25.402 26 25.998 25.3999 25.998 24.6699V15.3301V12.6699V12.1602C26.817 11.2202 27.332 10.0099 27.332 8.66992ZM24.644 9C24.478 10.31 23.356 11.3301 21.998 11.3301C20.528 11.3301 19.332 10.1399 19.332 8.66992C19.332 8.57992 19.2981 8.50016 19.2801 8.41016H19.3061L18.2921 3.33008H21.2441L24.644 9ZM11.3411 8.75L12.4241 3.33008H15.5721L16.6561 8.75C16.6091 10.18 15.438 11.3301 13.998 11.3301C12.558 11.3301 11.3881 10.18 11.3411 8.75ZM6.75305 3.33008H9.70508L8.69208 8.41016H8.71808C8.69808 8.50016 8.66504 8.57992 8.66504 8.66992C8.66504 10.1399 7.46905 11.3301 5.99805 11.3301C4.64105 11.3301 3.51809 10.31 3.35309 9L6.75305 3.33008ZM11.332 19.3301H5.99805V15.3301H11.332V19.3301Z" fill="#11C856"/>
</svg>
