<svg width="28" height="24" viewBox="0 0 28 24" fill="none" xmlns="http://www.w3.org/2000/svg">
<path d="M24.667 5.33008V2.66992C24.667 1.19992 23.471 0 22 0H4.66699C2.46199 0 0.666992 1.79 0.666992 4V20C0.666992 22.93 3.05899 24 4.66699 24H24.667C26.138 24 27.334 22.8001 27.334 21.3301V8C27.334 6.53 26.138 5.33008 24.667 5.33008ZM22 17.3301H19.334V12H22V17.3301ZM4.66699 5.33008C3.93099 5.33008 3.33398 4.73 3.33398 4C3.33398 3.27 3.93099 2.66992 4.66699 2.66992H22V5.33008H4.66699Z" fill="#11C856"/>
</svg>
