<svg width="211" height="60" viewBox="0 0 211 60" fill="none" xmlns="http://www.w3.org/2000/svg">
<path d="M210.733 52.5899C211.109 52.1799 211.085 51.5497 210.68 51.1797L204.082 45.0498C203.677 44.6798 203.044 44.6999 202.669 45.1099C202.293 45.5099 202.317 46.1498 202.722 46.5198L208.587 51.9598L203.146 57.8299C202.771 58.2299 202.794 58.8598 203.199 59.2398C203.604 59.6198 204.237 59.5897 204.612 59.1897L210.733 52.5899ZM209.962 50.9097C207.94 50.9797 205.952 51.0399 203.997 51.0799L204.037 53.0799C206.004 53.0399 208.004 52.9797 210.038 52.9097L209.962 50.9097ZM192.244 51.0999C188.191 51.0299 184.292 50.8697 180.534 50.6397L180.411 52.6397C184.199 52.8697 188.128 53.0299 192.208 53.0999L192.244 51.0999ZM168.793 49.6297C164.744 49.1797 160.87 48.6398 157.154 48.0198L156.823 49.9898C160.576 50.6198 164.486 51.1699 168.571 51.6199L168.793 49.6297ZM145.647 45.7298C141.696 44.8098 137.928 43.7998 134.315 42.7198L133.741 44.6397C137.394 45.7297 141.202 46.7497 145.196 47.6697L145.647 45.7298ZM123.168 38.9898C119.392 37.5898 115.774 36.1199 112.27 34.5999L111.474 36.4397C115.007 37.9697 118.66 39.4599 122.475 40.8699L123.168 38.9898ZM101.581 29.6997C97.9972 27.9697 94.4952 26.2198 91.0152 24.4798L90.1192 26.2598C93.5992 28.0098 97.1142 29.7598 100.714 31.4998L101.581 29.6997ZM80.4362 19.2198C76.9082 17.4998 73.3482 15.8198 69.7002 14.2198L68.8962 16.0498C72.5122 17.6398 76.0482 19.2998 79.5612 21.0098L80.4362 19.2198ZM58.6992 9.76981C55.0752 8.43981 51.3262 7.20989 47.4052 6.09989L46.8622 8.02982C50.7292 9.11982 54.4302 10.3397 58.0112 11.6497L58.6992 9.76981ZM35.8632 3.33988C32.1252 2.59988 28.2252 1.97978 24.1322 1.48978L23.8952 3.47977C27.9382 3.95977 31.7872 4.56984 35.4752 5.29984L35.8632 3.33988ZM12.2802 0.499794C8.50018 0.309794 4.5632 0.229814 0.450195 0.269814L0.469177 2.26981C4.54418 2.22981 8.44118 2.30979 12.1802 2.49979L12.2802 0.499794Z" fill="#11C856"/>
</svg>
