<svg width="24" height="24" viewBox="0 0 24 24" fill="none" xmlns="http://www.w3.org/2000/svg">
<path d="M3.32231 15.5944C3.03247 17.4442 3.29761 18.854 4.22183 19.7782C5.14604 20.7024 6.55582 20.9675 8.40558 20.6777C9.50862 22.1906 10.693 23 12 23C13.307 23 14.4914 22.1906 15.5944 20.6777C17.4442 20.9675 18.854 20.7024 19.7782 19.7782C20.7024 18.854 20.9675 17.4442 20.6777 15.5944C22.1906 14.4914 23 13.307 23 12C23 10.693 22.1906 9.50862 20.6777 8.40558C20.9675 6.55582 20.7024 5.14604 19.7782 4.22183C18.854 3.29761 17.4442 3.03247 15.5944 3.32231C14.4914 1.80938 13.307 1 12 1C10.693 1 9.50862 1.80938 8.40558 3.32231C6.55582 3.03247 5.14604 3.29761 4.22183 4.22183C3.29761 5.14604 3.03247 6.55582 3.32231 8.40558C1.80938 9.50862 1 10.693 1 12C1 13.307 1.80938 14.4914 3.32231 15.5944Z" fill="#11C856"/>
<path d="M15.293 8.29291L11.0001 12.5858L8.70718 10.2929L7.29297 11.7071L11.0001 15.4142L16.7072 9.70712L15.293 8.29291Z" fill="white"/>
</svg>
