<svg width="80" height="70" viewBox="50 20 130 42" fill="none" xmlns="http://www.w3.org/2000/svg">
<path fill-rule="evenodd" clip-rule="evenodd" d="M100 96C126.51 96 148 74.5097 148 48C148 21.4903 126.51 0 100 0C73.4903 0 52 21.4903 52 48C52 74.5097 73.4903 96 100 96Z" fill="#F0FAF3"/>
<path d="M104.5 37.333L112.5 39.9997V46.6663H108.5V57.333C108.5 57.6866 108.36 58.0258 108.109 58.2758C107.859 58.5259 107.52 58.6663 107.167 58.6663H93.8333C93.4797 58.6663 93.1406 58.5259 92.8905 58.2758C92.6405 58.0258 92.5 57.6866 92.5 57.333V46.6663H88.5V39.9997L96.5 37.333C96.5 38.3939 96.9214 39.4113 97.6716 40.1614C98.4217 40.9116 99.4391 41.333 100.5 41.333C101.561 41.333 102.578 40.9116 103.328 40.1614C104.079 39.4113 104.5 38.3939 104.5 37.333Z" stroke="#11C856" stroke-width="3" stroke-linecap="round" stroke-linejoin="round"/>
</svg>
