<svg width="80" height="70" viewBox="50 20 130 42" fill="none" xmlns="http://www.w3.org/2000/svg">
<path fill-rule="evenodd" clip-rule="evenodd" d="M100 96C126.51 96 148 74.5097 148 48C148 21.4903 126.51 0 100 0C73.4903 0 52 21.4903 52 48C52 74.5097 73.4903 96 100 96Z" fill="#F0FAF3"/>
<path d="M111.695 45.541L109.871 40.0677C109.326 38.4317 107.802 37.333 106.078 37.333H93.9207C92.1967 37.333 90.6727 38.4317 90.1273 40.0677L88.3033 45.541C87.3433 45.945 86.666 46.8943 86.666 47.9997V54.6663C86.666 55.6703 87.23 56.5357 88.0513 56.9903C88.034 57.0783 87.9993 57.1583 87.9993 57.2503V59.9997C87.9993 60.737 88.5953 61.333 89.3327 61.333H90.666C91.4033 61.333 91.9993 60.737 91.9993 59.9997V57.333H107.999V59.9997C107.999 60.737 108.595 61.333 109.333 61.333H110.666C111.403 61.333 111.999 60.737 111.999 59.9997V57.2503C111.999 57.1583 111.965 57.077 111.947 56.9903C112.769 56.5357 113.333 55.6703 113.333 54.6663V47.9997C113.333 46.8943 112.655 45.945 111.695 45.541ZM89.3327 54.6663V47.9997H110.666L110.669 54.6663H89.3327ZM93.9207 39.9997H106.077C106.651 39.9997 107.161 40.365 107.342 40.9117L108.817 45.333H91.182L92.6553 40.9117C92.838 40.365 93.3473 39.9997 93.9207 39.9997Z" fill="#11C856"/>
<path d="M92.666 53.333C93.7706 53.333 94.666 52.4376 94.666 51.333C94.666 50.2284 93.7706 49.333 92.666 49.333C91.5614 49.333 90.666 50.2284 90.666 51.333C90.666 52.4376 91.5614 53.333 92.666 53.333Z" fill="#11C856"/>
<path d="M107.334 53.333C108.439 53.333 109.334 52.4376 109.334 51.333C109.334 50.2284 108.439 49.333 107.334 49.333C106.229 49.333 105.334 50.2284 105.334 51.333C105.334 52.4376 106.229 53.333 107.334 53.333Z" fill="#11C856"/>
<g clip-path="url(#clip0)">
<path d="M52.188 140.784H45.156L43.956 144H40.596L47.388 127.44H49.956L56.748 144H53.388L52.188 140.784ZM51.204 138.168L48.66 131.424L46.14 138.168H51.204ZM62.6999 144.216C60.8599 144.216 59.4679 143.76 58.5239 142.848C57.5959 141.92 57.1319 140.56 57.1319 138.768V131.52H60.1079V138.624C60.1079 139.584 60.3079 140.312 60.7079 140.808C61.1239 141.304 61.7879 141.552 62.6999 141.552C63.6279 141.552 64.2919 141.312 64.6919 140.832C65.0919 140.336 65.2919 139.6 65.2919 138.624V131.52H68.2679V138.768C68.2679 140.576 67.7959 141.936 66.8519 142.848C65.9239 143.76 64.5399 144.216 62.6999 144.216ZM74.1891 133.608V139.968C74.1891 140.512 74.3011 140.904 74.5251 141.144C74.7651 141.368 75.1571 141.48 75.7011 141.48H76.7571V144H75.1491C73.8851 144 72.9171 143.672 72.2451 143.016C71.5731 142.344 71.2371 141.392 71.2371 140.16V133.608H69.0531V131.52H71.2371V129.072L74.1891 128.04V131.52H77.0211V133.608H74.1891ZM83.3623 144.216C81.5863 144.216 80.1943 143.728 79.1863 142.752C78.1783 141.776 77.6743 140.352 77.6743 138.48V136.992C77.6743 135.136 78.1783 133.728 79.1863 132.768C80.1943 131.792 81.5863 131.304 83.3623 131.304C85.1223 131.304 86.4983 131.792 87.4903 132.768C88.4983 133.744 89.0023 135.152 89.0023 136.992V138.48C89.0023 140.352 88.4983 141.776 87.4903 142.752C86.4983 143.728 85.1223 144.216 83.3623 144.216ZM83.3623 141.552C85.1543 141.552 86.0503 140.52 86.0503 138.456V137.04C86.0503 135.984 85.8183 135.208 85.3543 134.712C84.8903 134.2 84.2263 133.944 83.3623 133.944C81.5383 133.944 80.6263 134.976 80.6263 137.04V138.456C80.6263 140.52 81.5383 141.552 83.3623 141.552ZM90.3898 131.52H93.2938V132.864C93.7258 132.384 94.2538 132.016 94.8778 131.76C95.5018 131.504 96.1498 131.376 96.8218 131.376C97.5738 131.376 98.2618 131.52 98.8858 131.808C99.5098 132.08 100.03 132.496 100.446 133.056C101.502 131.936 102.838 131.376 104.454 131.376C105.99 131.376 107.182 131.808 108.03 132.672C108.878 133.52 109.302 134.704 109.302 136.224V144H106.326V136.824C106.326 135.896 106.118 135.2 105.702 134.736C105.302 134.256 104.71 134.016 103.926 134.016C103.11 134.016 102.47 134.272 102.006 134.784C101.558 135.28 101.334 135.984 101.334 136.896V144H98.3578V136.704C98.3578 135.808 98.1498 135.136 97.7338 134.688C97.3338 134.24 96.7498 134.016 95.9818 134.016C95.1498 134.016 94.5018 134.272 94.0378 134.784C93.5898 135.28 93.3658 136 93.3658 136.944V144H90.3898V131.52ZM116.401 144.216C114.625 144.216 113.233 143.728 112.225 142.752C111.217 141.776 110.713 140.352 110.713 138.48V136.992C110.713 135.136 111.217 133.728 112.225 132.768C113.233 131.792 114.625 131.304 116.401 131.304C118.161 131.304 119.537 131.792 120.529 132.768C121.537 133.744 122.041 135.152 122.041 136.992V138.48C122.041 140.352 121.537 141.776 120.529 142.752C119.537 143.728 118.161 144.216 116.401 144.216ZM116.401 141.552C118.193 141.552 119.089 140.52 119.089 138.456V137.04C119.089 135.984 118.857 135.208 118.393 134.712C117.929 134.2 117.265 133.944 116.401 133.944C114.577 133.944 113.665 134.976 113.665 137.04V138.456C113.665 140.52 114.577 141.552 116.401 141.552ZM127.4 133.608V139.968C127.4 140.512 127.512 140.904 127.736 141.144C127.976 141.368 128.368 141.48 128.912 141.48H129.968V144H128.36C127.096 144 126.128 143.672 125.456 143.016C124.784 142.344 124.448 141.392 124.448 140.16V133.608H122.264V131.52H124.448V129.072L127.4 128.04V131.52H130.232V133.608H127.4ZM131.432 127.368H134.384V129.744H131.432V127.368ZM131.432 131.52H134.384V144H131.432V131.52ZM134.669 131.52H137.885L140.933 139.992L143.957 131.52H147.173L142.133 144H139.685L134.669 131.52ZM149.978 138.576V138.624C149.978 140.624 151.002 141.624 153.05 141.624C153.738 141.624 154.298 141.496 154.73 141.24C155.178 140.984 155.434 140.624 155.498 140.16L155.522 140.088H158.426V140.232C158.346 141.432 157.81 142.4 156.818 143.136C155.842 143.856 154.546 144.216 152.93 144.216C151.09 144.216 149.642 143.712 148.586 142.704C147.546 141.696 147.026 140.224 147.026 138.288V137.208C147.026 135.304 147.538 133.848 148.562 132.84C149.586 131.816 150.994 131.304 152.786 131.304C154.578 131.304 155.986 131.808 157.01 132.816C158.034 133.824 158.546 135.264 158.546 137.136V138.576H149.978ZM152.786 133.848C151.026 133.848 150.09 134.744 149.978 136.536H155.57V136.368C155.57 135.536 155.314 134.912 154.802 134.496C154.306 134.064 153.634 133.848 152.786 133.848Z" fill="#1D293F"/>
<path d="M60.096 179.454C60.586 179.916 61.286 180.14 62.196 180.14C63.134 180.14 63.862 179.888 64.394 179.37C64.912 178.852 65.178 178.124 65.178 177.186V176.584C65.178 175.646 64.94 174.918 64.464 174.4C63.988 173.896 63.33 173.63 62.49 173.63C62.126 173.63 61.776 173.7 61.454 173.826C61.118 173.952 60.852 174.12 60.642 174.33V171.474H64.912V170.34H59.508V175.688H60.74C60.866 175.38 61.062 175.156 61.328 174.988C61.58 174.82 61.902 174.736 62.266 174.736C62.798 174.736 63.218 174.904 63.498 175.226C63.778 175.548 63.918 176.024 63.918 176.64V177.13C63.918 178.39 63.344 179.02 62.224 179.02C61.678 179.02 61.272 178.894 60.992 178.628C60.712 178.376 60.572 178.04 60.572 177.648V177.578H59.354V177.69C59.354 178.418 59.592 179.006 60.096 179.454ZM70.7659 175.94L68.3019 180H69.6739L72.0539 176.052C72.3899 175.52 72.6279 175.058 72.7679 174.638C72.9079 174.232 72.9919 173.798 72.9919 173.336V173.028C72.9919 172.174 72.7119 171.488 72.1519 170.97C71.5919 170.466 70.8359 170.2 69.8839 170.2C68.9319 170.2 68.1759 170.466 67.6159 170.984C67.0559 171.502 66.7759 172.202 66.7759 173.084V173.42C66.7759 173.952 66.8879 174.428 67.1259 174.848C67.3639 175.268 67.6999 175.604 68.1199 175.842C68.5399 176.08 69.0159 176.192 69.5479 176.192C70.0519 176.192 70.4579 176.108 70.7659 175.94ZM71.2419 174.624C70.9059 174.932 70.4579 175.072 69.8979 175.072C69.3239 175.072 68.8759 174.918 68.5399 174.61C68.2039 174.302 68.0359 173.896 68.0359 173.364V173.042C68.0359 172.51 68.1899 172.09 68.5259 171.782C68.8619 171.474 69.3099 171.306 69.8839 171.306C70.4439 171.306 70.8919 171.46 71.2279 171.768C71.5639 172.076 71.7319 172.496 71.7319 173.028V173.35C71.7319 173.896 71.5639 174.316 71.2419 174.624ZM75.2985 179.496C75.8305 179.93 76.5585 180.14 77.5105 180.14C78.4625 180.14 79.2045 179.902 79.7645 179.412C80.3105 178.936 80.5905 178.264 80.5905 177.424V177.172C80.5905 176.612 80.4505 176.122 80.1845 175.73C79.9185 175.338 79.5265 175.058 79.0225 174.89C79.4425 174.722 79.7785 174.456 80.0305 174.12C80.2825 173.784 80.4085 173.364 80.4085 172.874V172.664C80.4085 171.894 80.1425 171.292 79.6385 170.858C79.1345 170.424 78.4205 170.2 77.5245 170.2C76.6005 170.2 75.8865 170.424 75.3825 170.872C74.8785 171.32 74.6265 171.922 74.6265 172.706V172.86H75.8305V172.72C75.8305 172.272 75.9705 171.922 76.2505 171.67C76.5305 171.432 76.9365 171.306 77.4825 171.306C78.0145 171.306 78.4345 171.432 78.7145 171.684C78.9945 171.936 79.1485 172.286 79.1485 172.748V172.944C79.1485 173.42 78.9945 173.798 78.7005 174.05C78.3925 174.316 77.9585 174.442 77.3985 174.442H76.8385V175.562H77.4125C78.0285 175.562 78.5045 175.702 78.8265 175.968C79.1485 176.248 79.3165 176.64 79.3165 177.158V177.424C79.3165 177.942 79.1625 178.334 78.8545 178.614C78.5465 178.894 78.0985 179.034 77.5245 179.034C76.9365 179.034 76.5025 178.922 76.1945 178.684C75.8865 178.446 75.7465 178.096 75.7465 177.648V177.522H74.5145V177.662C74.5145 178.446 74.7665 179.062 75.2985 179.496ZM85.3872 172.832V182.268H86.5772V179.076C87.0532 179.776 87.8092 180.126 88.8452 180.126C89.7412 180.126 90.4692 179.846 91.0152 179.258C91.5612 178.684 91.8412 177.858 91.8412 176.78V176.024C91.8412 174.96 91.5612 174.148 91.0152 173.574C90.4692 173 89.7412 172.706 88.8452 172.706C88.3412 172.706 87.9072 172.804 87.5152 173C87.1232 173.196 86.8012 173.462 86.5632 173.798V172.832H85.3872ZM90.1332 178.488C89.7832 178.88 89.2932 179.076 88.6772 179.076C88.0192 179.076 87.5012 178.88 87.1372 178.488C86.7592 178.096 86.5772 177.564 86.5772 176.892V175.954C86.5772 175.282 86.7592 174.75 87.1232 174.358C87.4872 173.966 88.0052 173.756 88.6492 173.756C89.2932 173.756 89.7832 173.952 90.1332 174.344C90.4692 174.736 90.6512 175.31 90.6512 176.094V176.724C90.6512 177.508 90.4692 178.096 90.1332 178.488ZM93.5083 172.832V180H94.6983V175.87C94.6983 175.24 94.8803 174.736 95.2583 174.358C95.6363 173.994 96.1403 173.798 96.7563 173.798C97.0223 173.798 97.2883 173.84 97.5403 173.91V172.776C97.3583 172.748 97.1623 172.734 96.9663 172.734C96.4623 172.734 96.0283 172.832 95.6363 173.014C95.2443 173.196 94.9223 173.476 94.6843 173.84V172.832H93.5083ZM99.3753 179.272C99.9633 179.846 100.761 180.126 101.797 180.126C102.805 180.126 103.603 179.846 104.191 179.272C104.765 178.698 105.059 177.858 105.059 176.766V176.052C105.059 174.974 104.765 174.148 104.191 173.56C103.603 172.986 102.805 172.692 101.797 172.692C100.761 172.692 99.9633 172.986 99.3753 173.56C98.7873 174.134 98.5073 174.96 98.5073 176.052V176.766C98.5073 177.858 98.7873 178.698 99.3753 179.272ZM103.869 176.738C103.869 178.306 103.169 179.076 101.783 179.076C100.383 179.076 99.6973 178.306 99.6973 176.738V176.08C99.6973 174.54 100.383 173.756 101.783 173.756C103.169 173.756 103.869 174.54 103.869 176.08V176.738ZM107.317 179.272C107.849 179.846 108.563 180.126 109.487 180.126C109.991 180.126 110.453 180.042 110.845 179.86C111.237 179.678 111.545 179.412 111.783 179.062V180H112.959V170.34H111.783V173.784C111.545 173.448 111.223 173.182 110.817 172.986C110.411 172.79 109.963 172.692 109.459 172.692C108.563 172.692 107.849 172.986 107.317 173.56C106.785 174.148 106.519 174.96 106.519 176.024V176.794C106.519 177.872 106.785 178.698 107.317 179.272ZM111.237 178.488C110.873 178.88 110.355 179.076 109.711 179.076C109.067 179.076 108.577 178.894 108.227 178.502C107.877 178.11 107.709 177.522 107.709 176.738V176.094C107.709 175.31 107.877 174.736 108.227 174.344C108.563 173.952 109.053 173.756 109.697 173.756C110.341 173.756 110.859 173.952 111.223 174.344C111.587 174.736 111.783 175.282 111.783 175.954V176.892C111.783 177.564 111.601 178.096 111.237 178.488ZM115.634 179.342C116.152 179.846 116.908 180.098 117.902 180.098C118.896 180.098 119.652 179.846 120.184 179.342C120.716 178.838 120.982 178.11 120.982 177.158V172.832H119.792V177.032C119.792 177.704 119.638 178.208 119.33 178.544C119.022 178.88 118.56 179.034 117.916 179.034C116.656 179.034 116.04 178.376 116.04 177.032V172.832H114.85V177.158C114.85 178.11 115.102 178.838 115.634 179.342ZM123.52 179.272C124.094 179.846 124.906 180.126 125.942 180.126C126.88 180.126 127.608 179.902 128.14 179.44C128.672 178.978 128.938 178.348 128.938 177.55V177.494H127.776V177.55C127.776 178.026 127.608 178.404 127.3 178.67C126.978 178.95 126.53 179.076 125.942 179.076C124.542 179.076 123.842 178.306 123.842 176.738V176.08C123.842 174.54 124.542 173.756 125.942 173.756C126.53 173.756 126.978 173.896 127.3 174.162C127.608 174.442 127.776 174.82 127.776 175.296V175.366H128.938V175.296C128.938 174.484 128.672 173.854 128.14 173.392C127.608 172.93 126.866 172.692 125.928 172.692C124.892 172.692 124.094 172.986 123.52 173.56C122.932 174.134 122.652 174.96 122.652 176.052V176.766C122.652 177.858 122.932 178.698 123.52 179.272ZM132.464 173.728H134.368V172.832H132.464V170.788L131.274 171.278V172.832H130.014V173.728H131.274V177.942C131.274 179.314 131.988 180 133.416 180H134.214V178.964H133.612C133.192 178.964 132.898 178.88 132.73 178.712C132.548 178.544 132.464 178.264 132.464 177.872V173.728ZM136.325 179.496C136.857 179.888 137.599 180.084 138.551 180.084C139.503 180.084 140.259 179.902 140.819 179.51C141.379 179.118 141.659 178.572 141.659 177.872C141.659 177.298 141.463 176.85 141.071 176.528C140.679 176.22 140.091 176.01 139.293 175.912L138.201 175.772C137.669 175.716 137.305 175.618 137.095 175.464C136.871 175.31 136.773 175.086 136.773 174.778C136.773 174.442 136.913 174.176 137.221 173.98C137.515 173.798 137.963 173.7 138.565 173.7C139.153 173.7 139.601 173.812 139.923 174.008C140.245 174.204 140.413 174.498 140.413 174.876V174.918H141.547V174.862C141.547 174.218 141.281 173.7 140.749 173.308C140.217 172.93 139.475 172.734 138.551 172.734C137.655 172.734 136.941 172.93 136.423 173.308C135.891 173.686 135.639 174.204 135.639 174.862C135.639 175.436 135.821 175.884 136.199 176.192C136.563 176.5 137.151 176.71 137.949 176.794L138.971 176.92C139.503 176.976 139.895 177.088 140.147 177.242C140.399 177.41 140.525 177.634 140.525 177.942C140.525 178.32 140.343 178.6 140.007 178.796C139.671 178.992 139.195 179.09 138.607 179.09C137.935 179.09 137.445 178.978 137.137 178.754C136.815 178.53 136.661 178.236 136.661 177.844V177.816H135.527V177.858C135.527 178.558 135.793 179.104 136.325 179.496Z" fill="#7C7B8A"/>
</g>
<defs>
<clipPath id="clip0">
<rect width="120" height="64" fill="white" transform="translate(40.5 120)"/>
</clipPath>
</defs>
</svg>
