<svg width="80" height="70" viewBox="50 20 130 42" fill="none" xmlns="http://www.w3.org/2000/svg">
<path fill-rule="evenodd" clip-rule="evenodd" d="M100 96C126.51 96 148 74.5097 148 48C148 21.4903 126.51 0 100 0C73.4903 0 52 21.4903 52 48C52 74.5097 73.4903 96 100 96Z" fill="#F0FAF3"/>
<path d="M111.322 45.3861C110.665 43.491 109.542 41.7913 108.056 40.4429C106.571 39.0946 104.771 38.1407 102.821 37.6688C103.172 37.4427 103.582 37.3258 104 37.3328C104.353 37.3328 104.693 37.1923 104.943 36.9423C105.193 36.6922 105.333 36.3531 105.333 35.9995C105.333 35.6459 105.193 35.3067 104.943 35.0567C104.693 34.8066 104.353 34.6661 104 34.6661C103.092 34.6466 102.198 34.8891 101.425 35.3647C100.652 35.8403 100.032 36.5287 99.6398 37.3475C97.2129 37.4177 94.8647 38.2242 92.9068 39.6599C90.9489 41.0956 89.4738 43.0927 88.6771 45.3861C87.7417 45.5405 86.8916 46.0219 86.2782 46.7447C85.6648 47.4675 85.3281 48.3847 85.3281 49.3327C85.3281 50.2809 85.6648 51.1979 86.2782 51.9209C86.8916 52.6437 87.7417 53.1251 88.6771 53.2794C89.4943 55.6314 91.0237 57.6705 93.0527 59.1135C95.0818 60.5566 97.5099 61.3319 99.9998 61.3319C102.49 61.3319 104.918 60.5566 106.947 59.1135C108.976 57.6705 110.505 55.6314 111.322 53.2794C112.258 53.1251 113.108 52.6437 113.721 51.9209C114.335 51.1979 114.671 50.2809 114.671 49.3327C114.671 48.3847 114.335 47.4675 113.721 46.7447C113.108 46.0219 112.258 45.5405 111.322 45.3861ZM110.676 50.6661L110.493 50.6421C110.169 50.6015 109.842 50.6803 109.572 50.8637C109.302 51.047 109.108 51.3222 109.026 51.6381C108.516 53.647 107.351 55.4285 105.715 56.701C104.079 57.9735 102.066 58.6643 99.9931 58.6643C97.9204 58.6643 95.907 57.9735 94.271 56.701C92.635 55.4285 91.4699 53.647 90.9598 51.6381C90.8869 51.351 90.7205 51.0963 90.4867 50.9142C90.253 50.7322 89.9653 50.6331 89.6691 50.6327C89.6131 50.6327 89.5571 50.6327 89.4998 50.6421L89.3331 50.6661C88.9795 50.6675 88.6398 50.5285 88.3887 50.2794C88.1377 50.0303 87.9959 49.6918 87.9944 49.3381C87.993 48.9845 88.1321 48.6449 88.3812 48.3938C88.6302 48.1427 88.9688 48.0009 89.3224 47.9994L89.4998 48.0221C89.8235 48.0649 90.1516 47.9873 90.4219 47.8042C90.6922 47.6211 90.886 47.3453 90.9664 47.0287C91.4252 45.2277 92.4131 43.6053 93.8027 42.3709C95.1923 41.1365 96.9198 40.3468 98.7624 40.1035C98.7016 40.5105 98.6695 40.9213 98.6664 41.3328C98.6664 41.6864 98.807 42.0256 99.057 42.2756C99.307 42.5257 99.6462 42.6661 99.9998 42.6661C100.353 42.6661 100.693 42.5257 100.943 42.2756C101.193 42.0256 101.333 41.6864 101.333 41.3328C101.344 40.9254 101.388 40.5195 101.466 40.1195C103.265 40.4042 104.941 41.2101 106.286 42.4375C107.631 43.6648 108.587 45.2598 109.034 47.0247C109.115 47.3413 109.309 47.6171 109.579 47.8002C109.849 47.9833 110.177 48.0609 110.501 48.0181L110.674 47.9994C111.028 47.9994 111.367 48.1399 111.617 48.3899C111.867 48.6401 112.008 48.9791 112.008 49.3327C112.008 49.6865 111.867 50.0255 111.617 50.2757C111.367 50.5257 111.028 50.6661 110.674 50.6661H110.676ZM97.9998 49.3327C97.9998 49.7283 97.8824 50.115 97.6627 50.4439C97.443 50.7729 97.1306 51.0291 96.7651 51.1806C96.3997 51.3319 95.9976 51.3715 95.6096 51.2943C95.2216 51.2171 94.8653 51.0267 94.5856 50.747C94.3059 50.4673 94.1154 50.111 94.0382 49.723C93.961 49.335 94.0006 48.9329 94.152 48.5674C94.3034 48.2019 94.5597 47.8897 94.8886 47.6698C95.2175 47.4501 95.6042 47.3327 95.9998 47.3327C96.5302 47.3327 97.0389 47.5435 97.414 47.9186C97.7891 48.2937 97.9998 48.8023 97.9998 49.3327ZM106 49.3327C106 49.7283 105.882 50.115 105.663 50.4439C105.443 50.7729 105.131 51.0291 104.765 51.1806C104.4 51.3319 103.998 51.3715 103.61 51.2943C103.222 51.2171 102.865 51.0267 102.586 50.747C102.306 50.4673 102.115 50.111 102.038 49.723C101.961 49.335 102.001 48.9329 102.152 48.5674C102.303 48.2019 102.56 47.8897 102.889 47.6698C103.218 47.4501 103.604 47.3327 104 47.3327C104.53 47.3327 105.039 47.5435 105.414 47.9186C105.789 48.2937 106 48.8023 106 49.3327Z" fill="#11C856"/>
<path d="M38.024 135.48C38.872 135.816 39.512 136.304 39.944 136.944C40.392 137.584 40.616 138.352 40.616 139.248C40.616 140.768 40.12 141.944 39.128 142.776C38.152 143.592 36.744 144 34.904 144H27.416V127.44H34.592C36.464 127.44 37.896 127.84 38.888 128.64C39.88 129.424 40.376 130.56 40.376 132.048C40.376 132.8 40.168 133.48 39.752 134.088C39.352 134.68 38.776 135.144 38.024 135.48ZM30.56 130.176V134.208H34.616C36.36 134.208 37.232 133.552 37.232 132.24C37.232 130.864 36.4 130.176 34.736 130.176H30.56ZM34.952 141.264C36.648 141.264 37.496 140.52 37.496 139.032C37.496 137.64 36.608 136.944 34.832 136.944H30.56V141.264H34.952ZM47.1591 131.376C48.9351 131.376 50.2951 131.776 51.2391 132.576C52.1991 133.376 52.6791 134.528 52.6791 136.032V144H49.7991V142.848C49.3031 143.312 48.7751 143.648 48.2151 143.856C47.6551 144.048 46.9751 144.144 46.1751 144.144C44.6711 144.144 43.5271 143.808 42.7431 143.136C41.9751 142.464 41.5911 141.512 41.5911 140.28C41.5911 139.096 41.9991 138.192 42.8151 137.568C43.6471 136.944 44.8391 136.632 46.3911 136.632H49.7271V135.888C49.7271 134.4 48.8471 133.656 47.0871 133.656C46.2871 133.656 45.7031 133.8 45.3351 134.088C44.9831 134.376 44.8071 134.744 44.8071 135.192V135.264H41.9751V135.192C41.9751 134.008 42.4391 133.08 43.3671 132.408C44.3111 131.72 45.5751 131.376 47.1591 131.376ZM46.8231 141.768C48.7591 141.768 49.7271 140.992 49.7271 139.44V138.672H46.9431C46.0951 138.672 45.4711 138.8 45.0711 139.056C44.6711 139.296 44.4711 139.68 44.4711 140.208C44.4711 140.704 44.6631 141.088 45.0471 141.36C45.4471 141.632 46.0391 141.768 46.8231 141.768ZM60.6968 144.216C59.2088 144.216 58.0328 143.72 57.1688 142.728V144H54.2648V127.44H57.2408V132.936C57.6408 132.424 58.1368 132.024 58.7288 131.736C59.3208 131.448 59.9848 131.304 60.7208 131.304C62.2088 131.304 63.3928 131.784 64.2728 132.744C65.1528 133.704 65.5928 135.088 65.5928 136.896V138.456C65.5928 139.656 65.3768 140.696 64.9448 141.576C64.5288 142.44 63.9528 143.096 63.2168 143.544C62.4808 143.992 61.6408 144.216 60.6968 144.216ZM60.0008 141.552C60.8488 141.552 61.4968 141.288 61.9448 140.76C62.3928 140.216 62.6168 139.408 62.6168 138.336V137.04C62.6168 134.976 61.7288 133.944 59.9528 133.944C59.1048 133.944 58.4408 134.216 57.9608 134.76C57.4808 135.288 57.2408 136.032 57.2408 136.992V138.576C57.2408 139.488 57.4888 140.216 57.9848 140.76C58.4808 141.288 59.1528 141.552 60.0008 141.552ZM78.0721 131.52L72.7681 145.08C72.4161 145.992 71.8961 146.656 71.2081 147.072C70.5201 147.488 69.6241 147.696 68.5201 147.696H67.3681V145.032H68.6641C69.2401 145.032 69.6561 144.952 69.9121 144.792C70.1841 144.648 70.4001 144.368 70.5601 143.952L70.6321 143.736L65.5441 131.52H68.7601L72.0001 139.872L74.9761 131.52H78.0721ZM90.3414 127.44C92.1974 127.44 93.6454 127.888 94.6854 128.784C95.7414 129.68 96.2694 130.96 96.2694 132.624C96.2694 134.224 95.7414 135.472 94.6854 136.368C93.6454 137.264 92.1574 137.712 90.2214 137.712H86.3334V144H83.1894V127.44H90.3414ZM90.4614 134.952C92.2374 134.952 93.1254 134.168 93.1254 132.6C93.1254 131.784 92.8934 131.176 92.4294 130.776C91.9654 130.376 91.3094 130.176 90.4614 130.176H86.3334V134.952H90.4614ZM97.1398 131.52H100.044V132.936C100.46 132.376 100.98 131.96 101.604 131.688C102.244 131.4 102.94 131.256 103.692 131.256C104.156 131.256 104.548 131.288 104.868 131.352V134.184C104.324 133.976 103.732 133.872 103.092 133.872C102.148 133.872 101.412 134.152 100.884 134.712C100.372 135.256 100.116 136.048 100.116 137.088V144H97.1398V131.52ZM110.612 144.216C108.836 144.216 107.444 143.728 106.436 142.752C105.428 141.776 104.924 140.352 104.924 138.48V136.992C104.924 135.136 105.428 133.728 106.436 132.768C107.444 131.792 108.836 131.304 110.612 131.304C112.372 131.304 113.748 131.792 114.74 132.768C115.748 133.744 116.252 135.152 116.252 136.992V138.48C116.252 140.352 115.748 141.776 114.74 142.752C113.748 143.728 112.372 144.216 110.612 144.216ZM110.612 141.552C112.404 141.552 113.3 140.52 113.3 138.456V137.04C113.3 135.984 113.068 135.208 112.604 134.712C112.14 134.2 111.476 133.944 110.612 133.944C108.788 133.944 107.876 134.976 107.876 137.04V138.456C107.876 140.52 108.788 141.552 110.612 141.552ZM122.32 144.216C120.848 144.216 119.664 143.728 118.768 142.752C117.888 141.776 117.448 140.368 117.448 138.528V136.968C117.448 135.768 117.648 134.744 118.048 133.896C118.464 133.048 119.032 132.408 119.752 131.976C120.488 131.528 121.328 131.304 122.272 131.304C123.744 131.304 124.92 131.824 125.8 132.864V127.44H128.752V144H125.848V142.656C125.032 143.696 123.856 144.216 122.32 144.216ZM122.992 141.552C123.856 141.552 124.536 141.288 125.032 140.76C125.544 140.232 125.8 139.504 125.8 138.576V136.992C125.8 136.032 125.56 135.288 125.08 134.76C124.6 134.216 123.928 133.944 123.064 133.944C122.216 133.944 121.56 134.208 121.096 134.736C120.648 135.248 120.424 136.04 120.424 137.112V138.408C120.424 139.464 120.648 140.256 121.096 140.784C121.544 141.296 122.176 141.552 122.992 141.552ZM135.919 144.216C134.079 144.216 132.687 143.76 131.743 142.848C130.815 141.92 130.351 140.56 130.351 138.768V131.52H133.327V138.624C133.327 139.584 133.527 140.312 133.927 140.808C134.343 141.304 135.007 141.552 135.919 141.552C136.847 141.552 137.511 141.312 137.911 140.832C138.311 140.336 138.511 139.6 138.511 138.624V131.52H141.487V138.768C141.487 140.576 141.015 141.936 140.071 142.848C139.143 143.76 137.759 144.216 135.919 144.216ZM148.581 144.216C146.805 144.216 145.413 143.728 144.405 142.752C143.397 141.776 142.893 140.352 142.893 138.48V136.992C142.893 135.136 143.397 133.728 144.405 132.768C145.413 131.792 146.805 131.304 148.581 131.304C150.325 131.304 151.685 131.712 152.661 132.528C153.637 133.344 154.125 134.472 154.125 135.912V136.056H151.221V135.96C151.221 135.336 150.989 134.848 150.525 134.496C150.077 134.128 149.453 133.944 148.653 133.944C147.725 133.944 147.021 134.192 146.541 134.688C146.077 135.184 145.845 135.968 145.845 137.04V138.456C145.845 139.544 146.085 140.336 146.565 140.832C147.045 141.312 147.765 141.552 148.725 141.552C149.493 141.552 150.093 141.384 150.525 141.048C150.973 140.696 151.197 140.224 151.197 139.632V139.536H154.101V139.632C154.101 141.056 153.613 142.176 152.637 142.992C151.661 143.808 150.309 144.216 148.581 144.216ZM159.463 133.608V139.968C159.463 140.512 159.575 140.904 159.799 141.144C160.039 141.368 160.431 141.48 160.975 141.48H162.031V144H160.423C159.159 144 158.191 143.672 157.519 143.016C156.847 142.344 156.511 141.392 156.511 140.16V133.608H154.327V131.52H156.511V129.072L159.463 128.04V131.52H162.295V133.608H159.463ZM168.459 144.144C166.763 144.144 165.443 143.8 164.499 143.112C163.555 142.408 163.083 141.424 163.083 140.16V140.088H165.867V140.136C165.867 140.632 166.099 141.024 166.563 141.312C167.027 141.6 167.715 141.744 168.627 141.744C169.475 141.744 170.115 141.624 170.547 141.384C170.995 141.144 171.219 140.792 171.219 140.328C171.219 139.944 171.059 139.648 170.739 139.44C170.435 139.232 169.931 139.088 169.227 139.008L167.379 138.792C165.971 138.616 164.931 138.248 164.259 137.688C163.603 137.112 163.275 136.296 163.275 135.24C163.275 134.008 163.739 133.056 164.667 132.384C165.595 131.712 166.867 131.376 168.483 131.376C170.147 131.376 171.451 131.712 172.395 132.384C173.339 133.056 173.811 133.984 173.811 135.168V135.264H171.051V135.192C171.051 134.712 170.835 134.344 170.403 134.088C169.971 133.832 169.323 133.704 168.459 133.704C167.643 133.704 167.035 133.824 166.635 134.064C166.251 134.288 166.059 134.616 166.059 135.048C166.059 135.4 166.195 135.68 166.467 135.888C166.739 136.096 167.195 136.232 167.835 136.296L169.827 136.536C171.267 136.696 172.331 137.08 173.019 137.688C173.707 138.28 174.051 139.096 174.051 140.136C174.051 141.432 173.547 142.424 172.539 143.112C171.547 143.8 170.187 144.144 168.459 144.144Z" fill="#1D293F"/>
<path d="M60.11 179.37C60.67 179.888 61.426 180.14 62.378 180.14C63.316 180.14 64.072 179.888 64.632 179.37C65.192 178.852 65.486 178.152 65.486 177.256V176.92C65.486 176.388 65.36 175.912 65.122 175.492C64.884 175.072 64.562 174.75 64.142 174.512C63.722 174.274 63.246 174.148 62.714 174.148C62.462 174.148 62.224 174.176 62.014 174.218C61.804 174.274 61.636 174.33 61.51 174.4L63.974 170.34H62.588L60.222 174.288C59.872 174.82 59.62 175.296 59.48 175.702C59.34 176.122 59.27 176.556 59.27 177.004V177.312C59.27 178.18 59.55 178.866 60.11 179.37ZM63.722 178.572C63.386 178.88 62.938 179.034 62.378 179.034C61.818 179.034 61.37 178.88 61.034 178.572C60.698 178.264 60.544 177.844 60.544 177.312V176.99C60.544 176.458 60.698 176.038 61.02 175.73C61.342 175.422 61.79 175.268 62.364 175.268C62.938 175.268 63.386 175.422 63.722 175.73C64.058 176.038 64.226 176.458 64.226 176.976V177.298C64.226 177.83 64.058 178.264 63.722 178.572ZM73.5326 178.208V177.074H72.3706V174.568H71.0966V177.074H68.1286L71.4186 170.34H70.1166L66.8266 177.074V178.208H71.0966V180H72.3706V178.208H73.5326ZM75.723 179.454C76.213 179.916 76.913 180.14 77.823 180.14C78.761 180.14 79.489 179.888 80.021 179.37C80.539 178.852 80.805 178.124 80.805 177.186V176.584C80.805 175.646 80.567 174.918 80.091 174.4C79.615 173.896 78.957 173.63 78.117 173.63C77.753 173.63 77.403 173.7 77.081 173.826C76.745 173.952 76.479 174.12 76.269 174.33V171.474H80.539V170.34H75.135V175.688H76.367C76.493 175.38 76.689 175.156 76.955 174.988C77.207 174.82 77.529 174.736 77.893 174.736C78.425 174.736 78.845 174.904 79.125 175.226C79.405 175.548 79.545 176.024 79.545 176.64V177.13C79.545 178.39 78.971 179.02 77.851 179.02C77.305 179.02 76.899 178.894 76.619 178.628C76.339 178.376 76.199 178.04 76.199 177.648V177.578H74.981V177.69C74.981 178.418 75.219 179.006 75.723 179.454ZM85.606 172.832V182.268H86.796V179.076C87.272 179.776 88.028 180.126 89.064 180.126C89.96 180.126 90.688 179.846 91.234 179.258C91.78 178.684 92.06 177.858 92.06 176.78V176.024C92.06 174.96 91.78 174.148 91.234 173.574C90.688 173 89.96 172.706 89.064 172.706C88.56 172.706 88.126 172.804 87.734 173C87.342 173.196 87.02 173.462 86.782 173.798V172.832H85.606ZM90.352 178.488C90.002 178.88 89.512 179.076 88.896 179.076C88.238 179.076 87.72 178.88 87.356 178.488C86.978 178.096 86.796 177.564 86.796 176.892V175.954C86.796 175.282 86.978 174.75 87.342 174.358C87.706 173.966 88.224 173.756 88.868 173.756C89.512 173.756 90.002 173.952 90.352 174.344C90.688 174.736 90.87 175.31 90.87 176.094V176.724C90.87 177.508 90.688 178.096 90.352 178.488ZM93.7271 172.832V180H94.9171V175.87C94.9171 175.24 95.0991 174.736 95.4771 174.358C95.8551 173.994 96.3591 173.798 96.9751 173.798C97.2411 173.798 97.5071 173.84 97.7591 173.91V172.776C97.5771 172.748 97.3811 172.734 97.1851 172.734C96.6811 172.734 96.2471 172.832 95.8551 173.014C95.4631 173.196 95.1411 173.476 94.9031 173.84V172.832H93.7271ZM99.594 179.272C100.182 179.846 100.98 180.126 102.016 180.126C103.024 180.126 103.822 179.846 104.41 179.272C104.984 178.698 105.278 177.858 105.278 176.766V176.052C105.278 174.974 104.984 174.148 104.41 173.56C103.822 172.986 103.024 172.692 102.016 172.692C100.98 172.692 100.182 172.986 99.594 173.56C99.006 174.134 98.726 174.96 98.726 176.052V176.766C98.726 177.858 99.006 178.698 99.594 179.272ZM104.088 176.738C104.088 178.306 103.388 179.076 102.002 179.076C100.602 179.076 99.916 178.306 99.916 176.738V176.08C99.916 174.54 100.602 173.756 102.002 173.756C103.388 173.756 104.088 174.54 104.088 176.08V176.738ZM107.536 179.272C108.068 179.846 108.782 180.126 109.706 180.126C110.21 180.126 110.672 180.042 111.064 179.86C111.456 179.678 111.764 179.412 112.002 179.062V180H113.178V170.34H112.002V173.784C111.764 173.448 111.442 173.182 111.036 172.986C110.63 172.79 110.182 172.692 109.678 172.692C108.782 172.692 108.068 172.986 107.536 173.56C107.004 174.148 106.738 174.96 106.738 176.024V176.794C106.738 177.872 107.004 178.698 107.536 179.272ZM111.456 178.488C111.092 178.88 110.574 179.076 109.93 179.076C109.286 179.076 108.796 178.894 108.446 178.502C108.096 178.11 107.928 177.522 107.928 176.738V176.094C107.928 175.31 108.096 174.736 108.446 174.344C108.782 173.952 109.272 173.756 109.916 173.756C110.56 173.756 111.078 173.952 111.442 174.344C111.806 174.736 112.002 175.282 112.002 175.954V176.892C112.002 177.564 111.82 178.096 111.456 178.488ZM115.853 179.342C116.371 179.846 117.127 180.098 118.121 180.098C119.115 180.098 119.871 179.846 120.403 179.342C120.935 178.838 121.201 178.11 121.201 177.158V172.832H120.011V177.032C120.011 177.704 119.857 178.208 119.549 178.544C119.241 178.88 118.779 179.034 118.135 179.034C116.875 179.034 116.259 178.376 116.259 177.032V172.832H115.069V177.158C115.069 178.11 115.321 178.838 115.853 179.342ZM123.739 179.272C124.313 179.846 125.125 180.126 126.161 180.126C127.099 180.126 127.827 179.902 128.359 179.44C128.891 178.978 129.157 178.348 129.157 177.55V177.494H127.995V177.55C127.995 178.026 127.827 178.404 127.519 178.67C127.197 178.95 126.749 179.076 126.161 179.076C124.761 179.076 124.061 178.306 124.061 176.738V176.08C124.061 174.54 124.761 173.756 126.161 173.756C126.749 173.756 127.197 173.896 127.519 174.162C127.827 174.442 127.995 174.82 127.995 175.296V175.366H129.157V175.296C129.157 174.484 128.891 173.854 128.359 173.392C127.827 172.93 127.085 172.692 126.147 172.692C125.111 172.692 124.313 172.986 123.739 173.56C123.151 174.134 122.871 174.96 122.871 176.052V176.766C122.871 177.858 123.151 178.698 123.739 179.272ZM132.683 173.728H134.587V172.832H132.683V170.788L131.493 171.278V172.832H130.233V173.728H131.493V177.942C131.493 179.314 132.207 180 133.635 180H134.433V178.964H133.831C133.411 178.964 133.117 178.88 132.949 178.712C132.767 178.544 132.683 178.264 132.683 177.872V173.728ZM136.544 179.496C137.076 179.888 137.818 180.084 138.77 180.084C139.722 180.084 140.478 179.902 141.038 179.51C141.598 179.118 141.878 178.572 141.878 177.872C141.878 177.298 141.682 176.85 141.29 176.528C140.898 176.22 140.31 176.01 139.512 175.912L138.42 175.772C137.888 175.716 137.524 175.618 137.314 175.464C137.09 175.31 136.992 175.086 136.992 174.778C136.992 174.442 137.132 174.176 137.44 173.98C137.734 173.798 138.182 173.7 138.784 173.7C139.372 173.7 139.82 173.812 140.142 174.008C140.464 174.204 140.632 174.498 140.632 174.876V174.918H141.766V174.862C141.766 174.218 141.5 173.7 140.968 173.308C140.436 172.93 139.694 172.734 138.77 172.734C137.874 172.734 137.16 172.93 136.642 173.308C136.11 173.686 135.858 174.204 135.858 174.862C135.858 175.436 136.04 175.884 136.418 176.192C136.782 176.5 137.37 176.71 138.168 176.794L139.19 176.92C139.722 176.976 140.114 177.088 140.366 177.242C140.618 177.41 140.744 177.634 140.744 177.942C140.744 178.32 140.562 178.6 140.226 178.796C139.89 178.992 139.414 179.09 138.826 179.09C138.154 179.09 137.664 178.978 137.356 178.754C137.034 178.53 136.88 178.236 136.88 177.844V177.816H135.746V177.858C135.746 178.558 136.012 179.104 136.544 179.496Z" fill="#7C7B8A"/>
</svg>
