<svg width="80" height="70" viewBox="50 20 130 42" fill="none" xmlns="http://www.w3.org/2000/svg">
<path fill-rule="evenodd" clip-rule="evenodd" d="M100 96C126.51 96 148 74.5097 148 48C148 21.4903 126.51 0 100 0C73.4903 0 52 21.4903 52 48C52 74.5097 73.4903 96 100 96Z" fill="#F0FAF3"/>
<path d="M113.305 43.5357C113.069 40.0583 110.153 37.333 106.666 37.333H93.3327C89.7607 37.333 86.8553 40.101 86.6833 43.649C86.67 43.7543 86.666 43.8637 86.666 43.9863V53.9997C86.666 55.233 87.1633 56.437 88.0287 57.301C88.8953 58.169 90.0993 58.6663 91.3327 58.6663C93.238 58.6663 94.4313 57.2517 95.5847 55.8837C96.0087 55.381 96.446 54.861 96.918 54.413C97.234 54.1117 98.3873 53.5503 98.97 53.4117C99.306 53.333 100.694 53.3343 101.025 53.4103C101.61 53.549 102.763 54.1117 103.079 54.4117C103.551 54.861 103.989 55.381 104.413 55.8837C105.567 57.2517 106.761 58.6663 108.666 58.6663C109.899 58.6663 111.103 58.169 111.967 57.3037C112.835 56.437 113.333 55.233 113.333 53.9997V43.9997C113.333 43.873 113.327 43.7597 113.314 43.653C113.311 43.6157 113.307 43.577 113.305 43.5357ZM110.666 53.9997C110.666 54.529 110.454 55.045 110.082 55.417C109.711 55.7877 109.195 55.9997 108.666 55.9997C107.999 55.9997 107.282 55.149 106.451 54.1637C106.003 53.6343 105.495 53.0317 104.919 52.481C104.15 51.749 102.491 51.017 101.638 50.8157C101.083 50.6863 100.373 50.6663 99.9993 50.6663C99.626 50.6663 98.9153 50.6863 98.3594 50.817C97.5087 51.017 95.85 51.749 95.0807 52.4823C94.5033 53.0317 93.9967 53.633 93.5487 54.1637C92.7167 55.149 91.9993 55.9997 91.3327 55.9997C90.8033 55.9997 90.2873 55.7877 89.9153 55.4157C89.5447 55.045 89.3327 54.529 89.3327 53.9997L89.3207 44.029C89.334 43.961 89.342 43.8917 89.3447 43.8223C89.4247 41.6797 91.1767 39.9997 93.3327 39.9997H106.666C108.755 39.9997 110.502 41.633 110.639 43.6263C110.639 43.7063 110.646 43.7863 110.653 43.7863C110.653 43.8717 110.649 43.9157 110.666 43.9997V53.9997Z" fill="#11C856"/>
<path d="M105.333 49.3337C106.07 49.3337 106.667 48.7367 106.667 48.0003C106.667 47.2639 106.07 46.667 105.333 46.667C104.597 46.667 104 47.2639 104 48.0003C104 48.7367 104.597 49.3337 105.333 49.3337Z" fill="#11C856"/>
<path d="M107.999 46.6667C108.736 46.6667 109.333 46.0697 109.333 45.3333C109.333 44.597 108.736 44 107.999 44C107.263 44 106.666 44.597 106.666 45.3333C106.666 46.0697 107.263 46.6667 107.999 46.6667Z" fill="#11C856"/>
<path d="M105.333 43.9997C106.07 43.9997 106.667 43.4027 106.667 42.6663C106.667 41.93 106.07 41.333 105.333 41.333C104.597 41.333 104 41.93 104 42.6663C104 43.4027 104.597 43.9997 105.333 43.9997Z" fill="#11C856"/>
<path d="M102.667 46.6667C103.404 46.6667 104.001 46.0697 104.001 45.3333C104.001 44.597 103.404 44 102.667 44C101.931 44 101.334 44.597 101.334 45.3333C101.334 46.0697 101.931 46.6667 102.667 46.6667Z" fill="#11C856"/>
<path d="M94.6667 48.0003C96.1394 48.0003 97.3333 46.8064 97.3333 45.3337C97.3333 43.8609 96.1394 42.667 94.6667 42.667C93.1939 42.667 92 43.8609 92 45.3337C92 46.8064 93.1939 48.0003 94.6667 48.0003Z" fill="#11C856"/>
<path d="M30.024 135.48C30.872 135.816 31.512 136.304 31.944 136.944C32.392 137.584 32.616 138.352 32.616 139.248C32.616 140.768 32.12 141.944 31.128 142.776C30.152 143.592 28.744 144 26.904 144H19.416V127.44H26.592C28.464 127.44 29.896 127.84 30.888 128.64C31.88 129.424 32.376 130.56 32.376 132.048C32.376 132.8 32.168 133.48 31.752 134.088C31.352 134.68 30.776 135.144 30.024 135.48ZM22.56 130.176V134.208H26.616C28.36 134.208 29.232 133.552 29.232 132.24C29.232 130.864 28.4 130.176 26.736 130.176H22.56ZM26.952 141.264C28.648 141.264 29.496 140.52 29.496 139.032C29.496 137.64 28.608 136.944 26.832 136.944H22.56V141.264H26.952ZM39.1591 131.376C40.9351 131.376 42.2951 131.776 43.2391 132.576C44.1991 133.376 44.6791 134.528 44.6791 136.032V144H41.7991V142.848C41.3031 143.312 40.7751 143.648 40.2151 143.856C39.6551 144.048 38.9751 144.144 38.1751 144.144C36.6711 144.144 35.5271 143.808 34.7431 143.136C33.9751 142.464 33.5911 141.512 33.5911 140.28C33.5911 139.096 33.9991 138.192 34.8151 137.568C35.6471 136.944 36.8391 136.632 38.3911 136.632H41.7271V135.888C41.7271 134.4 40.8471 133.656 39.0871 133.656C38.2871 133.656 37.7031 133.8 37.3351 134.088C36.9831 134.376 36.8071 134.744 36.8071 135.192V135.264H33.9751V135.192C33.9751 134.008 34.4391 133.08 35.3671 132.408C36.3111 131.72 37.5751 131.376 39.1591 131.376ZM38.8231 141.768C40.7591 141.768 41.7271 140.992 41.7271 139.44V138.672H38.9431C38.0951 138.672 37.4711 138.8 37.0711 139.056C36.6711 139.296 36.4711 139.68 36.4711 140.208C36.4711 140.704 36.6631 141.088 37.0471 141.36C37.4471 141.632 38.0391 141.768 38.8231 141.768ZM51.5208 147.936C49.9528 147.936 48.7128 147.624 47.8008 147C46.8888 146.376 46.4088 145.464 46.3608 144.264H49.2168C49.3288 144.68 49.5848 145 49.9848 145.224C50.4008 145.464 50.9608 145.584 51.6648 145.584C53.5208 145.584 54.4488 144.736 54.4488 143.04V141.744C53.6488 142.784 52.4808 143.304 50.9448 143.304C49.4728 143.304 48.2888 142.824 47.3928 141.864C46.5128 140.904 46.0728 139.528 46.0728 137.736V136.776C46.0728 135.048 46.5128 133.704 47.3928 132.744C48.2888 131.784 49.4568 131.304 50.8968 131.304C52.3528 131.304 53.5368 131.824 54.4488 132.864V131.52H57.3768V142.848C57.3768 144.432 56.8568 145.672 55.8168 146.568C54.7928 147.48 53.3608 147.936 51.5208 147.936ZM51.6168 140.64C52.4808 140.64 53.1608 140.384 53.6568 139.872C54.1688 139.36 54.4248 138.664 54.4248 137.784V136.8C54.4248 135.92 54.1768 135.224 53.6808 134.712C53.1848 134.2 52.5128 133.944 51.6648 133.944C50.8328 133.944 50.1848 134.192 49.7208 134.688C49.2728 135.168 49.0488 135.912 49.0488 136.92V137.616C49.0488 138.624 49.2648 139.384 49.6968 139.896C50.1448 140.392 50.7848 140.64 51.6168 140.64ZM63.8265 144.144C62.1305 144.144 60.8105 143.8 59.8665 143.112C58.9225 142.408 58.4505 141.424 58.4505 140.16V140.088H61.2345V140.136C61.2345 140.632 61.4665 141.024 61.9305 141.312C62.3945 141.6 63.0825 141.744 63.9945 141.744C64.8425 141.744 65.4825 141.624 65.9145 141.384C66.3625 141.144 66.5865 140.792 66.5865 140.328C66.5865 139.944 66.4265 139.648 66.1065 139.44C65.8025 139.232 65.2985 139.088 64.5945 139.008L62.7465 138.792C61.3385 138.616 60.2985 138.248 59.6265 137.688C58.9705 137.112 58.6425 136.296 58.6425 135.24C58.6425 134.008 59.1065 133.056 60.0345 132.384C60.9625 131.712 62.2345 131.376 63.8505 131.376C65.5145 131.376 66.8185 131.712 67.7625 132.384C68.7065 133.056 69.1785 133.984 69.1785 135.168V135.264H66.4185V135.192C66.4185 134.712 66.2025 134.344 65.7705 134.088C65.3385 133.832 64.6905 133.704 63.8265 133.704C63.0105 133.704 62.4025 133.824 62.0025 134.064C61.6185 134.288 61.4265 134.616 61.4265 135.048C61.4265 135.4 61.5625 135.68 61.8345 135.888C62.1065 136.096 62.5625 136.232 63.2025 136.296L65.1945 136.536C66.6345 136.696 67.6985 137.08 68.3865 137.688C69.0745 138.28 69.4185 139.096 69.4185 140.136C69.4185 141.432 68.9145 142.424 67.9065 143.112C66.9145 143.8 65.5545 144.144 63.8265 144.144ZM86.4477 140.664C86.7037 140.952 86.9437 141.152 87.1677 141.264C87.3917 141.376 87.6717 141.432 88.0077 141.432H88.5357V144H87.2397C86.6637 144 86.1677 143.896 85.7517 143.688C85.3517 143.48 84.9117 143.088 84.4317 142.512L84.3597 142.44C83.6397 143.128 82.9197 143.616 82.1997 143.904C81.4797 144.192 80.6957 144.336 79.8477 144.336C78.2637 144.336 77.0237 143.904 76.1277 143.04C75.2317 142.16 74.7837 141.024 74.7837 139.632C74.7837 138.656 75.0317 137.792 75.5277 137.04C76.0397 136.272 76.8557 135.536 77.9757 134.832C77.3357 134.032 76.8877 133.36 76.6317 132.816C76.3757 132.272 76.2477 131.696 76.2477 131.088C76.2477 129.888 76.6557 128.928 77.4717 128.208C78.3037 127.472 79.3757 127.104 80.6877 127.104C82.0157 127.104 83.0957 127.472 83.9277 128.208C84.7597 128.944 85.1757 129.904 85.1757 131.088C85.1757 131.92 84.9277 132.664 84.4317 133.32C83.9357 133.96 83.1037 134.656 81.9357 135.408L84.5757 138.48L86.7357 136.056L88.5837 137.736L86.2077 140.4L86.4477 140.664ZM80.7117 129.408C80.1837 129.408 79.7677 129.552 79.4637 129.84C79.1757 130.112 79.0317 130.488 79.0317 130.968C79.0317 131.32 79.1197 131.688 79.2957 132.072C79.4877 132.44 79.8397 132.928 80.3517 133.536C81.1677 133.04 81.7197 132.6 82.0077 132.216C82.2957 131.832 82.4397 131.432 82.4397 131.016C82.4397 130.536 82.2797 130.152 81.9597 129.864C81.6557 129.56 81.2397 129.408 80.7117 129.408ZM79.9917 141.768C80.4717 141.768 80.9277 141.672 81.3597 141.48C81.7917 141.288 82.2557 140.96 82.7517 140.496L79.6077 136.776C78.8717 137.256 78.3517 137.704 78.0477 138.12C77.7597 138.536 77.6157 139 77.6157 139.512C77.6157 140.216 77.8237 140.768 78.2397 141.168C78.6717 141.568 79.2557 141.768 79.9917 141.768ZM94.5644 127.44H97.7084V141.264H106.252V144H94.5644V127.44ZM112.231 144.216C110.391 144.216 108.999 143.76 108.055 142.848C107.127 141.92 106.663 140.56 106.663 138.768V131.52H109.639V138.624C109.639 139.584 109.839 140.312 110.239 140.808C110.655 141.304 111.319 141.552 112.231 141.552C113.159 141.552 113.823 141.312 114.223 140.832C114.623 140.336 114.823 139.6 114.823 138.624V131.52H117.799V138.768C117.799 140.576 117.327 141.936 116.383 142.848C115.455 143.76 114.071 144.216 112.231 144.216ZM124.654 147.936C123.086 147.936 121.846 147.624 120.934 147C120.022 146.376 119.542 145.464 119.494 144.264H122.35C122.462 144.68 122.718 145 123.118 145.224C123.534 145.464 124.094 145.584 124.798 145.584C126.654 145.584 127.582 144.736 127.582 143.04V141.744C126.782 142.784 125.614 143.304 124.078 143.304C122.606 143.304 121.422 142.824 120.526 141.864C119.646 140.904 119.206 139.528 119.206 137.736V136.776C119.206 135.048 119.646 133.704 120.526 132.744C121.422 131.784 122.59 131.304 124.03 131.304C125.486 131.304 126.67 131.824 127.582 132.864V131.52H130.51V142.848C130.51 144.432 129.99 145.672 128.95 146.568C127.926 147.48 126.494 147.936 124.654 147.936ZM124.75 140.64C125.614 140.64 126.294 140.384 126.79 139.872C127.302 139.36 127.558 138.664 127.558 137.784V136.8C127.558 135.92 127.31 135.224 126.814 134.712C126.318 134.2 125.646 133.944 124.798 133.944C123.966 133.944 123.318 134.192 122.854 134.688C122.406 135.168 122.182 135.912 122.182 136.92V137.616C122.182 138.624 122.398 139.384 122.83 139.896C123.278 140.392 123.918 140.64 124.75 140.64ZM137.365 147.936C135.797 147.936 134.557 147.624 133.645 147C132.733 146.376 132.253 145.464 132.205 144.264H135.061C135.173 144.68 135.429 145 135.829 145.224C136.245 145.464 136.805 145.584 137.509 145.584C139.365 145.584 140.293 144.736 140.293 143.04V141.744C139.493 142.784 138.325 143.304 136.789 143.304C135.317 143.304 134.133 142.824 133.237 141.864C132.357 140.904 131.917 139.528 131.917 137.736V136.776C131.917 135.048 132.357 133.704 133.237 132.744C134.133 131.784 135.301 131.304 136.741 131.304C138.197 131.304 139.381 131.824 140.293 132.864V131.52H143.221V142.848C143.221 144.432 142.701 145.672 141.661 146.568C140.637 147.48 139.205 147.936 137.365 147.936ZM137.461 140.64C138.325 140.64 139.005 140.384 139.501 139.872C140.013 139.36 140.269 138.664 140.269 137.784V136.8C140.269 135.92 140.021 135.224 139.525 134.712C139.029 134.2 138.357 133.944 137.509 133.944C136.677 133.944 136.029 134.192 135.565 134.688C135.117 135.168 134.893 135.912 134.893 136.92V137.616C134.893 138.624 135.109 139.384 135.541 139.896C135.989 140.392 136.629 140.64 137.461 140.64ZM149.979 131.376C151.755 131.376 153.115 131.776 154.059 132.576C155.019 133.376 155.499 134.528 155.499 136.032V144H152.619V142.848C152.123 143.312 151.595 143.648 151.035 143.856C150.475 144.048 149.795 144.144 148.995 144.144C147.491 144.144 146.347 143.808 145.563 143.136C144.795 142.464 144.411 141.512 144.411 140.28C144.411 139.096 144.819 138.192 145.635 137.568C146.467 136.944 147.659 136.632 149.211 136.632H152.547V135.888C152.547 134.4 151.667 133.656 149.907 133.656C149.107 133.656 148.523 133.8 148.155 134.088C147.803 134.376 147.627 134.744 147.627 135.192V135.264H144.795V135.192C144.795 134.008 145.259 133.08 146.187 132.408C147.131 131.72 148.395 131.376 149.979 131.376ZM149.643 141.768C151.579 141.768 152.547 140.992 152.547 139.44V138.672H149.763C148.915 138.672 148.291 138.8 147.891 139.056C147.491 139.296 147.291 139.68 147.291 140.208C147.291 140.704 147.483 141.088 147.867 141.36C148.267 141.632 148.859 141.768 149.643 141.768ZM162.341 147.936C160.773 147.936 159.533 147.624 158.621 147C157.709 146.376 157.229 145.464 157.181 144.264H160.037C160.149 144.68 160.405 145 160.805 145.224C161.221 145.464 161.781 145.584 162.485 145.584C164.341 145.584 165.269 144.736 165.269 143.04V141.744C164.469 142.784 163.301 143.304 161.765 143.304C160.293 143.304 159.109 142.824 158.213 141.864C157.333 140.904 156.893 139.528 156.893 137.736V136.776C156.893 135.048 157.333 133.704 158.213 132.744C159.109 131.784 160.277 131.304 161.717 131.304C163.173 131.304 164.357 131.824 165.269 132.864V131.52H168.197V142.848C168.197 144.432 167.677 145.672 166.637 146.568C165.613 147.48 164.181 147.936 162.341 147.936ZM162.437 140.64C163.301 140.64 163.981 140.384 164.477 139.872C164.989 139.36 165.245 138.664 165.245 137.784V136.8C165.245 135.92 164.997 135.224 164.501 134.712C164.005 134.2 163.333 133.944 162.485 133.944C161.653 133.944 161.005 134.192 160.541 134.688C160.093 135.168 159.869 135.912 159.869 136.92V137.616C159.869 138.624 160.085 139.384 160.517 139.896C160.965 140.392 161.605 140.64 162.437 140.64ZM172.556 138.576V138.624C172.556 140.624 173.58 141.624 175.628 141.624C176.316 141.624 176.876 141.496 177.308 141.24C177.756 140.984 178.012 140.624 178.076 140.16L178.1 140.088H181.004V140.232C180.924 141.432 180.388 142.4 179.396 143.136C178.42 143.856 177.124 144.216 175.508 144.216C173.668 144.216 172.22 143.712 171.164 142.704C170.124 141.696 169.604 140.224 169.604 138.288V137.208C169.604 135.304 170.116 133.848 171.14 132.84C172.164 131.816 173.572 131.304 175.364 131.304C177.156 131.304 178.564 131.808 179.588 132.816C180.612 133.824 181.124 135.264 181.124 137.136V138.576H172.556ZM175.364 133.848C173.604 133.848 172.668 134.744 172.556 136.536H178.148V136.368C178.148 135.536 177.892 134.912 177.38 134.496C176.884 134.064 176.212 133.848 175.364 133.848Z" fill="#1D293F"/>
<path d="M61.096 179.454C61.586 179.916 62.286 180.14 63.196 180.14C64.134 180.14 64.862 179.888 65.394 179.37C65.912 178.852 66.178 178.124 66.178 177.186V176.584C66.178 175.646 65.94 174.918 65.464 174.4C64.988 173.896 64.33 173.63 63.49 173.63C63.126 173.63 62.776 173.7 62.454 173.826C62.118 173.952 61.852 174.12 61.642 174.33V171.474H65.912V170.34H60.508V175.688H61.74C61.866 175.38 62.062 175.156 62.328 174.988C62.58 174.82 62.902 174.736 63.266 174.736C63.798 174.736 64.218 174.904 64.498 175.226C64.778 175.548 64.918 176.024 64.918 176.64V177.13C64.918 178.39 64.344 179.02 63.224 179.02C62.678 179.02 62.272 178.894 61.992 178.628C61.712 178.376 61.572 178.04 61.572 177.648V177.578H60.354V177.69C60.354 178.418 60.592 179.006 61.096 179.454ZM69.6939 171.726V180H70.9679V170.34H69.6939L67.6359 171.656V173.014L69.6939 171.726ZM76.8381 175.94L74.3741 180H75.7461L78.1261 176.052C78.4621 175.52 78.7001 175.058 78.8401 174.638C78.9801 174.232 79.0641 173.798 79.0641 173.336V173.028C79.0641 172.174 78.7841 171.488 78.2241 170.97C77.6641 170.466 76.9081 170.2 75.9561 170.2C75.0041 170.2 74.2481 170.466 73.6881 170.984C73.1281 171.502 72.8481 172.202 72.8481 173.084V173.42C72.8481 173.952 72.9601 174.428 73.1981 174.848C73.4361 175.268 73.7721 175.604 74.1921 175.842C74.6121 176.08 75.0881 176.192 75.6201 176.192C76.1241 176.192 76.5301 176.108 76.8381 175.94ZM77.3141 174.624C76.9781 174.932 76.5301 175.072 75.9701 175.072C75.3961 175.072 74.9481 174.918 74.6121 174.61C74.2761 174.302 74.1081 173.896 74.1081 173.364V173.042C74.1081 172.51 74.2621 172.09 74.5981 171.782C74.9341 171.474 75.3821 171.306 75.9561 171.306C76.5161 171.306 76.9641 171.46 77.3001 171.768C77.6361 172.076 77.8041 172.496 77.8041 173.028V173.35C77.8041 173.896 77.6361 174.316 77.3141 174.624ZM83.7759 172.832V182.268H84.9659V179.076C85.4419 179.776 86.1979 180.126 87.2339 180.126C88.1299 180.126 88.8579 179.846 89.4039 179.258C89.9499 178.684 90.2299 177.858 90.2299 176.78V176.024C90.2299 174.96 89.9499 174.148 89.4039 173.574C88.8579 173 88.1299 172.706 87.2339 172.706C86.7299 172.706 86.2959 172.804 85.9039 173C85.5119 173.196 85.1899 173.462 84.9519 173.798V172.832H83.7759ZM88.5219 178.488C88.1719 178.88 87.6819 179.076 87.0659 179.076C86.4079 179.076 85.8899 178.88 85.5259 178.488C85.1479 178.096 84.9659 177.564 84.9659 176.892V175.954C84.9659 175.282 85.1479 174.75 85.5119 174.358C85.8759 173.966 86.3939 173.756 87.0379 173.756C87.6819 173.756 88.1719 173.952 88.5219 174.344C88.8579 174.736 89.0399 175.31 89.0399 176.094V176.724C89.0399 177.508 88.8579 178.096 88.5219 178.488ZM91.897 172.832V180H93.087V175.87C93.087 175.24 93.269 174.736 93.647 174.358C94.025 173.994 94.529 173.798 95.145 173.798C95.411 173.798 95.677 173.84 95.929 173.91V172.776C95.747 172.748 95.551 172.734 95.355 172.734C94.851 172.734 94.417 172.832 94.025 173.014C93.633 173.196 93.311 173.476 93.073 173.84V172.832H91.897ZM97.764 179.272C98.352 179.846 99.15 180.126 100.186 180.126C101.194 180.126 101.992 179.846 102.58 179.272C103.154 178.698 103.448 177.858 103.448 176.766V176.052C103.448 174.974 103.154 174.148 102.58 173.56C101.992 172.986 101.194 172.692 100.186 172.692C99.15 172.692 98.352 172.986 97.764 173.56C97.176 174.134 96.896 174.96 96.896 176.052V176.766C96.896 177.858 97.176 178.698 97.764 179.272ZM102.258 176.738C102.258 178.306 101.558 179.076 100.172 179.076C98.772 179.076 98.086 178.306 98.086 176.738V176.08C98.086 174.54 98.772 173.756 100.172 173.756C101.558 173.756 102.258 174.54 102.258 176.08V176.738ZM105.706 179.272C106.238 179.846 106.952 180.126 107.876 180.126C108.38 180.126 108.842 180.042 109.234 179.86C109.626 179.678 109.934 179.412 110.172 179.062V180H111.348V170.34H110.172V173.784C109.934 173.448 109.612 173.182 109.206 172.986C108.8 172.79 108.352 172.692 107.848 172.692C106.952 172.692 106.238 172.986 105.706 173.56C105.174 174.148 104.908 174.96 104.908 176.024V176.794C104.908 177.872 105.174 178.698 105.706 179.272ZM109.626 178.488C109.262 178.88 108.744 179.076 108.1 179.076C107.456 179.076 106.966 178.894 106.616 178.502C106.266 178.11 106.098 177.522 106.098 176.738V176.094C106.098 175.31 106.266 174.736 106.616 174.344C106.952 173.952 107.442 173.756 108.086 173.756C108.73 173.756 109.248 173.952 109.612 174.344C109.976 174.736 110.172 175.282 110.172 175.954V176.892C110.172 177.564 109.99 178.096 109.626 178.488ZM114.023 179.342C114.541 179.846 115.297 180.098 116.291 180.098C117.285 180.098 118.041 179.846 118.573 179.342C119.105 178.838 119.371 178.11 119.371 177.158V172.832H118.181V177.032C118.181 177.704 118.027 178.208 117.719 178.544C117.411 178.88 116.949 179.034 116.305 179.034C115.045 179.034 114.429 178.376 114.429 177.032V172.832H113.239V177.158C113.239 178.11 113.491 178.838 114.023 179.342ZM121.909 179.272C122.483 179.846 123.295 180.126 124.331 180.126C125.269 180.126 125.997 179.902 126.529 179.44C127.061 178.978 127.327 178.348 127.327 177.55V177.494H126.165V177.55C126.165 178.026 125.997 178.404 125.689 178.67C125.367 178.95 124.919 179.076 124.331 179.076C122.931 179.076 122.231 178.306 122.231 176.738V176.08C122.231 174.54 122.931 173.756 124.331 173.756C124.919 173.756 125.367 173.896 125.689 174.162C125.997 174.442 126.165 174.82 126.165 175.296V175.366H127.327V175.296C127.327 174.484 127.061 173.854 126.529 173.392C125.997 172.93 125.255 172.692 124.317 172.692C123.281 172.692 122.483 172.986 121.909 173.56C121.321 174.134 121.041 174.96 121.041 176.052V176.766C121.041 177.858 121.321 178.698 121.909 179.272ZM130.853 173.728H132.757V172.832H130.853V170.788L129.663 171.278V172.832H128.403V173.728H129.663V177.942C129.663 179.314 130.377 180 131.805 180H132.603V178.964H132.001C131.581 178.964 131.287 178.88 131.119 178.712C130.937 178.544 130.853 178.264 130.853 177.872V173.728ZM134.714 179.496C135.246 179.888 135.988 180.084 136.94 180.084C137.892 180.084 138.648 179.902 139.208 179.51C139.768 179.118 140.048 178.572 140.048 177.872C140.048 177.298 139.852 176.85 139.46 176.528C139.068 176.22 138.48 176.01 137.682 175.912L136.59 175.772C136.058 175.716 135.694 175.618 135.484 175.464C135.26 175.31 135.162 175.086 135.162 174.778C135.162 174.442 135.302 174.176 135.61 173.98C135.904 173.798 136.352 173.7 136.954 173.7C137.542 173.7 137.99 173.812 138.312 174.008C138.634 174.204 138.802 174.498 138.802 174.876V174.918H139.936V174.862C139.936 174.218 139.67 173.7 139.138 173.308C138.606 172.93 137.864 172.734 136.94 172.734C136.044 172.734 135.33 172.93 134.812 173.308C134.28 173.686 134.028 174.204 134.028 174.862C134.028 175.436 134.21 175.884 134.588 176.192C134.952 176.5 135.54 176.71 136.338 176.794L137.36 176.92C137.892 176.976 138.284 177.088 138.536 177.242C138.788 177.41 138.914 177.634 138.914 177.942C138.914 178.32 138.732 178.6 138.396 178.796C138.06 178.992 137.584 179.09 136.996 179.09C136.324 179.09 135.834 178.978 135.526 178.754C135.204 178.53 135.05 178.236 135.05 177.844V177.816H133.916V177.858C133.916 178.558 134.182 179.104 134.714 179.496Z" fill="#7C7B8A"/>
</svg>
