<svg width="80" height="70" viewBox="50 20 130 42" fill="none" xmlns="http://www.w3.org/2000/svg">
<path fill-rule="evenodd" clip-rule="evenodd" d="M100 96C126.51 96 148 74.5097 148 48C148 21.4903 126.51 0 100 0C73.4903 0 52 21.4903 52 48C52 74.5097 73.4903 96 100 96Z" fill="#F0FAF3"/>
<g clip-path="url(#clip0)">
<path d="M89 59.9997V54.6663C89 53.6115 89.3128 52.5804 89.8988 51.7033C90.4849 50.8262 91.3178 50.1427 92.2924 49.739C93.2669 49.3353 94.3392 49.2297 95.3738 49.4355C96.4084 49.6413 97.3587 50.1492 98.1046 50.8951C98.8504 51.641 99.3584 52.5913 99.5642 53.6259C99.77 54.6604 99.6644 55.7328 99.2607 56.7073C98.857 57.6819 98.1734 58.5148 97.2964 59.1008C96.4193 59.6869 95.3882 59.9997 94.3333 59.9997H89Z" stroke="#11C856" stroke-width="2.7" stroke-linecap="round" stroke-linejoin="round"/>
<path d="M113 36C109.195 36.5205 105.6 38.0589 102.596 40.4526C99.5924 42.8463 97.2905 46.0067 95.9336 49.6" stroke="#11C856" stroke-width="2.7" stroke-linecap="round" stroke-linejoin="round"/>
<path d="M113 36C112.48 39.8056 110.942 43.4 108.548 46.4039C106.154 49.4078 102.994 51.7097 99.4004 53.0667" stroke="#11C856" stroke-width="2.7" stroke-linecap="round" stroke-linejoin="round"/>
<path d="M99.1328 44C101.724 45.1958 103.804 47.2758 104.999 49.8667" stroke="#11C856" stroke-width="2.7" stroke-linecap="round" stroke-linejoin="round"/>
</g>
<path d="M28.944 136.944C28.512 136.32 27.864 135.816 27.024 135.48C27.768 135.144 28.344 134.688 28.752 134.088C29.16 133.488 29.376 132.816 29.376 132.048C29.376 130.56 28.872 129.432 27.888 128.64C26.88 127.848 25.464 127.44 23.592 127.44H16.416V144H23.904C25.728 144 27.144 143.592 28.128 142.776C29.112 141.96 29.616 140.784 29.616 139.248C29.616 138.36 29.376 137.592 28.944 136.944ZM19.56 130.176H23.736C25.392 130.176 26.232 130.872 26.232 132.24C26.232 133.56 25.344 134.208 23.616 134.208H19.56V130.176ZM26.496 139.032C26.496 140.52 25.632 141.264 23.952 141.264H19.56V136.944H23.832C25.608 136.944 26.496 137.64 26.496 139.032ZM33.7591 138.576H42.3271V137.136C42.3271 135.264 41.7991 133.824 40.7911 132.816C39.7591 131.808 38.3431 131.304 36.5671 131.304C34.7671 131.304 33.3511 131.832 32.3431 132.84C31.3111 133.848 30.8071 135.312 30.8071 137.208V138.288C30.8071 140.232 31.3111 141.696 32.3671 142.704C33.4231 143.712 34.8631 144.216 36.7111 144.216C38.3191 144.216 39.6151 143.856 40.5991 143.136C41.5831 142.416 42.1111 141.432 42.2071 140.232V140.088H39.3031L39.2791 140.16C39.2071 140.64 38.9431 141 38.5111 141.24C38.0791 141.504 37.5031 141.624 36.8311 141.624C34.7671 141.624 33.7591 140.64 33.7591 138.624V138.576ZM33.7591 136.536C33.8551 134.76 34.7911 133.848 36.5671 133.848C37.4071 133.848 38.0791 134.064 38.5831 134.496C39.0871 134.928 39.3511 135.552 39.3511 136.368V136.536H33.7591ZM52.9501 132.576C51.9901 131.784 50.6461 131.376 48.8701 131.376C47.2861 131.376 46.0141 131.736 45.0781 132.408C44.1421 133.08 43.6861 134.016 43.6861 135.192V135.264H46.5181V135.192C46.5181 134.76 46.6861 134.376 47.0461 134.088C47.4061 133.8 47.9821 133.656 48.7981 133.656C50.5501 133.656 51.4381 134.4 51.4381 135.888V136.632H48.1021C46.5421 136.632 45.3421 136.944 44.5261 137.568C43.7101 138.192 43.3021 139.104 43.3021 140.28C43.3021 141.528 43.6861 142.464 44.4541 143.136C45.2221 143.808 46.3741 144.144 47.8861 144.144C48.6781 144.144 49.3501 144.048 49.9261 143.856C50.4781 143.664 51.0061 143.328 51.5101 142.848V144H54.3901V136.032C54.3901 134.544 53.9101 133.392 52.9501 132.576ZM51.4381 139.44C51.4381 141 50.4541 141.768 48.5341 141.768C47.7421 141.768 47.1421 141.648 46.7581 141.36C46.3741 141.096 46.1821 140.712 46.1821 140.208C46.1821 139.68 46.3741 139.296 46.7821 139.056C47.1661 138.816 47.7901 138.672 48.6541 138.672H51.4381V139.44ZM57.3677 142.848C58.3037 143.76 59.6957 144.216 61.5437 144.216C63.3677 144.216 64.7597 143.76 65.6957 142.848C66.6317 141.936 67.1117 140.592 67.1117 138.768V131.52H64.1357V138.624C64.1357 139.608 63.9197 140.352 63.5357 140.832C63.1277 141.312 62.4557 141.552 61.5437 141.552C60.6317 141.552 59.9597 141.312 59.5517 140.808C59.1437 140.328 58.9517 139.584 58.9517 138.624V131.52H55.9757V138.768C55.9757 140.568 56.4317 141.936 57.3677 142.848ZM73.0329 133.608H75.8649V131.52H73.0329V128.04L70.0809 129.072V131.52H67.8969V133.608H70.0809V140.16C70.0809 141.408 70.4169 142.344 71.0889 143.016C71.7609 143.688 72.7209 144 73.9929 144H75.6009V141.48H74.5449C73.9929 141.48 73.6089 141.384 73.3689 141.144C73.1289 140.904 73.0329 140.52 73.0329 139.968V133.608ZM88.5096 131.52H85.4136L82.4376 139.872L79.1976 131.52H75.9816L81.0696 143.736L80.9976 143.952C80.8296 144.384 80.6136 144.672 80.3496 144.816C80.0856 144.96 79.6776 145.032 79.1016 145.032H77.8056V147.696H78.9576C80.0616 147.696 80.9496 147.504 81.6456 147.072C82.3176 146.664 82.8456 145.992 83.2056 145.08L88.5096 131.52ZM105.123 128.784C104.067 127.896 102.627 127.44 100.779 127.44H93.6269V144H96.7709V137.712H100.659C102.579 137.712 104.067 137.28 105.123 136.368C106.179 135.48 106.707 134.232 106.707 132.624C106.707 130.968 106.179 129.696 105.123 128.784ZM103.563 132.6C103.563 134.184 102.675 134.952 100.899 134.952H96.7709V130.176H100.899C101.739 130.176 102.387 130.392 102.867 130.776C103.323 131.184 103.563 131.784 103.563 132.6ZM107.577 131.52V144H110.553V137.088C110.553 136.056 110.793 135.264 111.321 134.712C111.849 134.16 112.569 133.872 113.529 133.872C114.153 133.872 114.753 133.992 115.305 134.184V131.352C114.969 131.304 114.585 131.256 114.129 131.256C113.361 131.256 112.665 131.4 112.041 131.688C111.417 131.976 110.889 132.384 110.481 132.936V131.52H107.577ZM116.874 142.752C117.882 143.736 119.274 144.216 121.05 144.216C122.802 144.216 124.17 143.736 125.178 142.752C126.186 141.792 126.69 140.352 126.69 138.48V136.992C126.69 135.168 126.186 133.752 125.178 132.768C124.17 131.808 122.802 131.304 121.05 131.304C119.274 131.304 117.882 131.808 116.874 132.768C115.866 133.728 115.362 135.144 115.362 136.992V138.48C115.362 140.352 115.866 141.792 116.874 142.752ZM123.738 138.456C123.738 140.52 122.826 141.552 121.05 141.552C119.226 141.552 118.314 140.52 118.314 138.456V137.04C118.314 134.976 119.226 133.944 121.05 133.944C121.914 133.944 122.562 134.208 123.042 134.712C123.498 135.216 123.738 135.984 123.738 137.04V138.456ZM129.205 142.752C130.093 143.736 131.269 144.216 132.757 144.216C134.293 144.216 135.469 143.712 136.285 142.656V144H139.189V127.44H136.237V132.864C135.349 131.832 134.173 131.304 132.709 131.304C131.749 131.304 130.909 131.544 130.189 131.976C129.469 132.408 128.893 133.056 128.485 133.896C128.077 134.76 127.885 135.768 127.885 136.968V138.528C127.885 140.376 128.317 141.792 129.205 142.752ZM135.469 140.76C134.965 141.288 134.293 141.552 133.429 141.552C132.613 141.552 131.965 141.312 131.533 140.784C131.077 140.256 130.861 139.464 130.861 138.408V137.112C130.861 136.056 131.077 135.264 131.533 134.736C131.989 134.208 132.637 133.944 133.501 133.944C134.365 133.944 135.037 134.232 135.517 134.76C135.997 135.288 136.237 136.032 136.237 136.992V138.576C136.237 139.512 135.973 140.232 135.469 140.76ZM142.18 142.848C143.116 143.76 144.508 144.216 146.356 144.216C148.18 144.216 149.572 143.76 150.508 142.848C151.444 141.936 151.924 140.592 151.924 138.768V131.52H148.948V138.624C148.948 139.608 148.732 140.352 148.348 140.832C147.94 141.312 147.268 141.552 146.356 141.552C145.444 141.552 144.772 141.312 144.364 140.808C143.956 140.328 143.764 139.584 143.764 138.624V131.52H140.788V138.768C140.788 140.568 141.244 141.936 142.18 142.848ZM154.843 142.752C155.851 143.736 157.243 144.216 159.019 144.216C160.747 144.216 162.091 143.808 163.075 142.992C164.035 142.176 164.539 141.072 164.539 139.632V139.536H161.635V139.632C161.635 140.232 161.395 140.712 160.963 141.048C160.531 141.384 159.931 141.552 159.163 141.552C158.203 141.552 157.483 141.312 157.003 140.832C156.523 140.352 156.283 139.56 156.283 138.456V137.04C156.283 135.984 156.499 135.192 156.979 134.688C157.459 134.208 158.155 133.944 159.091 133.944C159.883 133.944 160.507 134.136 160.963 134.496C161.419 134.856 161.659 135.336 161.659 135.96V136.056H164.563V135.912C164.563 134.472 164.059 133.344 163.099 132.528C162.115 131.712 160.747 131.304 159.019 131.304C157.243 131.304 155.851 131.808 154.843 132.768C153.835 133.728 153.331 135.144 153.331 136.992V138.48C153.331 140.352 153.835 141.792 154.843 142.752ZM169.9 133.608H172.732V131.52H169.9V128.04L166.948 129.072V131.52H164.764V133.608H166.948V140.16C166.948 141.408 167.284 142.344 167.956 143.016C168.628 143.688 169.588 144 170.86 144H172.468V141.48H171.412C170.86 141.48 170.476 141.384 170.236 141.144C169.996 140.904 169.9 140.52 169.9 139.968V133.608ZM174.937 143.112C175.873 143.808 177.193 144.144 178.897 144.144C180.625 144.144 181.969 143.808 182.977 143.112C183.985 142.44 184.489 141.432 184.489 140.136C184.489 139.104 184.129 138.288 183.457 137.688C182.761 137.088 181.705 136.704 180.265 136.536L178.273 136.296C177.625 136.248 177.169 136.104 176.905 135.888C176.617 135.696 176.497 135.408 176.497 135.048C176.497 134.616 176.689 134.304 177.073 134.064C177.457 133.824 178.081 133.704 178.897 133.704C179.761 133.704 180.409 133.848 180.841 134.088C181.273 134.352 181.489 134.712 181.489 135.192V135.264H184.249V135.168C184.249 133.992 183.769 133.056 182.833 132.384C181.873 131.712 180.577 131.376 178.921 131.376C177.289 131.376 176.017 131.712 175.105 132.384C174.169 133.056 173.713 134.016 173.713 135.24C173.713 136.296 174.025 137.112 174.697 137.688C175.369 138.264 176.401 138.624 177.817 138.792L179.665 139.008C180.361 139.104 180.865 139.248 181.177 139.44C181.489 139.656 181.657 139.944 181.657 140.328C181.657 140.808 181.417 141.144 180.985 141.384C180.553 141.624 179.905 141.744 179.065 141.744C178.153 141.744 177.457 141.6 177.001 141.312C176.521 141.024 176.305 140.64 176.305 140.136V140.088H173.521V140.16C173.521 141.432 173.977 142.416 174.937 143.112Z" fill="#1D293F"/>
<path d="M60.784 178.978V180H66.692V178.88H62.464L65.334 175.618C65.782 175.142 66.118 174.694 66.314 174.288C66.51 173.896 66.608 173.448 66.608 172.972V172.762C66.608 172.258 66.482 171.824 66.244 171.432C66.006 171.04 65.67 170.746 65.222 170.522C64.774 170.312 64.256 170.2 63.668 170.2C62.772 170.2 62.072 170.438 61.554 170.886C61.022 171.348 60.77 171.964 60.77 172.748V173H62.002V172.846C62.002 172.342 62.142 171.964 62.422 171.698C62.702 171.446 63.108 171.306 63.64 171.306C64.172 171.306 64.578 171.446 64.886 171.698C65.18 171.964 65.334 172.328 65.334 172.79V172.958C65.334 173.294 65.25 173.616 65.11 173.91C64.97 174.204 64.718 174.54 64.354 174.932L60.784 178.978ZM70.1118 171.726V180H71.3858V170.34H70.1118L68.0538 171.656V173.014L70.1118 171.726ZM74.0921 179.454C74.5821 179.916 75.2821 180.14 76.1921 180.14C77.1301 180.14 77.8581 179.888 78.3901 179.37C78.9081 178.852 79.1741 178.124 79.1741 177.186V176.584C79.1741 175.646 78.9361 174.918 78.4601 174.4C77.9841 173.896 77.3261 173.63 76.4861 173.63C76.1221 173.63 75.7721 173.7 75.4501 173.826C75.1141 173.952 74.8481 174.12 74.6381 174.33V171.474H78.9081V170.34H73.5041V175.688H74.7361C74.8621 175.38 75.0581 175.156 75.3241 174.988C75.5761 174.82 75.8981 174.736 76.2621 174.736C76.7941 174.736 77.2141 174.904 77.4941 175.226C77.7741 175.548 77.9141 176.024 77.9141 176.64V177.13C77.9141 178.39 77.3401 179.02 76.2201 179.02C75.6741 179.02 75.2681 178.894 74.9881 178.628C74.7081 178.376 74.5681 178.04 74.5681 177.648V177.578H73.3501V177.69C73.3501 178.418 73.5881 179.006 74.0921 179.454ZM83.9751 172.832V182.268H85.1651V179.076C85.6411 179.776 86.3971 180.126 87.4331 180.126C88.3291 180.126 89.0571 179.846 89.6031 179.258C90.1491 178.684 90.4291 177.858 90.4291 176.78V176.024C90.4291 174.96 90.1491 174.148 89.6031 173.574C89.0571 173 88.3291 172.706 87.4331 172.706C86.9291 172.706 86.4951 172.804 86.1031 173C85.7111 173.196 85.3891 173.462 85.1511 173.798V172.832H83.9751ZM88.7211 178.488C88.3711 178.88 87.8811 179.076 87.2651 179.076C86.6071 179.076 86.0891 178.88 85.7251 178.488C85.3471 178.096 85.1651 177.564 85.1651 176.892V175.954C85.1651 175.282 85.3471 174.75 85.7111 174.358C86.0751 173.966 86.5931 173.756 87.2371 173.756C87.8811 173.756 88.3711 173.952 88.7211 174.344C89.0571 174.736 89.2391 175.31 89.2391 176.094V176.724C89.2391 177.508 89.0571 178.096 88.7211 178.488ZM92.0962 172.832V180H93.2862V175.87C93.2862 175.24 93.4682 174.736 93.8462 174.358C94.2242 173.994 94.7282 173.798 95.3442 173.798C95.6102 173.798 95.8762 173.84 96.1282 173.91V172.776C95.9462 172.748 95.7502 172.734 95.5542 172.734C95.0502 172.734 94.6162 172.832 94.2242 173.014C93.8322 173.196 93.5102 173.476 93.2722 173.84V172.832H92.0962ZM97.9632 179.272C98.5512 179.846 99.3492 180.126 100.385 180.126C101.393 180.126 102.191 179.846 102.779 179.272C103.353 178.698 103.647 177.858 103.647 176.766V176.052C103.647 174.974 103.353 174.148 102.779 173.56C102.191 172.986 101.393 172.692 100.385 172.692C99.3492 172.692 98.5512 172.986 97.9632 173.56C97.3752 174.134 97.0952 174.96 97.0952 176.052V176.766C97.0952 177.858 97.3752 178.698 97.9632 179.272ZM102.457 176.738C102.457 178.306 101.757 179.076 100.371 179.076C98.9712 179.076 98.2852 178.306 98.2852 176.738V176.08C98.2852 174.54 98.9712 173.756 100.371 173.756C101.757 173.756 102.457 174.54 102.457 176.08V176.738ZM105.905 179.272C106.437 179.846 107.151 180.126 108.075 180.126C108.579 180.126 109.041 180.042 109.433 179.86C109.825 179.678 110.133 179.412 110.371 179.062V180H111.547V170.34H110.371V173.784C110.133 173.448 109.811 173.182 109.405 172.986C108.999 172.79 108.551 172.692 108.047 172.692C107.151 172.692 106.437 172.986 105.905 173.56C105.373 174.148 105.107 174.96 105.107 176.024V176.794C105.107 177.872 105.373 178.698 105.905 179.272ZM109.825 178.488C109.461 178.88 108.943 179.076 108.299 179.076C107.655 179.076 107.165 178.894 106.815 178.502C106.465 178.11 106.297 177.522 106.297 176.738V176.094C106.297 175.31 106.465 174.736 106.815 174.344C107.151 173.952 107.641 173.756 108.285 173.756C108.929 173.756 109.447 173.952 109.811 174.344C110.175 174.736 110.371 175.282 110.371 175.954V176.892C110.371 177.564 110.189 178.096 109.825 178.488ZM114.222 179.342C114.74 179.846 115.496 180.098 116.49 180.098C117.484 180.098 118.24 179.846 118.772 179.342C119.304 178.838 119.57 178.11 119.57 177.158V172.832H118.38V177.032C118.38 177.704 118.226 178.208 117.918 178.544C117.61 178.88 117.148 179.034 116.504 179.034C115.244 179.034 114.628 178.376 114.628 177.032V172.832H113.438V177.158C113.438 178.11 113.69 178.838 114.222 179.342ZM122.108 179.272C122.682 179.846 123.494 180.126 124.53 180.126C125.468 180.126 126.196 179.902 126.728 179.44C127.26 178.978 127.526 178.348 127.526 177.55V177.494H126.364V177.55C126.364 178.026 126.196 178.404 125.888 178.67C125.566 178.95 125.118 179.076 124.53 179.076C123.13 179.076 122.43 178.306 122.43 176.738V176.08C122.43 174.54 123.13 173.756 124.53 173.756C125.118 173.756 125.566 173.896 125.888 174.162C126.196 174.442 126.364 174.82 126.364 175.296V175.366H127.526V175.296C127.526 174.484 127.26 173.854 126.728 173.392C126.196 172.93 125.454 172.692 124.516 172.692C123.48 172.692 122.682 172.986 122.108 173.56C121.52 174.134 121.24 174.96 121.24 176.052V176.766C121.24 177.858 121.52 178.698 122.108 179.272ZM131.052 173.728H132.956V172.832H131.052V170.788L129.862 171.278V172.832H128.602V173.728H129.862V177.942C129.862 179.314 130.576 180 132.004 180H132.802V178.964H132.2C131.78 178.964 131.486 178.88 131.318 178.712C131.136 178.544 131.052 178.264 131.052 177.872V173.728ZM134.913 179.496C135.445 179.888 136.187 180.084 137.139 180.084C138.091 180.084 138.847 179.902 139.407 179.51C139.967 179.118 140.247 178.572 140.247 177.872C140.247 177.298 140.051 176.85 139.659 176.528C139.267 176.22 138.679 176.01 137.881 175.912L136.789 175.772C136.257 175.716 135.893 175.618 135.683 175.464C135.459 175.31 135.361 175.086 135.361 174.778C135.361 174.442 135.501 174.176 135.809 173.98C136.103 173.798 136.551 173.7 137.153 173.7C137.741 173.7 138.189 173.812 138.511 174.008C138.833 174.204 139.001 174.498 139.001 174.876V174.918H140.135V174.862C140.135 174.218 139.869 173.7 139.337 173.308C138.805 172.93 138.063 172.734 137.139 172.734C136.243 172.734 135.529 172.93 135.011 173.308C134.479 173.686 134.227 174.204 134.227 174.862C134.227 175.436 134.409 175.884 134.787 176.192C135.151 176.5 135.739 176.71 136.537 176.794L137.559 176.92C138.091 176.976 138.483 177.088 138.735 177.242C138.987 177.41 139.113 177.634 139.113 177.942C139.113 178.32 138.931 178.6 138.595 178.796C138.259 178.992 137.783 179.09 137.195 179.09C136.523 179.09 136.033 178.978 135.725 178.754C135.403 178.53 135.249 178.236 135.249 177.844V177.816H134.115V177.858C134.115 178.558 134.381 179.104 134.913 179.496Z" fill="#7C7B8A"/>
<defs>
<clipPath id="clip0">
<rect width="32" height="32" fill="white" transform="translate(84.5 32)"/>
</clipPath>
</defs>
</svg>
