<svg width="80" height="70" viewBox="50 20 130 42" fill="none" xmlns="http://www.w3.org/2000/svg">
<path fill-rule="evenodd" clip-rule="evenodd" d="M100 96C126.51 96 148 74.5097 148 48C148 21.4903 126.51 0 100 0C73.4903 0 52 21.4903 52 48C52 74.5097 73.4903 96 100 96Z" fill="#F0FAF3"/>
<path d="M108 58.667H101.334V51.9203C104.266 51.5925 106.975 50.1956 108.943 47.9968C110.91 45.7979 111.999 42.9511 112 40.0003C112.007 38.4492 111.703 36.9123 111.107 35.4803C111.038 35.3203 110.938 35.1753 110.814 35.0537L110.667 34.947C110.582 34.8769 110.488 34.8186 110.387 34.7737C110.269 34.7189 110.143 34.6829 110.014 34.667H109.88H90.1203H90.0003C89.868 34.6731 89.7375 34.7001 89.6136 34.747C89.5167 34.8036 89.4232 34.8659 89.3336 34.9337L89.1736 35.0537C89.0489 35.1753 88.9492 35.3203 88.8803 35.4803C88.2885 36.9133 87.9893 38.4501 88.0003 40.0003C88.0017 42.9511 89.0902 45.7979 91.0579 47.9968C93.0256 50.1956 95.7345 51.5925 98.667 51.9203V58.667H92.0003C91.6467 58.667 91.3075 58.8075 91.0575 59.0575C90.8074 59.3076 90.667 59.6467 90.667 60.0003C90.667 60.3539 90.8074 60.6931 91.0575 60.9431C91.3075 61.1932 91.6467 61.3337 92.0003 61.3337H108C108.354 61.3337 108.693 61.1932 108.943 60.9431C109.193 60.6931 109.334 60.3539 109.334 60.0003C109.334 59.6467 109.193 59.3076 108.943 59.0575C108.693 58.8075 108.354 58.667 108 58.667ZM90.667 40.0003C90.6645 39.0973 90.7947 38.1988 91.0536 37.3337H108.947C109.206 38.1988 109.336 39.0973 109.334 40.0003C109.334 42.4757 108.35 44.8496 106.6 46.6C104.85 48.3503 102.476 49.3337 100 49.3337C97.5249 49.3337 95.151 48.3503 93.4006 46.6C91.6503 44.8496 90.667 42.4757 90.667 40.0003Z" fill="#11C856"/>
<path d="M57.524 135.48C58.372 135.816 59.012 136.304 59.444 136.944C59.892 137.584 60.116 138.352 60.116 139.248C60.116 140.768 59.62 141.944 58.628 142.776C57.652 143.592 56.244 144 54.404 144H46.916V127.44H54.092C55.964 127.44 57.396 127.84 58.388 128.64C59.38 129.424 59.876 130.56 59.876 132.048C59.876 132.8 59.668 133.48 59.252 134.088C58.852 134.68 58.276 135.144 57.524 135.48ZM50.06 130.176V134.208H54.116C55.86 134.208 56.732 133.552 56.732 132.24C56.732 130.864 55.9 130.176 54.236 130.176H50.06ZM54.452 141.264C56.148 141.264 56.996 140.52 56.996 139.032C56.996 137.64 56.108 136.944 54.332 136.944H50.06V141.264H54.452ZM64.2591 138.576V138.624C64.2591 140.624 65.2831 141.624 67.3311 141.624C68.0191 141.624 68.5791 141.496 69.0111 141.24C69.4591 140.984 69.7151 140.624 69.7791 140.16L69.8031 140.088H72.7071V140.232C72.6271 141.432 72.0911 142.4 71.0991 143.136C70.1231 143.856 68.8271 144.216 67.2111 144.216C65.3711 144.216 63.9231 143.712 62.8671 142.704C61.8271 141.696 61.3071 140.224 61.3071 138.288V137.208C61.3071 135.304 61.8191 133.848 62.8431 132.84C63.8671 131.816 65.2751 131.304 67.0671 131.304C68.8591 131.304 70.2671 131.808 71.2911 132.816C72.3151 133.824 72.8271 135.264 72.8271 137.136V138.576H64.2591ZM67.0671 133.848C65.3071 133.848 64.3711 134.744 64.2591 136.536H69.8511V136.368C69.8511 135.536 69.5951 134.912 69.0831 134.496C68.5871 134.064 67.9151 133.848 67.0671 133.848ZM72.7785 131.52H75.9945L79.0425 139.992L82.0665 131.52H85.2825L80.2425 144H77.7945L72.7785 131.52ZM88.0873 138.576V138.624C88.0873 140.624 89.1113 141.624 91.1593 141.624C91.8473 141.624 92.4073 141.496 92.8393 141.24C93.2873 140.984 93.5433 140.624 93.6073 140.16L93.6313 140.088H96.5353V140.232C96.4553 141.432 95.9193 142.4 94.9273 143.136C93.9513 143.856 92.6553 144.216 91.0393 144.216C89.1993 144.216 87.7513 143.712 86.6953 142.704C85.6553 141.696 85.1353 140.224 85.1353 138.288V137.208C85.1353 135.304 85.6473 133.848 86.6713 132.84C87.6953 131.816 89.1033 131.304 90.8953 131.304C92.6873 131.304 94.0953 131.808 95.1193 132.816C96.1433 133.824 96.6553 135.264 96.6553 137.136V138.576H88.0873ZM90.8953 133.848C89.1353 133.848 88.1993 134.744 88.0873 136.536H93.6793V136.368C93.6793 135.536 93.4233 134.912 92.9113 134.496C92.4153 134.064 91.7433 133.848 90.8953 133.848ZM98.0382 131.52H100.942V132.936C101.358 132.376 101.878 131.96 102.502 131.688C103.142 131.4 103.838 131.256 104.59 131.256C105.054 131.256 105.446 131.288 105.766 131.352V134.184C105.222 133.976 104.63 133.872 103.99 133.872C103.046 133.872 102.31 134.152 101.782 134.712C101.27 135.256 101.014 136.048 101.014 137.088V144H98.0382V131.52ZM111.409 131.376C113.185 131.376 114.545 131.776 115.489 132.576C116.449 133.376 116.929 134.528 116.929 136.032V144H114.049V142.848C113.553 143.312 113.025 143.648 112.465 143.856C111.905 144.048 111.225 144.144 110.425 144.144C108.921 144.144 107.777 143.808 106.993 143.136C106.225 142.464 105.841 141.512 105.841 140.28C105.841 139.096 106.249 138.192 107.065 137.568C107.897 136.944 109.089 136.632 110.641 136.632H113.977V135.888C113.977 134.4 113.097 133.656 111.337 133.656C110.537 133.656 109.953 133.8 109.585 134.088C109.233 134.376 109.057 134.744 109.057 135.192V135.264H106.225V135.192C106.225 134.008 106.689 133.08 107.617 132.408C108.561 131.72 109.825 131.376 111.409 131.376ZM111.073 141.768C113.009 141.768 113.977 140.992 113.977 139.44V138.672H111.193C110.345 138.672 109.721 138.8 109.321 139.056C108.921 139.296 108.721 139.68 108.721 140.208C108.721 140.704 108.913 141.088 109.297 141.36C109.697 141.632 110.289 141.768 111.073 141.768ZM123.771 147.936C122.203 147.936 120.963 147.624 120.051 147C119.139 146.376 118.659 145.464 118.611 144.264H121.467C121.579 144.68 121.835 145 122.235 145.224C122.651 145.464 123.211 145.584 123.915 145.584C125.771 145.584 126.699 144.736 126.699 143.04V141.744C125.899 142.784 124.731 143.304 123.195 143.304C121.723 143.304 120.539 142.824 119.643 141.864C118.763 140.904 118.323 139.528 118.323 137.736V136.776C118.323 135.048 118.763 133.704 119.643 132.744C120.539 131.784 121.707 131.304 123.147 131.304C124.603 131.304 125.787 131.824 126.699 132.864V131.52H129.627V142.848C129.627 144.432 129.107 145.672 128.067 146.568C127.043 147.48 125.611 147.936 123.771 147.936ZM123.867 140.64C124.731 140.64 125.411 140.384 125.907 139.872C126.419 139.36 126.675 138.664 126.675 137.784V136.8C126.675 135.92 126.427 135.224 125.931 134.712C125.435 134.2 124.763 133.944 123.915 133.944C123.083 133.944 122.435 134.192 121.971 134.688C121.523 135.168 121.299 135.912 121.299 136.92V137.616C121.299 138.624 121.515 139.384 121.947 139.896C122.395 140.392 123.035 140.64 123.867 140.64ZM133.986 138.576V138.624C133.986 140.624 135.01 141.624 137.058 141.624C137.746 141.624 138.306 141.496 138.738 141.24C139.186 140.984 139.442 140.624 139.506 140.16L139.53 140.088H142.434V140.232C142.354 141.432 141.818 142.4 140.826 143.136C139.85 143.856 138.554 144.216 136.938 144.216C135.098 144.216 133.65 143.712 132.594 142.704C131.554 141.696 131.034 140.224 131.034 138.288V137.208C131.034 135.304 131.546 133.848 132.57 132.84C133.594 131.816 135.002 131.304 136.794 131.304C138.586 131.304 139.994 131.808 141.018 132.816C142.042 133.824 142.554 135.264 142.554 137.136V138.576H133.986ZM136.794 133.848C135.034 133.848 134.098 134.744 133.986 136.536H139.578V136.368C139.578 135.536 139.322 134.912 138.81 134.496C138.314 134.064 137.642 133.848 136.794 133.848ZM148.905 144.144C147.209 144.144 145.889 143.8 144.945 143.112C144.001 142.408 143.529 141.424 143.529 140.16V140.088H146.313V140.136C146.313 140.632 146.545 141.024 147.009 141.312C147.473 141.6 148.161 141.744 149.073 141.744C149.921 141.744 150.561 141.624 150.993 141.384C151.441 141.144 151.665 140.792 151.665 140.328C151.665 139.944 151.505 139.648 151.185 139.44C150.881 139.232 150.377 139.088 149.673 139.008L147.825 138.792C146.417 138.616 145.377 138.248 144.705 137.688C144.049 137.112 143.721 136.296 143.721 135.24C143.721 134.008 144.185 133.056 145.113 132.384C146.041 131.712 147.313 131.376 148.929 131.376C150.593 131.376 151.897 131.712 152.841 132.384C153.785 133.056 154.257 133.984 154.257 135.168V135.264H151.497V135.192C151.497 134.712 151.281 134.344 150.849 134.088C150.417 133.832 149.769 133.704 148.905 133.704C148.089 133.704 147.481 133.824 147.081 134.064C146.697 134.288 146.505 134.616 146.505 135.048C146.505 135.4 146.641 135.68 146.913 135.888C147.185 136.096 147.641 136.232 148.281 136.296L150.273 136.536C151.713 136.696 152.777 137.08 153.465 137.688C154.153 138.28 154.497 139.096 154.497 140.136C154.497 141.432 153.993 142.424 152.985 143.112C151.993 143.8 150.633 144.144 148.905 144.144Z" fill="#1D293F"/>
<path d="M65.808 178.208V177.074H64.646V174.568H63.372V177.074H60.404L63.694 170.34H62.392L59.102 177.074V178.208H63.372V180H64.646V178.208H65.808ZM67.9983 179.454C68.4883 179.916 69.1883 180.14 70.0983 180.14C71.0363 180.14 71.7643 179.888 72.2963 179.37C72.8143 178.852 73.0803 178.124 73.0803 177.186V176.584C73.0803 175.646 72.8423 174.918 72.3663 174.4C71.8903 173.896 71.2323 173.63 70.3923 173.63C70.0283 173.63 69.6783 173.7 69.3563 173.826C69.0203 173.952 68.7543 174.12 68.5443 174.33V171.474H72.8143V170.34H67.4103V175.688H68.6423C68.7683 175.38 68.9643 175.156 69.2303 174.988C69.4823 174.82 69.8043 174.736 70.1683 174.736C70.7003 174.736 71.1203 174.904 71.4003 175.226C71.6803 175.548 71.8203 176.024 71.8203 176.64V177.13C71.8203 178.39 71.2463 179.02 70.1263 179.02C69.5803 179.02 69.1743 178.894 68.8943 178.628C68.6143 178.376 68.4743 178.04 68.4743 177.648V177.578H67.2563V177.69C67.2563 178.418 67.4943 179.006 67.9983 179.454ZM74.6922 178.978V180H80.6002V178.88H76.3722L79.2422 175.618C79.6902 175.142 80.0262 174.694 80.2222 174.288C80.4182 173.896 80.5162 173.448 80.5162 172.972V172.762C80.5162 172.258 80.3902 171.824 80.1522 171.432C79.9142 171.04 79.5782 170.746 79.1302 170.522C78.6822 170.312 78.1642 170.2 77.5762 170.2C76.6802 170.2 75.9802 170.438 75.4622 170.886C74.9302 171.348 74.6782 171.964 74.6782 172.748V173H75.9102V172.846C75.9102 172.342 76.0502 171.964 76.3302 171.698C76.6102 171.446 77.0162 171.306 77.5482 171.306C78.0802 171.306 78.4862 171.446 78.7942 171.698C79.0882 171.964 79.2422 172.328 79.2422 172.79V172.958C79.2422 173.294 79.1582 173.616 79.0182 173.91C78.8782 174.204 78.6262 174.54 78.2622 174.932L74.6922 178.978ZM85.3052 172.832V182.268H86.4952V179.076C86.9712 179.776 87.7272 180.126 88.7632 180.126C89.6592 180.126 90.3872 179.846 90.9332 179.258C91.4792 178.684 91.7592 177.858 91.7592 176.78V176.024C91.7592 174.96 91.4792 174.148 90.9332 173.574C90.3872 173 89.6592 172.706 88.7632 172.706C88.2592 172.706 87.8252 172.804 87.4332 173C87.0412 173.196 86.7192 173.462 86.4812 173.798V172.832H85.3052ZM90.0512 178.488C89.7012 178.88 89.2112 179.076 88.5952 179.076C87.9372 179.076 87.4192 178.88 87.0552 178.488C86.6772 178.096 86.4952 177.564 86.4952 176.892V175.954C86.4952 175.282 86.6772 174.75 87.0412 174.358C87.4052 173.966 87.9232 173.756 88.5672 173.756C89.2112 173.756 89.7012 173.952 90.0512 174.344C90.3872 174.736 90.5692 175.31 90.5692 176.094V176.724C90.5692 177.508 90.3872 178.096 90.0512 178.488ZM93.4263 172.832V180H94.6163V175.87C94.6163 175.24 94.7983 174.736 95.1763 174.358C95.5543 173.994 96.0583 173.798 96.6743 173.798C96.9403 173.798 97.2063 173.84 97.4583 173.91V172.776C97.2763 172.748 97.0803 172.734 96.8843 172.734C96.3803 172.734 95.9463 172.832 95.5543 173.014C95.1623 173.196 94.8403 173.476 94.6023 173.84V172.832H93.4263ZM99.2933 179.272C99.8813 179.846 100.679 180.126 101.715 180.126C102.723 180.126 103.521 179.846 104.109 179.272C104.683 178.698 104.977 177.858 104.977 176.766V176.052C104.977 174.974 104.683 174.148 104.109 173.56C103.521 172.986 102.723 172.692 101.715 172.692C100.679 172.692 99.8813 172.986 99.2933 173.56C98.7053 174.134 98.4253 174.96 98.4253 176.052V176.766C98.4253 177.858 98.7053 178.698 99.2933 179.272ZM103.787 176.738C103.787 178.306 103.087 179.076 101.701 179.076C100.301 179.076 99.6153 178.306 99.6153 176.738V176.08C99.6153 174.54 100.301 173.756 101.701 173.756C103.087 173.756 103.787 174.54 103.787 176.08V176.738ZM107.235 179.272C107.767 179.846 108.481 180.126 109.405 180.126C109.909 180.126 110.371 180.042 110.763 179.86C111.155 179.678 111.463 179.412 111.701 179.062V180H112.877V170.34H111.701V173.784C111.463 173.448 111.141 173.182 110.735 172.986C110.329 172.79 109.881 172.692 109.377 172.692C108.481 172.692 107.767 172.986 107.235 173.56C106.703 174.148 106.437 174.96 106.437 176.024V176.794C106.437 177.872 106.703 178.698 107.235 179.272ZM111.155 178.488C110.791 178.88 110.273 179.076 109.629 179.076C108.985 179.076 108.495 178.894 108.145 178.502C107.795 178.11 107.627 177.522 107.627 176.738V176.094C107.627 175.31 107.795 174.736 108.145 174.344C108.481 173.952 108.971 173.756 109.615 173.756C110.259 173.756 110.777 173.952 111.141 174.344C111.505 174.736 111.701 175.282 111.701 175.954V176.892C111.701 177.564 111.519 178.096 111.155 178.488ZM115.552 179.342C116.07 179.846 116.826 180.098 117.82 180.098C118.814 180.098 119.57 179.846 120.102 179.342C120.634 178.838 120.9 178.11 120.9 177.158V172.832H119.71V177.032C119.71 177.704 119.556 178.208 119.248 178.544C118.94 178.88 118.478 179.034 117.834 179.034C116.574 179.034 115.958 178.376 115.958 177.032V172.832H114.768V177.158C114.768 178.11 115.02 178.838 115.552 179.342ZM123.438 179.272C124.012 179.846 124.824 180.126 125.86 180.126C126.798 180.126 127.526 179.902 128.058 179.44C128.59 178.978 128.856 178.348 128.856 177.55V177.494H127.694V177.55C127.694 178.026 127.526 178.404 127.218 178.67C126.896 178.95 126.448 179.076 125.86 179.076C124.46 179.076 123.76 178.306 123.76 176.738V176.08C123.76 174.54 124.46 173.756 125.86 173.756C126.448 173.756 126.896 173.896 127.218 174.162C127.526 174.442 127.694 174.82 127.694 175.296V175.366H128.856V175.296C128.856 174.484 128.59 173.854 128.058 173.392C127.526 172.93 126.784 172.692 125.846 172.692C124.81 172.692 124.012 172.986 123.438 173.56C122.85 174.134 122.57 174.96 122.57 176.052V176.766C122.57 177.858 122.85 178.698 123.438 179.272ZM132.382 173.728H134.286V172.832H132.382V170.788L131.192 171.278V172.832H129.932V173.728H131.192V177.942C131.192 179.314 131.906 180 133.334 180H134.132V178.964H133.53C133.11 178.964 132.816 178.88 132.648 178.712C132.466 178.544 132.382 178.264 132.382 177.872V173.728ZM136.243 179.496C136.775 179.888 137.517 180.084 138.469 180.084C139.421 180.084 140.177 179.902 140.737 179.51C141.297 179.118 141.577 178.572 141.577 177.872C141.577 177.298 141.381 176.85 140.989 176.528C140.597 176.22 140.009 176.01 139.211 175.912L138.119 175.772C137.587 175.716 137.223 175.618 137.013 175.464C136.789 175.31 136.691 175.086 136.691 174.778C136.691 174.442 136.831 174.176 137.139 173.98C137.433 173.798 137.881 173.7 138.483 173.7C139.071 173.7 139.519 173.812 139.841 174.008C140.163 174.204 140.331 174.498 140.331 174.876V174.918H141.465V174.862C141.465 174.218 141.199 173.7 140.667 173.308C140.135 172.93 139.393 172.734 138.469 172.734C137.573 172.734 136.859 172.93 136.341 173.308C135.809 173.686 135.557 174.204 135.557 174.862C135.557 175.436 135.739 175.884 136.117 176.192C136.481 176.5 137.069 176.71 137.867 176.794L138.889 176.92C139.421 176.976 139.813 177.088 140.065 177.242C140.317 177.41 140.443 177.634 140.443 177.942C140.443 178.32 140.261 178.6 139.925 178.796C139.589 178.992 139.113 179.09 138.525 179.09C137.853 179.09 137.363 178.978 137.055 178.754C136.733 178.53 136.579 178.236 136.579 177.844V177.816H135.445V177.858C135.445 178.558 135.711 179.104 136.243 179.496Z" fill="#7C7B8A"/>
</svg>
