<svg width="80" height="70" viewBox="50 20 130 42" fill="none" xmlns="http://www.w3.org/2000/svg">
<path fill-rule="evenodd" clip-rule="evenodd" d="M100 96C126.51 96 148 74.5097 148 48C148 21.4903 126.51 0 100 0C73.4903 0 52 21.4903 52 48C52 74.5097 73.4903 96 100 96Z" fill="#F0FAF3"/>
<path fill-rule="evenodd" clip-rule="evenodd" d="M93.3327 33.333H106.666C108.139 33.333 109.333 34.5269 109.333 35.9997V59.9997C109.333 61.4724 108.139 62.6663 106.666 62.6663H93.3327C91.8599 62.6663 90.666 61.4724 90.666 59.9997V35.9997C90.666 34.5269 91.8599 33.333 93.3327 33.333ZM97.3327 35.9997H93.3327V59.9997H106.666V35.9997H102.666C102.666 36.7361 102.069 37.333 101.333 37.333H98.666C97.9296 37.333 97.3327 36.7361 97.3327 35.9997Z" fill="#11C856"/>
<path d="M47.06 130.176H55.748V127.44H43.916V144H55.748V141.264H47.06V137.016H54.524V134.28H47.06V130.176ZM57.8899 143.016C58.5619 143.688 59.6179 144 61.0339 144H62.6899V141.432H61.5619C60.9139 141.432 60.4579 141.312 60.2179 141.072C59.9779 140.832 59.8579 140.4 59.8579 139.776V127.44H56.8819V139.968C56.8819 141.336 57.2179 142.344 57.8899 143.016ZM65.9544 138.576H74.5224V137.136C74.5224 135.264 73.9944 133.824 72.9864 132.816C71.9544 131.808 70.5384 131.304 68.7624 131.304C66.9624 131.304 65.5464 131.832 64.5384 132.84C63.5064 133.848 63.0024 135.312 63.0024 137.208V138.288C63.0024 140.232 63.5064 141.696 64.5624 142.704C65.6184 143.712 67.0584 144.216 68.9064 144.216C70.5144 144.216 71.8104 143.856 72.7944 143.136C73.7784 142.416 74.3064 141.432 74.4024 140.232V140.088H71.4984L71.4744 140.16C71.4024 140.64 71.1384 141 70.7064 141.24C70.2744 141.504 69.6984 141.624 69.0264 141.624C66.9624 141.624 65.9544 140.64 65.9544 138.624V138.576ZM65.9544 136.536C66.0504 134.76 66.9864 133.848 68.7624 133.848C69.6024 133.848 70.2744 134.064 70.7784 134.496C71.2824 134.928 71.5464 135.552 71.5464 136.368V136.536H65.9544ZM77.2254 142.752C78.2334 143.736 79.6254 144.216 81.4014 144.216C83.1294 144.216 84.4734 143.808 85.4574 142.992C86.4174 142.176 86.9214 141.072 86.9214 139.632V139.536H84.0174V139.632C84.0174 140.232 83.7774 140.712 83.3454 141.048C82.9134 141.384 82.3134 141.552 81.5454 141.552C80.5854 141.552 79.8654 141.312 79.3854 140.832C78.9054 140.352 78.6654 139.56 78.6654 138.456V137.04C78.6654 135.984 78.8814 135.192 79.3614 134.688C79.8414 134.208 80.5374 133.944 81.4734 133.944C82.2654 133.944 82.8894 134.136 83.3454 134.496C83.8014 134.856 84.0414 135.336 84.0414 135.96V136.056H86.9454V135.912C86.9454 134.472 86.4414 133.344 85.4814 132.528C84.4974 131.712 83.1294 131.304 81.4014 131.304C79.6254 131.304 78.2334 131.808 77.2254 132.768C76.2174 133.728 75.7134 135.144 75.7134 136.992V138.48C75.7134 140.352 76.2174 141.792 77.2254 142.752ZM92.2829 133.608H95.1149V131.52H92.2829V128.04L89.3309 129.072V131.52H87.1469V133.608H89.3309V140.16C89.3309 141.408 89.6669 142.344 90.3389 143.016C91.0109 143.688 91.9709 144 93.2429 144H94.8509V141.48H93.7949C93.2429 141.48 92.8589 141.384 92.6189 141.144C92.3789 140.904 92.2829 140.52 92.2829 139.968V133.608ZM96.1944 131.52V144H99.1704V137.088C99.1704 136.056 99.4104 135.264 99.9384 134.712C100.466 134.16 101.186 133.872 102.146 133.872C102.77 133.872 103.37 133.992 103.922 134.184V131.352C103.586 131.304 103.202 131.256 102.746 131.256C101.978 131.256 101.282 131.4 100.658 131.688C100.034 131.976 99.5064 132.384 99.0984 132.936V131.52H96.1944ZM105.491 142.752C106.499 143.736 107.891 144.216 109.667 144.216C111.419 144.216 112.787 143.736 113.795 142.752C114.803 141.792 115.307 140.352 115.307 138.48V136.992C115.307 135.168 114.803 133.752 113.795 132.768C112.787 131.808 111.419 131.304 109.667 131.304C107.891 131.304 106.499 131.808 105.491 132.768C104.483 133.728 103.979 135.144 103.979 136.992V138.48C103.979 140.352 104.483 141.792 105.491 142.752ZM112.355 138.456C112.355 140.52 111.443 141.552 109.667 141.552C107.843 141.552 106.931 140.52 106.931 138.456V137.04C106.931 134.976 107.843 133.944 109.667 133.944C110.531 133.944 111.179 134.208 111.659 134.712C112.115 135.216 112.355 135.984 112.355 137.04V138.456ZM116.694 131.52V144H119.67V136.944C119.67 135.984 119.91 135.24 120.39 134.76C120.87 134.28 121.518 134.016 122.382 134.016C124.014 134.016 124.854 134.952 124.854 136.824V144H127.83V136.224C127.83 134.712 127.422 133.536 126.63 132.672C125.814 131.808 124.71 131.376 123.27 131.376C122.526 131.376 121.83 131.52 121.206 131.76C120.582 132.024 120.03 132.384 119.598 132.864V131.52H116.694ZM129.549 127.368V129.744H132.501V127.368H129.549ZM129.549 131.52V144H132.501V131.52H129.549ZM135.538 142.752C136.546 143.736 137.938 144.216 139.714 144.216C141.442 144.216 142.786 143.808 143.77 142.992C144.73 142.176 145.234 141.072 145.234 139.632V139.536H142.33V139.632C142.33 140.232 142.09 140.712 141.658 141.048C141.226 141.384 140.626 141.552 139.858 141.552C138.898 141.552 138.178 141.312 137.698 140.832C137.218 140.352 136.978 139.56 136.978 138.456V137.04C136.978 135.984 137.194 135.192 137.674 134.688C138.154 134.208 138.85 133.944 139.786 133.944C140.578 133.944 141.202 134.136 141.658 134.496C142.114 134.856 142.354 135.336 142.354 135.96V136.056H145.258V135.912C145.258 134.472 144.754 133.344 143.794 132.528C142.81 131.712 141.442 131.304 139.714 131.304C137.938 131.304 136.546 131.808 135.538 132.768C134.53 133.728 134.026 135.144 134.026 136.992V138.48C134.026 140.352 134.53 141.792 135.538 142.752ZM147.632 143.112C148.568 143.808 149.888 144.144 151.592 144.144C153.32 144.144 154.664 143.808 155.672 143.112C156.68 142.44 157.184 141.432 157.184 140.136C157.184 139.104 156.824 138.288 156.152 137.688C155.456 137.088 154.4 136.704 152.96 136.536L150.968 136.296C150.32 136.248 149.864 136.104 149.6 135.888C149.312 135.696 149.192 135.408 149.192 135.048C149.192 134.616 149.384 134.304 149.768 134.064C150.152 133.824 150.776 133.704 151.592 133.704C152.456 133.704 153.104 133.848 153.536 134.088C153.968 134.352 154.184 134.712 154.184 135.192V135.264H156.944V135.168C156.944 133.992 156.464 133.056 155.528 132.384C154.568 131.712 153.272 131.376 151.616 131.376C149.984 131.376 148.712 131.712 147.8 132.384C146.864 133.056 146.408 134.016 146.408 135.24C146.408 136.296 146.72 137.112 147.392 137.688C148.064 138.264 149.096 138.624 150.512 138.792L152.36 139.008C153.056 139.104 153.56 139.248 153.872 139.44C154.184 139.656 154.352 139.944 154.352 140.328C154.352 140.808 154.112 141.144 153.68 141.384C153.248 141.624 152.6 141.744 151.76 141.744C150.848 141.744 150.152 141.6 149.696 141.312C149.216 141.024 149 140.64 149 140.136V140.088H146.216V140.16C146.216 141.432 146.672 142.416 147.632 143.112Z" fill="#1D293F"/>
<path d="M60.068 179.496C60.6 179.93 61.328 180.14 62.28 180.14C63.232 180.14 63.974 179.902 64.534 179.412C65.08 178.936 65.36 178.264 65.36 177.424V177.172C65.36 176.612 65.22 176.122 64.954 175.73C64.688 175.338 64.296 175.058 63.792 174.89C64.212 174.722 64.548 174.456 64.8 174.12C65.052 173.784 65.178 173.364 65.178 172.874V172.664C65.178 171.894 64.912 171.292 64.408 170.858C63.904 170.424 63.19 170.2 62.294 170.2C61.37 170.2 60.656 170.424 60.152 170.872C59.648 171.32 59.396 171.922 59.396 172.706V172.86H60.6V172.72C60.6 172.272 60.74 171.922 61.02 171.67C61.3 171.432 61.706 171.306 62.252 171.306C62.784 171.306 63.204 171.432 63.484 171.684C63.764 171.936 63.918 172.286 63.918 172.748V172.944C63.918 173.42 63.764 173.798 63.47 174.05C63.162 174.316 62.728 174.442 62.168 174.442H61.608V175.562H62.182C62.798 175.562 63.274 175.702 63.596 175.968C63.918 176.248 64.086 176.64 64.086 177.158V177.424C64.086 177.942 63.932 178.334 63.624 178.614C63.316 178.894 62.868 179.034 62.294 179.034C61.706 179.034 61.272 178.922 60.964 178.684C60.656 178.446 60.516 178.096 60.516 177.648V177.522H59.284V177.662C59.284 178.446 59.536 179.062 60.068 179.496ZM67.7936 179.37C68.3536 179.888 69.1096 180.14 70.0616 180.14C70.9996 180.14 71.7556 179.888 72.3156 179.37C72.8756 178.852 73.1696 178.152 73.1696 177.256V176.92C73.1696 176.388 73.0436 175.912 72.8056 175.492C72.5676 175.072 72.2456 174.75 71.8256 174.512C71.4056 174.274 70.9296 174.148 70.3976 174.148C70.1456 174.148 69.9076 174.176 69.6976 174.218C69.4876 174.274 69.3196 174.33 69.1936 174.4L71.6576 170.34H70.2716L67.9056 174.288C67.5556 174.82 67.3036 175.296 67.1636 175.702C67.0236 176.122 66.9536 176.556 66.9536 177.004V177.312C66.9536 178.18 67.2336 178.866 67.7936 179.37ZM71.4056 178.572C71.0696 178.88 70.6216 179.034 70.0616 179.034C69.5016 179.034 69.0536 178.88 68.7176 178.572C68.3816 178.264 68.2276 177.844 68.2276 177.312V176.99C68.2276 176.458 68.3816 176.038 68.7036 175.73C69.0256 175.422 69.4736 175.268 70.0476 175.268C70.6216 175.268 71.0696 175.422 71.4056 175.73C71.7416 176.038 71.9096 176.458 71.9096 176.976V177.298C71.9096 177.83 71.7416 178.264 71.4056 178.572ZM74.6922 178.978V180H80.6002V178.88H76.3722L79.2422 175.618C79.6902 175.142 80.0262 174.694 80.2222 174.288C80.4182 173.896 80.5162 173.448 80.5162 172.972V172.762C80.5162 172.258 80.3902 171.824 80.1522 171.432C79.9142 171.04 79.5782 170.746 79.1302 170.522C78.6822 170.312 78.1642 170.2 77.5762 170.2C76.6802 170.2 75.9802 170.438 75.4622 170.886C74.9302 171.348 74.6782 171.964 74.6782 172.748V173H75.9102V172.846C75.9102 172.342 76.0502 171.964 76.3302 171.698C76.6102 171.446 77.0162 171.306 77.5482 171.306C78.0802 171.306 78.4862 171.446 78.7942 171.698C79.0882 171.964 79.2422 172.328 79.2422 172.79V172.958C79.2422 173.294 79.1582 173.616 79.0182 173.91C78.8782 174.204 78.6262 174.54 78.2622 174.932L74.6922 178.978ZM85.3052 172.832V182.268H86.4952V179.076C86.9712 179.776 87.7272 180.126 88.7632 180.126C89.6592 180.126 90.3872 179.846 90.9332 179.258C91.4792 178.684 91.7592 177.858 91.7592 176.78V176.024C91.7592 174.96 91.4792 174.148 90.9332 173.574C90.3872 173 89.6592 172.706 88.7632 172.706C88.2592 172.706 87.8252 172.804 87.4332 173C87.0412 173.196 86.7192 173.462 86.4812 173.798V172.832H85.3052ZM90.0512 178.488C89.7012 178.88 89.2112 179.076 88.5952 179.076C87.9372 179.076 87.4192 178.88 87.0552 178.488C86.6772 178.096 86.4952 177.564 86.4952 176.892V175.954C86.4952 175.282 86.6772 174.75 87.0412 174.358C87.4052 173.966 87.9232 173.756 88.5672 173.756C89.2112 173.756 89.7012 173.952 90.0512 174.344C90.3872 174.736 90.5692 175.31 90.5692 176.094V176.724C90.5692 177.508 90.3872 178.096 90.0512 178.488ZM93.4263 172.832V180H94.6163V175.87C94.6163 175.24 94.7983 174.736 95.1763 174.358C95.5543 173.994 96.0583 173.798 96.6743 173.798C96.9403 173.798 97.2063 173.84 97.4583 173.91V172.776C97.2763 172.748 97.0803 172.734 96.8843 172.734C96.3803 172.734 95.9463 172.832 95.5543 173.014C95.1623 173.196 94.8403 173.476 94.6023 173.84V172.832H93.4263ZM99.2933 179.272C99.8813 179.846 100.679 180.126 101.715 180.126C102.723 180.126 103.521 179.846 104.109 179.272C104.683 178.698 104.977 177.858 104.977 176.766V176.052C104.977 174.974 104.683 174.148 104.109 173.56C103.521 172.986 102.723 172.692 101.715 172.692C100.679 172.692 99.8813 172.986 99.2933 173.56C98.7053 174.134 98.4253 174.96 98.4253 176.052V176.766C98.4253 177.858 98.7053 178.698 99.2933 179.272ZM103.787 176.738C103.787 178.306 103.087 179.076 101.701 179.076C100.301 179.076 99.6153 178.306 99.6153 176.738V176.08C99.6153 174.54 100.301 173.756 101.701 173.756C103.087 173.756 103.787 174.54 103.787 176.08V176.738ZM107.235 179.272C107.767 179.846 108.481 180.126 109.405 180.126C109.909 180.126 110.371 180.042 110.763 179.86C111.155 179.678 111.463 179.412 111.701 179.062V180H112.877V170.34H111.701V173.784C111.463 173.448 111.141 173.182 110.735 172.986C110.329 172.79 109.881 172.692 109.377 172.692C108.481 172.692 107.767 172.986 107.235 173.56C106.703 174.148 106.437 174.96 106.437 176.024V176.794C106.437 177.872 106.703 178.698 107.235 179.272ZM111.155 178.488C110.791 178.88 110.273 179.076 109.629 179.076C108.985 179.076 108.495 178.894 108.145 178.502C107.795 178.11 107.627 177.522 107.627 176.738V176.094C107.627 175.31 107.795 174.736 108.145 174.344C108.481 173.952 108.971 173.756 109.615 173.756C110.259 173.756 110.777 173.952 111.141 174.344C111.505 174.736 111.701 175.282 111.701 175.954V176.892C111.701 177.564 111.519 178.096 111.155 178.488ZM115.552 179.342C116.07 179.846 116.826 180.098 117.82 180.098C118.814 180.098 119.57 179.846 120.102 179.342C120.634 178.838 120.9 178.11 120.9 177.158V172.832H119.71V177.032C119.71 177.704 119.556 178.208 119.248 178.544C118.94 178.88 118.478 179.034 117.834 179.034C116.574 179.034 115.958 178.376 115.958 177.032V172.832H114.768V177.158C114.768 178.11 115.02 178.838 115.552 179.342ZM123.438 179.272C124.012 179.846 124.824 180.126 125.86 180.126C126.798 180.126 127.526 179.902 128.058 179.44C128.59 178.978 128.856 178.348 128.856 177.55V177.494H127.694V177.55C127.694 178.026 127.526 178.404 127.218 178.67C126.896 178.95 126.448 179.076 125.86 179.076C124.46 179.076 123.76 178.306 123.76 176.738V176.08C123.76 174.54 124.46 173.756 125.86 173.756C126.448 173.756 126.896 173.896 127.218 174.162C127.526 174.442 127.694 174.82 127.694 175.296V175.366H128.856V175.296C128.856 174.484 128.59 173.854 128.058 173.392C127.526 172.93 126.784 172.692 125.846 172.692C124.81 172.692 124.012 172.986 123.438 173.56C122.85 174.134 122.57 174.96 122.57 176.052V176.766C122.57 177.858 122.85 178.698 123.438 179.272ZM132.382 173.728H134.286V172.832H132.382V170.788L131.192 171.278V172.832H129.932V173.728H131.192V177.942C131.192 179.314 131.906 180 133.334 180H134.132V178.964H133.53C133.11 178.964 132.816 178.88 132.648 178.712C132.466 178.544 132.382 178.264 132.382 177.872V173.728ZM136.243 179.496C136.775 179.888 137.517 180.084 138.469 180.084C139.421 180.084 140.177 179.902 140.737 179.51C141.297 179.118 141.577 178.572 141.577 177.872C141.577 177.298 141.381 176.85 140.989 176.528C140.597 176.22 140.009 176.01 139.211 175.912L138.119 175.772C137.587 175.716 137.223 175.618 137.013 175.464C136.789 175.31 136.691 175.086 136.691 174.778C136.691 174.442 136.831 174.176 137.139 173.98C137.433 173.798 137.881 173.7 138.483 173.7C139.071 173.7 139.519 173.812 139.841 174.008C140.163 174.204 140.331 174.498 140.331 174.876V174.918H141.465V174.862C141.465 174.218 141.199 173.7 140.667 173.308C140.135 172.93 139.393 172.734 138.469 172.734C137.573 172.734 136.859 172.93 136.341 173.308C135.809 173.686 135.557 174.204 135.557 174.862C135.557 175.436 135.739 175.884 136.117 176.192C136.481 176.5 137.069 176.71 137.867 176.794L138.889 176.92C139.421 176.976 139.813 177.088 140.065 177.242C140.317 177.41 140.443 177.634 140.443 177.942C140.443 178.32 140.261 178.6 139.925 178.796C139.589 178.992 139.113 179.09 138.525 179.09C137.853 179.09 137.363 178.978 137.055 178.754C136.733 178.53 136.579 178.236 136.579 177.844V177.816H135.445V177.858C135.445 178.558 135.711 179.104 136.243 179.496Z" fill="#7C7B8A"/>
</svg>
