<svg width="80" height="70" viewBox="50 20 130 42" fill="none" xmlns="http://www.w3.org/2000/svg">
<path fill-rule="evenodd" clip-rule="evenodd" d="M100 96C126.51 96 148 74.5097 148 48C148 21.4903 126.51 0 100 0C73.4903 0 52 21.4903 52 48C52 74.5097 73.4903 96 100 96Z" fill="#F0FAF3"/>
<path fill-rule="evenodd" clip-rule="evenodd" d="M93.3327 33.333H106.666C108.139 33.333 109.333 34.5269 109.333 35.9997V59.9997C109.333 61.4724 108.139 62.6663 106.666 62.6663H93.3327C91.8599 62.6663 90.666 61.4724 90.666 59.9997V35.9997C90.666 34.5269 91.8599 33.333 93.3327 33.333ZM97.3327 35.9997H93.3327V59.9997H106.666V35.9997H102.666C102.666 36.7361 102.069 37.333 101.333 37.333H98.666C97.9296 37.333 97.3327 36.7361 97.3327 35.9997Z" fill="#11C856"/>
<g clip-path="url(#clip0)">
<path d="M27.06 130.176H35.748V127.44H23.916V144H27.06V137.16H34.572V134.424H27.06V130.176ZM37.1004 142.752C38.1084 143.736 39.5004 144.216 41.2764 144.216C43.0284 144.216 44.3964 143.736 45.4044 142.752C46.4124 141.792 46.9164 140.352 46.9164 138.48V136.992C46.9164 135.168 46.4124 133.752 45.4044 132.768C44.3964 131.808 43.0284 131.304 41.2764 131.304C39.5004 131.304 38.1084 131.808 37.1004 132.768C36.0924 133.728 35.5884 135.144 35.5884 136.992V138.48C35.5884 140.352 36.0924 141.792 37.1004 142.752ZM43.9644 138.456C43.9644 140.52 43.0524 141.552 41.2764 141.552C39.4524 141.552 38.5404 140.52 38.5404 138.456V137.04C38.5404 134.976 39.4524 133.944 41.2764 133.944C42.1404 133.944 42.7884 134.208 43.2684 134.712C43.7244 135.216 43.9644 135.984 43.9644 137.04V138.456ZM49.6238 142.752C50.6318 143.736 52.0238 144.216 53.7998 144.216C55.5518 144.216 56.9198 143.736 57.9278 142.752C58.9358 141.792 59.4398 140.352 59.4398 138.48V136.992C59.4398 135.168 58.9358 133.752 57.9278 132.768C56.9198 131.808 55.5518 131.304 53.7998 131.304C52.0238 131.304 50.6318 131.808 49.6238 132.768C48.6158 133.728 48.1118 135.144 48.1118 136.992V138.48C48.1118 140.352 48.6158 141.792 49.6238 142.752ZM56.4878 138.456C56.4878 140.52 55.5758 141.552 53.7998 141.552C51.9758 141.552 51.0638 140.52 51.0638 138.456V137.04C51.0638 134.976 51.9758 133.944 53.7998 133.944C54.6638 133.944 55.3118 134.208 55.7918 134.712C56.2478 135.216 56.4878 135.984 56.4878 137.04V138.456ZM61.9553 142.752C62.8433 143.736 64.0193 144.216 65.5073 144.216C67.0433 144.216 68.2193 143.712 69.0353 142.656V144H71.9393V127.44H68.9873V132.864C68.0993 131.832 66.9233 131.304 65.4593 131.304C64.4993 131.304 63.6593 131.544 62.9393 131.976C62.2193 132.408 61.6433 133.056 61.2353 133.896C60.8273 134.76 60.6353 135.768 60.6353 136.968V138.528C60.6353 140.376 61.0673 141.792 61.9553 142.752ZM68.2193 140.76C67.7153 141.288 67.0433 141.552 66.1793 141.552C65.3633 141.552 64.7153 141.312 64.2833 140.784C63.8273 140.256 63.6113 139.464 63.6113 138.408V137.112C63.6113 136.056 63.8273 135.264 64.2833 134.736C64.7393 134.208 65.3873 133.944 66.2513 133.944C67.1153 133.944 67.7873 134.232 68.2673 134.76C68.7473 135.288 68.9873 136.032 68.9873 136.992V138.576C68.9873 139.512 68.7233 140.232 68.2193 140.76ZM90.2146 141.264C89.9746 141.168 89.7346 140.952 89.4946 140.664L89.2546 140.4L91.6306 137.736L89.7826 136.056L87.6226 138.48L84.9826 135.408C86.1346 134.664 86.9746 133.968 87.4786 133.32C87.9586 132.672 88.2226 131.928 88.2226 131.088C88.2226 129.912 87.7906 128.952 86.9746 128.208C86.1346 127.488 85.0546 127.104 83.7346 127.104C82.4146 127.104 81.3346 127.488 80.5186 128.208C79.7026 128.928 79.2946 129.888 79.2946 131.088C79.2946 131.712 79.4146 132.288 79.6786 132.816C79.9186 133.368 80.3746 134.04 81.0226 134.832C79.8946 135.552 79.0786 136.272 78.5746 137.04C78.0706 137.808 77.8306 138.672 77.8306 139.632C77.8306 141.024 78.2626 142.176 79.1746 143.04C80.0626 143.904 81.3106 144.336 82.8946 144.336C83.7346 144.336 84.5266 144.192 85.2466 143.904C85.9666 143.616 86.6866 143.136 87.4066 142.44L87.4786 142.512C87.9586 143.088 88.3906 143.496 88.7986 143.688C89.2066 143.904 89.7106 144 90.2866 144H91.5826V141.432H91.0546C90.7186 141.432 90.4306 141.384 90.2146 141.264ZM82.5106 129.84C82.7986 129.552 83.2306 129.408 83.7586 129.408C84.2866 129.408 84.6946 129.576 85.0066 129.864C85.3186 130.152 85.4866 130.536 85.4866 131.016C85.4866 131.448 85.3426 131.832 85.0546 132.216C84.7666 132.6 84.2146 133.056 83.3986 133.536C82.8706 132.936 82.5346 132.456 82.3426 132.072C82.1506 131.688 82.0786 131.328 82.0786 130.968C82.0786 130.488 82.2226 130.128 82.5106 129.84ZM84.4066 141.48C83.9746 141.672 83.5186 141.768 83.0386 141.768C82.2946 141.768 81.7186 141.576 81.2866 141.168C80.8546 140.784 80.6626 140.232 80.6626 139.512C80.6626 139.008 80.8066 138.552 81.0946 138.12C81.3826 137.712 81.9106 137.256 82.6546 136.776L85.7986 140.496C85.2946 140.976 84.8386 141.288 84.4066 141.48ZM99.3873 142.44C100.635 143.664 102.363 144.264 104.571 144.264C106.635 144.264 108.267 143.736 109.467 142.68C110.667 141.624 111.267 140.016 111.267 137.856V135.12H104.523V137.712H108.147V138.312C108.147 139.368 107.859 140.136 107.283 140.664C106.707 141.192 105.819 141.432 104.619 141.432C103.275 141.432 102.291 141.072 101.643 140.352C100.995 139.632 100.683 138.48 100.683 136.92V134.544C100.683 132.96 100.995 131.808 101.643 131.04C102.291 130.272 103.275 129.888 104.595 129.888C105.699 129.888 106.563 130.176 107.187 130.704C107.811 131.232 108.123 131.952 108.123 132.816V132.912H111.267V132.72C111.267 131.568 110.979 130.584 110.427 129.72C109.875 128.88 109.107 128.232 108.099 127.8C107.091 127.368 105.915 127.128 104.595 127.128C102.363 127.128 100.635 127.752 99.3873 128.952C98.1393 130.176 97.5153 132 97.5153 134.4V136.992C97.5153 139.416 98.1393 141.24 99.3873 142.44ZM112.64 131.52V144H115.616V137.088C115.616 136.056 115.856 135.264 116.384 134.712C116.912 134.16 117.632 133.872 118.592 133.872C119.216 133.872 119.816 133.992 120.368 134.184V131.352C120.032 131.304 119.648 131.256 119.192 131.256C118.424 131.256 117.728 131.4 117.104 131.688C116.48 131.976 115.952 132.384 115.544 132.936V131.52H112.64ZM121.936 142.752C122.944 143.736 124.336 144.216 126.112 144.216C127.864 144.216 129.232 143.736 130.24 142.752C131.248 141.792 131.752 140.352 131.752 138.48V136.992C131.752 135.168 131.248 133.752 130.24 132.768C129.232 131.808 127.864 131.304 126.112 131.304C124.336 131.304 122.944 131.808 121.936 132.768C120.928 133.728 120.424 135.144 120.424 136.992V138.48C120.424 140.352 120.928 141.792 121.936 142.752ZM128.8 138.456C128.8 140.52 127.888 141.552 126.112 141.552C124.288 141.552 123.376 140.52 123.376 138.456V137.04C123.376 134.976 124.288 133.944 126.112 133.944C126.976 133.944 127.624 134.208 128.104 134.712C128.56 135.216 128.8 135.984 128.8 137.04V138.456ZM134.46 142.752C135.468 143.736 136.86 144.216 138.636 144.216C140.364 144.216 141.708 143.808 142.692 142.992C143.652 142.176 144.156 141.072 144.156 139.632V139.536H141.252V139.632C141.252 140.232 141.012 140.712 140.58 141.048C140.148 141.384 139.548 141.552 138.78 141.552C137.82 141.552 137.1 141.312 136.62 140.832C136.14 140.352 135.9 139.56 135.9 138.456V137.04C135.9 135.984 136.116 135.192 136.596 134.688C137.076 134.208 137.772 133.944 138.708 133.944C139.5 133.944 140.124 134.136 140.58 134.496C141.036 134.856 141.276 135.336 141.276 135.96V136.056H144.18V135.912C144.18 134.472 143.676 133.344 142.716 132.528C141.732 131.712 140.364 131.304 138.636 131.304C136.86 131.304 135.468 131.808 134.46 132.768C133.452 133.728 132.948 135.144 132.948 136.992V138.48C132.948 140.352 133.452 141.792 134.46 142.752ZM148.306 138.576H156.874V137.136C156.874 135.264 156.346 133.824 155.338 132.816C154.306 131.808 152.89 131.304 151.114 131.304C149.314 131.304 147.898 131.832 146.89 132.84C145.858 133.848 145.354 135.312 145.354 137.208V138.288C145.354 140.232 145.858 141.696 146.914 142.704C147.97 143.712 149.41 144.216 151.258 144.216C152.866 144.216 154.162 143.856 155.146 143.136C156.13 142.416 156.658 141.432 156.754 140.232V140.088H153.85L153.826 140.16C153.754 140.64 153.49 141 153.058 141.24C152.626 141.504 152.05 141.624 151.378 141.624C149.314 141.624 148.306 140.64 148.306 138.624V138.576ZM148.306 136.536C148.402 134.76 149.338 133.848 151.114 133.848C151.954 133.848 152.626 134.064 153.13 134.496C153.634 134.928 153.898 135.552 153.898 136.368V136.536H148.306ZM158.257 131.52V144H161.233V137.088C161.233 136.056 161.473 135.264 162.001 134.712C162.529 134.16 163.249 133.872 164.209 133.872C164.833 133.872 165.433 133.992 165.985 134.184V131.352C165.649 131.304 165.265 131.256 164.809 131.256C164.041 131.256 163.345 131.4 162.721 131.688C162.097 131.976 161.569 132.384 161.161 132.936V131.52H158.257ZM178.15 131.52H175.054L172.078 139.872L168.838 131.52H165.622L170.71 143.736L170.638 143.952C170.47 144.384 170.254 144.672 169.99 144.816C169.726 144.96 169.318 145.032 168.742 145.032H167.446V147.696H168.598C169.702 147.696 170.59 147.504 171.286 147.072C171.958 146.664 172.486 145.992 172.846 145.08L178.15 131.52Z" fill="#1D293F"/>
<path d="M56.284 178.978V180H62.192V178.88H57.964L60.834 175.618C61.282 175.142 61.618 174.694 61.814 174.288C62.01 173.896 62.108 173.448 62.108 172.972V172.762C62.108 172.258 61.982 171.824 61.744 171.432C61.506 171.04 61.17 170.746 60.722 170.522C60.274 170.312 59.756 170.2 59.168 170.2C58.272 170.2 57.572 170.438 57.054 170.886C56.522 171.348 56.27 171.964 56.27 172.748V173H57.502V172.846C57.502 172.342 57.642 171.964 57.922 171.698C58.202 171.446 58.608 171.306 59.14 171.306C59.672 171.306 60.078 171.446 60.386 171.698C60.68 171.964 60.834 172.328 60.834 172.79V172.958C60.834 173.294 60.75 173.616 60.61 173.91C60.47 174.204 60.218 174.54 59.854 174.932L56.284 178.978ZM64.6318 179.398C65.1918 179.902 65.9618 180.14 66.9138 180.14C67.8518 180.14 68.6078 179.902 69.1818 179.398C69.7558 178.894 70.0498 178.222 70.0498 177.382V177.172C70.0498 176.668 69.9238 176.206 69.6718 175.814C69.4198 175.422 69.0558 175.128 68.5798 174.918C68.9718 174.75 69.2798 174.484 69.5038 174.12C69.7278 173.77 69.8538 173.364 69.8538 172.902V172.72C69.8538 172.23 69.7278 171.796 69.4898 171.404C69.2378 171.026 68.9018 170.732 68.4538 170.522C68.0058 170.312 67.5018 170.2 66.9138 170.2C66.3258 170.2 65.8078 170.312 65.3738 170.522C64.9258 170.732 64.5898 171.026 64.3518 171.404C64.0998 171.796 63.9878 172.23 63.9878 172.72V172.902C63.9878 173.364 64.0998 173.77 64.3238 174.12C64.5478 174.484 64.8558 174.75 65.2618 174.918C64.7718 175.128 64.4078 175.422 64.1558 175.814C63.9038 176.206 63.7778 176.654 63.7778 177.186V177.396C63.7778 178.236 64.0578 178.908 64.6318 179.398ZM68.1458 173.994C67.8518 174.26 67.4458 174.386 66.9138 174.386C66.3818 174.386 65.9758 174.26 65.6818 173.994C65.3878 173.742 65.2478 173.378 65.2478 172.93V172.72C65.2478 172.286 65.3878 171.936 65.6958 171.684C65.9898 171.432 66.3958 171.306 66.9138 171.306C67.4318 171.306 67.8378 171.432 68.1458 171.684C68.4398 171.936 68.5938 172.286 68.5938 172.72V172.93C68.5938 173.378 68.4398 173.742 68.1458 173.994ZM68.2858 178.6C67.9498 178.894 67.5018 179.034 66.9138 179.034C66.3258 179.034 65.8638 178.894 65.5278 178.6C65.1918 178.306 65.0378 177.9 65.0378 177.368V177.144C65.0378 176.64 65.1918 176.234 65.5278 175.94C65.8638 175.646 66.3258 175.492 66.9138 175.492C67.5018 175.492 67.9498 175.646 68.2858 175.94C68.6218 176.234 68.7898 176.64 68.7898 177.144V177.368C68.7898 177.9 68.6218 178.306 68.2858 178.6ZM72.5889 179.398C73.1489 179.902 73.9189 180.14 74.8709 180.14C75.8089 180.14 76.5649 179.902 77.1389 179.398C77.7129 178.894 78.0069 178.222 78.0069 177.382V177.172C78.0069 176.668 77.8809 176.206 77.6289 175.814C77.3769 175.422 77.0129 175.128 76.5369 174.918C76.9289 174.75 77.2369 174.484 77.4609 174.12C77.6849 173.77 77.8109 173.364 77.8109 172.902V172.72C77.8109 172.23 77.6849 171.796 77.4469 171.404C77.1949 171.026 76.8589 170.732 76.4109 170.522C75.9629 170.312 75.4589 170.2 74.8709 170.2C74.2829 170.2 73.7649 170.312 73.3309 170.522C72.8829 170.732 72.5469 171.026 72.3089 171.404C72.0569 171.796 71.9449 172.23 71.9449 172.72V172.902C71.9449 173.364 72.0569 173.77 72.2809 174.12C72.5049 174.484 72.8129 174.75 73.2189 174.918C72.7289 175.128 72.3649 175.422 72.1129 175.814C71.8609 176.206 71.7349 176.654 71.7349 177.186V177.396C71.7349 178.236 72.0149 178.908 72.5889 179.398ZM76.1029 173.994C75.8089 174.26 75.4029 174.386 74.8709 174.386C74.3389 174.386 73.9329 174.26 73.6389 173.994C73.3449 173.742 73.2049 173.378 73.2049 172.93V172.72C73.2049 172.286 73.3449 171.936 73.6529 171.684C73.9469 171.432 74.3529 171.306 74.8709 171.306C75.3889 171.306 75.7949 171.432 76.1029 171.684C76.3969 171.936 76.5509 172.286 76.5509 172.72V172.93C76.5509 173.378 76.3969 173.742 76.1029 173.994ZM76.2429 178.6C75.9069 178.894 75.4589 179.034 74.8709 179.034C74.2829 179.034 73.8209 178.894 73.4849 178.6C73.1489 178.306 72.9949 177.9 72.9949 177.368V177.144C72.9949 176.64 73.1489 176.234 73.4849 175.94C73.8209 175.646 74.2829 175.492 74.8709 175.492C75.4589 175.492 75.9069 175.646 76.2429 175.94C76.5789 176.234 76.7469 176.64 76.7469 177.144V177.368C76.7469 177.9 76.5789 178.306 76.2429 178.6ZM81.5259 171.726V180H82.7999V170.34H81.5259L79.4679 171.656V173.014L81.5259 171.726ZM87.8833 172.832V182.268H89.0733V179.076C89.5493 179.776 90.3053 180.126 91.3413 180.126C92.2373 180.126 92.9653 179.846 93.5113 179.258C94.0573 178.684 94.3373 177.858 94.3373 176.78V176.024C94.3373 174.96 94.0573 174.148 93.5113 173.574C92.9653 173 92.2373 172.706 91.3413 172.706C90.8373 172.706 90.4033 172.804 90.0113 173C89.6193 173.196 89.2973 173.462 89.0593 173.798V172.832H87.8833ZM92.6293 178.488C92.2793 178.88 91.7893 179.076 91.1733 179.076C90.5153 179.076 89.9973 178.88 89.6333 178.488C89.2553 178.096 89.0733 177.564 89.0733 176.892V175.954C89.0733 175.282 89.2553 174.75 89.6193 174.358C89.9833 173.966 90.5013 173.756 91.1453 173.756C91.7893 173.756 92.2793 173.952 92.6293 174.344C92.9653 174.736 93.1473 175.31 93.1473 176.094V176.724C93.1473 177.508 92.9653 178.096 92.6293 178.488ZM96.0044 172.832V180H97.1944V175.87C97.1944 175.24 97.3764 174.736 97.7544 174.358C98.1324 173.994 98.6364 173.798 99.2524 173.798C99.5184 173.798 99.7844 173.84 100.036 173.91V172.776C99.8544 172.748 99.6584 172.734 99.4624 172.734C98.9584 172.734 98.5244 172.832 98.1324 173.014C97.7404 173.196 97.4184 173.476 97.1804 173.84V172.832H96.0044ZM101.871 179.272C102.459 179.846 103.257 180.126 104.293 180.126C105.301 180.126 106.099 179.846 106.687 179.272C107.261 178.698 107.555 177.858 107.555 176.766V176.052C107.555 174.974 107.261 174.148 106.687 173.56C106.099 172.986 105.301 172.692 104.293 172.692C103.257 172.692 102.459 172.986 101.871 173.56C101.283 174.134 101.003 174.96 101.003 176.052V176.766C101.003 177.858 101.283 178.698 101.871 179.272ZM106.365 176.738C106.365 178.306 105.665 179.076 104.279 179.076C102.879 179.076 102.193 178.306 102.193 176.738V176.08C102.193 174.54 102.879 173.756 104.279 173.756C105.665 173.756 106.365 174.54 106.365 176.08V176.738ZM109.813 179.272C110.345 179.846 111.059 180.126 111.983 180.126C112.487 180.126 112.949 180.042 113.341 179.86C113.733 179.678 114.041 179.412 114.279 179.062V180H115.455V170.34H114.279V173.784C114.041 173.448 113.719 173.182 113.313 172.986C112.907 172.79 112.459 172.692 111.955 172.692C111.059 172.692 110.345 172.986 109.813 173.56C109.281 174.148 109.015 174.96 109.015 176.024V176.794C109.015 177.872 109.281 178.698 109.813 179.272ZM113.733 178.488C113.369 178.88 112.851 179.076 112.207 179.076C111.563 179.076 111.073 178.894 110.723 178.502C110.373 178.11 110.205 177.522 110.205 176.738V176.094C110.205 175.31 110.373 174.736 110.723 174.344C111.059 173.952 111.549 173.756 112.193 173.756C112.837 173.756 113.355 173.952 113.719 174.344C114.083 174.736 114.279 175.282 114.279 175.954V176.892C114.279 177.564 114.097 178.096 113.733 178.488ZM118.13 179.342C118.648 179.846 119.404 180.098 120.398 180.098C121.392 180.098 122.148 179.846 122.68 179.342C123.212 178.838 123.478 178.11 123.478 177.158V172.832H122.288V177.032C122.288 177.704 122.134 178.208 121.826 178.544C121.518 178.88 121.056 179.034 120.412 179.034C119.152 179.034 118.536 178.376 118.536 177.032V172.832H117.346V177.158C117.346 178.11 117.598 178.838 118.13 179.342ZM126.016 179.272C126.59 179.846 127.402 180.126 128.438 180.126C129.376 180.126 130.104 179.902 130.636 179.44C131.168 178.978 131.434 178.348 131.434 177.55V177.494H130.272V177.55C130.272 178.026 130.104 178.404 129.796 178.67C129.474 178.95 129.026 179.076 128.438 179.076C127.038 179.076 126.338 178.306 126.338 176.738V176.08C126.338 174.54 127.038 173.756 128.438 173.756C129.026 173.756 129.474 173.896 129.796 174.162C130.104 174.442 130.272 174.82 130.272 175.296V175.366H131.434V175.296C131.434 174.484 131.168 173.854 130.636 173.392C130.104 172.93 129.362 172.692 128.424 172.692C127.388 172.692 126.59 172.986 126.016 173.56C125.428 174.134 125.148 174.96 125.148 176.052V176.766C125.148 177.858 125.428 178.698 126.016 179.272ZM134.96 173.728H136.864V172.832H134.96V170.788L133.77 171.278V172.832H132.51V173.728H133.77V177.942C133.77 179.314 134.484 180 135.912 180H136.71V178.964H136.108C135.688 178.964 135.394 178.88 135.226 178.712C135.044 178.544 134.96 178.264 134.96 177.872V173.728ZM138.822 179.496C139.354 179.888 140.096 180.084 141.048 180.084C142 180.084 142.756 179.902 143.316 179.51C143.876 179.118 144.156 178.572 144.156 177.872C144.156 177.298 143.96 176.85 143.568 176.528C143.176 176.22 142.588 176.01 141.79 175.912L140.698 175.772C140.166 175.716 139.802 175.618 139.592 175.464C139.368 175.31 139.27 175.086 139.27 174.778C139.27 174.442 139.41 174.176 139.718 173.98C140.012 173.798 140.46 173.7 141.062 173.7C141.65 173.7 142.098 173.812 142.42 174.008C142.742 174.204 142.91 174.498 142.91 174.876V174.918H144.044V174.862C144.044 174.218 143.778 173.7 143.246 173.308C142.714 172.93 141.972 172.734 141.048 172.734C140.152 172.734 139.438 172.93 138.92 173.308C138.388 173.686 138.136 174.204 138.136 174.862C138.136 175.436 138.318 175.884 138.696 176.192C139.06 176.5 139.648 176.71 140.446 176.794L141.468 176.92C142 176.976 142.392 177.088 142.644 177.242C142.896 177.41 143.022 177.634 143.022 177.942C143.022 178.32 142.84 178.6 142.504 178.796C142.168 178.992 141.692 179.09 141.104 179.09C140.432 179.09 139.942 178.978 139.634 178.754C139.312 178.53 139.158 178.236 139.158 177.844V177.816H138.024V177.858C138.024 178.558 138.29 179.104 138.822 179.496Z" fill="#7C7B8A"/>
</g>
<defs>
<clipPath id="clip0">
<rect width="156" height="64" fill="white" transform="translate(22.5 120)"/>
</clipPath>
</defs>
</svg>
