<svg width="80" height="70" viewBox="50 20 130 42" fill="none" xmlns="http://www.w3.org/2000/svg">
<path fill-rule="evenodd" clip-rule="evenodd" d="M100 96C126.51 96 148 74.5097 148 48C148 21.4903 126.51 0 100 0C73.4903 0 52 21.4903 52 48C52 74.5097 73.4903 96 100 96Z" fill="#F0FAF3"/>
<path d="M113.305 43.5357C113.069 40.0583 110.153 37.333 106.666 37.333H93.3327C89.7607 37.333 86.8553 40.101 86.6833 43.649C86.67 43.7543 86.666 43.8637 86.666 43.9863V53.9997C86.666 55.233 87.1633 56.437 88.0287 57.301C88.8953 58.169 90.0993 58.6663 91.3327 58.6663C93.238 58.6663 94.4313 57.2517 95.5847 55.8837C96.0087 55.381 96.446 54.861 96.918 54.413C97.234 54.1117 98.3873 53.5503 98.97 53.4117C99.306 53.333 100.694 53.3343 101.025 53.4103C101.61 53.549 102.763 54.1117 103.079 54.4117C103.551 54.861 103.989 55.381 104.413 55.8837C105.567 57.2517 106.761 58.6663 108.666 58.6663C109.899 58.6663 111.103 58.169 111.967 57.3037C112.835 56.437 113.333 55.233 113.333 53.9997V43.9997C113.333 43.873 113.327 43.7597 113.314 43.653C113.311 43.6157 113.307 43.577 113.305 43.5357ZM110.666 53.9997C110.666 54.529 110.454 55.045 110.082 55.417C109.711 55.7877 109.195 55.9997 108.666 55.9997C107.999 55.9997 107.282 55.149 106.451 54.1637C106.003 53.6343 105.495 53.0317 104.919 52.481C104.15 51.749 102.491 51.017 101.638 50.8157C101.083 50.6863 100.373 50.6663 99.9993 50.6663C99.626 50.6663 98.9153 50.6863 98.3594 50.817C97.5087 51.017 95.85 51.749 95.0807 52.4823C94.5033 53.0317 93.9967 53.633 93.5487 54.1637C92.7167 55.149 91.9993 55.9997 91.3327 55.9997C90.8033 55.9997 90.2873 55.7877 89.9153 55.4157C89.5447 55.045 89.3327 54.529 89.3327 53.9997L89.3207 44.029C89.334 43.961 89.342 43.8917 89.3447 43.8223C89.4247 41.6797 91.1767 39.9997 93.3327 39.9997H106.666C108.755 39.9997 110.502 41.633 110.639 43.6263C110.639 43.7063 110.646 43.7863 110.653 43.7863C110.653 43.8717 110.649 43.9157 110.666 43.9997V53.9997Z" fill="#11C856"/>
<path d="M105.333 49.3337C106.07 49.3337 106.667 48.7367 106.667 48.0003C106.667 47.2639 106.07 46.667 105.333 46.667C104.597 46.667 104 47.2639 104 48.0003C104 48.7367 104.597 49.3337 105.333 49.3337Z" fill="#11C856"/>
<path d="M107.999 46.6667C108.736 46.6667 109.333 46.0697 109.333 45.3333C109.333 44.597 108.736 44 107.999 44C107.263 44 106.666 44.597 106.666 45.3333C106.666 46.0697 107.263 46.6667 107.999 46.6667Z" fill="#11C856"/>
<path d="M105.333 43.9997C106.07 43.9997 106.667 43.4027 106.667 42.6663C106.667 41.93 106.07 41.333 105.333 41.333C104.597 41.333 104 41.93 104 42.6663C104 43.4027 104.597 43.9997 105.333 43.9997Z" fill="#11C856"/>
<path d="M102.667 46.6667C103.404 46.6667 104.001 46.0697 104.001 45.3333C104.001 44.597 103.404 44 102.667 44C101.931 44 101.334 44.597 101.334 45.3333C101.334 46.0697 101.931 46.6667 102.667 46.6667Z" fill="#11C856"/>
<path d="M94.6667 48.0003C96.1394 48.0003 97.3333 46.8064 97.3333 45.3337C97.3333 43.8609 96.1394 42.667 94.6667 42.667C93.1939 42.667 92 43.8609 92 45.3337C92 46.8064 93.1939 48.0003 94.6667 48.0003Z" fill="#11C856"/>
<path d="M44.688 127.44V144H41.544V136.992H34.56V144H31.416V127.44H34.56V134.256H41.544V127.44H44.688ZM49.1576 138.576V138.624C49.1576 140.624 50.1816 141.624 52.2296 141.624C52.9176 141.624 53.4776 141.496 53.9096 141.24C54.3576 140.984 54.6136 140.624 54.6776 140.16L54.7016 140.088H57.6056V140.232C57.5256 141.432 56.9896 142.4 55.9976 143.136C55.0216 143.856 53.7256 144.216 52.1096 144.216C50.2696 144.216 48.8216 143.712 47.7656 142.704C46.7256 141.696 46.2056 140.224 46.2056 138.288V137.208C46.2056 135.304 46.7176 133.848 47.7416 132.84C48.7656 131.816 50.1736 131.304 51.9656 131.304C53.7576 131.304 55.1656 131.808 56.1896 132.816C57.2136 133.824 57.7256 135.264 57.7256 137.136V138.576H49.1576ZM51.9656 133.848C50.2056 133.848 49.2696 134.744 49.1576 136.536H54.7496V136.368C54.7496 135.536 54.4936 134.912 53.9816 134.496C53.4856 134.064 52.8136 133.848 51.9656 133.848ZM64.2685 131.376C66.0445 131.376 67.4045 131.776 68.3485 132.576C69.3085 133.376 69.7885 134.528 69.7885 136.032V144H66.9085V142.848C66.4125 143.312 65.8845 143.648 65.3245 143.856C64.7645 144.048 64.0845 144.144 63.2845 144.144C61.7805 144.144 60.6365 143.808 59.8525 143.136C59.0845 142.464 58.7005 141.512 58.7005 140.28C58.7005 139.096 59.1085 138.192 59.9245 137.568C60.7565 136.944 61.9485 136.632 63.5005 136.632H66.8365V135.888C66.8365 134.4 65.9565 133.656 64.1965 133.656C63.3965 133.656 62.8125 133.8 62.4445 134.088C62.0925 134.376 61.9165 134.744 61.9165 135.192V135.264H59.0845V135.192C59.0845 134.008 59.5485 133.08 60.4765 132.408C61.4205 131.72 62.6845 131.376 64.2685 131.376ZM63.9325 141.768C65.8685 141.768 66.8365 140.992 66.8365 139.44V138.672H64.0525C63.2045 138.672 62.5805 138.8 62.1805 139.056C61.7805 139.296 61.5805 139.68 61.5805 140.208C61.5805 140.704 61.7725 141.088 62.1565 141.36C62.5565 141.632 63.1485 141.768 63.9325 141.768ZM75.5261 144C74.1181 144 73.0701 143.672 72.3821 143.016C71.7101 142.344 71.3741 141.328 71.3741 139.968V127.44H74.3501V139.776C74.3501 140.384 74.4701 140.816 74.7101 141.072C74.9661 141.312 75.4141 141.432 76.0541 141.432H77.1821V144H75.5261ZM82.361 133.608V139.968C82.361 140.512 82.473 140.904 82.697 141.144C82.937 141.368 83.329 141.48 83.873 141.48H84.929V144H83.321C82.057 144 81.089 143.672 80.417 143.016C79.745 142.344 79.409 141.392 79.409 140.16V133.608H77.225V131.52H79.409V129.072L82.361 128.04V131.52H85.193V133.608H82.361ZM86.3898 127.44H89.3658V132.84C89.7978 132.36 90.3258 132 90.9498 131.76C91.5738 131.504 92.2458 131.376 92.9658 131.376C94.4058 131.376 95.5258 131.8 96.3258 132.648C97.1258 133.496 97.5258 134.688 97.5258 136.224V144H94.5498V136.824C94.5498 134.952 93.7258 134.016 92.0778 134.016C91.2298 134.016 90.5658 134.264 90.0858 134.76C89.6058 135.24 89.3658 135.968 89.3658 136.944V144H86.3898V127.44ZM115.081 140.664C115.337 140.952 115.577 141.152 115.801 141.264C116.025 141.376 116.305 141.432 116.641 141.432H117.169V144H115.872C115.297 144 114.801 143.896 114.385 143.688C113.985 143.48 113.545 143.088 113.065 142.512L112.993 142.44C112.273 143.128 111.553 143.616 110.833 143.904C110.113 144.192 109.329 144.336 108.48 144.336C106.897 144.336 105.657 143.904 104.761 143.04C103.865 142.16 103.417 141.024 103.417 139.632C103.417 138.656 103.665 137.792 104.161 137.04C104.673 136.272 105.489 135.536 106.609 134.832C105.969 134.032 105.521 133.36 105.265 132.816C105.009 132.272 104.881 131.696 104.881 131.088C104.881 129.888 105.289 128.928 106.105 128.208C106.937 127.472 108.009 127.104 109.321 127.104C110.649 127.104 111.729 127.472 112.561 128.208C113.393 128.944 113.809 129.904 113.809 131.088C113.809 131.92 113.561 132.664 113.065 133.32C112.569 133.96 111.737 134.656 110.569 135.408L113.209 138.48L115.369 136.056L117.217 137.736L114.841 140.4L115.081 140.664ZM109.345 129.408C108.817 129.408 108.401 129.552 108.097 129.84C107.809 130.112 107.665 130.488 107.665 130.968C107.665 131.32 107.753 131.688 107.929 132.072C108.121 132.44 108.473 132.928 108.985 133.536C109.801 133.04 110.353 132.6 110.641 132.216C110.929 131.832 111.073 131.432 111.073 131.016C111.073 130.536 110.913 130.152 110.593 129.864C110.289 129.56 109.873 129.408 109.345 129.408ZM108.625 141.768C109.105 141.768 109.561 141.672 109.993 141.48C110.425 141.288 110.889 140.96 111.385 140.496L108.241 136.776C107.505 137.256 106.985 137.704 106.681 138.12C106.393 138.536 106.249 139 106.249 139.512C106.249 140.216 106.457 140.768 106.873 141.168C107.305 141.568 107.889 141.768 108.625 141.768ZM130.157 144.264C127.933 144.264 126.197 143.656 124.949 142.44C123.717 141.224 123.101 139.408 123.101 136.992V134.4C123.101 131.984 123.725 130.168 124.973 128.952C126.221 127.736 127.957 127.128 130.181 127.128C132.213 127.128 133.829 127.632 135.029 128.64C136.245 129.632 136.853 131.016 136.853 132.792V132.984H133.709V132.888C133.709 131.96 133.397 131.232 132.773 130.704C132.149 130.16 131.285 129.888 130.181 129.888C128.869 129.888 127.885 130.272 127.229 131.04C126.589 131.808 126.269 132.984 126.269 134.568V136.944C126.269 138.464 126.597 139.592 127.253 140.328C127.909 141.064 128.893 141.432 130.205 141.432C131.309 141.432 132.165 141.176 132.773 140.664C133.397 140.136 133.709 139.416 133.709 138.504V138.384H136.829V138.504C136.829 140.328 136.229 141.744 135.029 142.752C133.829 143.76 132.205 144.264 130.157 144.264ZM143.386 131.376C145.162 131.376 146.522 131.776 147.466 132.576C148.426 133.376 148.906 134.528 148.906 136.032V144H146.026V142.848C145.53 143.312 145.002 143.648 144.442 143.856C143.882 144.048 143.202 144.144 142.402 144.144C140.898 144.144 139.754 143.808 138.97 143.136C138.202 142.464 137.818 141.512 137.818 140.28C137.818 139.096 138.226 138.192 139.042 137.568C139.874 136.944 141.066 136.632 142.618 136.632H145.954V135.888C145.954 134.4 145.074 133.656 143.314 133.656C142.514 133.656 141.93 133.8 141.562 134.088C141.21 134.376 141.034 134.744 141.034 135.192V135.264H138.202V135.192C138.202 134.008 138.666 133.08 139.594 132.408C140.538 131.72 141.802 131.376 143.386 131.376ZM143.05 141.768C144.986 141.768 145.954 140.992 145.954 139.44V138.672H143.17C142.322 138.672 141.698 138.8 141.298 139.056C140.898 139.296 140.698 139.68 140.698 140.208C140.698 140.704 140.89 141.088 141.274 141.36C141.674 141.632 142.266 141.768 143.05 141.768ZM150.491 131.52H153.395V132.936C153.811 132.376 154.331 131.96 154.955 131.688C155.595 131.4 156.291 131.256 157.043 131.256C157.507 131.256 157.899 131.288 158.219 131.352V134.184C157.675 133.976 157.083 133.872 156.443 133.872C155.499 133.872 154.763 134.152 154.235 134.712C153.723 135.256 153.467 136.048 153.467 137.088V144H150.491V131.52ZM161.228 138.576V138.624C161.228 140.624 162.252 141.624 164.3 141.624C164.988 141.624 165.548 141.496 165.98 141.24C166.428 140.984 166.684 140.624 166.748 140.16L166.772 140.088H169.676V140.232C169.596 141.432 169.06 142.4 168.068 143.136C167.092 143.856 165.796 144.216 164.18 144.216C162.34 144.216 160.892 143.712 159.836 142.704C158.796 141.696 158.276 140.224 158.276 138.288V137.208C158.276 135.304 158.788 133.848 159.812 132.84C160.836 131.816 162.244 131.304 164.036 131.304C165.828 131.304 167.236 131.808 168.26 132.816C169.284 133.824 169.796 135.264 169.796 137.136V138.576H161.228ZM164.036 133.848C162.276 133.848 161.34 134.744 161.228 136.536H166.82V136.368C166.82 135.536 166.564 134.912 166.052 134.496C165.556 134.064 164.884 133.848 164.036 133.848Z" fill="#1D293F"/>
<path d="M59.284 178.978V180H65.192V178.88H60.964L63.834 175.618C64.282 175.142 64.618 174.694 64.814 174.288C65.01 173.896 65.108 173.448 65.108 172.972V172.762C65.108 172.258 64.982 171.824 64.744 171.432C64.506 171.04 64.17 170.746 63.722 170.522C63.274 170.312 62.756 170.2 62.168 170.2C61.272 170.2 60.572 170.438 60.054 170.886C59.522 171.348 59.27 171.964 59.27 172.748V173H60.502V172.846C60.502 172.342 60.642 171.964 60.922 171.698C61.202 171.446 61.608 171.306 62.14 171.306C62.672 171.306 63.078 171.446 63.386 171.698C63.68 171.964 63.834 172.328 63.834 172.79V172.958C63.834 173.294 63.75 173.616 63.61 173.91C63.47 174.204 63.218 174.54 62.854 174.932L59.284 178.978ZM67.5338 179.37C68.0938 179.888 68.8498 180.14 69.8018 180.14C70.7398 180.14 71.4958 179.888 72.0558 179.37C72.6158 178.852 72.9098 178.152 72.9098 177.256V176.92C72.9098 176.388 72.7838 175.912 72.5458 175.492C72.3078 175.072 71.9858 174.75 71.5658 174.512C71.1458 174.274 70.6698 174.148 70.1378 174.148C69.8858 174.148 69.6478 174.176 69.4378 174.218C69.2278 174.274 69.0598 174.33 68.9338 174.4L71.3978 170.34H70.0118L67.6458 174.288C67.2958 174.82 67.0438 175.296 66.9038 175.702C66.7638 176.122 66.6938 176.556 66.6938 177.004V177.312C66.6938 178.18 66.9738 178.866 67.5338 179.37ZM71.1458 178.572C70.8098 178.88 70.3618 179.034 69.8018 179.034C69.2418 179.034 68.7938 178.88 68.4578 178.572C68.1218 178.264 67.9678 177.844 67.9678 177.312V176.99C67.9678 176.458 68.1218 176.038 68.4438 175.73C68.7658 175.422 69.2138 175.268 69.7878 175.268C70.3618 175.268 70.8098 175.422 71.1458 175.73C71.4818 176.038 71.6498 176.458 71.6498 176.976V177.298C71.6498 177.83 71.4818 178.264 71.1458 178.572ZM78.4084 175.94L75.9444 180H77.3164L79.6964 176.052C80.0324 175.52 80.2704 175.058 80.4104 174.638C80.5504 174.232 80.6344 173.798 80.6344 173.336V173.028C80.6344 172.174 80.3544 171.488 79.7944 170.97C79.2344 170.466 78.4784 170.2 77.5264 170.2C76.5744 170.2 75.8184 170.466 75.2584 170.984C74.6984 171.502 74.4184 172.202 74.4184 173.084V173.42C74.4184 173.952 74.5304 174.428 74.7684 174.848C75.0064 175.268 75.3424 175.604 75.7624 175.842C76.1824 176.08 76.6584 176.192 77.1904 176.192C77.6944 176.192 78.1004 176.108 78.4084 175.94ZM78.8844 174.624C78.5484 174.932 78.1004 175.072 77.5404 175.072C76.9664 175.072 76.5184 174.918 76.1824 174.61C75.8464 174.302 75.6784 173.896 75.6784 173.364V173.042C75.6784 172.51 75.8324 172.09 76.1684 171.782C76.5044 171.474 76.9524 171.306 77.5264 171.306C78.0864 171.306 78.5344 171.46 78.8704 171.768C79.2064 172.076 79.3744 172.496 79.3744 173.028V173.35C79.3744 173.896 79.2064 174.316 78.8844 174.624ZM85.3462 172.832V182.268H86.5362V179.076C87.0122 179.776 87.7682 180.126 88.8042 180.126C89.7002 180.126 90.4282 179.846 90.9742 179.258C91.5202 178.684 91.8002 177.858 91.8002 176.78V176.024C91.8002 174.96 91.5202 174.148 90.9742 173.574C90.4282 173 89.7002 172.706 88.8042 172.706C88.3002 172.706 87.8662 172.804 87.4742 173C87.0822 173.196 86.7602 173.462 86.5222 173.798V172.832H85.3462ZM90.0922 178.488C89.7422 178.88 89.2522 179.076 88.6362 179.076C87.9782 179.076 87.4602 178.88 87.0962 178.488C86.7182 178.096 86.5362 177.564 86.5362 176.892V175.954C86.5362 175.282 86.7182 174.75 87.0822 174.358C87.4462 173.966 87.9642 173.756 88.6082 173.756C89.2522 173.756 89.7422 173.952 90.0922 174.344C90.4282 174.736 90.6102 175.31 90.6102 176.094V176.724C90.6102 177.508 90.4282 178.096 90.0922 178.488ZM93.4673 172.832V180H94.6573V175.87C94.6573 175.24 94.8393 174.736 95.2173 174.358C95.5953 173.994 96.0993 173.798 96.7153 173.798C96.9813 173.798 97.2473 173.84 97.4993 173.91V172.776C97.3173 172.748 97.1213 172.734 96.9253 172.734C96.4213 172.734 95.9873 172.832 95.5953 173.014C95.2033 173.196 94.8813 173.476 94.6433 173.84V172.832H93.4673ZM99.3343 179.272C99.9223 179.846 100.72 180.126 101.756 180.126C102.764 180.126 103.562 179.846 104.15 179.272C104.724 178.698 105.018 177.858 105.018 176.766V176.052C105.018 174.974 104.724 174.148 104.15 173.56C103.562 172.986 102.764 172.692 101.756 172.692C100.72 172.692 99.9223 172.986 99.3343 173.56C98.7463 174.134 98.4663 174.96 98.4663 176.052V176.766C98.4663 177.858 98.7463 178.698 99.3343 179.272ZM103.828 176.738C103.828 178.306 103.128 179.076 101.742 179.076C100.342 179.076 99.6563 178.306 99.6563 176.738V176.08C99.6563 174.54 100.342 173.756 101.742 173.756C103.128 173.756 103.828 174.54 103.828 176.08V176.738ZM107.276 179.272C107.808 179.846 108.522 180.126 109.446 180.126C109.95 180.126 110.412 180.042 110.804 179.86C111.196 179.678 111.504 179.412 111.742 179.062V180H112.918V170.34H111.742V173.784C111.504 173.448 111.182 173.182 110.776 172.986C110.37 172.79 109.922 172.692 109.418 172.692C108.522 172.692 107.808 172.986 107.276 173.56C106.744 174.148 106.478 174.96 106.478 176.024V176.794C106.478 177.872 106.744 178.698 107.276 179.272ZM111.196 178.488C110.832 178.88 110.314 179.076 109.67 179.076C109.026 179.076 108.536 178.894 108.186 178.502C107.836 178.11 107.668 177.522 107.668 176.738V176.094C107.668 175.31 107.836 174.736 108.186 174.344C108.522 173.952 109.012 173.756 109.656 173.756C110.3 173.756 110.818 173.952 111.182 174.344C111.546 174.736 111.742 175.282 111.742 175.954V176.892C111.742 177.564 111.56 178.096 111.196 178.488ZM115.593 179.342C116.111 179.846 116.867 180.098 117.861 180.098C118.855 180.098 119.611 179.846 120.143 179.342C120.675 178.838 120.941 178.11 120.941 177.158V172.832H119.751V177.032C119.751 177.704 119.597 178.208 119.289 178.544C118.981 178.88 118.519 179.034 117.875 179.034C116.615 179.034 115.999 178.376 115.999 177.032V172.832H114.809V177.158C114.809 178.11 115.061 178.838 115.593 179.342ZM123.479 179.272C124.053 179.846 124.865 180.126 125.901 180.126C126.839 180.126 127.567 179.902 128.099 179.44C128.631 178.978 128.897 178.348 128.897 177.55V177.494H127.735V177.55C127.735 178.026 127.567 178.404 127.259 178.67C126.937 178.95 126.489 179.076 125.901 179.076C124.501 179.076 123.801 178.306 123.801 176.738V176.08C123.801 174.54 124.501 173.756 125.901 173.756C126.489 173.756 126.937 173.896 127.259 174.162C127.567 174.442 127.735 174.82 127.735 175.296V175.366H128.897V175.296C128.897 174.484 128.631 173.854 128.099 173.392C127.567 172.93 126.825 172.692 125.887 172.692C124.851 172.692 124.053 172.986 123.479 173.56C122.891 174.134 122.611 174.96 122.611 176.052V176.766C122.611 177.858 122.891 178.698 123.479 179.272ZM132.423 173.728H134.327V172.832H132.423V170.788L131.233 171.278V172.832H129.973V173.728H131.233V177.942C131.233 179.314 131.947 180 133.375 180H134.173V178.964H133.571C133.151 178.964 132.857 178.88 132.689 178.712C132.507 178.544 132.423 178.264 132.423 177.872V173.728ZM136.284 179.496C136.816 179.888 137.558 180.084 138.51 180.084C139.462 180.084 140.218 179.902 140.778 179.51C141.338 179.118 141.618 178.572 141.618 177.872C141.618 177.298 141.422 176.85 141.03 176.528C140.638 176.22 140.05 176.01 139.252 175.912L138.16 175.772C137.628 175.716 137.264 175.618 137.054 175.464C136.83 175.31 136.732 175.086 136.732 174.778C136.732 174.442 136.872 174.176 137.18 173.98C137.474 173.798 137.922 173.7 138.524 173.7C139.112 173.7 139.56 173.812 139.882 174.008C140.204 174.204 140.372 174.498 140.372 174.876V174.918H141.506V174.862C141.506 174.218 141.24 173.7 140.708 173.308C140.176 172.93 139.434 172.734 138.51 172.734C137.614 172.734 136.9 172.93 136.382 173.308C135.85 173.686 135.598 174.204 135.598 174.862C135.598 175.436 135.78 175.884 136.158 176.192C136.522 176.5 137.11 176.71 137.908 176.794L138.93 176.92C139.462 176.976 139.854 177.088 140.106 177.242C140.358 177.41 140.484 177.634 140.484 177.942C140.484 178.32 140.302 178.6 139.966 178.796C139.63 178.992 139.154 179.09 138.566 179.09C137.894 179.09 137.404 178.978 137.096 178.754C136.774 178.53 136.62 178.236 136.62 177.844V177.816H135.486V177.858C135.486 178.558 135.752 179.104 136.284 179.496Z" fill="#7C7B8A"/>
</svg>
