<svg width="80" height="70" viewBox="50 20 130 42" fill="none" xmlns="http://www.w3.org/2000/svg">
<path fill-rule="evenodd" clip-rule="evenodd" d="M100 96C126.51 96 148 74.5097 148 48C148 21.4903 126.51 0 100 0C73.4903 0 52 21.4903 52 48C52 74.5097 73.4903 96 100 96Z" fill="#F0FAF3"/>
<path d="M113.305 43.5357C113.069 40.0583 110.153 37.333 106.666 37.333H93.3327C89.7607 37.333 86.8553 40.101 86.6833 43.649C86.67 43.7543 86.666 43.8637 86.666 43.9863V53.9997C86.666 55.233 87.1633 56.437 88.0287 57.301C88.8953 58.169 90.0993 58.6663 91.3327 58.6663C93.238 58.6663 94.4313 57.2517 95.5847 55.8837C96.0087 55.381 96.446 54.861 96.918 54.413C97.234 54.1117 98.3873 53.5503 98.97 53.4117C99.306 53.333 100.694 53.3343 101.025 53.4103C101.61 53.549 102.763 54.1117 103.079 54.4117C103.551 54.861 103.989 55.381 104.413 55.8837C105.567 57.2517 106.761 58.6663 108.666 58.6663C109.899 58.6663 111.103 58.169 111.967 57.3037C112.835 56.437 113.333 55.233 113.333 53.9997V43.9997C113.333 43.873 113.327 43.7597 113.314 43.653C113.311 43.6157 113.307 43.577 113.305 43.5357ZM110.666 53.9997C110.666 54.529 110.454 55.045 110.082 55.417C109.711 55.7877 109.195 55.9997 108.666 55.9997C107.999 55.9997 107.282 55.149 106.451 54.1637C106.003 53.6343 105.495 53.0317 104.919 52.481C104.15 51.749 102.491 51.017 101.638 50.8157C101.083 50.6863 100.373 50.6663 99.9993 50.6663C99.626 50.6663 98.9153 50.6863 98.3594 50.817C97.5087 51.017 95.85 51.749 95.0807 52.4823C94.5033 53.0317 93.9967 53.633 93.5487 54.1637C92.7167 55.149 91.9993 55.9997 91.3327 55.9997C90.8033 55.9997 90.2873 55.7877 89.9153 55.4157C89.5447 55.045 89.3327 54.529 89.3327 53.9997L89.3207 44.029C89.334 43.961 89.342 43.8917 89.3447 43.8223C89.4247 41.6797 91.1767 39.9997 93.3327 39.9997H106.666C108.755 39.9997 110.502 41.633 110.639 43.6263C110.639 43.7063 110.646 43.7863 110.653 43.7863C110.653 43.8717 110.649 43.9157 110.666 43.9997V53.9997Z" fill="#11C856"/>
<path d="M105.333 49.3337C106.07 49.3337 106.667 48.7367 106.667 48.0003C106.667 47.2639 106.07 46.667 105.333 46.667C104.597 46.667 104 47.2639 104 48.0003C104 48.7367 104.597 49.3337 105.333 49.3337Z" fill="#11C856"/>
<path d="M107.999 46.6667C108.736 46.6667 109.333 46.0697 109.333 45.3333C109.333 44.597 108.736 44 107.999 44C107.263 44 106.666 44.597 106.666 45.3333C106.666 46.0697 107.263 46.6667 107.999 46.6667Z" fill="#11C856"/>
<path d="M105.333 43.9997C106.07 43.9997 106.667 43.4027 106.667 42.6663C106.667 41.93 106.07 41.333 105.333 41.333C104.597 41.333 104 41.93 104 42.6663C104 43.4027 104.597 43.9997 105.333 43.9997Z" fill="#11C856"/>
<path d="M102.667 46.6667C103.404 46.6667 104.001 46.0697 104.001 45.3333C104.001 44.597 103.404 44 102.667 44C101.931 44 101.334 44.597 101.334 45.3333C101.334 46.0697 101.931 46.6667 102.667 46.6667Z" fill="#11C856"/>
<path d="M94.6667 48.0003C96.1394 48.0003 97.3333 46.8064 97.3333 45.3337C97.3333 43.8609 96.1394 42.667 94.6667 42.667C93.1939 42.667 92 43.8609 92 45.3337C92 46.8064 93.1939 48.0003 94.6667 48.0003Z" fill="#11C856"/>
<path d="M53.56 127.44H56.704V144H53.56V127.44ZM58.5538 131.52H61.4578V132.864C61.9058 132.384 62.4418 132.016 63.0658 131.76C63.7058 131.504 64.3938 131.376 65.1298 131.376C66.5698 131.376 67.6898 131.808 68.4898 132.672C69.2898 133.52 69.6898 134.704 69.6898 136.224V144H66.7138V136.824C66.7138 134.952 65.8898 134.016 64.2418 134.016C63.3938 134.016 62.7298 134.264 62.2498 134.76C61.7698 135.24 61.5298 135.968 61.5298 136.944V144H58.5538V131.52ZM75.9682 144.216C74.4962 144.216 73.3122 143.728 72.4162 142.752C71.5362 141.776 71.0962 140.368 71.0962 138.528V136.968C71.0962 135.768 71.2962 134.744 71.6962 133.896C72.1122 133.048 72.6802 132.408 73.4002 131.976C74.1362 131.528 74.9762 131.304 75.9202 131.304C77.3922 131.304 78.5682 131.824 79.4482 132.864V127.44H82.4002V144H79.4962V142.656C78.6802 143.696 77.5042 144.216 75.9682 144.216ZM76.6402 141.552C77.5042 141.552 78.1842 141.288 78.6802 140.76C79.1922 140.232 79.4482 139.504 79.4482 138.576V136.992C79.4482 136.032 79.2082 135.288 78.7282 134.76C78.2482 134.216 77.5762 133.944 76.7122 133.944C75.8642 133.944 75.2082 134.208 74.7442 134.736C74.2962 135.248 74.0722 136.04 74.0722 137.112V138.408C74.0722 139.464 74.2962 140.256 74.7442 140.784C75.1922 141.296 75.8242 141.552 76.6402 141.552ZM89.5671 144.216C87.7271 144.216 86.3351 143.76 85.3911 142.848C84.4631 141.92 83.9991 140.56 83.9991 138.768V131.52H86.9751V138.624C86.9751 139.584 87.1751 140.312 87.5751 140.808C87.9911 141.304 88.6551 141.552 89.5671 141.552C90.4951 141.552 91.1591 141.312 91.5591 140.832C91.9591 140.336 92.1591 139.6 92.1591 138.624V131.52H95.1351V138.768C95.1351 140.576 94.6631 141.936 93.7191 142.848C92.7911 143.76 91.4071 144.216 89.5671 144.216ZM101.584 144.144C99.8883 144.144 98.5683 143.8 97.6243 143.112C96.6803 142.408 96.2083 141.424 96.2083 140.16V140.088H98.9923V140.136C98.9923 140.632 99.2243 141.024 99.6883 141.312C100.152 141.6 100.84 141.744 101.752 141.744C102.6 141.744 103.24 141.624 103.672 141.384C104.12 141.144 104.344 140.792 104.344 140.328C104.344 139.944 104.184 139.648 103.864 139.44C103.56 139.232 103.056 139.088 102.352 139.008L100.504 138.792C99.0963 138.616 98.0563 138.248 97.3843 137.688C96.7283 137.112 96.4003 136.296 96.4003 135.24C96.4003 134.008 96.8643 133.056 97.7923 132.384C98.7203 131.712 99.9923 131.376 101.608 131.376C103.272 131.376 104.576 131.712 105.52 132.384C106.464 133.056 106.936 133.984 106.936 135.168V135.264H104.176V135.192C104.176 134.712 103.96 134.344 103.528 134.088C103.096 133.832 102.448 133.704 101.584 133.704C100.768 133.704 100.16 133.824 99.7603 134.064C99.3763 134.288 99.1843 134.616 99.1843 135.048C99.1843 135.4 99.3203 135.68 99.5923 135.888C99.8643 136.096 100.32 136.232 100.96 136.296L102.952 136.536C104.392 136.696 105.456 137.08 106.144 137.688C106.832 138.28 107.176 139.096 107.176 140.136C107.176 141.432 106.672 142.424 105.664 143.112C104.672 143.8 103.312 144.144 101.584 144.144ZM112.689 133.608V139.968C112.689 140.512 112.801 140.904 113.025 141.144C113.265 141.368 113.657 141.48 114.201 141.48H115.257V144H113.649C112.385 144 111.417 143.672 110.745 143.016C110.073 142.344 109.737 141.392 109.737 140.16V133.608H107.553V131.52H109.737V129.072L112.689 128.04V131.52H115.521V133.608H112.689ZM116.601 131.52H119.505V132.936C119.921 132.376 120.441 131.96 121.065 131.688C121.705 131.4 122.401 131.256 123.153 131.256C123.617 131.256 124.009 131.288 124.329 131.352V134.184C123.785 133.976 123.193 133.872 122.553 133.872C121.609 133.872 120.873 134.152 120.345 134.712C119.833 135.256 119.577 136.048 119.577 137.088V144H116.601V131.52ZM125.166 127.368H128.118V129.744H125.166V127.368ZM125.166 131.52H128.118V144H125.166V131.52ZM134.995 131.376C136.771 131.376 138.131 131.776 139.075 132.576C140.035 133.376 140.515 134.528 140.515 136.032V144H137.635V142.848C137.139 143.312 136.611 143.648 136.051 143.856C135.491 144.048 134.811 144.144 134.011 144.144C132.507 144.144 131.363 143.808 130.579 143.136C129.811 142.464 129.427 141.512 129.427 140.28C129.427 139.096 129.835 138.192 130.651 137.568C131.483 136.944 132.675 136.632 134.227 136.632H137.563V135.888C137.563 134.4 136.683 133.656 134.923 133.656C134.123 133.656 133.539 133.8 133.171 134.088C132.819 134.376 132.643 134.744 132.643 135.192V135.264H129.811V135.192C129.811 134.008 130.275 133.08 131.203 132.408C132.147 131.72 133.411 131.376 134.995 131.376ZM134.659 141.768C136.595 141.768 137.563 140.992 137.563 139.44V138.672H134.779C133.931 138.672 133.307 138.8 132.907 139.056C132.507 139.296 132.307 139.68 132.307 140.208C132.307 140.704 132.499 141.088 132.883 141.36C133.283 141.632 133.875 141.768 134.659 141.768ZM146.253 144C144.845 144 143.797 143.672 143.109 143.016C142.437 142.344 142.101 141.328 142.101 139.968V127.44H145.077V139.776C145.077 140.384 145.197 140.816 145.437 141.072C145.693 141.312 146.141 141.432 146.781 141.432H147.909V144H146.253Z" fill="#1D293F"/>
<path d="M61.096 179.454C61.586 179.916 62.286 180.14 63.196 180.14C64.134 180.14 64.862 179.888 65.394 179.37C65.912 178.852 66.178 178.124 66.178 177.186V176.584C66.178 175.646 65.94 174.918 65.464 174.4C64.988 173.896 64.33 173.63 63.49 173.63C63.126 173.63 62.776 173.7 62.454 173.826C62.118 173.952 61.852 174.12 61.642 174.33V171.474H65.912V170.34H60.508V175.688H61.74C61.866 175.38 62.062 175.156 62.328 174.988C62.58 174.82 62.902 174.736 63.266 174.736C63.798 174.736 64.218 174.904 64.498 175.226C64.778 175.548 64.918 176.024 64.918 176.64V177.13C64.918 178.39 64.344 179.02 63.224 179.02C62.678 179.02 62.272 178.894 61.992 178.628C61.712 178.376 61.572 178.04 61.572 177.648V177.578H60.354V177.69C60.354 178.418 60.592 179.006 61.096 179.454ZM69.6939 171.726V180H70.9679V170.34H69.6939L67.6359 171.656V173.014L69.6939 171.726ZM76.8381 175.94L74.3741 180H75.7461L78.1261 176.052C78.4621 175.52 78.7001 175.058 78.8401 174.638C78.9801 174.232 79.0641 173.798 79.0641 173.336V173.028C79.0641 172.174 78.7841 171.488 78.2241 170.97C77.6641 170.466 76.9081 170.2 75.9561 170.2C75.0041 170.2 74.2481 170.466 73.6881 170.984C73.1281 171.502 72.8481 172.202 72.8481 173.084V173.42C72.8481 173.952 72.9601 174.428 73.1981 174.848C73.4361 175.268 73.7721 175.604 74.1921 175.842C74.6121 176.08 75.0881 176.192 75.6201 176.192C76.1241 176.192 76.5301 176.108 76.8381 175.94ZM77.3141 174.624C76.9781 174.932 76.5301 175.072 75.9701 175.072C75.3961 175.072 74.9481 174.918 74.6121 174.61C74.2761 174.302 74.1081 173.896 74.1081 173.364V173.042C74.1081 172.51 74.2621 172.09 74.5981 171.782C74.9341 171.474 75.3821 171.306 75.9561 171.306C76.5161 171.306 76.9641 171.46 77.3001 171.768C77.6361 172.076 77.8041 172.496 77.8041 173.028V173.35C77.8041 173.896 77.6361 174.316 77.3141 174.624ZM83.7759 172.832V182.268H84.9659V179.076C85.4419 179.776 86.1979 180.126 87.2339 180.126C88.1299 180.126 88.8579 179.846 89.4039 179.258C89.9499 178.684 90.2299 177.858 90.2299 176.78V176.024C90.2299 174.96 89.9499 174.148 89.4039 173.574C88.8579 173 88.1299 172.706 87.2339 172.706C86.7299 172.706 86.2959 172.804 85.9039 173C85.5119 173.196 85.1899 173.462 84.9519 173.798V172.832H83.7759ZM88.5219 178.488C88.1719 178.88 87.6819 179.076 87.0659 179.076C86.4079 179.076 85.8899 178.88 85.5259 178.488C85.1479 178.096 84.9659 177.564 84.9659 176.892V175.954C84.9659 175.282 85.1479 174.75 85.5119 174.358C85.8759 173.966 86.3939 173.756 87.0379 173.756C87.6819 173.756 88.1719 173.952 88.5219 174.344C88.8579 174.736 89.0399 175.31 89.0399 176.094V176.724C89.0399 177.508 88.8579 178.096 88.5219 178.488ZM91.897 172.832V180H93.087V175.87C93.087 175.24 93.269 174.736 93.647 174.358C94.025 173.994 94.529 173.798 95.145 173.798C95.411 173.798 95.677 173.84 95.929 173.91V172.776C95.747 172.748 95.551 172.734 95.355 172.734C94.851 172.734 94.417 172.832 94.025 173.014C93.633 173.196 93.311 173.476 93.073 173.84V172.832H91.897ZM97.764 179.272C98.352 179.846 99.15 180.126 100.186 180.126C101.194 180.126 101.992 179.846 102.58 179.272C103.154 178.698 103.448 177.858 103.448 176.766V176.052C103.448 174.974 103.154 174.148 102.58 173.56C101.992 172.986 101.194 172.692 100.186 172.692C99.15 172.692 98.352 172.986 97.764 173.56C97.176 174.134 96.896 174.96 96.896 176.052V176.766C96.896 177.858 97.176 178.698 97.764 179.272ZM102.258 176.738C102.258 178.306 101.558 179.076 100.172 179.076C98.772 179.076 98.086 178.306 98.086 176.738V176.08C98.086 174.54 98.772 173.756 100.172 173.756C101.558 173.756 102.258 174.54 102.258 176.08V176.738ZM105.706 179.272C106.238 179.846 106.952 180.126 107.876 180.126C108.38 180.126 108.842 180.042 109.234 179.86C109.626 179.678 109.934 179.412 110.172 179.062V180H111.348V170.34H110.172V173.784C109.934 173.448 109.612 173.182 109.206 172.986C108.8 172.79 108.352 172.692 107.848 172.692C106.952 172.692 106.238 172.986 105.706 173.56C105.174 174.148 104.908 174.96 104.908 176.024V176.794C104.908 177.872 105.174 178.698 105.706 179.272ZM109.626 178.488C109.262 178.88 108.744 179.076 108.1 179.076C107.456 179.076 106.966 178.894 106.616 178.502C106.266 178.11 106.098 177.522 106.098 176.738V176.094C106.098 175.31 106.266 174.736 106.616 174.344C106.952 173.952 107.442 173.756 108.086 173.756C108.73 173.756 109.248 173.952 109.612 174.344C109.976 174.736 110.172 175.282 110.172 175.954V176.892C110.172 177.564 109.99 178.096 109.626 178.488ZM114.023 179.342C114.541 179.846 115.297 180.098 116.291 180.098C117.285 180.098 118.041 179.846 118.573 179.342C119.105 178.838 119.371 178.11 119.371 177.158V172.832H118.181V177.032C118.181 177.704 118.027 178.208 117.719 178.544C117.411 178.88 116.949 179.034 116.305 179.034C115.045 179.034 114.429 178.376 114.429 177.032V172.832H113.239V177.158C113.239 178.11 113.491 178.838 114.023 179.342ZM121.909 179.272C122.483 179.846 123.295 180.126 124.331 180.126C125.269 180.126 125.997 179.902 126.529 179.44C127.061 178.978 127.327 178.348 127.327 177.55V177.494H126.165V177.55C126.165 178.026 125.997 178.404 125.689 178.67C125.367 178.95 124.919 179.076 124.331 179.076C122.931 179.076 122.231 178.306 122.231 176.738V176.08C122.231 174.54 122.931 173.756 124.331 173.756C124.919 173.756 125.367 173.896 125.689 174.162C125.997 174.442 126.165 174.82 126.165 175.296V175.366H127.327V175.296C127.327 174.484 127.061 173.854 126.529 173.392C125.997 172.93 125.255 172.692 124.317 172.692C123.281 172.692 122.483 172.986 121.909 173.56C121.321 174.134 121.041 174.96 121.041 176.052V176.766C121.041 177.858 121.321 178.698 121.909 179.272ZM130.853 173.728H132.757V172.832H130.853V170.788L129.663 171.278V172.832H128.403V173.728H129.663V177.942C129.663 179.314 130.377 180 131.805 180H132.603V178.964H132.001C131.581 178.964 131.287 178.88 131.119 178.712C130.937 178.544 130.853 178.264 130.853 177.872V173.728ZM134.714 179.496C135.246 179.888 135.988 180.084 136.94 180.084C137.892 180.084 138.648 179.902 139.208 179.51C139.768 179.118 140.048 178.572 140.048 177.872C140.048 177.298 139.852 176.85 139.46 176.528C139.068 176.22 138.48 176.01 137.682 175.912L136.59 175.772C136.058 175.716 135.694 175.618 135.484 175.464C135.26 175.31 135.162 175.086 135.162 174.778C135.162 174.442 135.302 174.176 135.61 173.98C135.904 173.798 136.352 173.7 136.954 173.7C137.542 173.7 137.99 173.812 138.312 174.008C138.634 174.204 138.802 174.498 138.802 174.876V174.918H139.936V174.862C139.936 174.218 139.67 173.7 139.138 173.308C138.606 172.93 137.864 172.734 136.94 172.734C136.044 172.734 135.33 172.93 134.812 173.308C134.28 173.686 134.028 174.204 134.028 174.862C134.028 175.436 134.21 175.884 134.588 176.192C134.952 176.5 135.54 176.71 136.338 176.794L137.36 176.92C137.892 176.976 138.284 177.088 138.536 177.242C138.788 177.41 138.914 177.634 138.914 177.942C138.914 178.32 138.732 178.6 138.396 178.796C138.06 178.992 137.584 179.09 136.996 179.09C136.324 179.09 135.834 178.978 135.526 178.754C135.204 178.53 135.05 178.236 135.05 177.844V177.816H133.916V177.858C133.916 178.558 134.182 179.104 134.714 179.496Z" fill="#7C7B8A"/>
</svg>
