<svg width="42" height="48" viewBox="0 0 42 48" fill="none" xmlns="http://www.w3.org/2000/svg">
<path fill-rule="evenodd" clip-rule="evenodd" d="M1.27159 6.37011C0 8.86575 0 12.1327 0 18.6667V23.4175C0 29.9515 0 33.2184 1.27159 35.7141C2.39011 37.9093 4.17489 39.6941 6.37011 40.8126C8.86575 42.0842 12.1327 42.0842 18.6667 42.0842H23.3333C29.8673 42.0842 33.1343 42.0842 35.6299 40.8126C37.8251 39.6941 39.6099 37.9093 40.7284 35.7141C42 33.2184 42 29.9515 42 23.4175V18.6667C42 12.1327 42 8.86575 40.7284 6.37011C39.6099 4.17489 37.8251 2.39011 35.6299 1.27159C33.1343 0 29.8673 0 23.3333 0H18.6667C12.1327 0 8.86575 0 6.37011 1.27159C4.17489 2.39011 2.39011 4.17489 1.27159 6.37011ZM20.1742 47.1021C20.63 47.5588 21.37 47.5588 21.8258 47.1021L26.8333 42.0845H15.1667L20.1742 47.1021Z" fill="#11C856"/>
<path d="M27.0002 29H22.0002V23.94C24.1996 23.6941 26.2312 22.6465 27.707 20.9973C29.1828 19.3482 29.9992 17.2131 30.0002 15C30.0053 13.8366 29.7775 12.684 29.3302 11.61C29.2785 11.49 29.2038 11.3813 29.1102 11.29L29.0002 11.21C28.9364 11.1574 28.8657 11.1137 28.7902 11.08C28.7016 11.039 28.6071 11.012 28.5102 11H28.4102H13.5902H13.5002C13.401 11.0046 13.3031 11.0248 13.2102 11.06C13.1375 11.1025 13.0674 11.1492 13.0002 11.2L12.8802 11.29C12.7867 11.3813 12.7119 11.49 12.6602 11.61C12.2164 12.6847 11.992 13.8373 12.0002 15C12.0013 17.2131 12.8177 19.3482 14.2934 20.9973C15.7692 22.6465 17.8009 23.6941 20.0002 23.94V29H15.0002C14.735 29 14.4806 29.1054 14.2931 29.2929C14.1056 29.4804 14.0002 29.7348 14.0002 30C14.0002 30.2652 14.1056 30.5196 14.2931 30.7071C14.4806 30.8946 14.735 31 15.0002 31H27.0002C27.2654 31 27.5198 30.8946 27.7073 30.7071C27.8949 30.5196 28.0002 30.2652 28.0002 30C28.0002 29.7348 27.8949 29.4804 27.7073 29.2929C27.5198 29.1054 27.2654 29 27.0002 29ZM14.0002 15C13.9983 14.3227 14.0961 13.6489 14.2902 13H27.7102C27.9044 13.6489 28.0021 14.3227 28.0002 15C28.0002 16.8565 27.2627 18.637 25.95 19.9497C24.6372 21.2625 22.8567 22 21.0002 22C19.1437 22 17.3632 21.2625 16.0505 19.9497C14.7377 18.637 14.0002 16.8565 14.0002 15Z" fill="white"/>
</svg>
