<svg width="30" height="22" viewBox="0 0 30 22" fill="none" xmlns="http://www.w3.org/2000/svg">
<rect y="0.285645" width="30" height="21.4286" rx="2" fill="white"/>
<mask id="mask0" mask-type="alpha" maskUnits="userSpaceOnUse" x="0" y="0" width="30" height="22">
<rect y="0.285645" width="30" height="21.4286" rx="2" fill="white"/>
</mask>
<g mask="url(#mask0)">
<path fill-rule="evenodd" clip-rule="evenodd" d="M30 0.285645H0V1.71422H30V0.285645ZM30 3.14277H0V4.57134H30V3.14277ZM0 5.99995H30V7.42852H0V5.99995ZM30 8.85707H0V10.2856H30V8.85707ZM0 11.7142H30V13.1428H0V11.7142ZM30 14.5714H0V15.9999H30V14.5714ZM0 17.4285H30V18.8571H0V17.4285ZM30 20.2856H0V21.7142H30V20.2856Z" fill="#D02F44"/>
<rect y="0.285645" width="12.8571" height="10" fill="#46467F"/>
<g filter="url(#filter0_d)">
<path fill-rule="evenodd" clip-rule="evenodd" d="M2.85704 2.42864C2.85704 2.82313 2.53724 3.14293 2.14275 3.14293C1.74826 3.14293 1.42847 2.82313 1.42847 2.42864C1.42847 2.03415 1.74826 1.71436 2.14275 1.71436C2.53724 1.71436 2.85704 2.03415 2.85704 2.42864ZM5.71419 2.42864C5.71419 2.82313 5.39439 3.14293 4.99991 3.14293C4.60542 3.14293 4.28562 2.82313 4.28562 2.42864C4.28562 2.03415 4.60542 1.71436 4.99991 1.71436C5.39439 1.71436 5.71419 2.03415 5.71419 2.42864ZM7.85703 3.14293C8.25152 3.14293 8.57132 2.82313 8.57132 2.42864C8.57132 2.03415 8.25152 1.71436 7.85703 1.71436C7.46254 1.71436 7.14274 2.03415 7.14274 2.42864C7.14274 2.82313 7.46254 3.14293 7.85703 3.14293ZM11.4285 2.42864C11.4285 2.82313 11.1087 3.14293 10.7142 3.14293C10.3197 3.14293 9.9999 2.82313 9.9999 2.42864C9.9999 2.03415 10.3197 1.71436 10.7142 1.71436C11.1087 1.71436 11.4285 2.03415 11.4285 2.42864ZM3.57131 4.57152C3.9658 4.57152 4.2856 4.25172 4.2856 3.85723C4.2856 3.46274 3.9658 3.14295 3.57131 3.14295C3.17683 3.14295 2.85703 3.46274 2.85703 3.85723C2.85703 4.25172 3.17683 4.57152 3.57131 4.57152ZM7.14275 3.85723C7.14275 4.25172 6.82296 4.57152 6.42847 4.57152C6.03398 4.57152 5.71418 4.25172 5.71418 3.85723C5.71418 3.46274 6.03398 3.14295 6.42847 3.14295C6.82296 3.14295 7.14275 3.46274 7.14275 3.85723ZM9.28562 4.57152C9.68011 4.57152 9.9999 4.25172 9.9999 3.85723C9.9999 3.46274 9.68011 3.14295 9.28562 3.14295C8.89113 3.14295 8.57133 3.46274 8.57133 3.85723C8.57133 4.25172 8.89113 4.57152 9.28562 4.57152ZM11.4285 5.28576C11.4285 5.68025 11.1087 6.00005 10.7142 6.00005C10.3197 6.00005 9.9999 5.68025 9.9999 5.28576C9.9999 4.89128 10.3197 4.57148 10.7142 4.57148C11.1087 4.57148 11.4285 4.89128 11.4285 5.28576ZM7.85703 6.00005C8.25152 6.00005 8.57132 5.68025 8.57132 5.28576C8.57132 4.89128 8.25152 4.57148 7.85703 4.57148C7.46254 4.57148 7.14274 4.89128 7.14274 5.28576C7.14274 5.68025 7.46254 6.00005 7.85703 6.00005ZM5.71419 5.28576C5.71419 5.68025 5.39439 6.00005 4.99991 6.00005C4.60542 6.00005 4.28562 5.68025 4.28562 5.28576C4.28562 4.89128 4.60542 4.57148 4.99991 4.57148C5.39439 4.57148 5.71419 4.89128 5.71419 5.28576ZM2.14275 6.00005C2.53724 6.00005 2.85704 5.68025 2.85704 5.28576C2.85704 4.89128 2.53724 4.57148 2.14275 4.57148C1.74826 4.57148 1.42847 4.89128 1.42847 5.28576C1.42847 5.68025 1.74826 6.00005 2.14275 6.00005ZM4.2856 6.71436C4.2856 7.10884 3.9658 7.42864 3.57131 7.42864C3.17683 7.42864 2.85703 7.10884 2.85703 6.71436C2.85703 6.31987 3.17683 6.00007 3.57131 6.00007C3.9658 6.00007 4.2856 6.31987 4.2856 6.71436ZM6.42847 7.42864C6.82296 7.42864 7.14275 7.10884 7.14275 6.71436C7.14275 6.31987 6.82296 6.00007 6.42847 6.00007C6.03398 6.00007 5.71418 6.31987 5.71418 6.71436C5.71418 7.10884 6.03398 7.42864 6.42847 7.42864ZM9.9999 6.71436C9.9999 7.10884 9.68011 7.42864 9.28562 7.42864C8.89113 7.42864 8.57133 7.10884 8.57133 6.71436C8.57133 6.31987 8.89113 6.00007 9.28562 6.00007C9.68011 6.00007 9.9999 6.31987 9.9999 6.71436ZM10.7142 8.85723C11.1087 8.85723 11.4285 8.53744 11.4285 8.14295C11.4285 7.74846 11.1087 7.42866 10.7142 7.42866C10.3197 7.42866 9.9999 7.74846 9.9999 8.14295C9.9999 8.53744 10.3197 8.85723 10.7142 8.85723ZM8.57132 8.14295C8.57132 8.53744 8.25152 8.85723 7.85703 8.85723C7.46254 8.85723 7.14274 8.53744 7.14274 8.14295C7.14274 7.74846 7.46254 7.42866 7.85703 7.42866C8.25152 7.42866 8.57132 7.74846 8.57132 8.14295ZM4.99991 8.85723C5.39439 8.85723 5.71419 8.53744 5.71419 8.14295C5.71419 7.74846 5.39439 7.42866 4.99991 7.42866C4.60542 7.42866 4.28562 7.74846 4.28562 8.14295C4.28562 8.53744 4.60542 8.85723 4.99991 8.85723ZM2.85704 8.14295C2.85704 8.53744 2.53724 8.85723 2.14275 8.85723C1.74826 8.85723 1.42847 8.53744 1.42847 8.14295C1.42847 7.74846 1.74826 7.42866 2.14275 7.42866C2.53724 7.42866 2.85704 7.74846 2.85704 8.14295Z" fill="url(#paint0_linear)"/>
</g>
</g>
<defs>
<filter id="filter0_d" x="1.42847" y="1.71436" width="10" height="9.14288" filterUnits="userSpaceOnUse" color-interpolation-filters="sRGB">
<feFlood flood-opacity="0" result="BackgroundImageFix"/>
<feColorMatrix in="SourceAlpha" type="matrix" values="0 0 0 0 0 0 0 0 0 0 0 0 0 0 0 0 0 0 127 0" result="hardAlpha"/>
<feOffset dy="2"/>
<feColorMatrix type="matrix" values="0 0 0 0 0 0 0 0 0 0 0 0 0 0 0 0 0 0 0.06 0"/>
<feBlend mode="normal" in2="BackgroundImageFix" result="effect1_dropShadow"/>
<feBlend mode="normal" in="SourceGraphic" in2="effect1_dropShadow" result="shape"/>
</filter>
<linearGradient id="paint0_linear" x1="1.42847" y1="1.71436" x2="1.42847" y2="8.85721" gradientUnits="userSpaceOnUse">
<stop stop-color="white"/>
<stop offset="1" stop-color="#F0F0F0"/>
</linearGradient>
</defs>
</svg>
