<svg width="170" height="140" viewBox="0 0 170 140" fill="none" xmlns="http://www.w3.org/2000/svg">
<path fill-rule="evenodd" clip-rule="evenodd" d="M67.7675 74.0649C68.9677 74.3501 70.1393 74.6924 71.3109 75.0632L67.6531 73.8367L67.7675 74.0649ZM60.8234 63.6536C62.5094 65.6788 64.024 67.8466 65.3956 70.1286C66.0529 71.1269 66.6816 72.1538 67.2817 73.1806H82.3985C82.8557 73.1236 83.313 73.0951 83.7702 73.0665C86.0849 72.5531 88.3995 72.1823 90.7428 72.0111C91.4 71.9256 92.0573 71.84 92.7146 71.783C93.6576 71.5548 94.6006 71.3836 95.5436 71.2125C96.5438 70.8702 97.5439 70.5849 98.5727 70.2997C98.887 70.1571 99.2299 70.0145 99.5729 69.9004C100.173 69.4725 100.802 69.0732 101.43 68.6738C101.973 68.2745 102.516 67.8751 103.059 67.5043C104.174 65.8785 105.402 64.3667 106.688 62.9119C107.631 61.4287 108.66 60.0025 109.717 58.6333C110.289 57.7491 110.918 56.8648 111.546 56.0091C111.689 55.8094 111.804 55.6098 111.946 55.4386L112.461 54.6685C113.232 53.5275 114.032 52.415 114.861 51.3597L115.204 50.7892C116.033 49.3915 116.919 48.1079 117.862 46.7958L118.376 45.9686C118.662 45.5122 118.976 45.0558 119.262 44.5994C120.434 42.5172 121.719 40.5205 123.148 38.6664C123.92 37.4399 124.749 36.2704 125.606 35.1294C126.092 34.4733 126.606 33.8173 127.12 33.1612C126.978 32.933 126.863 32.7334 126.72 32.5052C120.719 22.9781 112.146 15.0769 101.688 9.88552C80.9697 -0.38318 56.2798 1.67056 37.5337 15.191C27.332 22.5788 19.7879 32.7049 15.6157 44.086C17.216 43.9434 18.8163 43.8578 20.4451 43.8578C36.8765 43.8008 51.5075 51.5878 60.8234 63.6536Z" fill="#FDF8EC"/>
<path fill-rule="evenodd" clip-rule="evenodd" d="M11.8149 63.3682C63.5666 68.3885 89.4281 70.9271 89.4281 70.9271C108.803 69.3583 124.891 55.41 129.178 36.4985C127.663 33.9883 126.406 32.0202 125.434 30.5654C119.919 31.1359 115.175 34.7014 113.118 39.8358C110.975 46.7672 105.374 52.1297 98.3439 53.9267C91.2856 55.7238 83.7986 53.7556 78.5692 48.7068C61.9949 34.73 41.1914 32.6477 16.1585 42.46C13.5295 49.1061 12.0436 56.1801 11.8149 63.3682Z" fill="#F9D8C1"/>
<path fill-rule="evenodd" clip-rule="evenodd" d="M11.7866 64.5664C46.564 84.0198 70.0822 92.4915 82.3415 90.0384C93.4005 88.4411 113.775 75.8619 143.438 52.301C137.865 48.3932 132.921 42.8595 128.692 35.6714C122.72 36.8979 118.405 40.7202 115.719 47.0525C112.318 55.296 105.374 61.5998 96.8296 64.167C88.2568 66.7342 78.998 65.308 71.6254 60.2877C53.1937 49.5341 30.3898 49.5912 12.0152 60.4589C11.8438 62.3985 11.7866 63.7677 11.7866 64.5664Z" fill="#F7C7A6"/>
<path fill-rule="evenodd" clip-rule="evenodd" d="M47.9644 61.2288C52.508 76.1469 57.3088 84.3619 62.3382 85.8452C90.7716 113.656 126.149 108.978 168.442 71.8113C167.928 68.9874 166.87 66.2491 165.356 63.796C162.327 59.0325 157.24 55.9233 151.611 55.3528C148.096 54.6968 145.209 53.5558 142.952 51.9585C131.779 51.1027 120.977 56.123 114.404 65.1366C106.489 76.0043 93.5435 82.1085 80.0841 81.3098C66.6532 80.5397 54.5369 72.9522 47.9644 61.2288Z" fill="#F97673"/>
<path fill-rule="evenodd" clip-rule="evenodd" d="M76.2549 85.8454C86.9424 106.582 98.4587 119.162 110.861 123.611C122.72 121.073 141.895 108.18 168.385 84.9041C169.271 80.1976 169.214 75.3485 168.213 70.642C158.526 68.303 148.61 72.3249 138.494 82.6507C121.634 99.5084 94.7437 100.878 76.2549 85.8454Z" fill="#EC7463"/>
<path fill-rule="evenodd" clip-rule="evenodd" d="M84.1704 95.9142C90.6572 117.165 97.8299 128.631 105.831 130.913C119.776 131.37 133.55 127.719 145.095 119.875C152.553 114.683 158.726 107.809 163.07 99.7935C166.327 93.889 168.328 87.3855 168.928 80.6538C160.126 81.1387 152.411 86.5583 145.781 96.9411C138.865 107.267 127.149 113.4 114.69 113.2C102.231 113 90.7144 106.497 84.1704 95.9142Z" fill="#E8543F"/>
<path fill-rule="evenodd" clip-rule="evenodd" d="M88.8283 122.156C92.1432 122.813 93.8006 123.126 93.8006 123.126C103.945 106.354 107.374 90.6943 104.088 76.147C103.431 73.808 102.031 73.6369 100.487 75.3769C90.2 87.4996 86.3136 103.074 88.8283 122.156Z" fill="#54565C"/>
<path d="M101.402 76.5751C101.459 76.2898 101.745 76.1187 102.03 76.2042C102.316 76.2613 102.488 76.5465 102.402 76.8318L92.8861 115.197C92.8289 115.482 92.5432 115.653 92.2574 115.568C91.9716 115.511 91.8002 115.225 91.8859 114.94L101.402 76.5751Z" fill="white"/>
<path fill-rule="evenodd" clip-rule="evenodd" d="M79.3696 121.615C79.5125 124.981 79.5697 126.664 79.5697 126.664C98.2586 132.654 114.318 132.368 127.721 125.779C129.835 124.61 129.692 123.212 127.635 122.1C113.461 114.912 97.3727 114.741 79.3696 121.615Z" fill="#4C4E54"/>
<path d="M126.692 123.269C126.977 123.269 127.206 123.497 127.206 123.811C127.206 124.096 126.977 124.325 126.663 124.325L87.0564 123.954C86.7706 123.954 86.542 123.726 86.542 123.412C86.542 123.127 86.7706 122.898 87.0849 122.898L126.692 123.269Z" fill="white"/>
<path fill-rule="evenodd" clip-rule="evenodd" d="M85.7134 121.415C88.7139 123.012 90.2284 123.839 90.2284 123.839C107.06 112.173 116.804 99.3942 119.405 85.5315C119.719 83.2781 118.405 82.679 116.147 83.7344C101.116 91.2078 90.9428 103.758 85.7134 121.415Z" fill="#4C4E54"/>
<path d="M116.576 85.0182C116.747 84.79 117.119 84.733 117.347 84.8756C117.604 85.0182 117.662 85.332 117.462 85.5602L92.5144 116.537C92.343 116.766 91.9715 116.823 91.7429 116.68C91.4857 116.537 91.4286 116.224 91.6286 115.995L116.576 85.0182Z" fill="white"/>
<path fill-rule="evenodd" clip-rule="evenodd" d="M87.771 120.845C89.4856 123.754 90.3429 125.209 90.3429 125.209C109.66 121.643 123.663 113.828 132.35 101.705C133.665 99.6797 132.864 98.5103 130.521 98.5103C114.661 98.8525 100.402 106.297 87.771 120.845Z" fill="#54565C"/>
<path d="M130.235 99.965C130.493 99.8223 130.807 99.9364 130.95 100.193C131.093 100.45 130.978 100.764 130.721 100.906L95.658 119.276C95.4008 119.418 95.0865 119.304 94.9436 119.048C94.8007 118.791 94.915 118.477 95.1722 118.335L130.235 99.965Z" fill="white"/>
<path fill-rule="evenodd" clip-rule="evenodd" d="M42.5344 120.074C56.794 96.8842 66.6242 81.966 63.2236 68.2174C62.9093 65.2794 56.1653 63.4824 50.9073 61.0863C50.9073 61.0863 44.0204 60.3162 30.2466 58.7759C22.5024 60.5444 16.3014 62.9689 16.3014 62.9689C10.3575 113.571 19.902 134.251 42.5344 120.074Z" fill="#54565C"/>
<path fill-rule="evenodd" clip-rule="evenodd" d="M27.0465 122.699C11.8439 112.287 9.72925 97.3977 20.7597 78.0869C18.1592 82.7078 18.8737 88.4697 22.4743 92.3489C26.1035 96.2282 31.8187 97.3122 36.6195 95.0302C41.4203 92.7483 44.1922 87.6425 43.4778 82.394C42.592 74.664 46.164 70.1857 53.0795 69.7578C48.9645 114.455 40.3059 132.083 27.0465 122.699Z" fill="#31333B"/>
<path fill-rule="evenodd" clip-rule="evenodd" d="M37.7052 132.055C43.4205 124.895 45.2494 114.084 43.1919 99.651C43.9348 105.099 41.5344 110.462 37.248 112.915C32.9616 115.368 27.7892 114.37 24.4744 110.433C21.131 106.497 20.388 100.507 22.6455 95.6577C25.8175 88.441 24.2172 82.7933 18.5305 79.8838C14.9013 95.3439 12.7295 107.895 12.0151 117.536L14.1869 118.106C14.9585 118.306 15.7015 118.705 16.3587 119.247L16.6731 119.532C17.2732 119.761 17.8161 120.131 18.3305 120.588L19.5879 121.757L20.588 122.613C20.6452 122.67 20.6738 122.699 20.7309 122.756C21.4739 122.984 22.074 123.326 22.7027 123.84L23.5314 124.553L24.4172 125.152L26.3319 126.264C26.8177 126.549 27.2177 126.892 27.6464 127.291L28.275 127.576C28.8466 127.833 29.3609 128.232 29.8753 128.575L30.7326 128.831C31.4184 129.031 32.0471 129.373 32.5901 129.801L32.8187 129.972C33.2187 130.143 33.6474 130.343 34.0189 130.543L34.9619 131.085C35.9621 131.113 36.9051 131.484 37.7052 132.055Z" fill="#41434B"/>
<path fill-rule="evenodd" clip-rule="evenodd" d="M32.6475 55.1248C35.5337 61.9991 40.6488 63.2542 47.9643 61.2289C47.9072 60.1165 48.2215 58.9185 48.9074 57.6634C48.9074 57.6634 45.4211 53.6415 38.4484 45.5977C34.6764 40.5204 34.8764 40.2066 35.4479 44.742C35.4479 44.742 34.4192 51.1884 32.6475 55.1248Z" fill="#FCD8B0"/>
<path fill-rule="evenodd" clip-rule="evenodd" d="M33.6187 56.1519C40.8199 61.7997 45.0492 63.1974 46.3351 60.3165C43.2774 60.0312 40.7056 57.9489 39.7626 55.068C37.5622 51.7307 36.9621 47.1098 36.1619 47.4521C35.6476 50.0478 34.1902 55.0395 33.6187 56.1519Z" fill="#FBC080"/>
<path fill-rule="evenodd" clip-rule="evenodd" d="M50.9074 61.1152C51.0217 60.7158 51.0217 60.1739 50.736 59.4322C50.5645 58.9473 50.193 58.3198 49.6215 57.5497C49.3072 57.1218 48.8785 57.1218 48.7071 57.5211C47.7069 59.7175 45.6494 61.2007 43.249 61.4575C44.7636 65.8217 45.5065 68.018 45.5065 68.018C45.7352 68.7596 46.4781 68.7026 47.2497 67.8754C49.1643 65.5935 50.3931 63.3686 50.9074 61.1152Z" fill="#E2E2E4"/>
<path fill-rule="evenodd" clip-rule="evenodd" d="M30.4467 41.7469C32.6757 42.9164 32.8185 43.7436 33.6758 43.9718C34.9046 45.2553 35.8762 45.1413 36.3334 43.658C39.7626 50.0474 42.9346 51.4451 46.1923 47.8225C50.9645 47.3947 53.3649 47.1665 53.3649 47.1665C53.765 47.0524 53.1363 47.5943 53.1077 47.5658C53.1649 46.6816 53.6221 48.3074 53.9079 47.4517C54.5651 45.4835 55.2224 40.72 54.7937 39.3794C34.5903 31.1359 26.4746 31.906 30.4467 41.7469Z" fill="#FCD8B0"/>
<path fill-rule="evenodd" clip-rule="evenodd" d="M44.1922 37.6395C38.6198 33.5605 36.1908 33.9598 36.8481 38.8945C37.3624 40.2922 37.2195 41.8325 36.4766 43.0876C37.0195 47.6514 39.5628 49.4485 44.1064 48.4786C44.878 46.3678 44.135 44.6564 41.9346 43.3443C40.563 42.5741 39.9629 40.9483 40.5344 39.522C41.1059 38.0673 42.649 37.2686 44.1922 37.6395Z" fill="#FBC080"/>
<path fill-rule="evenodd" clip-rule="evenodd" d="M32.9333 31.6778L33.0761 31.8775C33.3333 32.3054 33.6191 32.7332 33.9334 33.1326C34.3335 33.8171 34.7907 34.4447 35.3051 35.0152C35.1622 36.1561 35.1908 37.3256 35.3908 38.4951C33.3905 35.7853 30.3614 38.98 33.5905 43.658C34.4478 44.9416 33.3619 47.0238 32.3332 45.8543C28.2753 40.8341 27.3895 35.0152 29.7899 30.708C30.7615 31.1929 31.8188 31.5067 32.9333 31.6778Z" fill="#41434B"/>
<path fill-rule="evenodd" clip-rule="evenodd" d="M45.335 47.1095C46.5924 45.7118 48.4498 45.6547 51.7075 45.8829C53.5078 45.9685 54.1079 46.539 54.0793 47.8796C53.9079 55.1533 52.0218 58.1768 48.2212 58.1768C45.5636 58.1768 42.9917 57.4352 40.8771 56.1231C40.3913 55.353 39.8484 54.6398 39.2197 53.9838C39.0768 53.4418 38.9339 52.9284 38.7339 52.4435C39.9341 51.8445 41.0486 51.0743 42.0202 50.1045L42.1059 50.0189C42.706 49.4485 43.2204 48.7924 43.7062 48.1078C44.2777 47.9367 44.8778 47.5944 45.335 47.1095Z" fill="#41434B"/>
<path fill-rule="evenodd" clip-rule="evenodd" d="M33.7614 38.8661C34.3615 38.6949 35.1045 39.4651 35.4474 40.5775C35.7903 41.69 35.5903 42.7454 34.9902 42.9165C34.3901 43.0877 33.6471 42.3175 33.3042 41.2051C32.9613 40.0926 33.1899 39.0372 33.7614 38.8661Z" fill="#A34242"/>
<path fill-rule="evenodd" clip-rule="evenodd" d="M52.2218 39.3794C52.279 40.4633 52.6219 41.4331 53.222 42.2889C54.6222 44.3426 53.5363 46.2537 50.9073 45.4836C50.4787 45.0842 50.0214 44.9701 49.7357 45.3409C49.2499 45.4836 48.7069 45.3124 48.4212 44.9131C48.1068 44.5137 48.1068 43.9718 48.364 43.5439C48.6498 43.1161 49.1642 42.9164 49.65 43.0305L49.7357 42.6026C50.05 42.46 50.3072 42.2603 50.5644 42.0036C50.8502 41.7184 51.1645 41.2905 51.336 40.9197C51.3645 40.8341 51.3931 40.7486 51.4503 40.6915C51.5074 40.6059 51.536 40.4918 51.5931 40.4063C51.6217 40.3492 51.6503 40.2922 51.6789 40.2351C51.8789 39.9784 52.0789 39.6932 52.2218 39.3794Z" fill="#A34242"/>
<path fill-rule="evenodd" clip-rule="evenodd" d="M47.1927 38.4097C47.5928 38.4097 47.9357 38.752 47.9357 39.1513C47.9357 39.5506 47.5928 39.8929 47.1927 39.8929C46.7926 39.8929 46.4497 39.5506 46.4497 39.1513C46.4497 38.752 46.7926 38.4097 47.1927 38.4097Z" fill="black"/>
<path fill-rule="evenodd" clip-rule="evenodd" d="M54.2796 38.6094C54.6796 38.6094 54.994 38.9231 54.994 39.3225C54.994 39.7218 54.6796 40.0356 54.2796 40.0356C53.8795 40.0356 53.5651 39.7218 53.5651 39.3225C53.5366 38.9517 53.8795 38.6094 54.2796 38.6094Z" fill="black"/>
<path fill-rule="evenodd" clip-rule="evenodd" d="M30.6179 29.4814C36.0474 31.4211 38.8479 34.3876 38.7336 36.4984C38.5336 39.9783 36.5618 41.4616 36.1617 40.0924C35.4473 38.0672 34.3328 37.3541 33.447 37.5823C32.7611 35.1292 31.3609 32.9899 29.4463 31.3926C29.7606 30.708 30.1607 30.0805 30.6179 29.4814Z" fill="#31333B"/>
<path fill-rule="evenodd" clip-rule="evenodd" d="M30.4465 30.4513C44.0773 36.9548 49.1639 32.391 43.5058 17.2446C33.1326 18.7279 25.417 25.6878 30.4465 30.4513Z" fill="#73747A"/>
<path fill-rule="evenodd" clip-rule="evenodd" d="M35.2191 25.0034C37.5338 31.2217 36.4765 33.1043 32.1043 30.6227C30.9898 30.0807 30.4183 28.8542 30.7326 27.6562C31.047 26.4867 32.1615 25.6595 33.3902 25.745C34.2475 25.7736 34.8762 25.5169 35.2191 25.0034Z" fill="#B7B8BA"/>
<path fill-rule="evenodd" clip-rule="evenodd" d="M35.7335 31.6781C46.3639 37.2403 52.765 36.0993 55.0225 29.1109C57.1371 21.6376 55.4511 17.9294 50.1931 17.2163C38.3054 15.9042 32.5329 21.6376 35.7335 31.6781Z" fill="white"/>
<path fill-rule="evenodd" clip-rule="evenodd" d="M36.8765 31.9346C45.2207 36.4129 50.5074 35.6998 53.1078 31.3071C49.1928 25.0603 40.1342 30.7081 38.1338 24.6895C37.8766 23.9193 37.7623 22.0082 38.5625 20.3823C35.9049 22.6643 35.2476 27.057 36.8765 31.9346Z" fill="#B7B8BA"/>
<path fill-rule="evenodd" clip-rule="evenodd" d="M41.306 56.3801C37.0195 53.9555 34.3905 49.2776 36.1908 43.6298C36.5623 42.4888 37.3053 42.4603 37.6768 43.7154C38.9342 47.9369 42.1061 48.9353 44.2779 47.8799C43.9922 50.1618 39.2771 50.6182 41.306 56.3801Z" fill="#31333B"/>
<path fill-rule="evenodd" clip-rule="evenodd" d="M53.165 47.8224C53.9366 47.7654 53.8794 48.0792 53.6222 48.9064C52.7078 51.5306 49.0501 51.4735 47.164 48.5641C46.9069 48.1933 47.164 47.8224 47.6213 47.8224C50.1645 47.908 52.022 47.908 53.165 47.8224Z" fill="#FCD8B0"/>
<path fill-rule="evenodd" clip-rule="evenodd" d="M49.9928 41.4905C50.2786 39.066 50.9644 38.2388 52.0789 39.066C52.0789 39.066 52.0503 39.6079 51.9932 40.6633C51.4216 41.6046 50.5929 42.4033 49.6499 42.9738C49.7642 42.4318 49.8785 41.9469 49.9928 41.4905Z" fill="#8D1515"/>
<path d="M56.8513 36.4984C56.3655 35.9564 55.7082 35.6141 54.9652 35.6141C54.2223 35.6141 53.565 35.9564 53.0792 36.4984C52.5934 37.0404 52.3076 37.782 52.3076 38.6092C52.3076 39.4364 52.5934 40.178 53.0792 40.72C53.565 41.2619 54.2223 41.6042 54.9652 41.6042C55.7082 41.6042 56.3655 41.2619 56.8513 40.72C57.3371 40.178 57.6228 39.4364 57.6228 38.6092C57.6514 37.782 57.3371 37.0404 56.8513 36.4984ZM48.9642 36.9833C48.4213 36.4413 47.6497 36.0991 46.821 36.0991C45.9923 36.0991 45.2207 36.4413 44.6778 36.9833C44.1348 37.5253 43.7919 38.2669 43.7919 39.0941C43.7919 39.9213 44.1348 40.6629 44.6778 41.2049C45.2207 41.7468 45.9923 42.0891 46.821 42.0891C47.6497 42.0891 48.4213 41.7468 48.9642 41.2049C49.5072 40.6629 49.8501 39.9213 49.8501 39.0941C49.8501 38.2954 49.5072 37.5253 48.9642 36.9833ZM42.8775 39.6646L36.1906 39.3793C35.9334 39.3793 35.7334 39.1511 35.7334 38.8944C35.7334 38.6377 35.962 38.438 36.2192 38.438L42.8489 38.7233C42.9346 37.782 43.3633 36.9548 43.9919 36.3273C44.7064 35.6141 45.7065 35.1863 46.7924 35.1863C47.8783 35.1863 48.8785 35.6141 49.5929 36.3273C50.3073 37.0404 50.7645 38.0102 50.7645 39.0941C50.7645 40.178 50.3073 41.1478 49.5929 41.8609C48.8785 42.574 47.8783 43.0019 46.7924 43.0019C45.7065 43.0019 44.7064 42.574 43.9919 41.8609C43.3918 41.2905 42.9918 40.5203 42.8775 39.6646ZM54.9652 34.6729C55.9368 34.6729 56.8227 35.1007 57.4514 35.8138C58.0801 36.5269 58.4801 37.4967 58.4801 38.5807C58.4801 39.6646 58.0801 40.6344 57.4514 41.3475C56.8227 42.0606 55.9368 42.4885 54.9652 42.4885C53.9936 42.4885 53.1078 42.0606 52.4791 41.3475C51.8504 40.6344 51.4504 39.6646 51.4504 38.5807C51.4504 37.4967 51.8504 36.5269 52.4791 35.8138C53.1364 35.1292 53.9936 34.6729 54.9652 34.6729Z" fill="black"/>
<path fill-rule="evenodd" clip-rule="evenodd" d="M32.6475 32.448C30.5042 30.9362 29.3898 29.6526 31.6759 30.3657C41.9919 33.5889 54.5655 32.4195 54.7369 29.8238C54.7655 29.3674 55.2799 29.3674 56.3086 29.8808C62.5954 33.1611 64.6243 35.8138 63.3384 37.2971C60.6808 40.2921 51.2792 40.2636 46.1641 38.6092C36.591 35.5001 32.6475 32.448 32.6475 32.448Z" fill="#73747A"/>
<path fill-rule="evenodd" clip-rule="evenodd" d="M35.4191 33.2752C33.7045 32.1913 32.7329 31.4211 34.5618 31.9631C37.9052 32.9044 41.8773 33.104 45.0207 33.2752C50.7931 33.4749 45.5922 37.183 54.308 38.7804C51.5361 38.8374 48.4499 38.4381 46.3067 37.7535C38.6196 35.386 35.4191 33.2752 35.4191 33.2752Z" fill="#484951"/>
<path fill-rule="evenodd" clip-rule="evenodd" d="M30.8183 60.2877C33.4187 63.9958 36.2763 66.8768 39.7341 68.5026C40.82 68.9876 41.5058 69.4154 41.9059 68.5597C41.9059 68.5597 42.8489 66.4489 44.7064 62.2273C44.8778 61.828 44.6492 61.4572 44.0491 61.229C38.2767 59.1182 34.4475 56.6936 32.6186 53.9553C32.2185 53.3848 31.6184 53.4989 31.2755 54.2691C30.5039 55.9235 30.161 57.4353 30.2467 58.7759C30.3039 59.4605 30.6468 60.031 30.8183 60.2877Z" fill="#E2E2E4"/>
<path fill-rule="evenodd" clip-rule="evenodd" d="M31.7898 60.031C34.1331 63.2543 36.1334 65.1084 38.791 66.3349C38.591 66.0782 38.5053 65.6503 38.591 65.0513C39.0196 62.0563 38.1052 59.8884 35.8477 58.5478C34.5046 57.8347 33.3901 56.7793 32.6471 55.4387C32.3614 55.0964 32.1042 55.2105 31.9041 55.838C31.2755 57.635 31.0468 59.0327 31.7898 60.031Z" fill="#B7B8BA"/>
<path fill-rule="evenodd" clip-rule="evenodd" d="M84.656 60.3164H58.5088C57.9086 60.3164 57.4229 60.8013 57.4229 61.4003V85.5032C57.4229 86.1023 57.9086 86.5872 58.5088 86.5872H84.656C85.2561 86.5872 85.742 86.1023 85.742 85.5032V61.4003C85.7134 60.8013 85.2276 60.3164 84.656 60.3164Z" fill="#FCD2A5"/>
<path fill-rule="evenodd" clip-rule="evenodd" d="M57.5944 73.4375V85.9596C57.5944 86.2734 58.4802 86.5586 59.5661 86.5586H88.7139C70.9109 84.9327 77.7121 79.3705 58.5088 75.7194C56.3084 75.2916 57.6801 74.1791 57.5944 73.4375Z" fill="#DD7131"/>
<path fill-rule="evenodd" clip-rule="evenodd" d="M47.9927 60.3164H58.8802C59.166 60.3164 59.4232 60.5446 59.4232 60.8584V86.0452C59.4232 86.3304 59.1946 86.5872 58.8802 86.5872H47.9927C47.7069 86.5872 47.4497 86.359 47.4497 86.0452V60.8584C47.4497 60.5446 47.7069 60.3164 47.9927 60.3164Z" fill="#D95F18"/>
<path fill-rule="evenodd" clip-rule="evenodd" d="M73.4257 60.2305H69.7393C69.6536 60.2305 69.5679 60.316 69.5679 60.4016V66.6484C69.5679 66.734 69.6536 66.8195 69.7393 66.8195H73.4257C73.5114 66.8195 73.5971 66.734 73.5971 66.6484V60.4016C73.5685 60.2875 73.5114 60.2305 73.4257 60.2305Z" fill="#FEEFDE"/>
<path fill-rule="evenodd" clip-rule="evenodd" d="M59.4232 73.4375V86.1593C59.4232 86.3875 59.1946 86.5586 58.8803 86.5586H48.5356C48.9357 80.3689 57.4229 82.3656 59.4232 73.4375Z" fill="#8C1313"/>
<path fill-rule="evenodd" clip-rule="evenodd" d="M56.5654 79.7124H50.6501C50.3358 79.7124 50.0786 79.9691 50.0786 80.2829V83.2494C50.0786 83.5632 50.3358 83.8199 50.6501 83.8199H56.5654C56.8798 83.8199 57.137 83.5632 57.137 83.2494V80.2829C57.137 79.9691 56.8798 79.7124 56.5654 79.7124Z" fill="#FEEFDE"/>
<path fill-rule="evenodd" clip-rule="evenodd" d="M95.7437 85.8452H49.7645C48.7071 85.8452 47.8784 86.7009 47.8784 87.7278V130.115C47.8784 131.17 48.7357 131.997 49.7645 131.997H95.7437C96.801 131.997 97.6297 131.142 97.6297 130.115V87.7278C97.6583 86.7009 96.801 85.8452 95.7437 85.8452Z" fill="#FCD2A5"/>
<path fill-rule="evenodd" clip-rule="evenodd" d="M80.8842 117.621C82.3988 117.621 83.6561 118.848 83.6561 120.388C83.6561 121.928 82.4273 123.155 80.8842 123.155C79.3697 123.155 78.1123 121.928 78.1123 120.388C78.1123 118.848 79.3697 117.621 80.8842 117.621Z" fill="#FBC68C"/>
<path fill-rule="evenodd" clip-rule="evenodd" d="M48.0501 91.7783V130.2C48.0501 131.199 49.3932 131.997 51.022 131.997H95.1438C68.2249 127.063 78.4838 109.948 49.4217 98.7667C46.1069 97.5117 48.2215 94.1173 48.0501 91.7783Z" fill="#FBC68C"/>
<path fill-rule="evenodd" clip-rule="evenodd" d="M47.8785 106.411V130.885C47.8785 131.512 48.7357 132.026 49.7645 132.026H77.8836C60.7378 128.888 67.2818 117.992 48.7643 110.861C46.6211 110.062 47.9642 107.894 47.8785 106.411Z" fill="#DD7131"/>
<path fill-rule="evenodd" clip-rule="evenodd" d="M31.2755 85.8452H50.4216C50.936 85.8452 51.3647 86.2731 51.3647 86.7865V131.085C51.3647 131.598 50.936 132.026 50.4216 132.026H31.2755C30.7612 132.026 30.3325 131.598 30.3325 131.085V86.7865C30.3325 86.2731 30.7612 85.8452 31.2755 85.8452Z" fill="#D95F18"/>
<path fill-rule="evenodd" clip-rule="evenodd" d="M75.9974 85.6743H69.5392C69.3677 85.6743 69.2534 85.8169 69.2534 85.9596V108.465C69.2534 108.636 69.3963 108.75 69.5392 108.75H75.9974C76.1689 108.75 76.2832 108.608 76.2832 108.465V85.9596C76.2832 85.8169 76.1689 85.6743 75.9974 85.6743Z" fill="#FEEFDE"/>
<path fill-rule="evenodd" clip-rule="evenodd" d="M43.592 110.718C44.1349 110.718 44.5921 111.175 44.5921 111.717C44.5921 112.259 44.1349 112.715 43.592 112.715C43.049 112.715 42.5918 112.259 42.5918 111.717C42.5918 111.146 43.0204 110.718 43.592 110.718Z" fill="#8C1313"/>
<path fill-rule="evenodd" clip-rule="evenodd" d="M51.3933 101.619V131.085C51.3933 131.598 50.9646 132.026 50.4503 132.026H32.2472C32.3329 130.229 32.6472 128.717 33.133 127.433C32.8473 127.405 32.5329 127.348 32.2472 127.234C31.1041 126.777 30.3325 125.665 30.3611 124.438C30.3611 124.438 30.3611 123.126 30.3611 120.502C31.8471 123.754 34.3046 124.809 35.9906 123.126C40.82 118.22 48.9071 116.166 51.3933 101.619Z" fill="#8C1313"/>
<path fill-rule="evenodd" clip-rule="evenodd" d="M44.7349 92.292H37.5623C37.1908 92.292 36.8765 92.6058 36.8765 92.9766V96.5706C36.8765 96.9414 37.1908 97.2552 37.5623 97.2552H44.7349C45.1064 97.2552 45.4208 96.9414 45.4208 96.5706V92.9766C45.4208 92.6058 45.1064 92.292 44.7349 92.292Z" fill="#FEEFDE"/>
<path fill-rule="evenodd" clip-rule="evenodd" d="M81.8272 112.344C82.5988 112.344 83.1989 112.972 83.1989 113.713C83.1989 114.484 82.5702 115.083 81.8272 115.083C81.0842 115.083 80.4555 114.455 80.4555 113.713C80.427 112.972 81.0556 112.344 81.8272 112.344Z" fill="#FBC68C"/>
<path fill-rule="evenodd" clip-rule="evenodd" d="M91.6859 123.412C92.2003 123.412 92.6004 123.811 92.6004 124.324C92.6004 124.838 92.2003 125.237 91.6859 125.237C91.1715 125.237 90.7715 124.838 90.7715 124.324C90.7715 123.811 91.2001 123.412 91.6859 123.412Z" fill="#FBC68C"/>
<path fill-rule="evenodd" clip-rule="evenodd" d="M74.1685 73.9507C74.9401 73.9507 75.5402 74.5782 75.5402 75.3198C75.5402 76.09 74.9115 76.689 74.1685 76.689C73.397 76.689 72.7969 76.0615 72.7969 75.3198C72.7969 74.5497 73.397 73.9507 74.1685 73.9507Z" fill="#DD7131"/>
<path fill-rule="evenodd" clip-rule="evenodd" d="M42.906 126.777C40.6771 126.121 38.3624 125.75 36.0191 125.722C36.0191 125.722 30.4182 121.015 19.6735 110.889C18.0732 109.406 17.2731 106.81 17.816 104.357C17.816 104.357 18.4733 100.478 19.9021 93.5182C18.5876 90.3235 16.6158 88.2697 13.2724 87.2999C9.92898 86.3301 6.35694 86.9576 3.55647 88.9828C2.04192 97.8824 1.27036 102.332 1.27036 102.332C0.270193 109.064 1.81331 114.483 5.9283 117.193C22.5883 127.376 30.904 132.454 30.904 132.454C32.6185 135.135 35.6476 136.704 38.8482 136.618C42.0487 136.504 44.9349 134.764 46.5066 131.969C42.5631 131.398 40.1055 130.514 39.1911 129.373C40.277 129.116 41.42 129.116 42.5059 129.43C43.2203 129.487 43.849 129.002 43.9633 128.289C44.0491 127.605 43.5918 126.92 42.906 126.777Z" fill="#FCD8B0"/>
<path fill-rule="evenodd" clip-rule="evenodd" d="M5.27104 87.0146C12.0722 88.9828 15.5299 91.008 15.6442 93.0903C14.8155 96.9411 13.501 99.9076 11.6721 102.047C7.98578 106.383 7.70002 111.403 12.4151 114.683C15.6442 116.765 17.5017 119.275 17.9875 122.185C18.1589 122.984 18.4447 123.64 18.8448 124.153L6.95704 116.737C2.92778 114.027 1.47039 109.321 2.52771 102.646C2.69917 102.475 2.7849 102.247 2.84205 102.047C2.8992 101.904 2.92778 101.762 2.95636 101.619C3.01351 101.533 3.04209 101.448 3.07066 101.334C3.12781 101.191 3.18497 101.049 3.18497 100.906C3.24212 100.763 3.2707 100.621 3.29927 100.507C3.29927 100.478 3.32785 100.421 3.32785 100.392C3.35642 100.307 3.385 100.221 3.41358 100.164C3.44215 100.079 3.47073 99.9646 3.49931 99.879C3.49931 99.8505 3.52788 99.822 3.52788 99.822C3.61361 99.7364 3.67076 99.6223 3.69934 99.5368C3.75649 99.4512 3.81365 99.3656 3.8708 99.2515C3.89937 99.1659 3.95653 99.1089 4.01368 99.0233C4.04226 98.9948 4.04226 98.9663 4.07083 98.9378C4.12798 98.8522 4.18514 98.7381 4.24229 98.6525C4.27087 98.5955 4.29944 98.5384 4.32802 98.4814L4.41375 98.3387C4.75666 97.7683 4.64236 97.0552 4.15656 96.5988L4.18514 96.5702C4.38517 96.4276 4.52805 96.228 4.61378 96.0283C4.67093 95.9142 4.72809 95.7716 4.75666 95.6575C4.75666 95.6289 4.78524 95.6004 4.78524 95.5719C4.87097 95.4293 4.9567 95.2581 4.98527 95.1155C5.071 94.9158 5.09958 94.7732 5.09958 94.5736C5.24246 94.3739 5.32819 94.1172 5.32819 93.889C5.38534 93.6893 5.41392 93.5467 5.41392 93.347C5.44249 93.29 5.44249 93.2329 5.47107 93.1759C5.52822 93.0047 5.58538 92.8621 5.58538 92.6339V91.4359C5.72826 91.2077 5.81399 90.951 5.81399 90.6657V90.352L5.89971 90.0953C5.98544 89.8671 6.0426 89.6674 6.0426 89.4107V88.3553C6.0426 87.7848 5.69968 87.2999 5.24246 87.1002L5.27104 87.0146Z" fill="#FBC080"/>
<path fill-rule="evenodd" clip-rule="evenodd" d="M2.75609 101.334C2.41318 103.217 2.21315 104.757 2.18457 106.012C2.44176 103.416 3.58481 101.134 5.61372 99.1948C8.01412 96.7988 9.41435 93.5756 9.55724 90.1812C7.58548 86.958 6.04236 86.5871 4.89931 89.0402C4.01345 94.2601 3.29904 98.3676 2.75609 101.334Z" fill="#FAB264"/>
<path fill-rule="evenodd" clip-rule="evenodd" d="M10.929 90.8085C20.1592 95.8288 21.8452 94.8304 23.4454 89.6105C28.3891 73.4373 27.5604 64.6519 19.8734 62.8834C11.3862 60.9437 6.24249 68.5597 2.1275 85.0752C1.38452 88.0132 2.1275 89.1541 4.49933 89.0115C6.44252 88.983 8.58575 89.582 10.929 90.8085Z" fill="#85878B"/>
<path fill-rule="evenodd" clip-rule="evenodd" d="M11.8147 89.7245C13.6435 90.7228 15.1581 91.4359 16.3869 91.9494C18.5301 84.8754 11.2431 80.882 11.2431 74.8349C11.2431 71.2979 11.4432 68.1887 14.0436 64.7373C11.1288 66.2491 8.72842 69.6435 6.69951 74.9204C6.61378 77.1738 6.35659 79.4558 5.89937 81.7377L5.8708 81.9374C5.72791 82.6505 5.58503 83.3351 5.41357 84.0482C6.87097 85.5029 8.18547 87.0717 9.41426 88.7261C10.1858 88.9258 10.986 89.2966 11.8147 89.7245Z" fill="#5E6066"/>
<path fill-rule="evenodd" clip-rule="evenodd" d="M11.815 89.7244C12.0722 89.867 12.3008 89.9811 12.5294 90.1237C11.272 84.1051 4.64233 87.9844 8.70015 70.5562C6.81412 73.9505 5.21385 78.6 3.75646 84.5045C3.07063 87.1857 3.75646 88.2411 5.95683 88.127C7.69998 88.0415 9.67175 88.5834 11.815 89.7244Z" fill="#41434B"/>
<path fill-rule="evenodd" clip-rule="evenodd" d="M93.2575 114.94C93.8004 114.94 94.2577 115.396 94.2577 115.938C94.2577 116.48 93.8004 116.937 93.2575 116.937C92.7145 116.937 92.2573 116.48 92.2573 115.938C92.2573 115.396 92.7145 114.94 93.2575 114.94Z" fill="#FFFFCC"/>
<path fill-rule="evenodd" clip-rule="evenodd" d="M127.92 114.769C128.235 114.769 128.52 115.026 128.52 115.368C128.52 115.682 128.263 115.967 127.92 115.967C127.606 115.967 127.32 115.71 127.32 115.368C127.349 115.054 127.606 114.769 127.92 114.769Z" fill="#FFFFCC"/>
<path fill-rule="evenodd" clip-rule="evenodd" d="M104.345 124.866C104.831 124.866 105.231 125.266 105.231 125.75C105.231 126.235 104.831 126.635 104.345 126.635C103.86 126.635 103.459 126.235 103.459 125.75C103.459 125.266 103.86 124.866 104.345 124.866Z" fill="#FFFFCC"/>
<path fill-rule="evenodd" clip-rule="evenodd" d="M152.953 102.76C153.296 102.76 153.582 103.046 153.582 103.388C153.582 103.73 153.296 104.015 152.953 104.015C152.61 104.015 152.325 103.73 152.325 103.388C152.296 103.046 152.61 102.76 152.953 102.76Z" fill="#FFFFCC"/>
<path fill-rule="evenodd" clip-rule="evenodd" d="M38.7626 106.041C39.2198 106.041 39.6198 106.411 39.6198 106.896C39.6198 107.353 39.2484 107.752 38.7626 107.752C38.3053 107.752 37.9053 107.381 37.9053 106.896C37.9053 106.411 38.3053 106.041 38.7626 106.041Z" fill="#FFFFCC"/>
<path fill-rule="evenodd" clip-rule="evenodd" d="M55.7368 97.9111C56.6227 97.9111 57.3371 98.6242 57.3371 99.5085C57.3371 100.393 56.6227 101.106 55.7368 101.106C54.851 101.106 54.1365 100.393 54.1365 99.5085C54.108 98.6242 54.851 97.9111 55.7368 97.9111Z" fill="#FFFFCC"/>
<path fill-rule="evenodd" clip-rule="evenodd" d="M20.3023 116.937C20.6452 116.937 20.9596 117.222 20.9596 117.593C20.9596 117.935 20.6738 118.249 20.3023 118.249C19.9308 118.249 19.645 117.963 19.645 117.593C19.6736 117.222 19.9594 116.937 20.3023 116.937Z" fill="#FFFFCC"/>
<path fill-rule="evenodd" clip-rule="evenodd" d="M35.2477 76.3184C35.7907 76.3184 36.2479 76.7747 36.2479 77.3167C36.2479 77.8586 35.7907 78.315 35.2477 78.315C34.7048 78.315 34.2476 77.8586 34.2476 77.3167C34.2476 76.7747 34.7048 76.3184 35.2477 76.3184Z" fill="#FFFFCC"/>
<path fill-rule="evenodd" clip-rule="evenodd" d="M126.692 70.2427C127.235 70.2427 127.692 70.6991 127.692 71.241C127.692 71.783 127.235 72.2394 126.692 72.2394C126.149 72.2394 125.692 71.783 125.692 71.241C125.692 70.6705 126.149 70.2427 126.692 70.2427Z" fill="#FFFFCC"/>
<path fill-rule="evenodd" clip-rule="evenodd" d="M11.5577 95.9429C12.0149 95.9429 12.3864 96.3137 12.3864 96.7701C12.3864 97.2265 12.0149 97.5973 11.5577 97.5973C11.1005 97.5973 10.729 97.2265 10.729 96.7701C10.729 96.3137 11.1005 95.9429 11.5577 95.9429Z" fill="#FFFFCC"/>
<path fill-rule="evenodd" clip-rule="evenodd" d="M63.1668 65.9072C63.5097 65.9072 63.7954 66.1925 63.7954 66.5348C63.7954 66.8771 63.5097 67.1623 63.1668 67.1623C62.8238 67.1623 62.5381 66.8771 62.5381 66.5348C62.5381 66.1925 62.8238 65.9072 63.1668 65.9072Z" fill="#FFFFCC"/>
<path fill-rule="evenodd" clip-rule="evenodd" d="M93.5147 34.6162C95.2293 34.6162 96.6295 36.0139 96.6295 37.7253C96.6295 39.4368 95.2293 40.8345 93.5147 40.8345C91.8001 40.8345 90.3999 39.4368 90.3999 37.7253C90.3999 36.0139 91.8001 34.6162 93.5147 34.6162Z" fill="white"/>
<path fill-rule="evenodd" clip-rule="evenodd" d="M66.4817 49.5054C66.8246 49.5054 67.1104 49.7906 67.1104 50.1329C67.1104 50.4752 66.8246 50.7604 66.4817 50.7604C66.1388 50.7604 65.853 50.4752 65.853 50.1329C65.8816 49.7621 66.1388 49.5054 66.4817 49.5054Z" fill="#FFFFCC"/>
</svg>
