<svg width="20" height="24" viewBox="0 0 20 24" fill="none" xmlns="http://www.w3.org/2000/svg">
<path d="M9.99993 0C8.00557 0 6.12355 0.5625 4.55053 1.52679L7.86512 4.66071C8.51118 4.39286 9.24151 4.23214 9.99993 4.23214C12.9774 4.23214 15.3932 6.53571 15.3932 9.375C15.3932 12.2143 12.9774 14.5179 9.99993 14.5179C7.02243 14.5179 4.60671 12.2143 4.60671 9.375C4.60671 8.41071 4.88761 7.5 5.36513 6.72321L2.13482 3.64286C0.786511 5.25 0 7.3125 0 9.53571C0 15.7768 7.75276 22.0179 9.60668 23.8393C9.8314 24.0536 10.1685 24.0536 10.3932 23.8393C12.2471 22.0179 19.9999 15.7768 19.9999 9.53571C20.028 4.28571 15.5336 0 9.99993 0Z" fill="#11C856"/>
</svg>
