<?xml version="1.0" encoding="utf-8"?>
<!-- Generator: Adobe Illustrator 25.1.0, SVG Export Plug-In . SVG Version: 6.00 Build 0)  -->
<svg version="1.1" id="Layer_1" xmlns="http://www.w3.org/2000/svg" xmlns:xlink="http://www.w3.org/1999/xlink" x="0px" y="0px"
	 viewBox="0 0 400 97.2" style="enable-background:new 0 0 400 97.2;" xml:space="preserve">
<style type="text/css">
	.st0{fill:#11C856;}
</style>
<g>
	<path class="st0" d="M55.2,86.6c-1.2-1.1-2.7-1.7-4.5-1.7H13V11.6c0-1.8-0.6-3.2-1.9-4.5C9.8,5.9,8.3,5.3,6.6,5.3
		c-1.9,0-3.5,0.6-4.7,1.8C0.6,8.4,0,9.9,0,11.6v79.2c0,1.7,0.6,3.2,1.8,4.5c1.2,1.2,2.7,1.8,4.5,1.8h44.4c1.8,0,3.4-0.6,4.5-1.7
		c1.2-1.1,1.8-2.6,1.8-4.3C57,89.2,56.4,87.7,55.2,86.6z"/>
	<path class="st0" d="M226.4,29.5c-1.2-1.2-2.6-1.8-4.3-1.8c-3.1,0-5.1,1.3-6,3.9l-15.4,43.6L188,43.1c-1-2.6-2.8-3.9-5.4-3.9
		c-2.8,0-4.7,1.3-5.8,3.9l-12.5,32.6l-15.6-44.2c-0.9-2.6-2.8-3.9-5.8-3.9c-1.8,0-3.3,0.6-4.5,1.8c-1.1,1.2-1.7,2.7-1.7,4.5
		c0,0.9,0.1,1.7,0.4,2.5l20.4,56.6c0.4,1.3,1.3,2.3,2.6,3.1c1.3,0.7,2.6,1,3.9,0.9c1.1-0.1,2.2-0.5,3.1-1.1c1-0.7,1.7-1.6,2.2-2.8
		l12.6-35.7l13.7,35.7c1.2,2.4,3,3.8,5.4,3.9c1.4,0.2,2.7-0.1,3.9-0.8c1.2-0.7,2.1-1.7,2.6-3.1l20.1-56.6c0.3-1,0.5-1.9,0.5-2.5
		C228.1,32.1,227.5,30.6,226.4,29.5z"/>
	<path class="st0" d="M297.9,86.2l-25.2-27.3l22.7-20.2c1.7-1.4,2.5-3,2.5-4.7c0-1.4-0.6-2.7-1.8-4c-1.2-1.3-2.6-1.9-4.1-1.9
		c-1.6,0-3.1,0.7-4.6,2l-32.2,29.5V6.4c0-1.8-0.6-3.2-1.8-4.5c-1.2-1.2-2.7-1.8-4.4-1.8c-1.8,0-3.4,0.6-4.5,1.8
		c-1.2,1.2-1.8,2.7-1.8,4.5v84.4c0,1.7,0.6,3.2,1.8,4.5c1.2,1.2,2.7,1.8,4.5,1.8c1.7,0,3.2-0.6,4.4-1.8c1.2-1.2,1.8-2.7,1.8-4.5
		V74.5l7.9-7.1l25.9,27.4c1.1,1.4,2.7,2.1,4.6,2.1c1.5,0,2.9-0.6,4.3-1.8c1.4-1.2,2-2.6,2-4.4C299.8,89.1,299.2,87.6,297.9,86.2z"/>
	<path class="st0" d="M370.1,62.8c1.2-1.1,1.9-2.4,2-4c-0.1-6.3-1.6-12-4.6-17c-3-5.1-6.9-9-11.8-11.9c-4.9-2.9-10.2-4.3-15.8-4.3
		c-5.7,0-11,1.5-16,4.5c-4.9,3-8.9,7.2-12,12.8c-3,5.6-4.5,12-4.5,19.3c0,6.7,1.5,12.8,4.4,18.1c2.9,5.3,7.1,9.5,12.5,12.5
		c5.4,3,11.6,4.5,18.7,4.5c4.4,0,8.7-0.9,12.9-2.6c4.2-1.8,7.6-3.9,10.1-6.4c1.8-1.5,2.6-3.1,2.6-5c0-1.4-0.5-2.6-1.5-3.7
		c-1-1-2.3-1.6-3.7-1.6c-1.2,0-2.5,0.4-3.8,1.2c-2,1.9-4.3,3.5-7,4.7c-2.6,1.2-6,1.8-10.2,1.8c-6.1,0-11.3-1.9-15.6-5.8
		c-4.2-3.8-6.7-9-7.3-15.3h46.2C367.4,64.4,368.8,63.9,370.1,62.8z M358.8,54H320c1.1-5.8,3.5-10,7.1-12.8c3.6-2.8,7.8-4.1,12.7-4.1
		c4.7,0,8.9,1.5,12.7,4.5c3.7,3,5.8,6.8,6.2,11.4V54z"/>
	<path class="st0" d="M398.2,1.9c-1.2-1.2-2.6-1.8-4.4-1.8c-1.8,0-3.2,0.6-4.5,1.8c-1.2,1.2-1.8,2.7-1.8,4.5v84.4
		c0,1.7,0.6,3.2,1.8,4.5c1.2,1.2,2.6,1.8,4.4,1.8c1.7,0,3.2-0.6,4.5-1.8s1.8-2.7,1.8-4.5V6.4C400,4.6,399.4,3.1,398.2,1.9z"/>
	<path class="st0" d="M92.6,7.5c-7.1,0-13.8,2.1-19.4,5.7L85,24.9c2.3-1,4.9-1.6,7.6-1.6c10.6,0,19.2,8.6,19.2,19.2
		c0,10.6-8.6,19.2-19.2,19.2c-10.6,0-19.2-8.6-19.2-19.2c0-3.6,1-7,2.7-9.9L64.6,21.1c-4.8,6-7.6,13.7-7.6,22
		c0,23.3,27.6,46.6,34.2,53.4c0.8,0.8,2,0.8,2.8,0c6.6-6.8,34.2-30.1,34.2-53.4C128.3,23.5,112.3,7.5,92.6,7.5z"/>
</g>
</svg>
